G04 EAGLE Gerber RS-274X export*
G75*
%MOMM*%
%FSLAX34Y34*%
%LPD*%
%INSilkscreen Bottom*%
%IPPOS*%
%AMOC8*
5,1,8,0,0,1.08239X$1,22.5*%
G01*
%ADD10C,0.254000*%
%ADD11C,0.076200*%
%ADD12C,0.152400*%
%ADD13C,0.177800*%

G36*
X195638Y207022D02*
X195638Y207022D01*
X195777Y207026D01*
X195797Y207032D01*
X195817Y207033D01*
X195949Y207076D01*
X196083Y207115D01*
X196100Y207125D01*
X196119Y207131D01*
X196237Y207205D01*
X196357Y207276D01*
X196378Y207295D01*
X196388Y207301D01*
X196402Y207316D01*
X196478Y207383D01*
X199018Y209923D01*
X199091Y210017D01*
X199169Y210106D01*
X199179Y210125D01*
X199190Y210138D01*
X199198Y210155D01*
X199212Y210174D01*
X199260Y210283D01*
X199314Y210389D01*
X199319Y210412D01*
X199325Y210426D01*
X199329Y210442D01*
X199339Y210466D01*
X199357Y210583D01*
X199384Y210699D01*
X199383Y210725D01*
X199385Y210738D01*
X199384Y210752D01*
X199389Y210780D01*
X199377Y210898D01*
X199374Y211017D01*
X199366Y211044D01*
X199365Y211055D01*
X199362Y211067D01*
X199359Y211096D01*
X199319Y211209D01*
X199285Y211323D01*
X199271Y211348D01*
X199267Y211358D01*
X199261Y211368D01*
X199251Y211396D01*
X199184Y211494D01*
X199124Y211597D01*
X199084Y211642D01*
X199073Y211659D01*
X199057Y211672D01*
X199018Y211718D01*
X196478Y214258D01*
X196398Y214319D01*
X196330Y214383D01*
X196297Y214402D01*
X196261Y214431D01*
X196242Y214440D01*
X196226Y214452D01*
X196124Y214497D01*
X196052Y214537D01*
X196020Y214545D01*
X195973Y214567D01*
X195953Y214571D01*
X195934Y214579D01*
X195814Y214598D01*
X195744Y214616D01*
X195703Y214619D01*
X195661Y214627D01*
X195640Y214625D01*
X195620Y214629D01*
X195590Y214626D01*
X195583Y214626D01*
X195580Y214626D01*
X195536Y214621D01*
X195481Y214616D01*
X195343Y214607D01*
X195324Y214601D01*
X195304Y214599D01*
X195272Y214587D01*
X195264Y214586D01*
X195218Y214568D01*
X195172Y214552D01*
X195041Y214509D01*
X195023Y214498D01*
X195004Y214491D01*
X194977Y214473D01*
X194969Y214469D01*
X194920Y214434D01*
X194889Y214413D01*
X194772Y214339D01*
X194758Y214324D01*
X194741Y214313D01*
X194720Y214289D01*
X194711Y214283D01*
X194663Y214223D01*
X194649Y214209D01*
X194554Y214107D01*
X194544Y214089D01*
X194531Y214074D01*
X194518Y214048D01*
X194509Y214038D01*
X194468Y213951D01*
X194468Y213950D01*
X194400Y213829D01*
X194395Y213809D01*
X194386Y213791D01*
X194380Y213765D01*
X194373Y213750D01*
X194353Y213645D01*
X194321Y213521D01*
X194319Y213493D01*
X194317Y213481D01*
X194317Y213460D01*
X194317Y213456D01*
X194313Y213438D01*
X194314Y213419D01*
X194311Y213360D01*
X194311Y208280D01*
X194328Y208142D01*
X194341Y208004D01*
X194348Y207985D01*
X194351Y207964D01*
X194402Y207835D01*
X194449Y207704D01*
X194460Y207688D01*
X194468Y207669D01*
X194549Y207556D01*
X194627Y207441D01*
X194643Y207428D01*
X194654Y207411D01*
X194762Y207323D01*
X194866Y207231D01*
X194884Y207222D01*
X194899Y207209D01*
X195025Y207149D01*
X195149Y207086D01*
X195169Y207082D01*
X195187Y207073D01*
X195323Y207047D01*
X195459Y207017D01*
X195480Y207017D01*
X195500Y207013D01*
X195638Y207022D01*
G37*
G36*
X325178Y133362D02*
X325178Y133362D01*
X325317Y133366D01*
X325337Y133372D01*
X325357Y133373D01*
X325489Y133416D01*
X325623Y133455D01*
X325640Y133465D01*
X325659Y133471D01*
X325777Y133545D01*
X325897Y133616D01*
X325918Y133635D01*
X325928Y133641D01*
X325942Y133656D01*
X326018Y133723D01*
X328558Y136263D01*
X328631Y136357D01*
X328709Y136446D01*
X328719Y136465D01*
X328730Y136478D01*
X328738Y136495D01*
X328752Y136514D01*
X328800Y136623D01*
X328854Y136729D01*
X328859Y136752D01*
X328865Y136766D01*
X328869Y136782D01*
X328879Y136806D01*
X328897Y136923D01*
X328924Y137039D01*
X328923Y137065D01*
X328925Y137078D01*
X328924Y137092D01*
X328929Y137120D01*
X328917Y137238D01*
X328914Y137357D01*
X328906Y137384D01*
X328905Y137395D01*
X328902Y137407D01*
X328899Y137436D01*
X328859Y137549D01*
X328825Y137663D01*
X328811Y137688D01*
X328807Y137698D01*
X328801Y137708D01*
X328791Y137736D01*
X328724Y137834D01*
X328664Y137937D01*
X328624Y137982D01*
X328613Y137999D01*
X328597Y138012D01*
X328558Y138058D01*
X326018Y140598D01*
X325938Y140659D01*
X325870Y140723D01*
X325837Y140742D01*
X325801Y140771D01*
X325782Y140780D01*
X325766Y140792D01*
X325664Y140837D01*
X325592Y140877D01*
X325560Y140885D01*
X325513Y140907D01*
X325493Y140911D01*
X325474Y140919D01*
X325354Y140938D01*
X325284Y140956D01*
X325243Y140959D01*
X325201Y140967D01*
X325180Y140965D01*
X325160Y140969D01*
X325130Y140966D01*
X325123Y140966D01*
X325120Y140966D01*
X325076Y140961D01*
X325021Y140956D01*
X324883Y140947D01*
X324864Y140941D01*
X324844Y140939D01*
X324812Y140927D01*
X324804Y140926D01*
X324758Y140908D01*
X324712Y140892D01*
X324581Y140849D01*
X324563Y140838D01*
X324544Y140831D01*
X324517Y140813D01*
X324509Y140809D01*
X324460Y140774D01*
X324429Y140753D01*
X324312Y140679D01*
X324298Y140664D01*
X324281Y140653D01*
X324260Y140629D01*
X324251Y140623D01*
X324203Y140563D01*
X324189Y140549D01*
X324094Y140447D01*
X324084Y140429D01*
X324071Y140414D01*
X324058Y140388D01*
X324049Y140378D01*
X324008Y140291D01*
X324008Y140290D01*
X323940Y140169D01*
X323935Y140149D01*
X323926Y140131D01*
X323920Y140105D01*
X323913Y140090D01*
X323893Y139985D01*
X323861Y139861D01*
X323859Y139833D01*
X323857Y139821D01*
X323857Y139800D01*
X323857Y139796D01*
X323853Y139778D01*
X323854Y139759D01*
X323851Y139700D01*
X323851Y134620D01*
X323868Y134482D01*
X323881Y134344D01*
X323888Y134325D01*
X323891Y134304D01*
X323942Y134175D01*
X323989Y134044D01*
X324000Y134028D01*
X324008Y134009D01*
X324089Y133896D01*
X324167Y133781D01*
X324183Y133768D01*
X324194Y133751D01*
X324302Y133663D01*
X324406Y133571D01*
X324424Y133562D01*
X324439Y133549D01*
X324565Y133489D01*
X324689Y133426D01*
X324709Y133422D01*
X324727Y133413D01*
X324863Y133387D01*
X324999Y133357D01*
X325020Y133357D01*
X325040Y133353D01*
X325178Y133362D01*
G37*
G36*
X195638Y59702D02*
X195638Y59702D01*
X195777Y59706D01*
X195797Y59712D01*
X195817Y59713D01*
X195949Y59756D01*
X196083Y59795D01*
X196100Y59805D01*
X196119Y59811D01*
X196237Y59885D01*
X196357Y59956D01*
X196378Y59975D01*
X196388Y59981D01*
X196402Y59996D01*
X196478Y60063D01*
X199018Y62603D01*
X199091Y62697D01*
X199169Y62786D01*
X199179Y62805D01*
X199190Y62818D01*
X199198Y62835D01*
X199212Y62854D01*
X199260Y62963D01*
X199314Y63069D01*
X199319Y63092D01*
X199325Y63106D01*
X199329Y63122D01*
X199339Y63146D01*
X199357Y63263D01*
X199384Y63379D01*
X199383Y63405D01*
X199385Y63418D01*
X199384Y63432D01*
X199389Y63460D01*
X199377Y63578D01*
X199374Y63697D01*
X199366Y63724D01*
X199365Y63735D01*
X199362Y63747D01*
X199359Y63776D01*
X199319Y63889D01*
X199285Y64003D01*
X199271Y64028D01*
X199267Y64038D01*
X199261Y64048D01*
X199251Y64076D01*
X199184Y64174D01*
X199124Y64277D01*
X199084Y64322D01*
X199073Y64339D01*
X199057Y64352D01*
X199018Y64398D01*
X196478Y66938D01*
X196398Y66999D01*
X196330Y67063D01*
X196297Y67082D01*
X196261Y67111D01*
X196242Y67120D01*
X196226Y67132D01*
X196124Y67177D01*
X196052Y67217D01*
X196020Y67225D01*
X195973Y67247D01*
X195953Y67251D01*
X195934Y67259D01*
X195814Y67278D01*
X195744Y67296D01*
X195703Y67299D01*
X195661Y67307D01*
X195640Y67305D01*
X195620Y67309D01*
X195590Y67306D01*
X195583Y67306D01*
X195580Y67306D01*
X195536Y67301D01*
X195481Y67296D01*
X195343Y67287D01*
X195324Y67281D01*
X195304Y67279D01*
X195272Y67267D01*
X195264Y67266D01*
X195218Y67248D01*
X195172Y67232D01*
X195041Y67189D01*
X195023Y67178D01*
X195004Y67171D01*
X194977Y67153D01*
X194969Y67149D01*
X194920Y67114D01*
X194889Y67093D01*
X194772Y67019D01*
X194758Y67004D01*
X194741Y66993D01*
X194720Y66969D01*
X194711Y66963D01*
X194663Y66903D01*
X194649Y66889D01*
X194554Y66787D01*
X194544Y66769D01*
X194531Y66754D01*
X194518Y66728D01*
X194509Y66718D01*
X194468Y66631D01*
X194468Y66630D01*
X194400Y66509D01*
X194395Y66489D01*
X194386Y66471D01*
X194380Y66445D01*
X194373Y66430D01*
X194353Y66325D01*
X194321Y66201D01*
X194319Y66173D01*
X194317Y66161D01*
X194317Y66140D01*
X194317Y66136D01*
X194313Y66118D01*
X194314Y66099D01*
X194311Y66040D01*
X194311Y60960D01*
X194328Y60822D01*
X194341Y60684D01*
X194348Y60665D01*
X194351Y60644D01*
X194402Y60515D01*
X194449Y60384D01*
X194460Y60368D01*
X194468Y60349D01*
X194549Y60236D01*
X194627Y60121D01*
X194643Y60108D01*
X194654Y60091D01*
X194762Y60003D01*
X194866Y59911D01*
X194884Y59902D01*
X194899Y59889D01*
X195025Y59829D01*
X195149Y59766D01*
X195169Y59762D01*
X195187Y59753D01*
X195323Y59727D01*
X195459Y59697D01*
X195480Y59697D01*
X195500Y59693D01*
X195638Y59702D01*
G37*
D10*
X83820Y226060D02*
X83820Y200660D01*
X83820Y175260D01*
X109220Y175260D02*
X109220Y200660D01*
X109220Y226060D01*
X83820Y226060D01*
X83820Y200660D02*
X109220Y200660D01*
X109220Y175260D02*
X83820Y175260D01*
D11*
X69723Y193290D02*
X69723Y194927D01*
X69723Y193290D02*
X69725Y193212D01*
X69730Y193134D01*
X69740Y193057D01*
X69753Y192980D01*
X69769Y192904D01*
X69789Y192829D01*
X69813Y192755D01*
X69840Y192682D01*
X69871Y192610D01*
X69905Y192540D01*
X69942Y192472D01*
X69983Y192405D01*
X70027Y192340D01*
X70073Y192278D01*
X70123Y192218D01*
X70175Y192160D01*
X70230Y192105D01*
X70288Y192053D01*
X70348Y192003D01*
X70410Y191957D01*
X70475Y191913D01*
X70542Y191872D01*
X70610Y191835D01*
X70680Y191801D01*
X70752Y191770D01*
X70825Y191743D01*
X70899Y191719D01*
X70974Y191699D01*
X71050Y191683D01*
X71127Y191670D01*
X71204Y191660D01*
X71282Y191655D01*
X71360Y191653D01*
X75452Y191653D01*
X75530Y191655D01*
X75608Y191660D01*
X75685Y191670D01*
X75762Y191683D01*
X75838Y191699D01*
X75913Y191719D01*
X75987Y191743D01*
X76060Y191770D01*
X76132Y191801D01*
X76202Y191835D01*
X76271Y191872D01*
X76337Y191913D01*
X76402Y191957D01*
X76464Y192003D01*
X76524Y192053D01*
X76582Y192105D01*
X76637Y192160D01*
X76689Y192218D01*
X76739Y192278D01*
X76785Y192340D01*
X76829Y192405D01*
X76870Y192472D01*
X76907Y192540D01*
X76941Y192610D01*
X76972Y192682D01*
X76999Y192755D01*
X77023Y192829D01*
X77043Y192904D01*
X77059Y192980D01*
X77072Y193057D01*
X77082Y193134D01*
X77087Y193212D01*
X77089Y193290D01*
X77089Y194927D01*
X77089Y198016D02*
X69723Y198016D01*
X73815Y198016D02*
X73815Y202108D01*
X77089Y202108D02*
X69723Y202108D01*
X75452Y205575D02*
X77089Y207621D01*
X69723Y207621D01*
X69723Y205575D02*
X69723Y209667D01*
X95702Y190415D02*
X95702Y185505D01*
X98157Y187960D02*
X93246Y187960D01*
X95702Y210291D02*
X95702Y216429D01*
D10*
X83820Y152400D02*
X83820Y127000D01*
X83820Y101600D01*
X109220Y101600D02*
X109220Y127000D01*
X109220Y152400D01*
X83820Y152400D01*
X83820Y127000D02*
X109220Y127000D01*
X109220Y101600D02*
X83820Y101600D01*
D11*
X69723Y119630D02*
X69723Y121267D01*
X69723Y119630D02*
X69725Y119552D01*
X69730Y119474D01*
X69740Y119397D01*
X69753Y119320D01*
X69769Y119244D01*
X69789Y119169D01*
X69813Y119095D01*
X69840Y119022D01*
X69871Y118950D01*
X69905Y118880D01*
X69942Y118812D01*
X69983Y118745D01*
X70027Y118680D01*
X70073Y118618D01*
X70123Y118558D01*
X70175Y118500D01*
X70230Y118445D01*
X70288Y118393D01*
X70348Y118343D01*
X70410Y118297D01*
X70475Y118253D01*
X70542Y118212D01*
X70610Y118175D01*
X70680Y118141D01*
X70752Y118110D01*
X70825Y118083D01*
X70899Y118059D01*
X70974Y118039D01*
X71050Y118023D01*
X71127Y118010D01*
X71204Y118000D01*
X71282Y117995D01*
X71360Y117993D01*
X75452Y117993D01*
X75530Y117995D01*
X75608Y118000D01*
X75685Y118010D01*
X75762Y118023D01*
X75838Y118039D01*
X75913Y118059D01*
X75987Y118083D01*
X76060Y118110D01*
X76132Y118141D01*
X76202Y118175D01*
X76271Y118212D01*
X76337Y118253D01*
X76402Y118297D01*
X76464Y118343D01*
X76524Y118393D01*
X76582Y118445D01*
X76637Y118500D01*
X76689Y118558D01*
X76739Y118618D01*
X76785Y118680D01*
X76829Y118745D01*
X76870Y118812D01*
X76907Y118880D01*
X76941Y118950D01*
X76972Y119022D01*
X76999Y119095D01*
X77023Y119169D01*
X77043Y119244D01*
X77059Y119320D01*
X77072Y119397D01*
X77082Y119474D01*
X77087Y119552D01*
X77089Y119630D01*
X77089Y121267D01*
X77089Y124356D02*
X69723Y124356D01*
X73815Y124356D02*
X73815Y128448D01*
X77089Y128448D02*
X69723Y128448D01*
X77090Y134166D02*
X77088Y134251D01*
X77082Y134336D01*
X77072Y134420D01*
X77059Y134504D01*
X77041Y134588D01*
X77020Y134670D01*
X76995Y134751D01*
X76966Y134831D01*
X76933Y134910D01*
X76897Y134987D01*
X76857Y135062D01*
X76814Y135136D01*
X76768Y135207D01*
X76718Y135276D01*
X76665Y135343D01*
X76609Y135407D01*
X76550Y135468D01*
X76489Y135527D01*
X76425Y135583D01*
X76358Y135636D01*
X76289Y135686D01*
X76218Y135732D01*
X76144Y135775D01*
X76069Y135815D01*
X75992Y135851D01*
X75913Y135884D01*
X75833Y135913D01*
X75752Y135938D01*
X75670Y135959D01*
X75586Y135977D01*
X75502Y135990D01*
X75418Y136000D01*
X75333Y136006D01*
X75248Y136008D01*
X77089Y134166D02*
X77087Y134070D01*
X77081Y133974D01*
X77071Y133879D01*
X77058Y133784D01*
X77040Y133689D01*
X77019Y133596D01*
X76994Y133503D01*
X76965Y133412D01*
X76933Y133321D01*
X76897Y133232D01*
X76857Y133145D01*
X76814Y133059D01*
X76768Y132975D01*
X76718Y132893D01*
X76664Y132813D01*
X76608Y132736D01*
X76548Y132661D01*
X76486Y132588D01*
X76420Y132518D01*
X76352Y132450D01*
X76281Y132385D01*
X76208Y132324D01*
X76132Y132265D01*
X76053Y132209D01*
X75973Y132157D01*
X75890Y132108D01*
X75806Y132062D01*
X75720Y132020D01*
X75632Y131982D01*
X75543Y131947D01*
X75452Y131915D01*
X73816Y135393D02*
X73875Y135453D01*
X73937Y135510D01*
X74001Y135565D01*
X74068Y135616D01*
X74137Y135665D01*
X74207Y135711D01*
X74280Y135754D01*
X74354Y135794D01*
X74430Y135830D01*
X74508Y135863D01*
X74587Y135893D01*
X74667Y135920D01*
X74748Y135943D01*
X74830Y135962D01*
X74912Y135978D01*
X74996Y135991D01*
X75080Y136000D01*
X75164Y136005D01*
X75248Y136007D01*
X73815Y135393D02*
X69723Y131915D01*
X69723Y136007D01*
X95702Y116755D02*
X95702Y111845D01*
X98157Y114300D02*
X93246Y114300D01*
X95702Y136631D02*
X95702Y142769D01*
D10*
X83820Y78740D02*
X83820Y53340D01*
X83820Y27940D01*
X109220Y27940D02*
X109220Y53340D01*
X109220Y78740D01*
X83820Y78740D01*
X83820Y53340D02*
X109220Y53340D01*
X109220Y27940D02*
X83820Y27940D01*
D11*
X69723Y45970D02*
X69723Y47607D01*
X69723Y45970D02*
X69725Y45892D01*
X69730Y45814D01*
X69740Y45737D01*
X69753Y45660D01*
X69769Y45584D01*
X69789Y45509D01*
X69813Y45435D01*
X69840Y45362D01*
X69871Y45290D01*
X69905Y45220D01*
X69942Y45152D01*
X69983Y45085D01*
X70027Y45020D01*
X70073Y44958D01*
X70123Y44898D01*
X70175Y44840D01*
X70230Y44785D01*
X70288Y44733D01*
X70348Y44683D01*
X70410Y44637D01*
X70475Y44593D01*
X70542Y44552D01*
X70610Y44515D01*
X70680Y44481D01*
X70752Y44450D01*
X70825Y44423D01*
X70899Y44399D01*
X70974Y44379D01*
X71050Y44363D01*
X71127Y44350D01*
X71204Y44340D01*
X71282Y44335D01*
X71360Y44333D01*
X75452Y44333D01*
X75530Y44335D01*
X75608Y44340D01*
X75685Y44350D01*
X75762Y44363D01*
X75838Y44379D01*
X75913Y44399D01*
X75987Y44423D01*
X76060Y44450D01*
X76132Y44481D01*
X76202Y44515D01*
X76271Y44552D01*
X76337Y44593D01*
X76402Y44637D01*
X76464Y44683D01*
X76524Y44733D01*
X76582Y44785D01*
X76637Y44840D01*
X76689Y44898D01*
X76739Y44958D01*
X76785Y45020D01*
X76829Y45085D01*
X76870Y45152D01*
X76907Y45220D01*
X76941Y45290D01*
X76972Y45362D01*
X76999Y45435D01*
X77023Y45509D01*
X77043Y45584D01*
X77059Y45660D01*
X77072Y45737D01*
X77082Y45814D01*
X77087Y45892D01*
X77089Y45970D01*
X77089Y47607D01*
X77089Y50696D02*
X69723Y50696D01*
X73815Y50696D02*
X73815Y54788D01*
X77089Y54788D02*
X69723Y54788D01*
X69723Y58255D02*
X69723Y60301D01*
X69725Y60390D01*
X69731Y60479D01*
X69741Y60568D01*
X69754Y60656D01*
X69771Y60744D01*
X69793Y60831D01*
X69818Y60916D01*
X69846Y61001D01*
X69879Y61084D01*
X69915Y61166D01*
X69954Y61246D01*
X69997Y61324D01*
X70043Y61400D01*
X70093Y61475D01*
X70146Y61547D01*
X70202Y61616D01*
X70261Y61683D01*
X70322Y61748D01*
X70387Y61809D01*
X70454Y61868D01*
X70523Y61924D01*
X70595Y61977D01*
X70670Y62027D01*
X70746Y62073D01*
X70824Y62116D01*
X70904Y62155D01*
X70986Y62191D01*
X71069Y62224D01*
X71154Y62252D01*
X71239Y62277D01*
X71326Y62299D01*
X71414Y62316D01*
X71502Y62329D01*
X71591Y62339D01*
X71680Y62345D01*
X71769Y62347D01*
X71858Y62345D01*
X71947Y62339D01*
X72036Y62329D01*
X72124Y62316D01*
X72212Y62299D01*
X72299Y62277D01*
X72384Y62252D01*
X72469Y62224D01*
X72552Y62191D01*
X72634Y62155D01*
X72714Y62116D01*
X72792Y62073D01*
X72868Y62027D01*
X72943Y61977D01*
X73015Y61924D01*
X73084Y61868D01*
X73151Y61809D01*
X73216Y61748D01*
X73277Y61683D01*
X73336Y61616D01*
X73392Y61547D01*
X73445Y61475D01*
X73495Y61400D01*
X73541Y61324D01*
X73584Y61246D01*
X73623Y61166D01*
X73659Y61084D01*
X73692Y61001D01*
X73720Y60916D01*
X73745Y60831D01*
X73767Y60744D01*
X73784Y60656D01*
X73797Y60568D01*
X73807Y60479D01*
X73813Y60390D01*
X73815Y60301D01*
X77089Y60710D02*
X77089Y58255D01*
X77089Y60710D02*
X77087Y60789D01*
X77081Y60868D01*
X77072Y60947D01*
X77059Y61025D01*
X77041Y61102D01*
X77021Y61178D01*
X76996Y61253D01*
X76968Y61327D01*
X76937Y61400D01*
X76901Y61471D01*
X76863Y61540D01*
X76821Y61607D01*
X76776Y61672D01*
X76728Y61735D01*
X76677Y61796D01*
X76623Y61853D01*
X76567Y61909D01*
X76508Y61961D01*
X76446Y62011D01*
X76382Y62057D01*
X76316Y62101D01*
X76248Y62141D01*
X76178Y62177D01*
X76106Y62211D01*
X76032Y62241D01*
X75958Y62267D01*
X75882Y62290D01*
X75805Y62308D01*
X75728Y62324D01*
X75649Y62335D01*
X75571Y62343D01*
X75492Y62347D01*
X75412Y62347D01*
X75333Y62343D01*
X75255Y62335D01*
X75176Y62324D01*
X75099Y62308D01*
X75022Y62290D01*
X74946Y62267D01*
X74872Y62241D01*
X74798Y62211D01*
X74726Y62177D01*
X74656Y62141D01*
X74588Y62101D01*
X74522Y62057D01*
X74458Y62011D01*
X74396Y61961D01*
X74337Y61909D01*
X74281Y61853D01*
X74227Y61796D01*
X74176Y61735D01*
X74128Y61672D01*
X74083Y61607D01*
X74041Y61540D01*
X74003Y61471D01*
X73967Y61400D01*
X73936Y61327D01*
X73908Y61253D01*
X73883Y61178D01*
X73863Y61102D01*
X73845Y61025D01*
X73832Y60947D01*
X73823Y60868D01*
X73817Y60789D01*
X73815Y60710D01*
X73815Y59073D01*
X95702Y43095D02*
X95702Y38185D01*
X98157Y40640D02*
X93246Y40640D01*
X95702Y62971D02*
X95702Y69109D01*
X400431Y193290D02*
X400431Y194927D01*
X400431Y193290D02*
X400433Y193212D01*
X400438Y193134D01*
X400448Y193057D01*
X400461Y192980D01*
X400477Y192904D01*
X400497Y192829D01*
X400521Y192755D01*
X400548Y192682D01*
X400579Y192610D01*
X400613Y192540D01*
X400650Y192472D01*
X400691Y192405D01*
X400735Y192340D01*
X400781Y192278D01*
X400831Y192218D01*
X400883Y192160D01*
X400938Y192105D01*
X400996Y192053D01*
X401056Y192003D01*
X401118Y191957D01*
X401183Y191913D01*
X401250Y191872D01*
X401318Y191835D01*
X401388Y191801D01*
X401460Y191770D01*
X401533Y191743D01*
X401607Y191719D01*
X401682Y191699D01*
X401758Y191683D01*
X401835Y191670D01*
X401912Y191660D01*
X401990Y191655D01*
X402068Y191653D01*
X406160Y191653D01*
X406238Y191655D01*
X406316Y191660D01*
X406393Y191670D01*
X406470Y191683D01*
X406546Y191699D01*
X406621Y191719D01*
X406695Y191743D01*
X406768Y191770D01*
X406840Y191801D01*
X406910Y191835D01*
X406979Y191872D01*
X407045Y191913D01*
X407110Y191957D01*
X407172Y192003D01*
X407232Y192053D01*
X407290Y192105D01*
X407345Y192160D01*
X407397Y192218D01*
X407447Y192278D01*
X407493Y192340D01*
X407537Y192405D01*
X407578Y192472D01*
X407615Y192540D01*
X407649Y192610D01*
X407680Y192682D01*
X407707Y192755D01*
X407731Y192829D01*
X407751Y192904D01*
X407767Y192980D01*
X407780Y193057D01*
X407790Y193134D01*
X407795Y193212D01*
X407797Y193290D01*
X407797Y194927D01*
X407797Y198016D02*
X400431Y198016D01*
X404523Y198016D02*
X404523Y202108D01*
X407797Y202108D02*
X400431Y202108D01*
X406160Y205575D02*
X407797Y207621D01*
X400431Y207621D01*
X400431Y205575D02*
X400431Y209667D01*
X400431Y121267D02*
X400431Y119630D01*
X400433Y119552D01*
X400438Y119474D01*
X400448Y119397D01*
X400461Y119320D01*
X400477Y119244D01*
X400497Y119169D01*
X400521Y119095D01*
X400548Y119022D01*
X400579Y118950D01*
X400613Y118880D01*
X400650Y118812D01*
X400691Y118745D01*
X400735Y118680D01*
X400781Y118618D01*
X400831Y118558D01*
X400883Y118500D01*
X400938Y118445D01*
X400996Y118393D01*
X401056Y118343D01*
X401118Y118297D01*
X401183Y118253D01*
X401250Y118212D01*
X401318Y118175D01*
X401388Y118141D01*
X401460Y118110D01*
X401533Y118083D01*
X401607Y118059D01*
X401682Y118039D01*
X401758Y118023D01*
X401835Y118010D01*
X401912Y118000D01*
X401990Y117995D01*
X402068Y117993D01*
X406160Y117993D01*
X406238Y117995D01*
X406316Y118000D01*
X406393Y118010D01*
X406470Y118023D01*
X406546Y118039D01*
X406621Y118059D01*
X406695Y118083D01*
X406768Y118110D01*
X406840Y118141D01*
X406910Y118175D01*
X406979Y118212D01*
X407045Y118253D01*
X407110Y118297D01*
X407172Y118343D01*
X407232Y118393D01*
X407290Y118445D01*
X407345Y118500D01*
X407397Y118558D01*
X407447Y118618D01*
X407493Y118680D01*
X407537Y118745D01*
X407578Y118812D01*
X407615Y118880D01*
X407649Y118950D01*
X407680Y119022D01*
X407707Y119095D01*
X407731Y119169D01*
X407751Y119244D01*
X407767Y119320D01*
X407780Y119397D01*
X407790Y119474D01*
X407795Y119552D01*
X407797Y119630D01*
X407797Y121267D01*
X407797Y124356D02*
X400431Y124356D01*
X404523Y124356D02*
X404523Y128448D01*
X407797Y128448D02*
X400431Y128448D01*
X407798Y134166D02*
X407796Y134251D01*
X407790Y134336D01*
X407780Y134420D01*
X407767Y134504D01*
X407749Y134588D01*
X407728Y134670D01*
X407703Y134751D01*
X407674Y134831D01*
X407641Y134910D01*
X407605Y134987D01*
X407565Y135062D01*
X407522Y135136D01*
X407476Y135207D01*
X407426Y135276D01*
X407373Y135343D01*
X407317Y135407D01*
X407258Y135468D01*
X407197Y135527D01*
X407133Y135583D01*
X407066Y135636D01*
X406997Y135686D01*
X406926Y135732D01*
X406852Y135775D01*
X406777Y135815D01*
X406700Y135851D01*
X406621Y135884D01*
X406541Y135913D01*
X406460Y135938D01*
X406378Y135959D01*
X406294Y135977D01*
X406210Y135990D01*
X406126Y136000D01*
X406041Y136006D01*
X405956Y136008D01*
X407797Y134166D02*
X407795Y134070D01*
X407789Y133974D01*
X407779Y133879D01*
X407766Y133784D01*
X407748Y133689D01*
X407727Y133596D01*
X407702Y133503D01*
X407673Y133412D01*
X407641Y133321D01*
X407605Y133232D01*
X407565Y133145D01*
X407522Y133059D01*
X407476Y132975D01*
X407426Y132893D01*
X407372Y132813D01*
X407316Y132736D01*
X407256Y132661D01*
X407194Y132588D01*
X407128Y132518D01*
X407060Y132450D01*
X406989Y132385D01*
X406916Y132324D01*
X406840Y132265D01*
X406761Y132209D01*
X406681Y132157D01*
X406598Y132108D01*
X406514Y132062D01*
X406428Y132020D01*
X406340Y131982D01*
X406251Y131947D01*
X406160Y131915D01*
X404524Y135393D02*
X404583Y135453D01*
X404645Y135510D01*
X404709Y135565D01*
X404776Y135616D01*
X404845Y135665D01*
X404915Y135711D01*
X404988Y135754D01*
X405062Y135794D01*
X405138Y135830D01*
X405216Y135863D01*
X405295Y135893D01*
X405375Y135920D01*
X405456Y135943D01*
X405538Y135962D01*
X405620Y135978D01*
X405704Y135991D01*
X405788Y136000D01*
X405872Y136005D01*
X405956Y136007D01*
X404523Y135393D02*
X400431Y131915D01*
X400431Y136007D01*
D10*
X368300Y200660D02*
X368300Y226060D01*
X368300Y200660D02*
X368300Y175260D01*
X393700Y175260D02*
X393700Y200660D01*
X393700Y226060D01*
X368300Y226060D01*
X368300Y200660D02*
X393700Y200660D01*
X393700Y175260D02*
X368300Y175260D01*
D11*
X400431Y47607D02*
X400431Y45970D01*
X400433Y45892D01*
X400438Y45814D01*
X400448Y45737D01*
X400461Y45660D01*
X400477Y45584D01*
X400497Y45509D01*
X400521Y45435D01*
X400548Y45362D01*
X400579Y45290D01*
X400613Y45220D01*
X400650Y45152D01*
X400691Y45085D01*
X400735Y45020D01*
X400781Y44958D01*
X400831Y44898D01*
X400883Y44840D01*
X400938Y44785D01*
X400996Y44733D01*
X401056Y44683D01*
X401118Y44637D01*
X401183Y44593D01*
X401250Y44552D01*
X401318Y44515D01*
X401388Y44481D01*
X401460Y44450D01*
X401533Y44423D01*
X401607Y44399D01*
X401682Y44379D01*
X401758Y44363D01*
X401835Y44350D01*
X401912Y44340D01*
X401990Y44335D01*
X402068Y44333D01*
X406160Y44333D01*
X406238Y44335D01*
X406316Y44340D01*
X406393Y44350D01*
X406470Y44363D01*
X406546Y44379D01*
X406621Y44399D01*
X406695Y44423D01*
X406768Y44450D01*
X406840Y44481D01*
X406910Y44515D01*
X406979Y44552D01*
X407045Y44593D01*
X407110Y44637D01*
X407172Y44683D01*
X407232Y44733D01*
X407290Y44785D01*
X407345Y44840D01*
X407397Y44898D01*
X407447Y44958D01*
X407493Y45020D01*
X407537Y45085D01*
X407578Y45152D01*
X407615Y45220D01*
X407649Y45290D01*
X407680Y45362D01*
X407707Y45435D01*
X407731Y45509D01*
X407751Y45584D01*
X407767Y45660D01*
X407780Y45737D01*
X407790Y45814D01*
X407795Y45892D01*
X407797Y45970D01*
X407797Y47607D01*
X407797Y50696D02*
X400431Y50696D01*
X404523Y50696D02*
X404523Y54788D01*
X407797Y54788D02*
X400431Y54788D01*
X400431Y58255D02*
X400431Y60301D01*
X400433Y60390D01*
X400439Y60479D01*
X400449Y60568D01*
X400462Y60656D01*
X400479Y60744D01*
X400501Y60831D01*
X400526Y60916D01*
X400554Y61001D01*
X400587Y61084D01*
X400623Y61166D01*
X400662Y61246D01*
X400705Y61324D01*
X400751Y61400D01*
X400801Y61475D01*
X400854Y61547D01*
X400910Y61616D01*
X400969Y61683D01*
X401030Y61748D01*
X401095Y61809D01*
X401162Y61868D01*
X401231Y61924D01*
X401303Y61977D01*
X401378Y62027D01*
X401454Y62073D01*
X401532Y62116D01*
X401612Y62155D01*
X401694Y62191D01*
X401777Y62224D01*
X401862Y62252D01*
X401947Y62277D01*
X402034Y62299D01*
X402122Y62316D01*
X402210Y62329D01*
X402299Y62339D01*
X402388Y62345D01*
X402477Y62347D01*
X402566Y62345D01*
X402655Y62339D01*
X402744Y62329D01*
X402832Y62316D01*
X402920Y62299D01*
X403007Y62277D01*
X403092Y62252D01*
X403177Y62224D01*
X403260Y62191D01*
X403342Y62155D01*
X403422Y62116D01*
X403500Y62073D01*
X403576Y62027D01*
X403651Y61977D01*
X403723Y61924D01*
X403792Y61868D01*
X403859Y61809D01*
X403924Y61748D01*
X403985Y61683D01*
X404044Y61616D01*
X404100Y61547D01*
X404153Y61475D01*
X404203Y61400D01*
X404249Y61324D01*
X404292Y61246D01*
X404331Y61166D01*
X404367Y61084D01*
X404400Y61001D01*
X404428Y60916D01*
X404453Y60831D01*
X404475Y60744D01*
X404492Y60656D01*
X404505Y60568D01*
X404515Y60479D01*
X404521Y60390D01*
X404523Y60301D01*
X407797Y60710D02*
X407797Y58255D01*
X407797Y60710D02*
X407795Y60789D01*
X407789Y60868D01*
X407780Y60947D01*
X407767Y61025D01*
X407749Y61102D01*
X407729Y61178D01*
X407704Y61253D01*
X407676Y61327D01*
X407645Y61400D01*
X407609Y61471D01*
X407571Y61540D01*
X407529Y61607D01*
X407484Y61672D01*
X407436Y61735D01*
X407385Y61796D01*
X407331Y61853D01*
X407275Y61909D01*
X407216Y61961D01*
X407154Y62011D01*
X407090Y62057D01*
X407024Y62101D01*
X406956Y62141D01*
X406886Y62177D01*
X406814Y62211D01*
X406740Y62241D01*
X406666Y62267D01*
X406590Y62290D01*
X406513Y62308D01*
X406436Y62324D01*
X406357Y62335D01*
X406279Y62343D01*
X406200Y62347D01*
X406120Y62347D01*
X406041Y62343D01*
X405963Y62335D01*
X405884Y62324D01*
X405807Y62308D01*
X405730Y62290D01*
X405654Y62267D01*
X405580Y62241D01*
X405506Y62211D01*
X405434Y62177D01*
X405364Y62141D01*
X405296Y62101D01*
X405230Y62057D01*
X405166Y62011D01*
X405104Y61961D01*
X405045Y61909D01*
X404989Y61853D01*
X404935Y61796D01*
X404884Y61735D01*
X404836Y61672D01*
X404791Y61607D01*
X404749Y61540D01*
X404711Y61471D01*
X404675Y61400D01*
X404644Y61327D01*
X404616Y61253D01*
X404591Y61178D01*
X404571Y61102D01*
X404553Y61025D01*
X404540Y60947D01*
X404531Y60868D01*
X404525Y60789D01*
X404523Y60710D01*
X404523Y59073D01*
X380182Y185505D02*
X380182Y190415D01*
X382637Y187960D02*
X377726Y187960D01*
X380182Y210291D02*
X380182Y216429D01*
D10*
X368300Y152400D02*
X368300Y127000D01*
X368300Y101600D01*
X393700Y101600D02*
X393700Y127000D01*
X393700Y152400D01*
X368300Y152400D01*
X368300Y127000D02*
X393700Y127000D01*
X393700Y101600D02*
X368300Y101600D01*
D11*
X380182Y111845D02*
X380182Y116755D01*
X382637Y114300D02*
X377726Y114300D01*
X380182Y136631D02*
X380182Y142769D01*
D10*
X368300Y78740D02*
X368300Y53340D01*
X368300Y27940D01*
X393700Y27940D02*
X393700Y53340D01*
X393700Y78740D01*
X368300Y78740D01*
X368300Y53340D02*
X393700Y53340D01*
X393700Y27940D02*
X368300Y27940D01*
D11*
X380182Y38185D02*
X380182Y43095D01*
X382637Y40640D02*
X377726Y40640D01*
X380182Y62971D02*
X380182Y69109D01*
D12*
X60932Y262382D02*
X60932Y278638D01*
X62738Y262382D02*
X59126Y262382D01*
X59126Y278638D02*
X62738Y278638D01*
X52421Y278638D02*
X52421Y262382D01*
X43390Y262382D02*
X52421Y278638D01*
X43390Y278638D02*
X43390Y262382D01*
X443738Y266898D02*
X443738Y274122D01*
X443736Y274255D01*
X443730Y274387D01*
X443720Y274519D01*
X443707Y274651D01*
X443689Y274783D01*
X443668Y274913D01*
X443643Y275044D01*
X443614Y275173D01*
X443581Y275301D01*
X443545Y275429D01*
X443505Y275555D01*
X443461Y275680D01*
X443413Y275804D01*
X443362Y275926D01*
X443307Y276047D01*
X443249Y276166D01*
X443187Y276284D01*
X443122Y276399D01*
X443053Y276513D01*
X442982Y276624D01*
X442906Y276733D01*
X442828Y276840D01*
X442747Y276945D01*
X442662Y277047D01*
X442575Y277147D01*
X442485Y277244D01*
X442392Y277339D01*
X442296Y277430D01*
X442198Y277519D01*
X442097Y277605D01*
X441993Y277688D01*
X441887Y277768D01*
X441779Y277844D01*
X441669Y277918D01*
X441556Y277988D01*
X441442Y278055D01*
X441325Y278118D01*
X441207Y278178D01*
X441087Y278235D01*
X440965Y278288D01*
X440842Y278337D01*
X440718Y278383D01*
X440592Y278425D01*
X440465Y278463D01*
X440337Y278498D01*
X440208Y278529D01*
X440079Y278556D01*
X439948Y278579D01*
X439817Y278599D01*
X439685Y278614D01*
X439553Y278626D01*
X439421Y278634D01*
X439288Y278638D01*
X439156Y278638D01*
X439023Y278634D01*
X438891Y278626D01*
X438759Y278614D01*
X438627Y278599D01*
X438496Y278579D01*
X438365Y278556D01*
X438236Y278529D01*
X438107Y278498D01*
X437979Y278463D01*
X437852Y278425D01*
X437726Y278383D01*
X437602Y278337D01*
X437479Y278288D01*
X437357Y278235D01*
X437237Y278178D01*
X437119Y278118D01*
X437002Y278055D01*
X436888Y277988D01*
X436775Y277918D01*
X436665Y277844D01*
X436557Y277768D01*
X436451Y277688D01*
X436347Y277605D01*
X436246Y277519D01*
X436148Y277430D01*
X436052Y277339D01*
X435959Y277244D01*
X435869Y277147D01*
X435782Y277047D01*
X435697Y276945D01*
X435616Y276840D01*
X435538Y276733D01*
X435462Y276624D01*
X435391Y276513D01*
X435322Y276399D01*
X435257Y276284D01*
X435195Y276166D01*
X435137Y276047D01*
X435082Y275926D01*
X435031Y275804D01*
X434983Y275680D01*
X434939Y275555D01*
X434899Y275429D01*
X434863Y275301D01*
X434830Y275173D01*
X434801Y275044D01*
X434776Y274913D01*
X434755Y274783D01*
X434737Y274651D01*
X434724Y274519D01*
X434714Y274387D01*
X434708Y274255D01*
X434706Y274122D01*
X434707Y274122D02*
X434707Y266898D01*
X434706Y266898D02*
X434708Y266765D01*
X434714Y266633D01*
X434724Y266501D01*
X434737Y266369D01*
X434755Y266237D01*
X434776Y266107D01*
X434801Y265976D01*
X434830Y265847D01*
X434863Y265719D01*
X434899Y265591D01*
X434939Y265465D01*
X434983Y265340D01*
X435031Y265216D01*
X435082Y265094D01*
X435137Y264973D01*
X435195Y264854D01*
X435257Y264736D01*
X435322Y264621D01*
X435391Y264507D01*
X435462Y264396D01*
X435538Y264287D01*
X435616Y264180D01*
X435697Y264075D01*
X435782Y263973D01*
X435869Y263873D01*
X435959Y263776D01*
X436052Y263681D01*
X436148Y263590D01*
X436246Y263501D01*
X436347Y263415D01*
X436451Y263332D01*
X436557Y263252D01*
X436665Y263176D01*
X436775Y263102D01*
X436888Y263032D01*
X437002Y262965D01*
X437119Y262902D01*
X437237Y262842D01*
X437357Y262785D01*
X437479Y262732D01*
X437602Y262683D01*
X437726Y262637D01*
X437852Y262595D01*
X437979Y262557D01*
X438107Y262522D01*
X438236Y262491D01*
X438365Y262464D01*
X438496Y262441D01*
X438627Y262421D01*
X438759Y262406D01*
X438891Y262394D01*
X439023Y262386D01*
X439156Y262382D01*
X439288Y262382D01*
X439421Y262386D01*
X439553Y262394D01*
X439685Y262406D01*
X439817Y262421D01*
X439948Y262441D01*
X440079Y262464D01*
X440208Y262491D01*
X440337Y262522D01*
X440465Y262557D01*
X440592Y262595D01*
X440718Y262637D01*
X440842Y262683D01*
X440965Y262732D01*
X441087Y262785D01*
X441207Y262842D01*
X441325Y262902D01*
X441442Y262965D01*
X441556Y263032D01*
X441669Y263102D01*
X441779Y263176D01*
X441887Y263252D01*
X441993Y263332D01*
X442097Y263415D01*
X442198Y263501D01*
X442296Y263590D01*
X442392Y263681D01*
X442485Y263776D01*
X442575Y263873D01*
X442662Y263973D01*
X442747Y264075D01*
X442828Y264180D01*
X442906Y264287D01*
X442982Y264396D01*
X443053Y264507D01*
X443122Y264621D01*
X443187Y264736D01*
X443249Y264854D01*
X443307Y264973D01*
X443362Y265094D01*
X443413Y265216D01*
X443461Y265340D01*
X443505Y265465D01*
X443545Y265591D01*
X443581Y265719D01*
X443614Y265847D01*
X443643Y265976D01*
X443668Y266107D01*
X443689Y266237D01*
X443707Y266369D01*
X443720Y266501D01*
X443730Y266633D01*
X443736Y266765D01*
X443738Y266898D01*
X427586Y266898D02*
X427586Y278638D01*
X427586Y266898D02*
X427584Y266765D01*
X427578Y266633D01*
X427568Y266501D01*
X427555Y266369D01*
X427537Y266237D01*
X427516Y266107D01*
X427491Y265976D01*
X427462Y265847D01*
X427429Y265719D01*
X427393Y265591D01*
X427353Y265465D01*
X427309Y265340D01*
X427261Y265216D01*
X427210Y265094D01*
X427155Y264973D01*
X427097Y264854D01*
X427035Y264736D01*
X426970Y264621D01*
X426901Y264507D01*
X426830Y264396D01*
X426754Y264287D01*
X426676Y264180D01*
X426595Y264075D01*
X426510Y263973D01*
X426423Y263873D01*
X426333Y263776D01*
X426240Y263681D01*
X426144Y263590D01*
X426046Y263501D01*
X425945Y263415D01*
X425841Y263332D01*
X425735Y263252D01*
X425627Y263176D01*
X425517Y263102D01*
X425404Y263032D01*
X425290Y262965D01*
X425173Y262902D01*
X425055Y262842D01*
X424935Y262785D01*
X424813Y262732D01*
X424690Y262683D01*
X424566Y262637D01*
X424440Y262595D01*
X424313Y262557D01*
X424185Y262522D01*
X424056Y262491D01*
X423927Y262464D01*
X423796Y262441D01*
X423665Y262421D01*
X423533Y262406D01*
X423401Y262394D01*
X423269Y262386D01*
X423136Y262382D01*
X423004Y262382D01*
X422871Y262386D01*
X422739Y262394D01*
X422607Y262406D01*
X422475Y262421D01*
X422344Y262441D01*
X422213Y262464D01*
X422084Y262491D01*
X421955Y262522D01*
X421827Y262557D01*
X421700Y262595D01*
X421574Y262637D01*
X421450Y262683D01*
X421327Y262732D01*
X421205Y262785D01*
X421085Y262842D01*
X420967Y262902D01*
X420850Y262965D01*
X420736Y263032D01*
X420623Y263102D01*
X420513Y263176D01*
X420405Y263252D01*
X420299Y263332D01*
X420195Y263415D01*
X420094Y263501D01*
X419996Y263590D01*
X419900Y263681D01*
X419807Y263776D01*
X419717Y263873D01*
X419630Y263973D01*
X419545Y264075D01*
X419464Y264180D01*
X419386Y264287D01*
X419310Y264396D01*
X419239Y264507D01*
X419170Y264621D01*
X419105Y264736D01*
X419043Y264854D01*
X418985Y264973D01*
X418930Y265094D01*
X418879Y265216D01*
X418831Y265340D01*
X418787Y265465D01*
X418747Y265591D01*
X418711Y265719D01*
X418678Y265847D01*
X418649Y265976D01*
X418624Y266107D01*
X418603Y266237D01*
X418585Y266369D01*
X418572Y266501D01*
X418562Y266633D01*
X418556Y266765D01*
X418554Y266898D01*
X418555Y266898D02*
X418555Y278638D01*
X407960Y278638D02*
X407960Y262382D01*
X412476Y278638D02*
X403444Y278638D01*
D13*
X341447Y184785D02*
X339866Y184785D01*
X341447Y184785D02*
X341525Y184787D01*
X341602Y184793D01*
X341679Y184802D01*
X341755Y184815D01*
X341831Y184832D01*
X341906Y184853D01*
X341979Y184877D01*
X342052Y184905D01*
X342123Y184937D01*
X342192Y184972D01*
X342259Y185010D01*
X342325Y185051D01*
X342388Y185096D01*
X342449Y185144D01*
X342508Y185194D01*
X342564Y185248D01*
X342618Y185304D01*
X342668Y185363D01*
X342716Y185424D01*
X342761Y185487D01*
X342802Y185553D01*
X342840Y185620D01*
X342875Y185689D01*
X342907Y185760D01*
X342935Y185833D01*
X342959Y185906D01*
X342980Y185981D01*
X342997Y186057D01*
X343010Y186133D01*
X343019Y186210D01*
X343025Y186287D01*
X343027Y186365D01*
X343027Y190317D01*
X343025Y190395D01*
X343019Y190472D01*
X343010Y190549D01*
X342997Y190625D01*
X342980Y190701D01*
X342959Y190776D01*
X342935Y190849D01*
X342907Y190922D01*
X342875Y190993D01*
X342840Y191062D01*
X342802Y191129D01*
X342761Y191195D01*
X342716Y191258D01*
X342668Y191319D01*
X342618Y191378D01*
X342564Y191434D01*
X342508Y191488D01*
X342449Y191538D01*
X342388Y191586D01*
X342325Y191631D01*
X342259Y191672D01*
X342192Y191710D01*
X342123Y191745D01*
X342052Y191777D01*
X341979Y191805D01*
X341906Y191829D01*
X341831Y191850D01*
X341755Y191867D01*
X341679Y191880D01*
X341602Y191889D01*
X341525Y191895D01*
X341447Y191897D01*
X339866Y191897D01*
X336052Y191897D02*
X336052Y184785D01*
X336052Y188736D02*
X332101Y188736D01*
X332101Y191897D02*
X332101Y184785D01*
X327785Y190317D02*
X325809Y191897D01*
X325809Y184785D01*
X327785Y184785D02*
X323833Y184785D01*
X213685Y110871D02*
X212104Y110871D01*
X213685Y110871D02*
X213763Y110873D01*
X213840Y110879D01*
X213917Y110888D01*
X213993Y110901D01*
X214069Y110918D01*
X214144Y110939D01*
X214217Y110963D01*
X214290Y110991D01*
X214361Y111023D01*
X214430Y111058D01*
X214497Y111096D01*
X214563Y111137D01*
X214626Y111182D01*
X214687Y111230D01*
X214746Y111280D01*
X214802Y111334D01*
X214856Y111390D01*
X214906Y111449D01*
X214954Y111510D01*
X214999Y111573D01*
X215040Y111639D01*
X215078Y111706D01*
X215113Y111775D01*
X215145Y111846D01*
X215173Y111919D01*
X215197Y111992D01*
X215218Y112067D01*
X215235Y112143D01*
X215248Y112219D01*
X215257Y112296D01*
X215263Y112373D01*
X215265Y112451D01*
X215265Y116403D01*
X215263Y116481D01*
X215257Y116558D01*
X215248Y116635D01*
X215235Y116711D01*
X215218Y116787D01*
X215197Y116862D01*
X215173Y116935D01*
X215145Y117008D01*
X215113Y117079D01*
X215078Y117148D01*
X215040Y117215D01*
X214999Y117281D01*
X214954Y117344D01*
X214906Y117405D01*
X214856Y117464D01*
X214802Y117520D01*
X214746Y117574D01*
X214687Y117624D01*
X214626Y117672D01*
X214563Y117717D01*
X214497Y117758D01*
X214430Y117796D01*
X214361Y117831D01*
X214290Y117863D01*
X214217Y117891D01*
X214144Y117915D01*
X214069Y117936D01*
X213993Y117953D01*
X213917Y117966D01*
X213840Y117975D01*
X213763Y117981D01*
X213685Y117983D01*
X212104Y117983D01*
X208290Y117983D02*
X208290Y110871D01*
X208290Y114822D02*
X204339Y114822D01*
X204339Y117983D02*
X204339Y110871D01*
X197849Y117983D02*
X197767Y117981D01*
X197685Y117975D01*
X197603Y117966D01*
X197522Y117953D01*
X197442Y117936D01*
X197362Y117915D01*
X197284Y117891D01*
X197207Y117863D01*
X197131Y117832D01*
X197056Y117797D01*
X196984Y117758D01*
X196913Y117717D01*
X196844Y117672D01*
X196778Y117624D01*
X196713Y117573D01*
X196651Y117519D01*
X196592Y117462D01*
X196535Y117403D01*
X196481Y117341D01*
X196430Y117276D01*
X196382Y117210D01*
X196337Y117141D01*
X196296Y117070D01*
X196257Y116998D01*
X196222Y116923D01*
X196191Y116847D01*
X196163Y116770D01*
X196139Y116692D01*
X196118Y116612D01*
X196101Y116532D01*
X196088Y116451D01*
X196079Y116369D01*
X196073Y116287D01*
X196071Y116205D01*
X197849Y117983D02*
X197942Y117981D01*
X198034Y117975D01*
X198126Y117966D01*
X198218Y117953D01*
X198309Y117936D01*
X198399Y117916D01*
X198489Y117892D01*
X198577Y117864D01*
X198665Y117832D01*
X198750Y117798D01*
X198835Y117759D01*
X198917Y117718D01*
X198998Y117673D01*
X199078Y117624D01*
X199155Y117573D01*
X199230Y117519D01*
X199302Y117461D01*
X199373Y117401D01*
X199440Y117337D01*
X199505Y117272D01*
X199568Y117203D01*
X199627Y117132D01*
X199684Y117059D01*
X199738Y116983D01*
X199788Y116906D01*
X199836Y116826D01*
X199880Y116744D01*
X199920Y116661D01*
X199958Y116576D01*
X199992Y116490D01*
X200022Y116403D01*
X196664Y114822D02*
X196603Y114883D01*
X196545Y114946D01*
X196490Y115012D01*
X196437Y115080D01*
X196388Y115151D01*
X196343Y115223D01*
X196300Y115298D01*
X196261Y115374D01*
X196225Y115453D01*
X196193Y115532D01*
X196165Y115613D01*
X196140Y115696D01*
X196119Y115779D01*
X196102Y115863D01*
X196088Y115948D01*
X196079Y116033D01*
X196073Y116119D01*
X196071Y116205D01*
X196664Y114822D02*
X200023Y110871D01*
X196071Y110871D01*
X212104Y258699D02*
X213685Y258699D01*
X213763Y258701D01*
X213840Y258707D01*
X213917Y258716D01*
X213993Y258729D01*
X214069Y258746D01*
X214144Y258767D01*
X214217Y258791D01*
X214290Y258819D01*
X214361Y258851D01*
X214430Y258886D01*
X214497Y258924D01*
X214563Y258965D01*
X214626Y259010D01*
X214687Y259058D01*
X214746Y259108D01*
X214802Y259162D01*
X214856Y259218D01*
X214906Y259277D01*
X214954Y259338D01*
X214999Y259401D01*
X215040Y259467D01*
X215078Y259534D01*
X215113Y259603D01*
X215145Y259674D01*
X215173Y259747D01*
X215197Y259820D01*
X215218Y259895D01*
X215235Y259971D01*
X215248Y260047D01*
X215257Y260124D01*
X215263Y260201D01*
X215265Y260279D01*
X215265Y264231D01*
X215263Y264309D01*
X215257Y264386D01*
X215248Y264463D01*
X215235Y264539D01*
X215218Y264615D01*
X215197Y264690D01*
X215173Y264763D01*
X215145Y264836D01*
X215113Y264907D01*
X215078Y264976D01*
X215040Y265043D01*
X214999Y265109D01*
X214954Y265172D01*
X214906Y265233D01*
X214856Y265292D01*
X214802Y265348D01*
X214746Y265402D01*
X214687Y265452D01*
X214626Y265500D01*
X214563Y265545D01*
X214497Y265586D01*
X214430Y265624D01*
X214361Y265659D01*
X214290Y265691D01*
X214217Y265719D01*
X214144Y265743D01*
X214069Y265764D01*
X213993Y265781D01*
X213917Y265794D01*
X213840Y265803D01*
X213763Y265809D01*
X213685Y265811D01*
X212104Y265811D01*
X208290Y265811D02*
X208290Y258699D01*
X208290Y262650D02*
X204339Y262650D01*
X204339Y265811D02*
X204339Y258699D01*
X200023Y258699D02*
X198047Y258699D01*
X197960Y258701D01*
X197872Y258707D01*
X197785Y258716D01*
X197699Y258730D01*
X197613Y258747D01*
X197529Y258768D01*
X197445Y258793D01*
X197362Y258822D01*
X197281Y258854D01*
X197201Y258889D01*
X197123Y258928D01*
X197046Y258971D01*
X196972Y259017D01*
X196900Y259066D01*
X196830Y259118D01*
X196762Y259174D01*
X196697Y259232D01*
X196634Y259293D01*
X196575Y259357D01*
X196518Y259424D01*
X196464Y259492D01*
X196413Y259564D01*
X196366Y259637D01*
X196321Y259712D01*
X196280Y259790D01*
X196243Y259869D01*
X196209Y259949D01*
X196179Y260031D01*
X196152Y260114D01*
X196129Y260199D01*
X196110Y260284D01*
X196095Y260370D01*
X196083Y260457D01*
X196075Y260544D01*
X196071Y260631D01*
X196071Y260719D01*
X196075Y260806D01*
X196083Y260893D01*
X196095Y260980D01*
X196110Y261066D01*
X196129Y261151D01*
X196152Y261236D01*
X196179Y261319D01*
X196209Y261401D01*
X196243Y261481D01*
X196280Y261560D01*
X196321Y261638D01*
X196366Y261713D01*
X196413Y261786D01*
X196464Y261858D01*
X196518Y261926D01*
X196575Y261993D01*
X196634Y262057D01*
X196697Y262118D01*
X196762Y262176D01*
X196830Y262232D01*
X196900Y262284D01*
X196972Y262333D01*
X197046Y262379D01*
X197123Y262422D01*
X197201Y262461D01*
X197281Y262496D01*
X197362Y262528D01*
X197445Y262557D01*
X197529Y262582D01*
X197613Y262603D01*
X197699Y262620D01*
X197785Y262634D01*
X197872Y262643D01*
X197960Y262649D01*
X198047Y262651D01*
X197652Y265811D02*
X200023Y265811D01*
X197652Y265811D02*
X197573Y265809D01*
X197495Y265803D01*
X197417Y265793D01*
X197339Y265780D01*
X197262Y265762D01*
X197186Y265741D01*
X197112Y265716D01*
X197038Y265687D01*
X196966Y265655D01*
X196896Y265619D01*
X196828Y265579D01*
X196762Y265536D01*
X196698Y265490D01*
X196636Y265441D01*
X196577Y265389D01*
X196521Y265334D01*
X196467Y265276D01*
X196417Y265216D01*
X196369Y265153D01*
X196325Y265088D01*
X196284Y265021D01*
X196246Y264952D01*
X196212Y264881D01*
X196181Y264808D01*
X196154Y264734D01*
X196131Y264659D01*
X196112Y264583D01*
X196096Y264505D01*
X196084Y264427D01*
X196076Y264349D01*
X196072Y264270D01*
X196072Y264192D01*
X196076Y264113D01*
X196084Y264035D01*
X196096Y263957D01*
X196112Y263879D01*
X196131Y263803D01*
X196154Y263728D01*
X196181Y263654D01*
X196212Y263581D01*
X196246Y263510D01*
X196284Y263441D01*
X196325Y263374D01*
X196369Y263309D01*
X196417Y263246D01*
X196467Y263186D01*
X196521Y263128D01*
X196577Y263073D01*
X196636Y263021D01*
X196698Y262972D01*
X196762Y262926D01*
X196828Y262883D01*
X196896Y262843D01*
X196966Y262807D01*
X197038Y262775D01*
X197112Y262746D01*
X197186Y262721D01*
X197262Y262700D01*
X197339Y262682D01*
X197417Y262669D01*
X197495Y262659D01*
X197573Y262653D01*
X197652Y262651D01*
X197652Y262650D02*
X199232Y262650D01*
M02*
