G04 EAGLE Gerber RS-274X export*
G75*
%MOMM*%
%FSLAX34Y34*%
%LPD*%
%INSilkscreen Top*%
%IPPOS*%
%AMOC8*
5,1,8,0,0,1.08239X$1,22.5*%
G01*
%ADD10R,0.025400X0.025400*%
%ADD11R,0.127000X0.025400*%
%ADD12R,0.076200X0.025400*%
%ADD13R,0.533400X0.025400*%
%ADD14R,0.381000X0.025400*%
%ADD15R,0.330200X0.025400*%
%ADD16R,0.355600X0.025400*%
%ADD17R,0.685800X0.025400*%
%ADD18R,0.482600X0.025400*%
%ADD19R,0.635000X0.025400*%
%ADD20R,0.838200X0.025400*%
%ADD21R,0.558800X0.025400*%
%ADD22R,0.736600X0.025400*%
%ADD23R,0.889000X0.025400*%
%ADD24R,0.584200X0.025400*%
%ADD25R,0.939800X0.025400*%
%ADD26R,1.041400X0.025400*%
%ADD27R,0.660400X0.025400*%
%ADD28R,0.431800X0.025400*%
%ADD29R,1.092200X0.025400*%
%ADD30R,0.990600X0.025400*%
%ADD31R,0.457200X0.025400*%
%ADD32R,1.143000X0.025400*%
%ADD33R,1.168400X0.025400*%
%ADD34R,1.193800X0.025400*%
%ADD35R,1.219200X0.025400*%
%ADD36R,1.244600X0.025400*%
%ADD37R,0.711200X0.025400*%
%ADD38R,1.295400X0.025400*%
%ADD39R,1.320800X0.025400*%
%ADD40R,0.508000X0.025400*%
%ADD41R,1.346200X0.025400*%
%ADD42R,1.397000X0.025400*%
%ADD43R,1.600200X0.025400*%
%ADD44R,0.787400X0.025400*%
%ADD45R,0.406400X0.025400*%
%ADD46R,0.609600X0.025400*%
%ADD47R,0.304800X0.025400*%
%ADD48R,1.727200X0.025400*%
%ADD49R,1.701800X0.025400*%
%ADD50R,0.279400X0.025400*%
%ADD51R,1.498600X0.025400*%
%ADD52R,1.447800X0.025400*%
%ADD53R,1.473200X0.025400*%
%ADD54R,1.270000X0.025400*%
%ADD55R,1.016000X0.025400*%
%ADD56R,0.863600X0.025400*%
%ADD57R,0.177800X0.025400*%
%ADD58R,0.228600X0.025400*%
%ADD59R,0.152400X0.025400*%
%ADD60R,0.203200X0.025400*%
%ADD61R,0.254000X0.025400*%
%ADD62R,0.101600X0.025400*%
%ADD63R,0.762000X0.025400*%
%ADD64R,22.275800X0.025400*%
%ADD65R,22.225000X0.025400*%
%ADD66R,0.812800X0.025400*%
%ADD67R,0.965200X0.025400*%
%ADD68C,0.152400*%
%ADD69C,0.254000*%
%ADD70C,0.076200*%


D10*
X172974Y28194D03*
X173482Y28194D03*
D11*
X174498Y28194D03*
D10*
X175514Y28194D03*
X176022Y28194D03*
X224282Y28194D03*
X224790Y28194D03*
D12*
X225552Y28194D03*
D10*
X226314Y28194D03*
X226822Y28194D03*
X227330Y28194D03*
X244094Y28194D03*
X244602Y28194D03*
D11*
X245618Y28194D03*
D10*
X246634Y28194D03*
X247142Y28194D03*
X171196Y28448D03*
D13*
X174244Y28448D03*
D10*
X177292Y28448D03*
X190500Y28448D03*
X191008Y28448D03*
D11*
X192024Y28448D03*
D10*
X193040Y28448D03*
X193548Y28448D03*
D13*
X225552Y28448D03*
D10*
X228600Y28448D03*
D13*
X245364Y28448D03*
D14*
X138684Y28702D03*
D15*
X149606Y28702D03*
D16*
X160655Y28702D03*
D17*
X174244Y28702D03*
D18*
X192024Y28702D03*
D15*
X199898Y28702D03*
D16*
X211963Y28702D03*
D17*
X225552Y28702D03*
D10*
X242062Y28702D03*
D19*
X245618Y28702D03*
D15*
X253238Y28702D03*
D16*
X138557Y28956D03*
D14*
X149606Y28956D03*
X160782Y28956D03*
D20*
X174244Y28956D03*
D21*
X191643Y28956D03*
D14*
X199898Y28956D03*
D16*
X211963Y28956D03*
D20*
X225552Y28956D03*
D22*
X245364Y28956D03*
D14*
X253238Y28956D03*
X138684Y29210D03*
X149606Y29210D03*
D16*
X160655Y29210D03*
D23*
X174244Y29210D03*
D24*
X191516Y29210D03*
D15*
X199898Y29210D03*
D16*
X211963Y29210D03*
D25*
X225806Y29210D03*
D20*
X245618Y29210D03*
D15*
X253238Y29210D03*
D16*
X138557Y29464D03*
D14*
X149606Y29464D03*
X160782Y29464D03*
D26*
X174244Y29464D03*
D27*
X191135Y29464D03*
D14*
X199898Y29464D03*
D16*
X211963Y29464D03*
D26*
X225552Y29464D03*
D25*
X245364Y29464D03*
D14*
X253238Y29464D03*
X138684Y29718D03*
D28*
X149606Y29718D03*
D16*
X160655Y29718D03*
D29*
X174244Y29718D03*
D19*
X191262Y29718D03*
D15*
X199898Y29718D03*
D16*
X211963Y29718D03*
D29*
X225552Y29718D03*
D30*
X245364Y29718D03*
D15*
X253238Y29718D03*
D16*
X138557Y29972D03*
D31*
X149733Y29972D03*
D14*
X160782Y29972D03*
D32*
X174244Y29972D03*
D27*
X191135Y29972D03*
D14*
X199898Y29972D03*
D16*
X211963Y29972D03*
D33*
X225679Y29972D03*
D26*
X245364Y29972D03*
D14*
X253238Y29972D03*
X138684Y30226D03*
D28*
X149606Y30226D03*
D16*
X160655Y30226D03*
D34*
X174244Y30226D03*
D17*
X191008Y30226D03*
D15*
X199898Y30226D03*
D16*
X211963Y30226D03*
D35*
X225679Y30226D03*
D29*
X245364Y30226D03*
D15*
X253238Y30226D03*
D16*
X138557Y30480D03*
D18*
X149606Y30480D03*
D14*
X160782Y30480D03*
D36*
X174244Y30480D03*
D37*
X190881Y30480D03*
D14*
X199898Y30480D03*
D16*
X211963Y30480D03*
D38*
X225806Y30480D03*
D32*
X245364Y30480D03*
D14*
X253238Y30480D03*
X138684Y30734D03*
D18*
X149606Y30734D03*
D16*
X160655Y30734D03*
D38*
X174244Y30734D03*
D17*
X191008Y30734D03*
D15*
X199898Y30734D03*
D16*
X211963Y30734D03*
D39*
X225679Y30734D03*
D34*
X245364Y30734D03*
D15*
X253238Y30734D03*
D16*
X138557Y30988D03*
D40*
X149733Y30988D03*
D14*
X160782Y30988D03*
D41*
X174244Y30988D03*
D37*
X190881Y30988D03*
D14*
X199898Y30988D03*
D16*
X211963Y30988D03*
D42*
X225806Y30988D03*
D43*
X247142Y30988D03*
D14*
X138684Y31242D03*
D13*
X149606Y31242D03*
D16*
X160655Y31242D03*
D24*
X170180Y31242D03*
D10*
X173482Y31242D03*
X175514Y31242D03*
D13*
X178562Y31242D03*
D37*
X190881Y31242D03*
D15*
X199898Y31242D03*
D16*
X211963Y31242D03*
D24*
X221488Y31242D03*
D10*
X224790Y31242D03*
X226314Y31242D03*
D24*
X229616Y31242D03*
X241808Y31242D03*
D10*
X245110Y31242D03*
X245618Y31242D03*
X246126Y31242D03*
X246634Y31242D03*
D44*
X250952Y31242D03*
D16*
X138557Y31496D03*
D21*
X149733Y31496D03*
D14*
X160782Y31496D03*
D13*
X169672Y31496D03*
D10*
X172720Y31496D03*
D18*
X179070Y31496D03*
D37*
X190881Y31496D03*
D14*
X199898Y31496D03*
D16*
X211963Y31496D03*
D13*
X220980Y31496D03*
D21*
X230251Y31496D03*
D24*
X241554Y31496D03*
D22*
X251460Y31496D03*
D14*
X138684Y31750D03*
D13*
X149606Y31750D03*
D16*
X160655Y31750D03*
D31*
X169291Y31750D03*
D45*
X179451Y31750D03*
D28*
X189230Y31750D03*
D15*
X199898Y31750D03*
D16*
X211963Y31750D03*
D18*
X220472Y31750D03*
X230632Y31750D03*
D40*
X241173Y31750D03*
D19*
X251714Y31750D03*
D16*
X138557Y32004D03*
D24*
X149606Y32004D03*
D14*
X160782Y32004D03*
D31*
X169037Y32004D03*
D14*
X179578Y32004D03*
X189230Y32004D03*
X199898Y32004D03*
D16*
X211963Y32004D03*
D18*
X220218Y32004D03*
X230886Y32004D03*
X241046Y32004D03*
D19*
X251968Y32004D03*
D14*
X138684Y32258D03*
D46*
X149733Y32258D03*
D16*
X160655Y32258D03*
D28*
X168910Y32258D03*
D14*
X179832Y32258D03*
X188976Y32258D03*
D15*
X199898Y32258D03*
D16*
X211963Y32258D03*
D28*
X220218Y32258D03*
X231394Y32258D03*
X240538Y32258D03*
D13*
X252222Y32258D03*
D16*
X138557Y32512D03*
D19*
X149606Y32512D03*
D14*
X160782Y32512D03*
D28*
X168656Y32512D03*
D14*
X180086Y32512D03*
X188976Y32512D03*
X199898Y32512D03*
D16*
X211963Y32512D03*
D28*
X219964Y32512D03*
D31*
X231267Y32512D03*
D28*
X240284Y32512D03*
D13*
X252476Y32512D03*
D14*
X138684Y32766D03*
D19*
X149606Y32766D03*
D16*
X160655Y32766D03*
D14*
X168402Y32766D03*
D16*
X180213Y32766D03*
D14*
X188976Y32766D03*
D15*
X199898Y32766D03*
D16*
X211963Y32766D03*
D28*
X219710Y32766D03*
D45*
X231521Y32766D03*
X240157Y32766D03*
D18*
X252476Y32766D03*
D16*
X138557Y33020D03*
D17*
X149606Y33020D03*
D14*
X160782Y33020D03*
D45*
X168275Y33020D03*
D16*
X180213Y33020D03*
X188849Y33020D03*
D14*
X199898Y33020D03*
D16*
X211963Y33020D03*
D28*
X219456Y33020D03*
X231648Y33020D03*
D14*
X240030Y33020D03*
D18*
X252730Y33020D03*
D14*
X138684Y33274D03*
D15*
X148082Y33274D03*
D47*
X151511Y33274D03*
D16*
X160655Y33274D03*
D14*
X168148Y33274D03*
D16*
X180467Y33274D03*
D14*
X188976Y33274D03*
D15*
X199898Y33274D03*
D16*
X211963Y33274D03*
D14*
X219456Y33274D03*
D45*
X232029Y33274D03*
D14*
X239776Y33274D03*
D31*
X252603Y33274D03*
D16*
X138557Y33528D03*
D15*
X147828Y33528D03*
X151384Y33528D03*
D14*
X160782Y33528D03*
X167894Y33528D03*
X180594Y33528D03*
D16*
X188849Y33528D03*
D14*
X199898Y33528D03*
D16*
X211963Y33528D03*
D14*
X219202Y33528D03*
D45*
X232029Y33528D03*
D28*
X239776Y33528D03*
D18*
X252730Y33528D03*
D14*
X138684Y33782D03*
D16*
X147701Y33782D03*
D15*
X151638Y33782D03*
D16*
X160655Y33782D03*
D15*
X167894Y33782D03*
D10*
X179070Y33782D03*
X179578Y33782D03*
X180086Y33782D03*
X180594Y33782D03*
X181102Y33782D03*
X181610Y33782D03*
X182118Y33782D03*
D14*
X188976Y33782D03*
D15*
X199898Y33782D03*
D16*
X211963Y33782D03*
D14*
X218948Y33782D03*
X232156Y33782D03*
X239776Y33782D03*
D28*
X252730Y33782D03*
D16*
X138557Y34036D03*
X147701Y34036D03*
D47*
X151765Y34036D03*
D14*
X160782Y34036D03*
D16*
X167767Y34036D03*
X188849Y34036D03*
D14*
X199898Y34036D03*
D16*
X211963Y34036D03*
D45*
X219075Y34036D03*
D14*
X232410Y34036D03*
X239522Y34036D03*
D28*
X252984Y34036D03*
D14*
X138684Y34290D03*
D15*
X147574Y34290D03*
D47*
X151765Y34290D03*
D16*
X160655Y34290D03*
X167767Y34290D03*
D14*
X188976Y34290D03*
D15*
X199898Y34290D03*
D16*
X211963Y34290D03*
D14*
X218948Y34290D03*
D16*
X232283Y34290D03*
X239395Y34290D03*
D14*
X252984Y34290D03*
D16*
X138557Y34544D03*
X147447Y34544D03*
D15*
X151892Y34544D03*
D14*
X160782Y34544D03*
D15*
X167640Y34544D03*
D16*
X188849Y34544D03*
D14*
X199898Y34544D03*
D16*
X211963Y34544D03*
D14*
X218694Y34544D03*
X232410Y34544D03*
X239522Y34544D03*
D28*
X252984Y34544D03*
D14*
X138684Y34798D03*
D15*
X147574Y34798D03*
D47*
X152019Y34798D03*
D16*
X160655Y34798D03*
X167513Y34798D03*
D14*
X188976Y34798D03*
D15*
X199898Y34798D03*
D16*
X211963Y34798D03*
X218821Y34798D03*
D14*
X232664Y34798D03*
X239268Y34798D03*
X252984Y34798D03*
D16*
X138557Y35052D03*
D15*
X147320Y35052D03*
X151892Y35052D03*
D14*
X160782Y35052D03*
D16*
X167513Y35052D03*
X188849Y35052D03*
D14*
X199898Y35052D03*
D16*
X211963Y35052D03*
D14*
X218694Y35052D03*
X232664Y35052D03*
D16*
X239141Y35052D03*
D14*
X253238Y35052D03*
X138684Y35306D03*
D16*
X147193Y35306D03*
D15*
X152146Y35306D03*
D16*
X160655Y35306D03*
D15*
X167386Y35306D03*
D14*
X188976Y35306D03*
D15*
X199898Y35306D03*
D16*
X211963Y35306D03*
X218567Y35306D03*
D14*
X232664Y35306D03*
D16*
X239141Y35306D03*
X253111Y35306D03*
X138557Y35560D03*
X147193Y35560D03*
D15*
X152400Y35560D03*
D14*
X160782Y35560D03*
X167386Y35560D03*
D16*
X188849Y35560D03*
D14*
X199898Y35560D03*
D16*
X211963Y35560D03*
D14*
X218694Y35560D03*
D16*
X232791Y35560D03*
D14*
X239014Y35560D03*
X253238Y35560D03*
X138684Y35814D03*
D15*
X147066Y35814D03*
D47*
X152273Y35814D03*
D16*
X160655Y35814D03*
D15*
X167386Y35814D03*
D14*
X188976Y35814D03*
D15*
X199898Y35814D03*
D16*
X211963Y35814D03*
D14*
X218440Y35814D03*
D16*
X232791Y35814D03*
X239141Y35814D03*
X253111Y35814D03*
X138557Y36068D03*
X146939Y36068D03*
D15*
X152400Y36068D03*
D14*
X160782Y36068D03*
D48*
X174117Y36068D03*
D16*
X188849Y36068D03*
D14*
X199898Y36068D03*
D16*
X211963Y36068D03*
X218567Y36068D03*
D14*
X232918Y36068D03*
X239014Y36068D03*
X253238Y36068D03*
X138684Y36322D03*
D16*
X146939Y36322D03*
D47*
X152527Y36322D03*
D16*
X160655Y36322D03*
D49*
X174244Y36322D03*
D14*
X188976Y36322D03*
D15*
X199898Y36322D03*
D16*
X211963Y36322D03*
D14*
X218440Y36322D03*
D15*
X232918Y36322D03*
X239014Y36322D03*
X253238Y36322D03*
D16*
X138557Y36576D03*
D15*
X146812Y36576D03*
D16*
X152527Y36576D03*
D14*
X160782Y36576D03*
D48*
X174117Y36576D03*
D16*
X188849Y36576D03*
D14*
X199898Y36576D03*
D16*
X211963Y36576D03*
X218313Y36576D03*
D14*
X232918Y36576D03*
X239014Y36576D03*
X253238Y36576D03*
X138684Y36830D03*
D16*
X146685Y36830D03*
D15*
X152654Y36830D03*
D16*
X160655Y36830D03*
D49*
X174244Y36830D03*
D14*
X188976Y36830D03*
D15*
X199898Y36830D03*
D16*
X211963Y36830D03*
D14*
X218440Y36830D03*
D15*
X232918Y36830D03*
X239014Y36830D03*
X253238Y36830D03*
D16*
X138557Y37084D03*
X146685Y37084D03*
D15*
X152908Y37084D03*
D14*
X160782Y37084D03*
D48*
X174117Y37084D03*
D16*
X188849Y37084D03*
D14*
X199898Y37084D03*
D16*
X211963Y37084D03*
X218313Y37084D03*
D14*
X232918Y37084D03*
X239014Y37084D03*
X253238Y37084D03*
X138684Y37338D03*
D15*
X146558Y37338D03*
D50*
X152908Y37338D03*
D16*
X160655Y37338D03*
D49*
X174244Y37338D03*
D14*
X188976Y37338D03*
D15*
X199898Y37338D03*
D16*
X211963Y37338D03*
X218313Y37338D03*
D15*
X232918Y37338D03*
X239014Y37338D03*
X253238Y37338D03*
D16*
X138557Y37592D03*
X146431Y37592D03*
D15*
X152908Y37592D03*
D14*
X160782Y37592D03*
D48*
X174117Y37592D03*
D16*
X188849Y37592D03*
D14*
X199898Y37592D03*
D16*
X211963Y37592D03*
X218313Y37592D03*
D14*
X232918Y37592D03*
X239014Y37592D03*
X253238Y37592D03*
X138684Y37846D03*
D16*
X146431Y37846D03*
D15*
X153162Y37846D03*
D16*
X160655Y37846D03*
D49*
X174244Y37846D03*
D14*
X188976Y37846D03*
D15*
X199898Y37846D03*
D16*
X211963Y37846D03*
X218313Y37846D03*
D15*
X232918Y37846D03*
X239014Y37846D03*
X253238Y37846D03*
D16*
X138557Y38100D03*
D15*
X146304Y38100D03*
X153162Y38100D03*
D14*
X160782Y38100D03*
D48*
X174117Y38100D03*
D16*
X188849Y38100D03*
D14*
X199898Y38100D03*
D16*
X211963Y38100D03*
X218313Y38100D03*
D14*
X232918Y38100D03*
X239014Y38100D03*
X253238Y38100D03*
X138684Y38354D03*
D15*
X146050Y38354D03*
X153162Y38354D03*
D16*
X160655Y38354D03*
D49*
X174244Y38354D03*
D14*
X188976Y38354D03*
D15*
X199898Y38354D03*
D16*
X211963Y38354D03*
D14*
X218440Y38354D03*
D15*
X232918Y38354D03*
X239014Y38354D03*
X253238Y38354D03*
D16*
X138557Y38608D03*
D14*
X146050Y38608D03*
D15*
X153416Y38608D03*
D14*
X160782Y38608D03*
D48*
X174117Y38608D03*
D16*
X188849Y38608D03*
D14*
X199898Y38608D03*
D16*
X211963Y38608D03*
X218313Y38608D03*
D14*
X232918Y38608D03*
X239014Y38608D03*
X253238Y38608D03*
X138684Y38862D03*
D15*
X146050Y38862D03*
D47*
X153543Y38862D03*
D16*
X160655Y38862D03*
D49*
X174244Y38862D03*
D14*
X188976Y38862D03*
D15*
X199898Y38862D03*
D16*
X211963Y38862D03*
D14*
X218440Y38862D03*
D16*
X232791Y38862D03*
X239141Y38862D03*
D15*
X253238Y38862D03*
D16*
X138557Y39116D03*
D15*
X145796Y39116D03*
X153416Y39116D03*
D14*
X160782Y39116D03*
D48*
X174117Y39116D03*
D16*
X188849Y39116D03*
D14*
X199898Y39116D03*
D16*
X211963Y39116D03*
X218567Y39116D03*
D14*
X232918Y39116D03*
X239014Y39116D03*
X253238Y39116D03*
X138684Y39370D03*
D16*
X145669Y39370D03*
D15*
X153670Y39370D03*
D16*
X160655Y39370D03*
D15*
X167386Y39370D03*
D14*
X180848Y39370D03*
X188976Y39370D03*
D15*
X199898Y39370D03*
D16*
X211963Y39370D03*
X218567Y39370D03*
X232791Y39370D03*
X239141Y39370D03*
X253111Y39370D03*
X138557Y39624D03*
X145669Y39624D03*
X153797Y39624D03*
D14*
X160782Y39624D03*
D16*
X167513Y39624D03*
D15*
X180848Y39624D03*
D16*
X188849Y39624D03*
D14*
X199898Y39624D03*
D16*
X211963Y39624D03*
D14*
X218694Y39624D03*
D16*
X232791Y39624D03*
D14*
X239014Y39624D03*
X253238Y39624D03*
X138684Y39878D03*
D15*
X145542Y39878D03*
X153670Y39878D03*
D16*
X160655Y39878D03*
D15*
X167386Y39878D03*
D16*
X180721Y39878D03*
D14*
X188976Y39878D03*
D15*
X199898Y39878D03*
D16*
X211963Y39878D03*
X218567Y39878D03*
D14*
X232664Y39878D03*
X239268Y39878D03*
D16*
X253111Y39878D03*
X138557Y40132D03*
D14*
X145542Y40132D03*
D15*
X153924Y40132D03*
D14*
X160782Y40132D03*
D15*
X167640Y40132D03*
D16*
X180721Y40132D03*
X188849Y40132D03*
D14*
X199898Y40132D03*
D16*
X211963Y40132D03*
D14*
X218694Y40132D03*
D16*
X232537Y40132D03*
D14*
X239268Y40132D03*
X253238Y40132D03*
X138684Y40386D03*
D15*
X145542Y40386D03*
X153924Y40386D03*
D16*
X160655Y40386D03*
D15*
X167640Y40386D03*
X180594Y40386D03*
D14*
X188976Y40386D03*
D15*
X199898Y40386D03*
D16*
X211963Y40386D03*
X218821Y40386D03*
X232537Y40386D03*
D14*
X239268Y40386D03*
X252984Y40386D03*
D16*
X138557Y40640D03*
D15*
X145288Y40640D03*
X153924Y40640D03*
D14*
X160782Y40640D03*
D15*
X167640Y40640D03*
D14*
X180594Y40640D03*
D16*
X188849Y40640D03*
D14*
X199898Y40640D03*
D16*
X211963Y40640D03*
D45*
X218821Y40640D03*
D14*
X232410Y40640D03*
X239522Y40640D03*
D28*
X252984Y40640D03*
D14*
X138684Y40894D03*
D16*
X145161Y40894D03*
D15*
X154178Y40894D03*
D16*
X160655Y40894D03*
D15*
X167894Y40894D03*
D16*
X180467Y40894D03*
D14*
X188976Y40894D03*
D16*
X200025Y40894D03*
D14*
X211836Y40894D03*
X218948Y40894D03*
D16*
X232283Y40894D03*
D14*
X239522Y40894D03*
X252984Y40894D03*
D16*
X138557Y41148D03*
X145161Y41148D03*
D15*
X154178Y41148D03*
D14*
X160782Y41148D03*
X167894Y41148D03*
D16*
X180467Y41148D03*
X188849Y41148D03*
D45*
X200025Y41148D03*
D14*
X211836Y41148D03*
D45*
X219075Y41148D03*
X232283Y41148D03*
X239649Y41148D03*
D28*
X252984Y41148D03*
D14*
X138684Y41402D03*
D15*
X145034Y41402D03*
D47*
X154305Y41402D03*
D16*
X160655Y41402D03*
D15*
X167894Y41402D03*
D14*
X180340Y41402D03*
X188976Y41402D03*
X200152Y41402D03*
X211836Y41402D03*
D45*
X219075Y41402D03*
D14*
X232156Y41402D03*
X239776Y41402D03*
D28*
X252730Y41402D03*
D16*
X138557Y41656D03*
X144907Y41656D03*
D15*
X154432Y41656D03*
D14*
X160782Y41656D03*
D16*
X168021Y41656D03*
D14*
X180086Y41656D03*
D16*
X188849Y41656D03*
D28*
X200152Y41656D03*
D45*
X211709Y41656D03*
X219329Y41656D03*
X232029Y41656D03*
D28*
X239776Y41656D03*
D18*
X252730Y41656D03*
D14*
X138684Y41910D03*
D16*
X144907Y41910D03*
X154559Y41910D03*
X160655Y41910D03*
X168275Y41910D03*
X179959Y41910D03*
D14*
X188976Y41910D03*
D45*
X200279Y41910D03*
D14*
X211836Y41910D03*
X219456Y41910D03*
D45*
X231775Y41910D03*
D28*
X240030Y41910D03*
D31*
X252603Y41910D03*
D16*
X138557Y42164D03*
D15*
X144780Y42164D03*
X154432Y42164D03*
D14*
X160782Y42164D03*
X168402Y42164D03*
D45*
X179959Y42164D03*
D16*
X188849Y42164D03*
D18*
X200406Y42164D03*
D45*
X211709Y42164D03*
X219583Y42164D03*
D28*
X231648Y42164D03*
D31*
X240157Y42164D03*
D40*
X252603Y42164D03*
D14*
X138684Y42418D03*
D16*
X144653Y42418D03*
D15*
X154686Y42418D03*
D16*
X160655Y42418D03*
D14*
X168656Y42418D03*
X179832Y42418D03*
X188976Y42418D03*
D28*
X200406Y42418D03*
X211582Y42418D03*
X219710Y42418D03*
X231394Y42418D03*
X240284Y42418D03*
D18*
X252476Y42418D03*
D16*
X138557Y42672D03*
D14*
X144526Y42672D03*
D16*
X154813Y42672D03*
D14*
X160782Y42672D03*
D45*
X168783Y42672D03*
D28*
X179324Y42672D03*
D16*
X188849Y42672D03*
D40*
X200533Y42672D03*
D28*
X211328Y42672D03*
X219964Y42672D03*
D31*
X231267Y42672D03*
D18*
X240538Y42672D03*
D24*
X252222Y42672D03*
D14*
X138684Y42926D03*
D15*
X144526Y42926D03*
D47*
X154813Y42926D03*
D16*
X160655Y42926D03*
D45*
X169037Y42926D03*
D14*
X179324Y42926D03*
X188976Y42926D03*
D40*
X200787Y42926D03*
D28*
X211328Y42926D03*
X220218Y42926D03*
D31*
X231013Y42926D03*
D18*
X240792Y42926D03*
D13*
X252222Y42926D03*
D16*
X138557Y43180D03*
X144399Y43180D03*
D15*
X154940Y43180D03*
D14*
X160782Y43180D03*
D18*
X169418Y43180D03*
D31*
X178943Y43180D03*
D10*
X184404Y43180D03*
X184912Y43180D03*
X185420Y43180D03*
X185928Y43180D03*
X186436Y43180D03*
D28*
X188976Y43180D03*
D10*
X191516Y43180D03*
X192024Y43180D03*
X192532Y43180D03*
X193040Y43180D03*
X193548Y43180D03*
X194056Y43180D03*
D24*
X200914Y43180D03*
D18*
X211074Y43180D03*
D40*
X220599Y43180D03*
D18*
X230886Y43180D03*
D40*
X240919Y43180D03*
D19*
X251968Y43180D03*
D14*
X138684Y43434D03*
D16*
X144399Y43434D03*
D47*
X155067Y43434D03*
D16*
X160655Y43434D03*
D18*
X169672Y43434D03*
D31*
X178689Y43434D03*
D26*
X189230Y43434D03*
D24*
X201168Y43434D03*
D18*
X210820Y43434D03*
D40*
X220853Y43434D03*
D13*
X230378Y43434D03*
D40*
X241173Y43434D03*
D19*
X251714Y43434D03*
D16*
X138557Y43688D03*
D15*
X144272Y43688D03*
D16*
X155067Y43688D03*
D14*
X160782Y43688D03*
D13*
X170180Y43688D03*
D10*
X173228Y43688D03*
D24*
X178054Y43688D03*
D26*
X189230Y43688D03*
D17*
X201422Y43688D03*
D10*
X205232Y43688D03*
X207264Y43688D03*
D21*
X210439Y43688D03*
D19*
X221488Y43688D03*
D10*
X226568Y43688D03*
D24*
X229870Y43688D03*
D19*
X241808Y43688D03*
D10*
X245364Y43688D03*
X246888Y43688D03*
D44*
X251206Y43688D03*
D14*
X138684Y43942D03*
D16*
X144145Y43942D03*
D15*
X155194Y43942D03*
D16*
X160655Y43942D03*
D38*
X174244Y43942D03*
D26*
X189230Y43942D03*
D51*
X205740Y43942D03*
D42*
X225552Y43942D03*
D43*
X246888Y43942D03*
D16*
X138557Y44196D03*
D14*
X144018Y44196D03*
D16*
X155321Y44196D03*
D14*
X160782Y44196D03*
D36*
X174244Y44196D03*
D26*
X189230Y44196D03*
D51*
X205486Y44196D03*
D41*
X225552Y44196D03*
D43*
X247142Y44196D03*
D14*
X138684Y44450D03*
D15*
X144018Y44450D03*
D47*
X155321Y44450D03*
D16*
X160655Y44450D03*
D34*
X174244Y44450D03*
D26*
X189230Y44450D03*
D52*
X205486Y44450D03*
D38*
X225552Y44450D03*
D34*
X245364Y44450D03*
D15*
X253238Y44450D03*
D16*
X138557Y44704D03*
X143891Y44704D03*
D15*
X155448Y44704D03*
D14*
X160782Y44704D03*
D32*
X174244Y44704D03*
D26*
X189230Y44704D03*
D53*
X205359Y44704D03*
D54*
X225679Y44704D03*
D32*
X245364Y44704D03*
D14*
X253238Y44704D03*
X138684Y44958D03*
D16*
X143891Y44958D03*
D15*
X155702Y44958D03*
D16*
X160655Y44958D03*
D29*
X174244Y44958D03*
D26*
X189230Y44958D03*
D15*
X199898Y44958D03*
D26*
X207010Y44958D03*
D34*
X225552Y44958D03*
D29*
X245364Y44958D03*
D15*
X253238Y44958D03*
D16*
X138557Y45212D03*
X143637Y45212D03*
X155575Y45212D03*
D14*
X160782Y45212D03*
D26*
X174244Y45212D03*
X189230Y45212D03*
D14*
X199898Y45212D03*
D55*
X207137Y45212D03*
D32*
X225552Y45212D03*
D26*
X245364Y45212D03*
D14*
X253238Y45212D03*
X138684Y45466D03*
D15*
X143510Y45466D03*
X155702Y45466D03*
D16*
X160655Y45466D03*
D25*
X173990Y45466D03*
D26*
X189230Y45466D03*
D15*
X199898Y45466D03*
D23*
X207264Y45466D03*
D26*
X225806Y45466D03*
D25*
X245110Y45466D03*
D15*
X253238Y45466D03*
D16*
X138557Y45720D03*
D14*
X143510Y45720D03*
D16*
X155829Y45720D03*
D14*
X160782Y45720D03*
D25*
X174244Y45720D03*
D26*
X189230Y45720D03*
D14*
X199898Y45720D03*
D56*
X207137Y45720D03*
D30*
X225806Y45720D03*
D23*
X245110Y45720D03*
D14*
X253238Y45720D03*
X138684Y45974D03*
D16*
X143383Y45974D03*
D15*
X155956Y45974D03*
D16*
X160655Y45974D03*
D44*
X174244Y45974D03*
D26*
X189230Y45974D03*
D15*
X199898Y45974D03*
D44*
X207264Y45974D03*
D23*
X225552Y45974D03*
D22*
X245110Y45974D03*
D10*
X249174Y45974D03*
D15*
X253238Y45974D03*
D16*
X138557Y46228D03*
X143383Y46228D03*
D15*
X155956Y46228D03*
D14*
X160782Y46228D03*
D17*
X173990Y46228D03*
D10*
X177800Y46228D03*
D26*
X189230Y46228D03*
D14*
X199898Y46228D03*
D10*
X203708Y46228D03*
D17*
X207518Y46228D03*
D22*
X225552Y46228D03*
D10*
X229616Y46228D03*
D17*
X245110Y46228D03*
D14*
X253238Y46228D03*
X138684Y46482D03*
D16*
X143129Y46482D03*
D15*
X156210Y46482D03*
D16*
X160655Y46482D03*
D13*
X173990Y46482D03*
D10*
X177038Y46482D03*
D14*
X188976Y46482D03*
D15*
X199898Y46482D03*
D13*
X207518Y46482D03*
D24*
X225552Y46482D03*
D10*
X228854Y46482D03*
D13*
X245110Y46482D03*
D15*
X253238Y46482D03*
D16*
X138557Y46736D03*
X143129Y46736D03*
D14*
X156210Y46736D03*
X160782Y46736D03*
D10*
X172212Y46736D03*
D15*
X174244Y46736D03*
D10*
X176276Y46736D03*
D16*
X188849Y46736D03*
D14*
X199898Y46736D03*
D10*
X205232Y46736D03*
D14*
X207518Y46736D03*
D10*
X209804Y46736D03*
D28*
X225552Y46736D03*
D10*
X228092Y46736D03*
D14*
X245110Y46736D03*
X253238Y46736D03*
X138684Y46990D03*
D15*
X143002Y46990D03*
X156210Y46990D03*
D16*
X160655Y46990D03*
D14*
X188976Y46990D03*
D15*
X199898Y46990D03*
X253238Y46990D03*
D16*
X138557Y47244D03*
D14*
X143002Y47244D03*
D15*
X156464Y47244D03*
D14*
X160782Y47244D03*
D16*
X188849Y47244D03*
D14*
X199898Y47244D03*
X253238Y47244D03*
X138684Y47498D03*
D16*
X142875Y47498D03*
D15*
X156464Y47498D03*
D16*
X160655Y47498D03*
D14*
X188976Y47498D03*
D15*
X199898Y47498D03*
X253238Y47498D03*
D16*
X138557Y47752D03*
D15*
X142748Y47752D03*
D16*
X156591Y47752D03*
D14*
X160782Y47752D03*
D16*
X188849Y47752D03*
D14*
X199898Y47752D03*
X253238Y47752D03*
X138684Y48006D03*
D16*
X142621Y48006D03*
D15*
X156718Y48006D03*
D16*
X160655Y48006D03*
D14*
X188976Y48006D03*
D15*
X199898Y48006D03*
X253238Y48006D03*
D16*
X138557Y48260D03*
D14*
X142494Y48260D03*
X156718Y48260D03*
X160782Y48260D03*
D16*
X188849Y48260D03*
D14*
X199898Y48260D03*
X253238Y48260D03*
X138684Y48514D03*
D15*
X142494Y48514D03*
X156718Y48514D03*
D16*
X160655Y48514D03*
D14*
X188976Y48514D03*
D15*
X199898Y48514D03*
X253238Y48514D03*
D16*
X138557Y48768D03*
D14*
X142494Y48768D03*
D15*
X156972Y48768D03*
D14*
X160782Y48768D03*
D16*
X188849Y48768D03*
D14*
X199898Y48768D03*
X253238Y48768D03*
D22*
X140462Y49022D03*
D37*
X158877Y49022D03*
D14*
X188976Y49022D03*
D15*
X199898Y49022D03*
X253238Y49022D03*
D37*
X140335Y49276D03*
D22*
X159004Y49276D03*
D16*
X188849Y49276D03*
D14*
X199898Y49276D03*
X253238Y49276D03*
D37*
X140335Y49530D03*
D17*
X159004Y49530D03*
D14*
X188976Y49530D03*
D15*
X199898Y49530D03*
X253238Y49530D03*
D37*
X140335Y49784D03*
D22*
X159004Y49784D03*
D16*
X188849Y49784D03*
D14*
X199898Y49784D03*
X253238Y49784D03*
D17*
X140208Y50038D03*
X159004Y50038D03*
D14*
X188976Y50038D03*
D15*
X199898Y50038D03*
X253238Y50038D03*
D37*
X140335Y50292D03*
D17*
X159258Y50292D03*
D16*
X188849Y50292D03*
D14*
X199898Y50292D03*
X253238Y50292D03*
D17*
X140208Y50546D03*
D19*
X159258Y50546D03*
D14*
X188976Y50546D03*
D15*
X199898Y50546D03*
X253238Y50546D03*
D27*
X140081Y50800D03*
D17*
X159258Y50800D03*
D16*
X188849Y50800D03*
D14*
X199898Y50800D03*
X253238Y50800D03*
D27*
X140081Y51054D03*
D19*
X159258Y51054D03*
D14*
X188976Y51054D03*
D15*
X199898Y51054D03*
X253238Y51054D03*
D27*
X140081Y51308D03*
X159385Y51308D03*
D16*
X188849Y51308D03*
D14*
X199898Y51308D03*
X253238Y51308D03*
D19*
X139954Y51562D03*
X159258Y51562D03*
D14*
X188976Y51562D03*
D15*
X199898Y51562D03*
X253238Y51562D03*
D19*
X139954Y51816D03*
X159512Y51816D03*
D16*
X188849Y51816D03*
D14*
X199898Y51816D03*
X253238Y51816D03*
D19*
X139954Y52070D03*
D46*
X159385Y52070D03*
D15*
X199898Y52070D03*
X253238Y52070D03*
D46*
X139827Y52324D03*
D19*
X159512Y52324D03*
D14*
X199898Y52324D03*
X253238Y52324D03*
D24*
X139700Y52578D03*
X159512Y52578D03*
D15*
X199898Y52578D03*
X253238Y52578D03*
D46*
X139827Y52832D03*
X159639Y52832D03*
D14*
X199898Y52832D03*
X253238Y52832D03*
D24*
X139700Y53086D03*
X159512Y53086D03*
D15*
X199898Y53086D03*
X253238Y53086D03*
D21*
X139573Y53340D03*
D24*
X159766Y53340D03*
D16*
X199771Y53340D03*
D14*
X253238Y53340D03*
D24*
X239014Y82550D03*
X239014Y82804D03*
D57*
X145288Y83820D03*
D10*
X146558Y83820D03*
D11*
X148590Y83820D03*
D10*
X151130Y83820D03*
D57*
X152400Y83820D03*
X158496Y83820D03*
D10*
X159766Y83820D03*
D57*
X165100Y83820D03*
D58*
X175514Y83820D03*
D10*
X230886Y83820D03*
D57*
X232156Y83820D03*
D58*
X261874Y83820D03*
D10*
X277622Y83820D03*
D57*
X278892Y83820D03*
D10*
X287274Y83820D03*
D11*
X288290Y83820D03*
D10*
X289306Y83820D03*
D18*
X137922Y84074D03*
D50*
X145542Y84074D03*
D57*
X148590Y84074D03*
D15*
X152400Y84074D03*
D50*
X158750Y84074D03*
D10*
X163576Y84074D03*
D58*
X165100Y84074D03*
D11*
X167640Y84074D03*
D50*
X175514Y84074D03*
D59*
X180467Y84074D03*
D11*
X184404Y84074D03*
X190500Y84074D03*
X194310Y84074D03*
D59*
X197993Y84074D03*
D11*
X201168Y84074D03*
X206248Y84074D03*
D57*
X214630Y84074D03*
D59*
X222123Y84074D03*
D15*
X232156Y84074D03*
D19*
X245872Y84074D03*
D28*
X252476Y84074D03*
D14*
X261874Y84074D03*
D59*
X272415Y84074D03*
D50*
X278638Y84074D03*
D11*
X283464Y84074D03*
D50*
X288290Y84074D03*
D24*
X138176Y84328D03*
D16*
X145415Y84328D03*
D57*
X148336Y84328D03*
D28*
X152146Y84328D03*
D14*
X158496Y84328D03*
D16*
X164973Y84328D03*
D59*
X167767Y84328D03*
D28*
X175514Y84328D03*
D11*
X180594Y84328D03*
X184658Y84328D03*
X190754Y84328D03*
X194310Y84328D03*
X197866Y84328D03*
D57*
X201168Y84328D03*
X206248Y84328D03*
D11*
X214630Y84328D03*
X222250Y84328D03*
D31*
X232029Y84328D03*
D24*
X245872Y84328D03*
D13*
X252730Y84328D03*
D28*
X261874Y84328D03*
D57*
X272288Y84328D03*
D45*
X278765Y84328D03*
D57*
X283464Y84328D03*
D15*
X288290Y84328D03*
D24*
X138430Y84582D03*
D21*
X146431Y84582D03*
D28*
X152400Y84582D03*
D45*
X158623Y84582D03*
D14*
X164846Y84582D03*
D11*
X167640Y84582D03*
D31*
X175641Y84582D03*
D11*
X180594Y84582D03*
X184404Y84582D03*
D59*
X190627Y84582D03*
D57*
X194310Y84582D03*
D59*
X197993Y84582D03*
D11*
X201168Y84582D03*
X206248Y84582D03*
D59*
X214503Y84582D03*
X222123Y84582D03*
D18*
X231902Y84582D03*
D19*
X245872Y84582D03*
D13*
X252984Y84582D03*
D18*
X261874Y84582D03*
D60*
X272415Y84582D03*
D28*
X278892Y84582D03*
D59*
X283337Y84582D03*
D14*
X288290Y84582D03*
D27*
X138557Y84836D03*
D57*
X144272Y84836D03*
D58*
X147574Y84836D03*
D60*
X150749Y84836D03*
D57*
X153924Y84836D03*
X156972Y84836D03*
D10*
X158242Y84836D03*
D57*
X160020Y84836D03*
X163576Y84836D03*
D10*
X164846Y84836D03*
D50*
X167132Y84836D03*
D60*
X174117Y84836D03*
D58*
X177038Y84836D03*
D11*
X180594Y84836D03*
X184658Y84836D03*
X190754Y84836D03*
D60*
X194183Y84836D03*
D11*
X197866Y84836D03*
D57*
X201168Y84836D03*
X206248Y84836D03*
D11*
X214630Y84836D03*
X222250Y84836D03*
D58*
X230378Y84836D03*
D60*
X233807Y84836D03*
D24*
X245872Y84836D03*
D46*
X253111Y84836D03*
D57*
X260096Y84836D03*
X263652Y84836D03*
D58*
X272542Y84836D03*
D57*
X277368Y84836D03*
D10*
X279146Y84836D03*
D57*
X280416Y84836D03*
X283464Y84836D03*
X287020Y84836D03*
X289560Y84836D03*
D11*
X136144Y85090D03*
D57*
X140970Y85090D03*
D59*
X144145Y85090D03*
D11*
X147828Y85090D03*
X150368Y85090D03*
X154178Y85090D03*
X156972Y85090D03*
X160528Y85090D03*
D59*
X163449Y85090D03*
D57*
X167386Y85090D03*
D11*
X173736Y85090D03*
D59*
X177419Y85090D03*
D11*
X180594Y85090D03*
X184404Y85090D03*
D59*
X190627Y85090D03*
D57*
X194310Y85090D03*
D59*
X197993Y85090D03*
D11*
X201168Y85090D03*
X206248Y85090D03*
D59*
X214503Y85090D03*
X222123Y85090D03*
D57*
X229870Y85090D03*
D11*
X234188Y85090D03*
D59*
X243459Y85090D03*
D11*
X250952Y85090D03*
D10*
X254000Y85090D03*
D60*
X255397Y85090D03*
D57*
X259842Y85090D03*
D59*
X264033Y85090D03*
D58*
X272288Y85090D03*
D11*
X276860Y85090D03*
D59*
X280543Y85090D03*
X283337Y85090D03*
X286893Y85090D03*
D11*
X290068Y85090D03*
D57*
X136144Y85344D03*
X141224Y85344D03*
D11*
X144018Y85344D03*
D59*
X147955Y85344D03*
X150241Y85344D03*
D11*
X154178Y85344D03*
X156718Y85344D03*
X160782Y85344D03*
X163322Y85344D03*
D57*
X167386Y85344D03*
D11*
X173482Y85344D03*
X177546Y85344D03*
X180594Y85344D03*
X184658Y85344D03*
X190754Y85344D03*
D58*
X194310Y85344D03*
D11*
X197866Y85344D03*
D57*
X201168Y85344D03*
X206248Y85344D03*
D11*
X214630Y85344D03*
X222250Y85344D03*
D57*
X229616Y85344D03*
D59*
X234315Y85344D03*
D11*
X243586Y85344D03*
D57*
X250952Y85344D03*
X255524Y85344D03*
X259588Y85344D03*
X264160Y85344D03*
D61*
X272415Y85344D03*
D59*
X276733Y85344D03*
D11*
X280670Y85344D03*
D57*
X283464Y85344D03*
D11*
X286766Y85344D03*
D59*
X290195Y85344D03*
D11*
X136144Y85598D03*
D59*
X141351Y85598D03*
D11*
X143764Y85598D03*
X147828Y85598D03*
X150368Y85598D03*
X154432Y85598D03*
X156464Y85598D03*
X160782Y85598D03*
X163068Y85598D03*
X167640Y85598D03*
X173228Y85598D03*
X177800Y85598D03*
X180594Y85598D03*
X184404Y85598D03*
X190500Y85598D03*
D58*
X194310Y85598D03*
D11*
X197866Y85598D03*
X201168Y85598D03*
X206248Y85598D03*
X214630Y85598D03*
D59*
X222123Y85598D03*
D11*
X229616Y85598D03*
D59*
X234569Y85598D03*
X243459Y85598D03*
D11*
X250952Y85598D03*
D59*
X255905Y85598D03*
X259461Y85598D03*
X264287Y85598D03*
D11*
X271780Y85598D03*
D62*
X273177Y85598D03*
D59*
X276733Y85598D03*
D11*
X280924Y85598D03*
X286512Y85598D03*
X290068Y85598D03*
D57*
X136144Y85852D03*
D59*
X141605Y85852D03*
D11*
X144018Y85852D03*
D59*
X147955Y85852D03*
D11*
X154178Y85852D03*
D59*
X156591Y85852D03*
X163195Y85852D03*
X167513Y85852D03*
X173355Y85852D03*
D57*
X177800Y85852D03*
D11*
X180594Y85852D03*
D59*
X184531Y85852D03*
X190627Y85852D03*
D61*
X194183Y85852D03*
D11*
X197866Y85852D03*
D57*
X201168Y85852D03*
X206248Y85852D03*
D11*
X214630Y85852D03*
X222250Y85852D03*
X229362Y85852D03*
D57*
X234696Y85852D03*
D11*
X243586Y85852D03*
D57*
X250952Y85852D03*
X256032Y85852D03*
D11*
X259334Y85852D03*
D59*
X264541Y85852D03*
D50*
X272288Y85852D03*
D11*
X276606Y85852D03*
D57*
X280924Y85852D03*
D59*
X286385Y85852D03*
D11*
X290322Y85852D03*
X136144Y86106D03*
D59*
X141605Y86106D03*
D57*
X144018Y86106D03*
D11*
X147828Y86106D03*
D57*
X154178Y86106D03*
D11*
X156464Y86106D03*
X163068Y86106D03*
X167640Y86106D03*
X173228Y86106D03*
X177800Y86106D03*
D59*
X180467Y86106D03*
D11*
X184404Y86106D03*
X190500Y86106D03*
X193548Y86106D03*
X195072Y86106D03*
D59*
X197993Y86106D03*
D11*
X201168Y86106D03*
X206248Y86106D03*
D57*
X214630Y86106D03*
D59*
X222123Y86106D03*
X229235Y86106D03*
D11*
X234696Y86106D03*
D59*
X243459Y86106D03*
D11*
X250952Y86106D03*
D59*
X256159Y86106D03*
X259207Y86106D03*
X264541Y86106D03*
X271653Y86106D03*
D11*
X273304Y86106D03*
D59*
X276479Y86106D03*
D11*
X280924Y86106D03*
X286512Y86106D03*
X290322Y86106D03*
D57*
X136144Y86360D03*
D11*
X141478Y86360D03*
D57*
X144272Y86360D03*
D11*
X148082Y86360D03*
D57*
X153924Y86360D03*
D59*
X156337Y86360D03*
X162941Y86360D03*
X167767Y86360D03*
X173101Y86360D03*
X177927Y86360D03*
D11*
X180594Y86360D03*
X184658Y86360D03*
X190754Y86360D03*
D59*
X193421Y86360D03*
D11*
X195326Y86360D03*
X197866Y86360D03*
D57*
X201168Y86360D03*
X206248Y86360D03*
D11*
X214630Y86360D03*
X222250Y86360D03*
D57*
X229108Y86360D03*
D59*
X234823Y86360D03*
D11*
X243586Y86360D03*
D57*
X250952Y86360D03*
D11*
X256286Y86360D03*
D59*
X259207Y86360D03*
X264541Y86360D03*
D11*
X271526Y86360D03*
X273558Y86360D03*
X276606Y86360D03*
D59*
X280797Y86360D03*
D11*
X286258Y86360D03*
X290322Y86360D03*
X136144Y86614D03*
D59*
X141605Y86614D03*
D58*
X144780Y86614D03*
D10*
X146304Y86614D03*
X146812Y86614D03*
D11*
X147828Y86614D03*
D58*
X153416Y86614D03*
D21*
X158623Y86614D03*
D11*
X163068Y86614D03*
X167640Y86614D03*
X173228Y86614D03*
X177800Y86614D03*
X180594Y86614D03*
X184404Y86614D03*
D59*
X190627Y86614D03*
D11*
X193548Y86614D03*
D62*
X195199Y86614D03*
D59*
X197993Y86614D03*
D11*
X201168Y86614D03*
X206248Y86614D03*
D59*
X214503Y86614D03*
X222123Y86614D03*
D11*
X229108Y86614D03*
D59*
X234823Y86614D03*
X243459Y86614D03*
D11*
X250952Y86614D03*
X256540Y86614D03*
D59*
X259207Y86614D03*
D11*
X264668Y86614D03*
X271272Y86614D03*
D62*
X273431Y86614D03*
D11*
X276352Y86614D03*
X280924Y86614D03*
X286258Y86614D03*
X290576Y86614D03*
D57*
X136144Y86868D03*
D11*
X141478Y86868D03*
D40*
X146177Y86868D03*
D16*
X152781Y86868D03*
D24*
X158496Y86868D03*
D59*
X162941Y86868D03*
X167767Y86868D03*
X173101Y86868D03*
X177927Y86868D03*
D11*
X180594Y86868D03*
X184658Y86868D03*
X190754Y86868D03*
X193294Y86868D03*
X195326Y86868D03*
X197866Y86868D03*
D57*
X201168Y86868D03*
X206248Y86868D03*
D11*
X214630Y86868D03*
X222250Y86868D03*
D59*
X228981Y86868D03*
D11*
X234950Y86868D03*
X243586Y86868D03*
D57*
X250952Y86868D03*
D59*
X256413Y86868D03*
X259207Y86868D03*
X264541Y86868D03*
X271399Y86868D03*
D11*
X273558Y86868D03*
D59*
X280797Y86868D03*
D11*
X286258Y86868D03*
D59*
X290449Y86868D03*
D11*
X136144Y87122D03*
D59*
X141351Y87122D03*
D28*
X146304Y87122D03*
D15*
X152400Y87122D03*
D21*
X158623Y87122D03*
D11*
X163068Y87122D03*
X167640Y87122D03*
X173228Y87122D03*
X177800Y87122D03*
X180594Y87122D03*
X184404Y87122D03*
D59*
X190627Y87122D03*
D11*
X193040Y87122D03*
D62*
X195453Y87122D03*
D59*
X197993Y87122D03*
D11*
X201168Y87122D03*
X206248Y87122D03*
D59*
X214503Y87122D03*
X222123Y87122D03*
X228981Y87122D03*
X235077Y87122D03*
X243459Y87122D03*
D11*
X250952Y87122D03*
X256540Y87122D03*
X259080Y87122D03*
X264668Y87122D03*
X271272Y87122D03*
D62*
X273685Y87122D03*
D11*
X280924Y87122D03*
X286258Y87122D03*
X290576Y87122D03*
D57*
X136144Y87376D03*
X141224Y87376D03*
D10*
X144526Y87376D03*
D14*
X146812Y87376D03*
D15*
X151638Y87376D03*
D10*
X153670Y87376D03*
D24*
X158496Y87376D03*
D59*
X162941Y87376D03*
D11*
X167640Y87376D03*
D59*
X173101Y87376D03*
D11*
X178054Y87376D03*
X180594Y87376D03*
X184658Y87376D03*
X190754Y87376D03*
D59*
X193167Y87376D03*
D11*
X195580Y87376D03*
X197866Y87376D03*
D57*
X201168Y87376D03*
X206248Y87376D03*
D28*
X216154Y87376D03*
D10*
X218694Y87376D03*
D11*
X222250Y87376D03*
D59*
X228981Y87376D03*
D11*
X243586Y87376D03*
D57*
X250952Y87376D03*
X256540Y87376D03*
D59*
X259207Y87376D03*
D57*
X264668Y87376D03*
D11*
X271018Y87376D03*
D59*
X273685Y87376D03*
D11*
X280670Y87376D03*
X286258Y87376D03*
D59*
X290449Y87376D03*
D11*
X136144Y87630D03*
D57*
X140970Y87630D03*
D10*
X146304Y87630D03*
D57*
X147574Y87630D03*
D61*
X151257Y87630D03*
D11*
X156464Y87630D03*
X160782Y87630D03*
X163068Y87630D03*
X167640Y87630D03*
X173228Y87630D03*
X177800Y87630D03*
X180594Y87630D03*
X184404Y87630D03*
X190500Y87630D03*
X193040Y87630D03*
X195580Y87630D03*
X197866Y87630D03*
X201168Y87630D03*
X206248Y87630D03*
D40*
X216535Y87630D03*
D59*
X222123Y87630D03*
X228981Y87630D03*
X243459Y87630D03*
D11*
X250952Y87630D03*
X256540Y87630D03*
D59*
X259207Y87630D03*
D11*
X264668Y87630D03*
X271018Y87630D03*
X273812Y87630D03*
D57*
X280162Y87630D03*
D11*
X286004Y87630D03*
X290576Y87630D03*
D19*
X138430Y87884D03*
D59*
X147955Y87884D03*
D60*
X150749Y87884D03*
D11*
X156464Y87884D03*
X160782Y87884D03*
D59*
X163195Y87884D03*
X167513Y87884D03*
X173355Y87884D03*
D57*
X177800Y87884D03*
D11*
X180594Y87884D03*
D59*
X184531Y87884D03*
X190627Y87884D03*
X192913Y87884D03*
X195707Y87884D03*
D11*
X197866Y87884D03*
D57*
X201168Y87884D03*
X206248Y87884D03*
D24*
X216916Y87884D03*
D13*
X224282Y87884D03*
D11*
X228854Y87884D03*
D21*
X245745Y87884D03*
D57*
X250952Y87884D03*
D59*
X256667Y87884D03*
X259207Y87884D03*
D57*
X264668Y87884D03*
D59*
X270891Y87884D03*
X273939Y87884D03*
D47*
X279527Y87884D03*
D11*
X286258Y87884D03*
D59*
X290449Y87884D03*
D24*
X138430Y88138D03*
D11*
X144272Y88138D03*
X147828Y88138D03*
X150368Y88138D03*
X156464Y88138D03*
X160528Y88138D03*
X163068Y88138D03*
X167640Y88138D03*
D59*
X173355Y88138D03*
D11*
X177800Y88138D03*
D57*
X180594Y88138D03*
D11*
X184404Y88138D03*
X190500Y88138D03*
D62*
X192913Y88138D03*
X195707Y88138D03*
D59*
X197993Y88138D03*
D11*
X201168Y88138D03*
X206248Y88138D03*
D46*
X216789Y88138D03*
D13*
X224028Y88138D03*
D59*
X228981Y88138D03*
D24*
X245618Y88138D03*
D11*
X250952Y88138D03*
X256540Y88138D03*
D59*
X259207Y88138D03*
D11*
X264668Y88138D03*
X270764Y88138D03*
X273812Y88138D03*
D58*
X279400Y88138D03*
D11*
X286004Y88138D03*
X290576Y88138D03*
D24*
X138176Y88392D03*
D59*
X144145Y88392D03*
D11*
X148082Y88392D03*
D59*
X150495Y88392D03*
X154051Y88392D03*
D11*
X156718Y88392D03*
D59*
X160655Y88392D03*
D11*
X163322Y88392D03*
D57*
X167640Y88392D03*
D59*
X173609Y88392D03*
D11*
X177546Y88392D03*
D57*
X180848Y88392D03*
X184404Y88392D03*
D11*
X190754Y88392D03*
X192786Y88392D03*
X195834Y88392D03*
X197866Y88392D03*
D57*
X201168Y88392D03*
X206248Y88392D03*
D11*
X214630Y88392D03*
D60*
X219075Y88392D03*
D40*
X224155Y88392D03*
D11*
X228854Y88392D03*
D21*
X245745Y88392D03*
D57*
X250952Y88392D03*
X256540Y88392D03*
D59*
X259207Y88392D03*
X264541Y88392D03*
D57*
X270764Y88392D03*
D11*
X274066Y88392D03*
D58*
X279146Y88392D03*
D11*
X286258Y88392D03*
D59*
X290449Y88392D03*
D13*
X138176Y88646D03*
D11*
X144272Y88646D03*
X147828Y88646D03*
X150368Y88646D03*
X153924Y88646D03*
X156972Y88646D03*
D59*
X160401Y88646D03*
X163449Y88646D03*
D57*
X167386Y88646D03*
D11*
X173736Y88646D03*
D59*
X177419Y88646D03*
X180721Y88646D03*
D11*
X184404Y88646D03*
D59*
X190627Y88646D03*
D11*
X192532Y88646D03*
X196088Y88646D03*
D59*
X197993Y88646D03*
D11*
X201168Y88646D03*
X206248Y88646D03*
D59*
X214503Y88646D03*
X219329Y88646D03*
D13*
X224028Y88646D03*
D59*
X228981Y88646D03*
D24*
X245618Y88646D03*
D11*
X250952Y88646D03*
X256540Y88646D03*
X259080Y88646D03*
X264668Y88646D03*
X270764Y88646D03*
X274320Y88646D03*
D58*
X279400Y88646D03*
D11*
X286258Y88646D03*
X290576Y88646D03*
D57*
X136144Y88900D03*
X140716Y88900D03*
D60*
X144653Y88900D03*
D57*
X147828Y88900D03*
D59*
X150495Y88900D03*
D10*
X151638Y88900D03*
X152654Y88900D03*
D59*
X153797Y88900D03*
D57*
X156972Y88900D03*
D10*
X158242Y88900D03*
D57*
X160020Y88900D03*
X163576Y88900D03*
D10*
X164846Y88900D03*
D50*
X167132Y88900D03*
D60*
X174117Y88900D03*
D58*
X177038Y88900D03*
X181102Y88900D03*
D60*
X184023Y88900D03*
D11*
X190754Y88900D03*
D59*
X192659Y88900D03*
X195961Y88900D03*
D11*
X197866Y88900D03*
D57*
X201168Y88900D03*
X206248Y88900D03*
D11*
X214630Y88900D03*
D57*
X219456Y88900D03*
D11*
X222250Y88900D03*
X228854Y88900D03*
X243586Y88900D03*
D57*
X250952Y88900D03*
X256540Y88900D03*
D59*
X259207Y88900D03*
X264541Y88900D03*
D11*
X270510Y88900D03*
D59*
X274193Y88900D03*
D57*
X279908Y88900D03*
D11*
X286258Y88900D03*
D59*
X290449Y88900D03*
D11*
X136144Y89154D03*
D59*
X140843Y89154D03*
D31*
X146177Y89154D03*
X152273Y89154D03*
D45*
X158623Y89154D03*
D13*
X165608Y89154D03*
D31*
X175641Y89154D03*
D62*
X180467Y89154D03*
D14*
X183134Y89154D03*
D59*
X190627Y89154D03*
D11*
X192532Y89154D03*
X196088Y89154D03*
D59*
X197993Y89154D03*
D11*
X201168Y89154D03*
X206248Y89154D03*
D59*
X214503Y89154D03*
D11*
X219456Y89154D03*
D59*
X222123Y89154D03*
X228981Y89154D03*
X243459Y89154D03*
D11*
X250952Y89154D03*
X256540Y89154D03*
X259080Y89154D03*
X264668Y89154D03*
D59*
X270383Y89154D03*
D11*
X274320Y89154D03*
D59*
X280289Y89154D03*
D11*
X286258Y89154D03*
X290576Y89154D03*
D57*
X136144Y89408D03*
D11*
X140970Y89408D03*
D28*
X146050Y89408D03*
X152146Y89408D03*
D14*
X158496Y89408D03*
D40*
X165735Y89408D03*
D45*
X175641Y89408D03*
D11*
X180594Y89408D03*
D15*
X183134Y89408D03*
D11*
X190754Y89408D03*
X192278Y89408D03*
X196342Y89408D03*
X197866Y89408D03*
D57*
X201168Y89408D03*
X206248Y89408D03*
D11*
X214630Y89408D03*
X219710Y89408D03*
X222250Y89408D03*
D59*
X228981Y89408D03*
D11*
X243586Y89408D03*
D57*
X250952Y89408D03*
D59*
X256413Y89408D03*
X259207Y89408D03*
D57*
X264668Y89408D03*
D11*
X270510Y89408D03*
D59*
X274447Y89408D03*
D57*
X280416Y89408D03*
D11*
X286258Y89408D03*
X290322Y89408D03*
X136144Y89662D03*
X141224Y89662D03*
D15*
X146304Y89662D03*
D50*
X152146Y89662D03*
X158750Y89662D03*
X164846Y89662D03*
D11*
X167640Y89662D03*
D50*
X175514Y89662D03*
D62*
X180467Y89662D03*
D50*
X183134Y89662D03*
D11*
X190500Y89662D03*
X192278Y89662D03*
X196342Y89662D03*
X197866Y89662D03*
X201168Y89662D03*
X206248Y89662D03*
X214630Y89662D03*
D59*
X219583Y89662D03*
X222123Y89662D03*
D11*
X229108Y89662D03*
D59*
X243459Y89662D03*
D11*
X250952Y89662D03*
X256540Y89662D03*
D59*
X259207Y89662D03*
D11*
X264668Y89662D03*
X270256Y89662D03*
X274574Y89662D03*
D10*
X276352Y89662D03*
D11*
X280416Y89662D03*
D62*
X286385Y89662D03*
X290449Y89662D03*
D57*
X136144Y89916D03*
D59*
X141097Y89916D03*
D10*
X145034Y89916D03*
D57*
X146304Y89916D03*
D58*
X152146Y89916D03*
D57*
X158496Y89916D03*
D10*
X159766Y89916D03*
D57*
X165100Y89916D03*
D59*
X167513Y89916D03*
D58*
X175514Y89916D03*
D11*
X180594Y89916D03*
D10*
X182118Y89916D03*
D11*
X183134Y89916D03*
D10*
X184150Y89916D03*
D59*
X190627Y89916D03*
D11*
X192278Y89916D03*
X196342Y89916D03*
X197866Y89916D03*
D57*
X201168Y89916D03*
X206248Y89916D03*
D11*
X214630Y89916D03*
X219710Y89916D03*
X222250Y89916D03*
D59*
X229235Y89916D03*
D10*
X234442Y89916D03*
X234950Y89916D03*
X235458Y89916D03*
D11*
X243586Y89916D03*
D57*
X250952Y89916D03*
D59*
X256413Y89916D03*
X259207Y89916D03*
D57*
X264668Y89916D03*
X270256Y89916D03*
D11*
X274574Y89916D03*
X276606Y89916D03*
X280670Y89916D03*
X286258Y89916D03*
X290322Y89916D03*
X136144Y90170D03*
X141224Y90170D03*
X167640Y90170D03*
X190500Y90170D03*
X192024Y90170D03*
D50*
X197358Y90170D03*
D11*
X201168Y90170D03*
X206248Y90170D03*
D57*
X214630Y90170D03*
D59*
X219583Y90170D03*
X222123Y90170D03*
X229235Y90170D03*
D57*
X234950Y90170D03*
D59*
X243459Y90170D03*
D11*
X250952Y90170D03*
D59*
X256159Y90170D03*
X259207Y90170D03*
D11*
X264668Y90170D03*
D59*
X276733Y90170D03*
X280543Y90170D03*
D11*
X286512Y90170D03*
X290068Y90170D03*
D57*
X136144Y90424D03*
X141224Y90424D03*
D59*
X167767Y90424D03*
D50*
X191516Y90424D03*
D61*
X197231Y90424D03*
D57*
X201168Y90424D03*
X206248Y90424D03*
D11*
X214630Y90424D03*
D59*
X219583Y90424D03*
D11*
X222250Y90424D03*
D59*
X229489Y90424D03*
X234823Y90424D03*
D11*
X243586Y90424D03*
D57*
X250952Y90424D03*
X256032Y90424D03*
D59*
X259207Y90424D03*
X264541Y90424D03*
X276733Y90424D03*
D11*
X280670Y90424D03*
D59*
X286639Y90424D03*
D11*
X290322Y90424D03*
X136144Y90678D03*
D59*
X141097Y90678D03*
D11*
X167640Y90678D03*
D50*
X191262Y90678D03*
X197358Y90678D03*
D11*
X201168Y90678D03*
X206248Y90678D03*
D59*
X214503Y90678D03*
D11*
X219456Y90678D03*
D59*
X222123Y90678D03*
D11*
X229616Y90678D03*
X234696Y90678D03*
D59*
X243459Y90678D03*
D11*
X250952Y90678D03*
D59*
X255905Y90678D03*
D11*
X259080Y90678D03*
X264668Y90678D03*
X276860Y90678D03*
X280416Y90678D03*
X286512Y90678D03*
X290068Y90678D03*
D57*
X136144Y90932D03*
D59*
X141097Y90932D03*
X167767Y90932D03*
D58*
X191262Y90932D03*
X197358Y90932D03*
D57*
X201168Y90932D03*
X206248Y90932D03*
D11*
X214630Y90932D03*
D57*
X219456Y90932D03*
D11*
X222250Y90932D03*
D59*
X229743Y90932D03*
D57*
X234696Y90932D03*
D11*
X243586Y90932D03*
D57*
X250952Y90932D03*
D60*
X255651Y90932D03*
D59*
X259207Y90932D03*
X264541Y90932D03*
X276987Y90932D03*
D57*
X280416Y90932D03*
D11*
X286766Y90932D03*
D59*
X289941Y90932D03*
D11*
X136144Y91186D03*
D57*
X140970Y91186D03*
D11*
X167640Y91186D03*
D61*
X191135Y91186D03*
X197485Y91186D03*
D11*
X201168Y91186D03*
X206248Y91186D03*
D59*
X214503Y91186D03*
D57*
X219202Y91186D03*
D59*
X222123Y91186D03*
D57*
X229870Y91186D03*
X234442Y91186D03*
D59*
X243459Y91186D03*
D11*
X250952Y91186D03*
D10*
X254000Y91186D03*
D60*
X255397Y91186D03*
D11*
X259080Y91186D03*
X264668Y91186D03*
D59*
X277241Y91186D03*
D57*
X280162Y91186D03*
D11*
X287020Y91186D03*
D59*
X289687Y91186D03*
D19*
X138430Y91440D03*
D59*
X167513Y91440D03*
D58*
X191262Y91440D03*
X197358Y91440D03*
D57*
X201168Y91440D03*
D17*
X206248Y91440D03*
D24*
X216916Y91440D03*
D21*
X224409Y91440D03*
D58*
X230378Y91440D03*
X233934Y91440D03*
D24*
X245872Y91440D03*
D46*
X253111Y91440D03*
D59*
X259207Y91440D03*
D57*
X264668Y91440D03*
D28*
X278638Y91440D03*
D45*
X288417Y91440D03*
D24*
X138430Y91694D03*
D11*
X167640Y91694D03*
D58*
X191008Y91694D03*
D60*
X197485Y91694D03*
D11*
X201168Y91694D03*
D27*
X206375Y91694D03*
D21*
X216789Y91694D03*
D24*
X224282Y91694D03*
D13*
X232156Y91694D03*
D46*
X245745Y91694D03*
D13*
X252984Y91694D03*
D59*
X259207Y91694D03*
D11*
X264668Y91694D03*
D14*
X278638Y91694D03*
D47*
X288417Y91694D03*
D24*
X138176Y91948D03*
D59*
X167513Y91948D03*
D61*
X191135Y91948D03*
D58*
X197358Y91948D03*
D57*
X201168Y91948D03*
D17*
X206248Y91948D03*
D13*
X216662Y91948D03*
D21*
X224409Y91948D03*
D18*
X232156Y91948D03*
D24*
X245872Y91948D03*
D13*
X252730Y91948D03*
D59*
X259207Y91948D03*
D57*
X264668Y91948D03*
D15*
X278638Y91948D03*
D47*
X288417Y91948D03*
D18*
X137922Y92202D03*
D11*
X167640Y92202D03*
D58*
X191008Y92202D03*
X197612Y92202D03*
D11*
X201168Y92202D03*
D27*
X206375Y92202D03*
D18*
X216154Y92202D03*
D24*
X224282Y92202D03*
D15*
X232156Y92202D03*
D46*
X245745Y92202D03*
D28*
X252476Y92202D03*
D59*
X259207Y92202D03*
D11*
X264668Y92202D03*
D57*
X278638Y92202D03*
D10*
X287528Y92202D03*
D11*
X288544Y92202D03*
D10*
X230886Y92456D03*
D57*
X232156Y92456D03*
D10*
X233426Y92456D03*
D57*
X144272Y98044D03*
D10*
X145542Y98044D03*
X153670Y98044D03*
D57*
X154940Y98044D03*
D10*
X162814Y98044D03*
D57*
X164084Y98044D03*
X137922Y98298D03*
D50*
X144526Y98298D03*
D11*
X148844Y98298D03*
D15*
X154940Y98298D03*
D11*
X159004Y98298D03*
D50*
X163830Y98298D03*
D11*
X168910Y98298D03*
X172720Y98298D03*
X175768Y98298D03*
D59*
X184023Y98298D03*
D57*
X188722Y98298D03*
D60*
X138049Y98552D03*
D14*
X144272Y98552D03*
D59*
X148717Y98552D03*
D45*
X154813Y98552D03*
D59*
X158877Y98552D03*
D45*
X163957Y98552D03*
D11*
X168910Y98552D03*
D59*
X172847Y98552D03*
D57*
X175768Y98552D03*
D59*
X184023Y98552D03*
X188595Y98552D03*
D57*
X137922Y98806D03*
D45*
X144399Y98806D03*
D11*
X148844Y98806D03*
D31*
X154813Y98806D03*
D11*
X159004Y98806D03*
D31*
X163957Y98806D03*
D11*
X168910Y98806D03*
X172720Y98806D03*
D59*
X175641Y98806D03*
X184023Y98806D03*
D57*
X188722Y98806D03*
D58*
X137922Y99060D03*
D57*
X142748Y99060D03*
D10*
X144018Y99060D03*
D57*
X145796Y99060D03*
D59*
X148717Y99060D03*
D57*
X153416Y99060D03*
X156464Y99060D03*
D59*
X158877Y99060D03*
D58*
X162306Y99060D03*
D10*
X164338Y99060D03*
D57*
X165608Y99060D03*
D11*
X168910Y99060D03*
D59*
X172847Y99060D03*
D57*
X175768Y99060D03*
D59*
X184023Y99060D03*
X188595Y99060D03*
D58*
X138176Y99314D03*
D11*
X142748Y99314D03*
X146304Y99314D03*
X148844Y99314D03*
X152908Y99314D03*
D59*
X156591Y99314D03*
D11*
X159004Y99314D03*
X162052Y99314D03*
X165608Y99314D03*
X168910Y99314D03*
X172720Y99314D03*
D59*
X175641Y99314D03*
X184023Y99314D03*
D57*
X188722Y99314D03*
D61*
X138049Y99568D03*
D11*
X142494Y99568D03*
X146558Y99568D03*
D59*
X148717Y99568D03*
D57*
X152908Y99568D03*
D11*
X156718Y99568D03*
D59*
X159131Y99568D03*
X161925Y99568D03*
D11*
X165862Y99568D03*
X168910Y99568D03*
X172974Y99568D03*
D57*
X175768Y99568D03*
D11*
X184150Y99568D03*
D59*
X188595Y99568D03*
D61*
X138049Y99822D03*
D11*
X142240Y99822D03*
X146558Y99822D03*
X148844Y99822D03*
X152908Y99822D03*
X156972Y99822D03*
X159004Y99822D03*
D59*
X161671Y99822D03*
D11*
X166116Y99822D03*
X168910Y99822D03*
X172720Y99822D03*
D59*
X184023Y99822D03*
D47*
X138049Y100076D03*
D59*
X142367Y100076D03*
X148717Y100076D03*
X156845Y100076D03*
X159131Y100076D03*
X161671Y100076D03*
D57*
X166116Y100076D03*
D11*
X168910Y100076D03*
X172974Y100076D03*
X184150Y100076D03*
X137160Y100330D03*
D59*
X138811Y100330D03*
D11*
X142240Y100330D03*
X148844Y100330D03*
D57*
X156718Y100330D03*
D11*
X159004Y100330D03*
X161544Y100330D03*
X166116Y100330D03*
X168910Y100330D03*
X172720Y100330D03*
D59*
X184023Y100330D03*
D57*
X137160Y100584D03*
D11*
X138938Y100584D03*
D59*
X142113Y100584D03*
X148717Y100584D03*
D57*
X156464Y100584D03*
D59*
X158877Y100584D03*
X161417Y100584D03*
X166243Y100584D03*
D11*
X168910Y100584D03*
D59*
X172847Y100584D03*
X184023Y100584D03*
D11*
X137160Y100838D03*
X139192Y100838D03*
D21*
X144399Y100838D03*
D11*
X148844Y100838D03*
D58*
X155956Y100838D03*
D11*
X159004Y100838D03*
X161544Y100838D03*
X166116Y100838D03*
X168910Y100838D03*
X172720Y100838D03*
D59*
X184023Y100838D03*
D11*
X136906Y101092D03*
D57*
X139192Y101092D03*
D24*
X144272Y101092D03*
D59*
X148717Y101092D03*
D16*
X155321Y101092D03*
D59*
X158877Y101092D03*
X161417Y101092D03*
D11*
X166370Y101092D03*
X168910Y101092D03*
D59*
X172847Y101092D03*
X184023Y101092D03*
X136779Y101346D03*
D11*
X139192Y101346D03*
D21*
X144399Y101346D03*
D11*
X148844Y101346D03*
D15*
X154940Y101346D03*
D11*
X159004Y101346D03*
X161544Y101346D03*
X166116Y101346D03*
X168910Y101346D03*
X172720Y101346D03*
D59*
X184023Y101346D03*
X136779Y101600D03*
X139319Y101600D03*
D24*
X144272Y101600D03*
D57*
X148844Y101600D03*
D15*
X154178Y101600D03*
D10*
X156210Y101600D03*
D59*
X159131Y101600D03*
X161417Y101600D03*
X166243Y101600D03*
D11*
X168910Y101600D03*
X172974Y101600D03*
X184150Y101600D03*
X136652Y101854D03*
X139446Y101854D03*
X142240Y101854D03*
X146558Y101854D03*
X148844Y101854D03*
D60*
X153543Y101854D03*
D11*
X159004Y101854D03*
X161544Y101854D03*
X166116Y101854D03*
X168910Y101854D03*
X172720Y101854D03*
D59*
X184023Y101854D03*
D57*
X136652Y102108D03*
D11*
X139446Y102108D03*
X142240Y102108D03*
X146558Y102108D03*
D57*
X148844Y102108D03*
D60*
X153289Y102108D03*
D59*
X159131Y102108D03*
X161671Y102108D03*
D57*
X166116Y102108D03*
D11*
X168910Y102108D03*
D59*
X172847Y102108D03*
D11*
X184150Y102108D03*
X136652Y102362D03*
D59*
X139573Y102362D03*
D11*
X142240Y102362D03*
X146304Y102362D03*
D59*
X148971Y102362D03*
D11*
X152908Y102362D03*
X159004Y102362D03*
D59*
X161671Y102362D03*
D11*
X166116Y102362D03*
D59*
X169037Y102362D03*
D11*
X172720Y102362D03*
D59*
X184023Y102362D03*
D11*
X136398Y102616D03*
D59*
X139573Y102616D03*
D11*
X142494Y102616D03*
D59*
X146431Y102616D03*
D60*
X148971Y102616D03*
D59*
X153035Y102616D03*
X156591Y102616D03*
X158877Y102616D03*
D11*
X161798Y102616D03*
X165862Y102616D03*
D59*
X169037Y102616D03*
X172847Y102616D03*
D57*
X175768Y102616D03*
D59*
X184023Y102616D03*
X136271Y102870D03*
D11*
X139700Y102870D03*
X142748Y102870D03*
D59*
X146177Y102870D03*
D57*
X149098Y102870D03*
D11*
X152908Y102870D03*
X156464Y102870D03*
X159004Y102870D03*
X162052Y102870D03*
X165608Y102870D03*
D59*
X169037Y102870D03*
D11*
X172720Y102870D03*
D59*
X175641Y102870D03*
X184023Y102870D03*
X136271Y103124D03*
X139827Y103124D03*
D57*
X142748Y103124D03*
D10*
X144018Y103124D03*
D57*
X145796Y103124D03*
D50*
X149352Y103124D03*
D11*
X153162Y103124D03*
D10*
X154178Y103124D03*
X155194Y103124D03*
D57*
X156464Y103124D03*
D59*
X158877Y103124D03*
D58*
X162306Y103124D03*
D10*
X164338Y103124D03*
D57*
X165608Y103124D03*
D58*
X169418Y103124D03*
D10*
X171450Y103124D03*
D57*
X172720Y103124D03*
X175768Y103124D03*
D59*
X184023Y103124D03*
D11*
X136144Y103378D03*
D59*
X139827Y103378D03*
D45*
X144399Y103378D03*
D11*
X148844Y103378D03*
D57*
X150622Y103378D03*
D31*
X154813Y103378D03*
D11*
X159004Y103378D03*
D31*
X163957Y103378D03*
D62*
X168783Y103378D03*
D14*
X171450Y103378D03*
D59*
X175641Y103378D03*
X184023Y103378D03*
D57*
X136144Y103632D03*
D11*
X139954Y103632D03*
D14*
X144272Y103632D03*
D59*
X148717Y103632D03*
D57*
X150876Y103632D03*
D28*
X154686Y103632D03*
D59*
X159131Y103632D03*
D28*
X163830Y103632D03*
D11*
X168910Y103632D03*
D15*
X171450Y103632D03*
D57*
X175768Y103632D03*
D11*
X184150Y103632D03*
X136144Y103886D03*
X140208Y103886D03*
D50*
X144526Y103886D03*
D11*
X148844Y103886D03*
X150876Y103886D03*
D15*
X154940Y103886D03*
D11*
X159004Y103886D03*
D50*
X163830Y103886D03*
D62*
X168783Y103886D03*
D50*
X171450Y103886D03*
D11*
X175768Y103886D03*
D59*
X184023Y103886D03*
X136017Y104140D03*
X140081Y104140D03*
D57*
X144272Y104140D03*
D10*
X145542Y104140D03*
D59*
X148717Y104140D03*
D11*
X151130Y104140D03*
D10*
X153670Y104140D03*
D57*
X154940Y104140D03*
D59*
X159131Y104140D03*
D10*
X162814Y104140D03*
D57*
X164084Y104140D03*
D11*
X168910Y104140D03*
D10*
X170434Y104140D03*
D11*
X171450Y104140D03*
D10*
X172466Y104140D03*
D15*
X183134Y104140D03*
D57*
X135890Y104394D03*
D11*
X140208Y104394D03*
D16*
X183007Y104394D03*
D59*
X135763Y104648D03*
X140335Y104648D03*
D16*
X183007Y104648D03*
D11*
X135636Y104902D03*
D59*
X140335Y104902D03*
D16*
X183007Y104902D03*
D57*
X135636Y105156D03*
D11*
X140462Y105156D03*
D10*
X182118Y105156D03*
D58*
X183642Y105156D03*
D11*
X135636Y105410D03*
D59*
X140589Y105410D03*
D11*
X159004Y105410D03*
D59*
X184023Y105410D03*
X135509Y105664D03*
D57*
X140716Y105664D03*
D59*
X159131Y105664D03*
D11*
X184150Y105664D03*
D59*
X135509Y105918D03*
D11*
X140716Y105918D03*
X159004Y105918D03*
D62*
X184277Y105918D03*
D59*
X135255Y106172D03*
X140843Y106172D03*
X159131Y106172D03*
D11*
X184150Y106172D03*
D59*
X135255Y106426D03*
X140843Y106426D03*
D11*
X159004Y106426D03*
D58*
X228346Y119888D03*
D10*
X229870Y119888D03*
X263398Y119888D03*
D58*
X264922Y119888D03*
D14*
X228346Y120142D03*
D10*
X262636Y120142D03*
D14*
X264922Y120142D03*
D13*
X228346Y120396D03*
X264922Y120396D03*
D24*
X228346Y120650D03*
D13*
X264668Y120650D03*
D19*
X228346Y120904D03*
X264922Y120904D03*
D60*
X226187Y121158D03*
D10*
X227584Y121158D03*
D58*
X230632Y121158D03*
X262636Y121158D03*
D61*
X266827Y121158D03*
D60*
X225933Y121412D03*
D58*
X230886Y121412D03*
X262382Y121412D03*
D57*
X267208Y121412D03*
X225806Y121666D03*
D60*
X231013Y121666D03*
D57*
X262128Y121666D03*
X267462Y121666D03*
D60*
X225679Y121920D03*
D57*
X231140Y121920D03*
X262128Y121920D03*
D60*
X267589Y121920D03*
D57*
X225806Y122174D03*
X231394Y122174D03*
X261874Y122174D03*
D60*
X267589Y122174D03*
D57*
X231394Y122428D03*
X267716Y122428D03*
X231394Y122682D03*
X267716Y122682D03*
D10*
X134874Y122936D03*
D58*
X136398Y122936D03*
D10*
X151638Y122936D03*
D57*
X152908Y122936D03*
D10*
X154178Y122936D03*
X169418Y122936D03*
D57*
X170688Y122936D03*
X174752Y122936D03*
D10*
X197358Y122936D03*
D57*
X198628Y122936D03*
D10*
X199898Y122936D03*
D60*
X231521Y122936D03*
D57*
X267716Y122936D03*
D10*
X288798Y122936D03*
D57*
X290068Y122936D03*
D10*
X291338Y122936D03*
X297942Y122936D03*
D57*
X299212Y122936D03*
D10*
X307594Y122936D03*
D57*
X308864Y122936D03*
D10*
X310134Y122936D03*
D14*
X136398Y123190D03*
X152654Y123190D03*
D10*
X154940Y123190D03*
D57*
X160274Y123190D03*
X165608Y123190D03*
D15*
X170688Y123190D03*
D58*
X174752Y123190D03*
D57*
X178054Y123190D03*
D59*
X183261Y123190D03*
X186817Y123190D03*
D57*
X192278Y123190D03*
D15*
X198628Y123190D03*
D57*
X204724Y123190D03*
D63*
X216027Y123190D03*
D57*
X221996Y123190D03*
X227838Y123190D03*
X231394Y123190D03*
D59*
X235077Y123190D03*
D57*
X240538Y123190D03*
D10*
X244856Y123190D03*
D57*
X246126Y123190D03*
X249428Y123190D03*
X253238Y123190D03*
D59*
X258445Y123190D03*
D10*
X263144Y123190D03*
D57*
X264414Y123190D03*
D59*
X267843Y123190D03*
D57*
X276098Y123190D03*
D60*
X283083Y123190D03*
D15*
X290068Y123190D03*
X299212Y123190D03*
D57*
X302514Y123190D03*
D15*
X308864Y123190D03*
D18*
X136144Y123444D03*
X152908Y123444D03*
D60*
X160147Y123444D03*
D57*
X165608Y123444D03*
D31*
X170561Y123444D03*
D61*
X174625Y123444D03*
D57*
X177800Y123444D03*
X183388Y123444D03*
X186944Y123444D03*
D60*
X192151Y123444D03*
D18*
X198628Y123444D03*
D57*
X204724Y123444D03*
D44*
X215900Y123444D03*
D57*
X221996Y123444D03*
D15*
X227838Y123444D03*
D57*
X231648Y123444D03*
X235204Y123444D03*
D60*
X240411Y123444D03*
D47*
X245745Y123444D03*
D57*
X249428Y123444D03*
X252984Y123444D03*
X258572Y123444D03*
D15*
X264414Y123444D03*
D57*
X267716Y123444D03*
D60*
X275971Y123444D03*
D61*
X283083Y123444D03*
D18*
X290068Y123444D03*
D28*
X298958Y123444D03*
D59*
X302641Y123444D03*
D18*
X308864Y123444D03*
D13*
X136144Y123698D03*
D24*
X152654Y123698D03*
D57*
X160274Y123698D03*
D59*
X165481Y123698D03*
D31*
X170815Y123698D03*
D58*
X174752Y123698D03*
D57*
X178054Y123698D03*
X183388Y123698D03*
D59*
X186817Y123698D03*
D57*
X192278Y123698D03*
D40*
X198755Y123698D03*
D57*
X204724Y123698D03*
D63*
X216027Y123698D03*
D57*
X221996Y123698D03*
D14*
X227838Y123698D03*
D57*
X231394Y123698D03*
D59*
X235077Y123698D03*
D57*
X240538Y123698D03*
D50*
X245618Y123698D03*
D57*
X249428Y123698D03*
X253238Y123698D03*
X258572Y123698D03*
D14*
X264414Y123698D03*
D57*
X267970Y123698D03*
X276098Y123698D03*
D58*
X282956Y123698D03*
D13*
X290068Y123698D03*
D18*
X298958Y123698D03*
D57*
X302514Y123698D03*
D13*
X308864Y123698D03*
D46*
X136271Y123952D03*
D17*
X152908Y123952D03*
D60*
X160147Y123952D03*
D57*
X165608Y123952D03*
D44*
X171958Y123952D03*
D60*
X177927Y123952D03*
D57*
X183388Y123952D03*
X186944Y123952D03*
D60*
X192151Y123952D03*
D24*
X198628Y123952D03*
D57*
X204724Y123952D03*
D44*
X215900Y123952D03*
D57*
X221996Y123952D03*
D31*
X227965Y123952D03*
D60*
X231521Y123952D03*
D57*
X235204Y123952D03*
D60*
X240411Y123952D03*
D15*
X245618Y123952D03*
D57*
X249428Y123952D03*
D60*
X253111Y123952D03*
D57*
X258572Y123952D03*
D18*
X264160Y123952D03*
D57*
X267716Y123952D03*
D60*
X275971Y123952D03*
D50*
X282956Y123952D03*
D24*
X290068Y123952D03*
D37*
X299847Y123952D03*
D24*
X308864Y123952D03*
D19*
X136398Y124206D03*
D37*
X152781Y124206D03*
D57*
X160274Y124206D03*
D59*
X165481Y124206D03*
D44*
X171958Y124206D03*
D57*
X178054Y124206D03*
D60*
X183261Y124206D03*
D59*
X186817Y124206D03*
D57*
X192278Y124206D03*
D19*
X198628Y124206D03*
D57*
X204724Y124206D03*
D63*
X216027Y124206D03*
D57*
X221996Y124206D03*
D18*
X227838Y124206D03*
D57*
X231394Y124206D03*
X234950Y124206D03*
X240538Y124206D03*
D15*
X245364Y124206D03*
D57*
X249428Y124206D03*
X253238Y124206D03*
D60*
X258445Y124206D03*
D40*
X264287Y124206D03*
D57*
X267970Y124206D03*
X276098Y124206D03*
D50*
X282702Y124206D03*
D19*
X290068Y124206D03*
D22*
X299720Y124206D03*
D19*
X308864Y124206D03*
D61*
X134239Y124460D03*
D10*
X136906Y124460D03*
D58*
X138430Y124460D03*
D50*
X150368Y124460D03*
D10*
X152146Y124460D03*
X153670Y124460D03*
D50*
X155448Y124460D03*
D60*
X160147Y124460D03*
D57*
X165608Y124460D03*
D50*
X169164Y124460D03*
D15*
X173482Y124460D03*
D60*
X177927Y124460D03*
D57*
X183388Y124460D03*
X186944Y124460D03*
D60*
X192151Y124460D03*
D50*
X196596Y124460D03*
D10*
X199390Y124460D03*
D58*
X200914Y124460D03*
D57*
X204724Y124460D03*
D44*
X215900Y124460D03*
D57*
X221996Y124460D03*
D22*
X228854Y124460D03*
D57*
X235204Y124460D03*
D60*
X240411Y124460D03*
D16*
X245491Y124460D03*
D57*
X249428Y124460D03*
D60*
X253111Y124460D03*
D57*
X258572Y124460D03*
D37*
X265049Y124460D03*
D60*
X275971Y124460D03*
D15*
X282702Y124460D03*
D50*
X288036Y124460D03*
X292100Y124460D03*
X297180Y124460D03*
D10*
X299974Y124460D03*
D47*
X301879Y124460D03*
D61*
X306959Y124460D03*
D10*
X309626Y124460D03*
D58*
X311150Y124460D03*
D60*
X133985Y124714D03*
D58*
X138684Y124714D03*
D50*
X150114Y124714D03*
D58*
X155448Y124714D03*
D57*
X160274Y124714D03*
X165608Y124714D03*
X168910Y124714D03*
D58*
X173736Y124714D03*
D57*
X178054Y124714D03*
D59*
X183261Y124714D03*
X186817Y124714D03*
D57*
X192278Y124714D03*
X196342Y124714D03*
D60*
X201041Y124714D03*
D57*
X204724Y124714D03*
D63*
X216027Y124714D03*
D57*
X221996Y124714D03*
D50*
X226314Y124714D03*
D15*
X230632Y124714D03*
D59*
X235077Y124714D03*
D57*
X240538Y124714D03*
D60*
X244729Y124714D03*
D57*
X249428Y124714D03*
X253238Y124714D03*
D59*
X258445Y124714D03*
D58*
X262636Y124714D03*
D47*
X267081Y124714D03*
D57*
X276098Y124714D03*
D47*
X282575Y124714D03*
D58*
X287528Y124714D03*
D60*
X292481Y124714D03*
D57*
X296926Y124714D03*
D50*
X302006Y124714D03*
D57*
X306578Y124714D03*
D60*
X311277Y124714D03*
X133731Y124968D03*
D58*
X138938Y124968D03*
D61*
X149733Y124968D03*
D58*
X155702Y124968D03*
D60*
X160147Y124968D03*
D57*
X165608Y124968D03*
X168656Y124968D03*
D58*
X173990Y124968D03*
D60*
X177927Y124968D03*
D57*
X183388Y124968D03*
X186944Y124968D03*
D60*
X192151Y124968D03*
D57*
X196088Y124968D03*
X201168Y124968D03*
X204724Y124968D03*
D58*
X213106Y124968D03*
D57*
X221996Y124968D03*
D61*
X225933Y124968D03*
D50*
X231140Y124968D03*
D57*
X235204Y124968D03*
D60*
X240411Y124968D03*
X244729Y124968D03*
D57*
X249428Y124968D03*
D60*
X253111Y124968D03*
D57*
X258572Y124968D03*
D58*
X262382Y124968D03*
D50*
X267208Y124968D03*
D60*
X275971Y124968D03*
D15*
X282702Y124968D03*
D60*
X287401Y124968D03*
X292735Y124968D03*
D58*
X296926Y124968D03*
D61*
X302133Y124968D03*
D57*
X306324Y124968D03*
X311404Y124968D03*
X133604Y125222D03*
D60*
X139065Y125222D03*
X149479Y125222D03*
D58*
X155956Y125222D03*
D57*
X160274Y125222D03*
X165608Y125222D03*
X168656Y125222D03*
X173990Y125222D03*
X178054Y125222D03*
D59*
X183261Y125222D03*
X186817Y125222D03*
D57*
X192278Y125222D03*
X195834Y125222D03*
X201422Y125222D03*
X204724Y125222D03*
X213106Y125222D03*
X221996Y125222D03*
X225806Y125222D03*
D58*
X231140Y125222D03*
D59*
X235077Y125222D03*
D57*
X240538Y125222D03*
X244602Y125222D03*
X249428Y125222D03*
X253238Y125222D03*
D59*
X258445Y125222D03*
D58*
X262128Y125222D03*
D61*
X267335Y125222D03*
D57*
X276098Y125222D03*
D15*
X282448Y125222D03*
D57*
X287274Y125222D03*
X292862Y125222D03*
D60*
X296545Y125222D03*
D58*
X302260Y125222D03*
D57*
X306070Y125222D03*
X311658Y125222D03*
X133604Y125476D03*
X139192Y125476D03*
D60*
X149479Y125476D03*
D58*
X156210Y125476D03*
D60*
X160147Y125476D03*
D57*
X165608Y125476D03*
X168656Y125476D03*
D60*
X174117Y125476D03*
D57*
X177800Y125476D03*
X183388Y125476D03*
X186944Y125476D03*
D60*
X192151Y125476D03*
X195961Y125476D03*
D57*
X201676Y125476D03*
X204724Y125476D03*
D58*
X213106Y125476D03*
D57*
X221996Y125476D03*
D60*
X225679Y125476D03*
D58*
X231394Y125476D03*
D57*
X235204Y125476D03*
D60*
X240411Y125476D03*
X244475Y125476D03*
D57*
X249428Y125476D03*
X252984Y125476D03*
X258572Y125476D03*
D60*
X262001Y125476D03*
D58*
X267462Y125476D03*
D60*
X275971Y125476D03*
D14*
X282448Y125476D03*
D60*
X287147Y125476D03*
X292989Y125476D03*
X296545Y125476D03*
X302387Y125476D03*
D57*
X306070Y125476D03*
X311912Y125476D03*
X133350Y125730D03*
D59*
X139319Y125730D03*
D60*
X149225Y125730D03*
D57*
X156210Y125730D03*
X160274Y125730D03*
D59*
X165481Y125730D03*
X168783Y125730D03*
D57*
X173990Y125730D03*
X178054Y125730D03*
X183388Y125730D03*
D59*
X186817Y125730D03*
D57*
X192278Y125730D03*
X195834Y125730D03*
X204724Y125730D03*
X213106Y125730D03*
X221996Y125730D03*
X225552Y125730D03*
X231394Y125730D03*
D59*
X235077Y125730D03*
D57*
X240538Y125730D03*
X244602Y125730D03*
X249428Y125730D03*
X253238Y125730D03*
X258572Y125730D03*
X261874Y125730D03*
D58*
X267716Y125730D03*
D57*
X276098Y125730D03*
D16*
X282321Y125730D03*
D60*
X287147Y125730D03*
X292989Y125730D03*
D57*
X296418Y125730D03*
X302514Y125730D03*
X306070Y125730D03*
D60*
X133477Y125984D03*
D57*
X139192Y125984D03*
D58*
X149098Y125984D03*
D57*
X156464Y125984D03*
D60*
X160147Y125984D03*
D57*
X165608Y125984D03*
D60*
X168783Y125984D03*
D57*
X174244Y125984D03*
D60*
X177927Y125984D03*
D57*
X183388Y125984D03*
X186944Y125984D03*
D60*
X192151Y125984D03*
X195707Y125984D03*
D57*
X204724Y125984D03*
D58*
X213106Y125984D03*
D57*
X221996Y125984D03*
X225552Y125984D03*
D58*
X231394Y125984D03*
D57*
X235204Y125984D03*
D60*
X240411Y125984D03*
X244475Y125984D03*
D57*
X249428Y125984D03*
D60*
X253111Y125984D03*
D57*
X258572Y125984D03*
D58*
X261874Y125984D03*
D60*
X267589Y125984D03*
X275971Y125984D03*
D28*
X282194Y125984D03*
D57*
X287020Y125984D03*
X293116Y125984D03*
D60*
X296291Y125984D03*
X302387Y125984D03*
D57*
X305816Y125984D03*
X133350Y126238D03*
X139446Y126238D03*
D60*
X148971Y126238D03*
X156591Y126238D03*
D57*
X160274Y126238D03*
D59*
X165481Y126238D03*
D57*
X168910Y126238D03*
X173990Y126238D03*
X178054Y126238D03*
D60*
X183261Y126238D03*
D59*
X186817Y126238D03*
D57*
X192278Y126238D03*
X195834Y126238D03*
X204724Y126238D03*
X213106Y126238D03*
X221996Y126238D03*
X225298Y126238D03*
X231394Y126238D03*
X234950Y126238D03*
X240538Y126238D03*
X244602Y126238D03*
X249428Y126238D03*
X253238Y126238D03*
D60*
X258445Y126238D03*
D57*
X261874Y126238D03*
D58*
X267716Y126238D03*
D57*
X276098Y126238D03*
X281178Y126238D03*
X283210Y126238D03*
X286766Y126238D03*
D60*
X293243Y126238D03*
D57*
X296418Y126238D03*
X302514Y126238D03*
D59*
X305943Y126238D03*
D60*
X133223Y126492D03*
D57*
X139192Y126492D03*
D31*
X143891Y126492D03*
D57*
X148844Y126492D03*
D60*
X156591Y126492D03*
X160147Y126492D03*
D57*
X165608Y126492D03*
D58*
X169418Y126492D03*
D57*
X174244Y126492D03*
D60*
X177927Y126492D03*
D57*
X183388Y126492D03*
X186944Y126492D03*
D60*
X192151Y126492D03*
D57*
X195580Y126492D03*
X204724Y126492D03*
D58*
X213106Y126492D03*
D57*
X221996Y126492D03*
D60*
X225425Y126492D03*
X231521Y126492D03*
D57*
X235204Y126492D03*
D60*
X240411Y126492D03*
D57*
X244602Y126492D03*
X249428Y126492D03*
D60*
X253111Y126492D03*
D57*
X258572Y126492D03*
X261620Y126492D03*
X267716Y126492D03*
D60*
X275971Y126492D03*
D57*
X280924Y126492D03*
D60*
X283337Y126492D03*
D57*
X287020Y126492D03*
X293116Y126492D03*
X296164Y126492D03*
X302514Y126492D03*
X305816Y126492D03*
X139446Y126746D03*
D31*
X143891Y126746D03*
D60*
X148717Y126746D03*
D57*
X156718Y126746D03*
X160274Y126746D03*
X165608Y126746D03*
D50*
X169926Y126746D03*
D10*
X171704Y126746D03*
X172212Y126746D03*
D57*
X173990Y126746D03*
X178054Y126746D03*
D59*
X183261Y126746D03*
X186817Y126746D03*
D57*
X192278Y126746D03*
D22*
X198628Y126746D03*
D57*
X204724Y126746D03*
X213106Y126746D03*
X221996Y126746D03*
X225298Y126746D03*
X231394Y126746D03*
D59*
X235077Y126746D03*
D57*
X240538Y126746D03*
X244602Y126746D03*
X249428Y126746D03*
X253238Y126746D03*
D59*
X258445Y126746D03*
X261747Y126746D03*
D57*
X267716Y126746D03*
X276098Y126746D03*
X280670Y126746D03*
X283210Y126746D03*
X286766Y126746D03*
X293370Y126746D03*
D59*
X296291Y126746D03*
D57*
X302514Y126746D03*
D22*
X308864Y126746D03*
D57*
X139192Y127000D03*
D31*
X143891Y127000D03*
D60*
X148717Y127000D03*
D58*
X156718Y127000D03*
D60*
X160147Y127000D03*
D57*
X165608Y127000D03*
D28*
X170942Y127000D03*
D57*
X174244Y127000D03*
D60*
X177927Y127000D03*
D57*
X183388Y127000D03*
X186944Y127000D03*
D60*
X192151Y127000D03*
D44*
X198628Y127000D03*
D57*
X204724Y127000D03*
D58*
X213106Y127000D03*
D57*
X221996Y127000D03*
D60*
X225425Y127000D03*
X231521Y127000D03*
D57*
X235204Y127000D03*
D60*
X240411Y127000D03*
D57*
X244602Y127000D03*
X249428Y127000D03*
D60*
X253111Y127000D03*
D57*
X258572Y127000D03*
X261620Y127000D03*
X267716Y127000D03*
D60*
X275971Y127000D03*
D58*
X280670Y127000D03*
D60*
X283337Y127000D03*
X286893Y127000D03*
D57*
X293116Y127000D03*
X296164Y127000D03*
X302514Y127000D03*
D44*
X308864Y127000D03*
D60*
X139065Y127254D03*
D31*
X143891Y127254D03*
D57*
X148590Y127254D03*
X156718Y127254D03*
X160274Y127254D03*
X165608Y127254D03*
D24*
X171958Y127254D03*
D57*
X178054Y127254D03*
D59*
X183261Y127254D03*
X186817Y127254D03*
D57*
X192278Y127254D03*
D63*
X198501Y127254D03*
D57*
X204724Y127254D03*
X213106Y127254D03*
X221996Y127254D03*
X225298Y127254D03*
X231394Y127254D03*
D59*
X235077Y127254D03*
D57*
X240538Y127254D03*
X244602Y127254D03*
X249428Y127254D03*
X253238Y127254D03*
D59*
X258445Y127254D03*
D57*
X261620Y127254D03*
D59*
X267843Y127254D03*
D57*
X276098Y127254D03*
D60*
X280543Y127254D03*
D57*
X283210Y127254D03*
X286766Y127254D03*
X293370Y127254D03*
X296164Y127254D03*
X302514Y127254D03*
D63*
X308991Y127254D03*
D58*
X138938Y127508D03*
D31*
X143891Y127508D03*
D58*
X148590Y127508D03*
D60*
X160147Y127508D03*
D57*
X165608Y127508D03*
D10*
X169926Y127508D03*
D18*
X172720Y127508D03*
D57*
X177800Y127508D03*
X183388Y127508D03*
X186944Y127508D03*
D60*
X192151Y127508D03*
D44*
X198628Y127508D03*
D57*
X204724Y127508D03*
D58*
X213106Y127508D03*
D57*
X221996Y127508D03*
D60*
X225425Y127508D03*
D57*
X231648Y127508D03*
X235204Y127508D03*
D60*
X240411Y127508D03*
X244475Y127508D03*
D57*
X249428Y127508D03*
X252984Y127508D03*
X258572Y127508D03*
X261620Y127508D03*
X267716Y127508D03*
D60*
X275971Y127508D03*
D57*
X280416Y127508D03*
D58*
X283210Y127508D03*
D60*
X286893Y127508D03*
D57*
X293116Y127508D03*
X296164Y127508D03*
X302514Y127508D03*
D44*
X308864Y127508D03*
D58*
X138684Y127762D03*
D31*
X143891Y127762D03*
D57*
X148590Y127762D03*
X160274Y127762D03*
D59*
X165481Y127762D03*
D50*
X173482Y127762D03*
D57*
X178054Y127762D03*
X183388Y127762D03*
D59*
X186817Y127762D03*
D57*
X192278Y127762D03*
D22*
X198628Y127762D03*
D57*
X204724Y127762D03*
X213106Y127762D03*
X221996Y127762D03*
X225298Y127762D03*
X231394Y127762D03*
D59*
X235077Y127762D03*
D57*
X240538Y127762D03*
X244602Y127762D03*
X249428Y127762D03*
X253238Y127762D03*
X258572Y127762D03*
X261874Y127762D03*
X267970Y127762D03*
X276098Y127762D03*
X280162Y127762D03*
X283210Y127762D03*
X286766Y127762D03*
X293370Y127762D03*
X296418Y127762D03*
X302514Y127762D03*
D22*
X308864Y127762D03*
D10*
X136906Y128016D03*
D58*
X138430Y128016D03*
D31*
X143891Y128016D03*
D58*
X148590Y128016D03*
D60*
X160147Y128016D03*
D57*
X165608Y128016D03*
D58*
X173990Y128016D03*
D60*
X177927Y128016D03*
D57*
X183388Y128016D03*
X186944Y128016D03*
D60*
X192151Y128016D03*
D57*
X195580Y128016D03*
X201676Y128016D03*
X204724Y128016D03*
D58*
X213106Y128016D03*
D57*
X221996Y128016D03*
D60*
X225425Y128016D03*
X231521Y128016D03*
D57*
X235204Y128016D03*
D60*
X240411Y128016D03*
X244475Y128016D03*
D57*
X249428Y128016D03*
D60*
X253111Y128016D03*
D57*
X258572Y128016D03*
D60*
X261747Y128016D03*
D57*
X267716Y128016D03*
D60*
X275971Y128016D03*
X280035Y128016D03*
D58*
X283210Y128016D03*
D57*
X287020Y128016D03*
X293116Y128016D03*
D60*
X296291Y128016D03*
X302387Y128016D03*
D57*
X305816Y128016D03*
X311912Y128016D03*
D14*
X137414Y128270D03*
D57*
X148590Y128270D03*
X160274Y128270D03*
D59*
X165481Y128270D03*
D57*
X173990Y128270D03*
X178054Y128270D03*
D60*
X183261Y128270D03*
D57*
X186944Y128270D03*
X192278Y128270D03*
X195834Y128270D03*
X201422Y128270D03*
X204724Y128270D03*
X213106Y128270D03*
X221996Y128270D03*
X225298Y128270D03*
X231394Y128270D03*
D60*
X235077Y128270D03*
D57*
X240538Y128270D03*
X244602Y128270D03*
X249428Y128270D03*
X253238Y128270D03*
D60*
X258445Y128270D03*
D57*
X261874Y128270D03*
D60*
X267843Y128270D03*
D57*
X276098Y128270D03*
D60*
X279781Y128270D03*
D57*
X283210Y128270D03*
D60*
X286893Y128270D03*
D57*
X293116Y128270D03*
X296418Y128270D03*
X302514Y128270D03*
X306070Y128270D03*
X311658Y128270D03*
D16*
X137287Y128524D03*
D58*
X148590Y128524D03*
D60*
X160147Y128524D03*
D57*
X165608Y128524D03*
X174244Y128524D03*
D58*
X178054Y128524D03*
D57*
X183388Y128524D03*
X186944Y128524D03*
D60*
X192151Y128524D03*
D59*
X195707Y128524D03*
D60*
X201549Y128524D03*
D57*
X204724Y128524D03*
D58*
X213106Y128524D03*
D57*
X221996Y128524D03*
X225552Y128524D03*
D58*
X231394Y128524D03*
D57*
X235204Y128524D03*
D60*
X240411Y128524D03*
D57*
X244602Y128524D03*
X249428Y128524D03*
D58*
X253238Y128524D03*
D57*
X258572Y128524D03*
D60*
X261747Y128524D03*
D57*
X267716Y128524D03*
D60*
X275971Y128524D03*
D58*
X279654Y128524D03*
D60*
X283337Y128524D03*
D57*
X287020Y128524D03*
X293116Y128524D03*
D58*
X296418Y128524D03*
D60*
X302387Y128524D03*
D57*
X306070Y128524D03*
X311658Y128524D03*
D50*
X136906Y128778D03*
D10*
X138684Y128778D03*
D57*
X148590Y128778D03*
X160274Y128778D03*
D60*
X165481Y128778D03*
D57*
X168910Y128778D03*
D59*
X174117Y128778D03*
D57*
X178054Y128778D03*
X183134Y128778D03*
D60*
X187071Y128778D03*
D57*
X192278Y128778D03*
X195834Y128778D03*
X201422Y128778D03*
X204724Y128778D03*
X213106Y128778D03*
X221996Y128778D03*
D60*
X225679Y128778D03*
X231267Y128778D03*
X235331Y128778D03*
D57*
X240538Y128778D03*
X244602Y128778D03*
X249428Y128778D03*
X253238Y128778D03*
X258318Y128778D03*
X261874Y128778D03*
D60*
X267589Y128778D03*
D57*
X276098Y128778D03*
X279654Y128778D03*
X283210Y128778D03*
X287274Y128778D03*
X292862Y128778D03*
X296418Y128778D03*
D60*
X302387Y128778D03*
D57*
X306070Y128778D03*
X311658Y128778D03*
D47*
X137033Y129032D03*
D58*
X148590Y129032D03*
X160274Y129032D03*
D60*
X165481Y129032D03*
D57*
X169164Y129032D03*
X174244Y129032D03*
D58*
X178054Y129032D03*
D60*
X183261Y129032D03*
D58*
X187198Y129032D03*
D60*
X192151Y129032D03*
D57*
X196088Y129032D03*
X201168Y129032D03*
X204724Y129032D03*
D58*
X213106Y129032D03*
D57*
X221996Y129032D03*
D58*
X225806Y129032D03*
X231394Y129032D03*
D60*
X235331Y129032D03*
X240411Y129032D03*
D57*
X244602Y129032D03*
X249428Y129032D03*
D58*
X253238Y129032D03*
D60*
X258445Y129032D03*
X262001Y129032D03*
D58*
X267462Y129032D03*
D60*
X275971Y129032D03*
D57*
X279400Y129032D03*
D60*
X283337Y129032D03*
D58*
X287274Y129032D03*
X292862Y129032D03*
D60*
X296545Y129032D03*
D58*
X302260Y129032D03*
D57*
X306324Y129032D03*
X311404Y129032D03*
D15*
X137160Y129286D03*
D57*
X148590Y129286D03*
D58*
X160528Y129286D03*
D57*
X165354Y129286D03*
D60*
X169037Y129286D03*
D57*
X173990Y129286D03*
D58*
X178308Y129286D03*
D57*
X183134Y129286D03*
D60*
X187071Y129286D03*
X192151Y129286D03*
D57*
X196342Y129286D03*
D60*
X201041Y129286D03*
D57*
X204724Y129286D03*
X213106Y129286D03*
X221996Y129286D03*
X225806Y129286D03*
D58*
X231140Y129286D03*
X235458Y129286D03*
D60*
X240411Y129286D03*
D57*
X244602Y129286D03*
X249428Y129286D03*
D58*
X253492Y129286D03*
D57*
X258318Y129286D03*
D60*
X262255Y129286D03*
D58*
X267462Y129286D03*
D57*
X276098Y129286D03*
X279146Y129286D03*
X283210Y129286D03*
D60*
X287401Y129286D03*
D58*
X292608Y129286D03*
X296672Y129286D03*
X302260Y129286D03*
D60*
X306451Y129286D03*
X311277Y129286D03*
D58*
X137922Y129540D03*
X148590Y129540D03*
D50*
X160528Y129540D03*
D58*
X165354Y129540D03*
X169418Y129540D03*
X173990Y129540D03*
D50*
X178308Y129540D03*
D58*
X183134Y129540D03*
D50*
X187452Y129540D03*
D58*
X191770Y129540D03*
X196342Y129540D03*
X200914Y129540D03*
D57*
X204724Y129540D03*
D58*
X213106Y129540D03*
D57*
X221996Y129540D03*
D61*
X226187Y129540D03*
D50*
X231140Y129540D03*
D58*
X235458Y129540D03*
D60*
X240157Y129540D03*
X244475Y129540D03*
D57*
X249428Y129540D03*
D50*
X253492Y129540D03*
D58*
X258318Y129540D03*
X262382Y129540D03*
D50*
X267208Y129540D03*
D60*
X275971Y129540D03*
D58*
X279146Y129540D03*
X283210Y129540D03*
X287782Y129540D03*
X292354Y129540D03*
X296926Y129540D03*
D61*
X302133Y129540D03*
D58*
X306578Y129540D03*
X311150Y129540D03*
D57*
X138430Y129794D03*
X148590Y129794D03*
D50*
X160782Y129794D03*
D58*
X165100Y129794D03*
X169672Y129794D03*
X173736Y129794D03*
D50*
X178562Y129794D03*
D58*
X182880Y129794D03*
D47*
X187579Y129794D03*
D61*
X191643Y129794D03*
D58*
X196596Y129794D03*
X200660Y129794D03*
D57*
X204724Y129794D03*
X213106Y129794D03*
X221996Y129794D03*
D61*
X226441Y129794D03*
D10*
X229108Y129794D03*
D50*
X230886Y129794D03*
D47*
X235839Y129794D03*
D58*
X240030Y129794D03*
D57*
X244602Y129794D03*
X249428Y129794D03*
D50*
X253746Y129794D03*
D58*
X258064Y129794D03*
X262636Y129794D03*
D15*
X267208Y129794D03*
D57*
X276098Y129794D03*
D60*
X279019Y129794D03*
D57*
X283210Y129794D03*
D61*
X287909Y129794D03*
D58*
X292100Y129794D03*
X297180Y129794D03*
D15*
X301752Y129794D03*
D58*
X306832Y129794D03*
X310896Y129794D03*
D60*
X138557Y130048D03*
X148717Y130048D03*
D37*
X162687Y130048D03*
D27*
X171577Y130048D03*
D37*
X180467Y130048D03*
D17*
X189484Y130048D03*
D24*
X198628Y130048D03*
D57*
X204724Y130048D03*
D58*
X213106Y130048D03*
D57*
X221996Y130048D03*
D22*
X228854Y130048D03*
D17*
X237744Y130048D03*
D18*
X244856Y130048D03*
D57*
X249428Y130048D03*
D37*
X255651Y130048D03*
X265049Y130048D03*
D60*
X275971Y130048D03*
X278765Y130048D03*
D58*
X283210Y130048D03*
D17*
X290068Y130048D03*
D22*
X299720Y130048D03*
D24*
X308864Y130048D03*
D57*
X138684Y130302D03*
D60*
X148717Y130302D03*
D57*
X160274Y130302D03*
D18*
X163830Y130302D03*
D46*
X171577Y130302D03*
D57*
X178054Y130302D03*
D31*
X181483Y130302D03*
D59*
X186817Y130302D03*
D18*
X190246Y130302D03*
D13*
X198628Y130302D03*
D57*
X204724Y130302D03*
X213106Y130302D03*
X221996Y130302D03*
D18*
X227838Y130302D03*
D57*
X231394Y130302D03*
X234950Y130302D03*
D18*
X238506Y130302D03*
X244602Y130302D03*
D57*
X249428Y130302D03*
X253238Y130302D03*
D31*
X256667Y130302D03*
D18*
X264414Y130302D03*
D57*
X267970Y130302D03*
X276098Y130302D03*
X278638Y130302D03*
X283210Y130302D03*
D46*
X289941Y130302D03*
D18*
X298958Y130302D03*
D57*
X302514Y130302D03*
D13*
X308864Y130302D03*
D57*
X133604Y130556D03*
X138684Y130556D03*
X148844Y130556D03*
D60*
X160147Y130556D03*
D31*
X163703Y130556D03*
D24*
X171704Y130556D03*
D57*
X177800Y130556D03*
D31*
X181483Y130556D03*
D57*
X186944Y130556D03*
D28*
X190246Y130556D03*
D18*
X198628Y130556D03*
D57*
X204724Y130556D03*
D58*
X213106Y130556D03*
D57*
X221996Y130556D03*
D31*
X227965Y130556D03*
D60*
X231521Y130556D03*
D57*
X235204Y130556D03*
D28*
X238506Y130556D03*
D18*
X244856Y130556D03*
D57*
X249428Y130556D03*
X252984Y130556D03*
D31*
X256667Y130556D03*
X264287Y130556D03*
D57*
X267716Y130556D03*
D60*
X275971Y130556D03*
D57*
X278384Y130556D03*
D60*
X283337Y130556D03*
D21*
X290195Y130556D03*
D31*
X298831Y130556D03*
D57*
X302514Y130556D03*
D18*
X308864Y130556D03*
D59*
X133477Y130810D03*
D57*
X138938Y130810D03*
D60*
X148971Y130810D03*
D57*
X156718Y130810D03*
X160274Y130810D03*
D14*
X163830Y130810D03*
D31*
X171577Y130810D03*
D57*
X178054Y130810D03*
D14*
X181610Y130810D03*
D59*
X186817Y130810D03*
D14*
X190246Y130810D03*
D28*
X198628Y130810D03*
D57*
X204724Y130810D03*
X213106Y130810D03*
X221996Y130810D03*
D14*
X227838Y130810D03*
D57*
X231394Y130810D03*
D59*
X235077Y130810D03*
D14*
X238506Y130810D03*
D18*
X244602Y130810D03*
D57*
X249428Y130810D03*
X253238Y130810D03*
D14*
X256794Y130810D03*
X264414Y130810D03*
D59*
X267843Y130810D03*
D57*
X276098Y130810D03*
D60*
X278257Y130810D03*
D57*
X283210Y130810D03*
D28*
X290068Y130810D03*
D14*
X298958Y130810D03*
D57*
X302514Y130810D03*
D28*
X308864Y130810D03*
D57*
X133604Y131064D03*
D60*
X138811Y131064D03*
X148971Y131064D03*
D58*
X156718Y131064D03*
D60*
X160147Y131064D03*
D15*
X163830Y131064D03*
D14*
X171704Y131064D03*
D57*
X177800Y131064D03*
D15*
X181610Y131064D03*
D57*
X186944Y131064D03*
D15*
X190246Y131064D03*
D14*
X198628Y131064D03*
D57*
X204724Y131064D03*
D58*
X213106Y131064D03*
D57*
X221996Y131064D03*
D47*
X227965Y131064D03*
D60*
X231521Y131064D03*
D57*
X235204Y131064D03*
D15*
X238506Y131064D03*
D18*
X244856Y131064D03*
D57*
X249428Y131064D03*
X252984Y131064D03*
D15*
X256794Y131064D03*
X264414Y131064D03*
D57*
X267716Y131064D03*
D28*
X277114Y131064D03*
D60*
X283337Y131064D03*
D14*
X290068Y131064D03*
D15*
X298958Y131064D03*
D57*
X302514Y131064D03*
D14*
X308864Y131064D03*
D57*
X133604Y131318D03*
X138938Y131318D03*
X149098Y131318D03*
D60*
X156591Y131318D03*
D57*
X160274Y131318D03*
D10*
X162560Y131318D03*
D11*
X163576Y131318D03*
D10*
X164592Y131318D03*
D58*
X171704Y131318D03*
D11*
X181356Y131318D03*
D10*
X182372Y131318D03*
D57*
X190246Y131318D03*
D10*
X197612Y131318D03*
D11*
X198628Y131318D03*
D10*
X199644Y131318D03*
D57*
X204724Y131318D03*
X213106Y131318D03*
D10*
X227076Y131318D03*
D11*
X228092Y131318D03*
D10*
X229108Y131318D03*
D59*
X235077Y131318D03*
D57*
X238506Y131318D03*
X244602Y131318D03*
D11*
X256540Y131318D03*
D10*
X257556Y131318D03*
D57*
X264414Y131318D03*
D14*
X277114Y131318D03*
D57*
X283210Y131318D03*
X289814Y131318D03*
D10*
X291084Y131318D03*
D57*
X298958Y131318D03*
X302514Y131318D03*
D10*
X307848Y131318D03*
D11*
X308864Y131318D03*
D10*
X309880Y131318D03*
D57*
X133604Y131572D03*
D60*
X138811Y131572D03*
D58*
X149098Y131572D03*
D57*
X156464Y131572D03*
D60*
X160147Y131572D03*
D57*
X204724Y131572D03*
D58*
X213106Y131572D03*
D57*
X235204Y131572D03*
D60*
X244475Y131572D03*
D14*
X276860Y131572D03*
D58*
X283210Y131572D03*
D60*
X302387Y131572D03*
D57*
X133858Y131826D03*
X138938Y131826D03*
D58*
X149352Y131826D03*
D60*
X156337Y131826D03*
D57*
X160274Y131826D03*
X204724Y131826D03*
X213106Y131826D03*
D59*
X235077Y131826D03*
D57*
X244602Y131826D03*
D15*
X276860Y131826D03*
D57*
X283210Y131826D03*
X302514Y131826D03*
D60*
X133985Y132080D03*
D57*
X138684Y132080D03*
D58*
X149606Y132080D03*
X156210Y132080D03*
D60*
X160147Y132080D03*
D57*
X204724Y132080D03*
D58*
X213106Y132080D03*
D57*
X235204Y132080D03*
D60*
X244475Y132080D03*
D16*
X276733Y132080D03*
D58*
X283210Y132080D03*
D60*
X302387Y132080D03*
D58*
X134112Y132334D03*
D60*
X138557Y132334D03*
D58*
X149860Y132334D03*
X155956Y132334D03*
D57*
X160274Y132334D03*
X204724Y132334D03*
X213106Y132334D03*
X234950Y132334D03*
X244602Y132334D03*
D47*
X276733Y132334D03*
D57*
X283210Y132334D03*
X302514Y132334D03*
D58*
X134366Y132588D03*
D50*
X138176Y132588D03*
D58*
X150114Y132588D03*
D61*
X155829Y132588D03*
D60*
X160147Y132588D03*
D57*
X204724Y132588D03*
D58*
X213106Y132588D03*
D57*
X221996Y132588D03*
X235204Y132588D03*
X244602Y132588D03*
X249428Y132588D03*
D15*
X276606Y132588D03*
D60*
X283337Y132588D03*
D57*
X302514Y132588D03*
D24*
X136398Y132842D03*
D50*
X150622Y132842D03*
D47*
X155321Y132842D03*
D57*
X160274Y132842D03*
X204724Y132842D03*
X213106Y132842D03*
X221996Y132842D03*
D59*
X235077Y132842D03*
D57*
X244602Y132842D03*
X249428Y132842D03*
D50*
X276606Y132842D03*
D57*
X283210Y132842D03*
X302514Y132842D03*
D13*
X136398Y133096D03*
D63*
X153035Y133096D03*
D60*
X160147Y133096D03*
D57*
X204724Y133096D03*
D58*
X213106Y133096D03*
D57*
X221996Y133096D03*
X235204Y133096D03*
X244602Y133096D03*
X249428Y133096D03*
D50*
X276352Y133096D03*
D60*
X283337Y133096D03*
D57*
X302514Y133096D03*
D18*
X136398Y133350D03*
D27*
X153035Y133350D03*
D57*
X160274Y133350D03*
X204724Y133350D03*
X213106Y133350D03*
X221996Y133350D03*
D59*
X235077Y133350D03*
D57*
X244602Y133350D03*
X249428Y133350D03*
D58*
X276352Y133350D03*
D57*
X283210Y133350D03*
X302514Y133350D03*
D28*
X136398Y133604D03*
D19*
X153162Y133604D03*
D60*
X160147Y133604D03*
D57*
X204724Y133604D03*
D58*
X213106Y133604D03*
D57*
X221996Y133604D03*
X235204Y133604D03*
D60*
X244475Y133604D03*
D57*
X249428Y133604D03*
D61*
X276225Y133604D03*
D58*
X283210Y133604D03*
D60*
X302387Y133604D03*
D15*
X136144Y133858D03*
D13*
X152908Y133858D03*
D57*
X160274Y133858D03*
X204724Y133858D03*
X213106Y133858D03*
X221996Y133858D03*
D59*
X235077Y133858D03*
D57*
X249428Y133858D03*
D60*
X276225Y133858D03*
D57*
X283210Y133858D03*
X302514Y133858D03*
X136144Y134112D03*
D10*
X137414Y134112D03*
D28*
X153162Y134112D03*
D60*
X160147Y134112D03*
D57*
X204724Y134112D03*
D58*
X213106Y134112D03*
D57*
X221996Y134112D03*
X235204Y134112D03*
X249428Y134112D03*
D58*
X276098Y134112D03*
X283210Y134112D03*
D60*
X302387Y134112D03*
D58*
X152908Y134366D03*
D10*
X154432Y134366D03*
D64*
X242570Y148844D03*
D65*
X242570Y149098D03*
D64*
X242570Y149352D03*
D65*
X242570Y149606D03*
D64*
X242570Y149860D03*
D65*
X242570Y150114D03*
D64*
X242570Y150368D03*
D65*
X242570Y150622D03*
D60*
X278511Y156972D03*
D57*
X278638Y157226D03*
D60*
X278511Y157480D03*
D57*
X278638Y157734D03*
X278638Y157988D03*
X278638Y158242D03*
X278638Y158496D03*
X278638Y158750D03*
D60*
X278511Y159004D03*
D57*
X278638Y159258D03*
D60*
X278511Y159512D03*
D57*
X147066Y159766D03*
D10*
X148336Y159766D03*
X159512Y159766D03*
D57*
X160782Y159766D03*
D10*
X162052Y159766D03*
D58*
X169672Y159766D03*
D57*
X186690Y159766D03*
D10*
X189992Y159766D03*
D12*
X190754Y159766D03*
D10*
X191516Y159766D03*
D58*
X214376Y159766D03*
D10*
X222504Y159766D03*
D57*
X223774Y159766D03*
X232410Y159766D03*
D10*
X233680Y159766D03*
X246888Y159766D03*
D57*
X248158Y159766D03*
D10*
X249428Y159766D03*
X257048Y159766D03*
D57*
X258318Y159766D03*
X278638Y159766D03*
X282194Y159766D03*
X290322Y159766D03*
X305054Y159766D03*
D10*
X306324Y159766D03*
D57*
X134112Y160020D03*
D14*
X147320Y160020D03*
D60*
X153035Y160020D03*
D14*
X161036Y160020D03*
X169672Y160020D03*
D57*
X176276Y160020D03*
D60*
X181483Y160020D03*
D15*
X186690Y160020D03*
D58*
X190754Y160020D03*
D57*
X194056Y160020D03*
D58*
X202438Y160020D03*
D14*
X214376Y160020D03*
X223520Y160020D03*
D15*
X232410Y160020D03*
D57*
X235966Y160020D03*
D28*
X248158Y160020D03*
D14*
X258064Y160020D03*
D60*
X264795Y160020D03*
D57*
X269748Y160020D03*
X274828Y160020D03*
X278638Y160020D03*
D15*
X282194Y160020D03*
X290322Y160020D03*
D57*
X293624Y160020D03*
D58*
X298958Y160020D03*
D15*
X305054Y160020D03*
D57*
X310896Y160020D03*
X134112Y160274D03*
D28*
X147320Y160274D03*
D57*
X153162Y160274D03*
D18*
X160782Y160274D03*
D28*
X169672Y160274D03*
D59*
X176149Y160274D03*
D57*
X181610Y160274D03*
D14*
X186690Y160274D03*
D61*
X190627Y160274D03*
D57*
X194056Y160274D03*
X202438Y160274D03*
D28*
X214376Y160274D03*
D18*
X223774Y160274D03*
D14*
X232410Y160274D03*
D57*
X235966Y160274D03*
D18*
X248158Y160274D03*
X258318Y160274D03*
D57*
X264922Y160274D03*
X270002Y160274D03*
D59*
X274955Y160274D03*
D57*
X278638Y160274D03*
D14*
X282194Y160274D03*
X290322Y160274D03*
D59*
X293497Y160274D03*
D61*
X298831Y160274D03*
D31*
X305181Y160274D03*
D57*
X311150Y160274D03*
X134112Y160528D03*
D13*
X147066Y160528D03*
D60*
X153035Y160528D03*
D24*
X161036Y160528D03*
X169672Y160528D03*
D57*
X176276Y160528D03*
D60*
X181483Y160528D03*
D63*
X188087Y160528D03*
D57*
X194056Y160528D03*
D58*
X202438Y160528D03*
D24*
X214376Y160528D03*
D13*
X223774Y160528D03*
D18*
X232410Y160528D03*
D57*
X235966Y160528D03*
D46*
X248031Y160528D03*
D13*
X258318Y160528D03*
D60*
X264795Y160528D03*
D57*
X269748Y160528D03*
X274828Y160528D03*
X278638Y160528D03*
D18*
X282194Y160528D03*
D31*
X290195Y160528D03*
D57*
X293624Y160528D03*
D47*
X298577Y160528D03*
D13*
X305054Y160528D03*
D60*
X311023Y160528D03*
X134239Y160782D03*
D24*
X147066Y160782D03*
D57*
X153162Y160782D03*
D19*
X161036Y160782D03*
D21*
X169545Y160782D03*
D57*
X176022Y160782D03*
X181610Y160782D03*
D63*
X188087Y160782D03*
D57*
X194056Y160782D03*
X202438Y160782D03*
D21*
X214249Y160782D03*
D24*
X223774Y160782D03*
D18*
X232410Y160782D03*
D57*
X235966Y160782D03*
D17*
X248158Y160782D03*
D24*
X258318Y160782D03*
D57*
X264922Y160782D03*
X270002Y160782D03*
X275082Y160782D03*
X278638Y160782D03*
D18*
X282194Y160782D03*
D19*
X291084Y160782D03*
D15*
X298704Y160782D03*
D24*
X305054Y160782D03*
D57*
X311150Y160782D03*
X134112Y161036D03*
D19*
X147066Y161036D03*
D60*
X153035Y161036D03*
D27*
X160909Y161036D03*
D19*
X169672Y161036D03*
D57*
X176276Y161036D03*
D60*
X181483Y161036D03*
D44*
X187960Y161036D03*
D57*
X194056Y161036D03*
D58*
X202438Y161036D03*
D19*
X214376Y161036D03*
X223774Y161036D03*
D37*
X233299Y161036D03*
D22*
X248158Y161036D03*
D19*
X258318Y161036D03*
D60*
X264795Y161036D03*
D57*
X269748Y161036D03*
X274828Y161036D03*
D22*
X281178Y161036D03*
D17*
X291084Y161036D03*
D15*
X298450Y161036D03*
D19*
X305054Y161036D03*
D60*
X311023Y161036D03*
X134239Y161290D03*
D61*
X145161Y161290D03*
D58*
X149352Y161290D03*
D57*
X153162Y161290D03*
D61*
X158877Y161290D03*
D58*
X163068Y161290D03*
D61*
X167513Y161290D03*
D58*
X171704Y161290D03*
D59*
X176149Y161290D03*
D57*
X181610Y161290D03*
D58*
X184912Y161290D03*
D10*
X186436Y161290D03*
X187960Y161290D03*
D50*
X189738Y161290D03*
D57*
X194056Y161290D03*
X202438Y161290D03*
D61*
X212217Y161290D03*
D58*
X216408Y161290D03*
X221488Y161290D03*
D10*
X223012Y161290D03*
X224536Y161290D03*
D58*
X226060Y161290D03*
X230632Y161290D03*
D10*
X232156Y161290D03*
D15*
X235204Y161290D03*
D50*
X245618Y161290D03*
D10*
X248920Y161290D03*
D61*
X250571Y161290D03*
D58*
X256032Y161290D03*
D10*
X257556Y161290D03*
X259080Y161290D03*
D58*
X260604Y161290D03*
D57*
X264922Y161290D03*
X270002Y161290D03*
X274828Y161290D03*
D15*
X279400Y161290D03*
D10*
X282448Y161290D03*
D58*
X283972Y161290D03*
X288544Y161290D03*
D10*
X290068Y161290D03*
D47*
X292989Y161290D03*
X298577Y161290D03*
D61*
X303149Y161290D03*
D10*
X305816Y161290D03*
D58*
X307340Y161290D03*
D57*
X311150Y161290D03*
X134112Y161544D03*
X144780Y161544D03*
D58*
X149606Y161544D03*
D60*
X153035Y161544D03*
D58*
X158750Y161544D03*
D60*
X163449Y161544D03*
D58*
X167386Y161544D03*
X171958Y161544D03*
D57*
X176276Y161544D03*
D60*
X181483Y161544D03*
X184785Y161544D03*
D61*
X189865Y161544D03*
D57*
X194056Y161544D03*
D58*
X202438Y161544D03*
X212090Y161544D03*
X216662Y161544D03*
X221234Y161544D03*
X226314Y161544D03*
X230378Y161544D03*
D47*
X235331Y161544D03*
D50*
X245364Y161544D03*
X250952Y161544D03*
D58*
X255778Y161544D03*
X260858Y161544D03*
D60*
X264795Y161544D03*
D57*
X269748Y161544D03*
X274828Y161544D03*
D15*
X279146Y161544D03*
D58*
X284226Y161544D03*
X288544Y161544D03*
D50*
X293116Y161544D03*
D58*
X297942Y161544D03*
X302768Y161544D03*
D60*
X307467Y161544D03*
X311023Y161544D03*
X134239Y161798D03*
D57*
X144526Y161798D03*
X149606Y161798D03*
X153162Y161798D03*
D60*
X158369Y161798D03*
D57*
X163830Y161798D03*
D60*
X167005Y161798D03*
D58*
X172212Y161798D03*
D59*
X176149Y161798D03*
D57*
X181610Y161798D03*
X184658Y161798D03*
D58*
X189992Y161798D03*
D57*
X194056Y161798D03*
X202438Y161798D03*
D60*
X211709Y161798D03*
D58*
X216916Y161798D03*
D60*
X221107Y161798D03*
X226441Y161798D03*
X230251Y161798D03*
D61*
X235585Y161798D03*
D58*
X244856Y161798D03*
X250952Y161798D03*
D60*
X255651Y161798D03*
X260985Y161798D03*
D57*
X264922Y161798D03*
X270002Y161798D03*
X274828Y161798D03*
D58*
X278892Y161798D03*
D60*
X284353Y161798D03*
X288417Y161798D03*
D58*
X293370Y161798D03*
D57*
X297688Y161798D03*
X302514Y161798D03*
X307594Y161798D03*
X311150Y161798D03*
X134112Y162052D03*
X144272Y162052D03*
X149860Y162052D03*
D60*
X153035Y162052D03*
X158369Y162052D03*
D57*
X163576Y162052D03*
D58*
X166878Y162052D03*
X172466Y162052D03*
D57*
X176276Y162052D03*
D60*
X181483Y162052D03*
D57*
X184658Y162052D03*
X189992Y162052D03*
X194056Y162052D03*
D58*
X202438Y162052D03*
X211582Y162052D03*
X217170Y162052D03*
D57*
X220980Y162052D03*
X226568Y162052D03*
X230124Y162052D03*
D61*
X235585Y162052D03*
D60*
X244729Y162052D03*
D58*
X251206Y162052D03*
D57*
X255524Y162052D03*
X261112Y162052D03*
D60*
X264795Y162052D03*
D57*
X269748Y162052D03*
X274828Y162052D03*
D58*
X278892Y162052D03*
D57*
X284480Y162052D03*
D58*
X288290Y162052D03*
X293370Y162052D03*
D57*
X297688Y162052D03*
D60*
X302387Y162052D03*
D57*
X307848Y162052D03*
X310896Y162052D03*
X134112Y162306D03*
X144272Y162306D03*
D59*
X149987Y162306D03*
D57*
X153162Y162306D03*
X158242Y162306D03*
D59*
X163703Y162306D03*
D57*
X166878Y162306D03*
X172466Y162306D03*
D59*
X176149Y162306D03*
D57*
X181610Y162306D03*
X184658Y162306D03*
X190246Y162306D03*
X194056Y162306D03*
X202438Y162306D03*
X211582Y162306D03*
X217170Y162306D03*
D60*
X220853Y162306D03*
X226695Y162306D03*
D57*
X229870Y162306D03*
D60*
X235839Y162306D03*
D57*
X244602Y162306D03*
D58*
X251460Y162306D03*
D60*
X255397Y162306D03*
X261239Y162306D03*
D57*
X264922Y162306D03*
X270002Y162306D03*
D59*
X274955Y162306D03*
D60*
X278765Y162306D03*
D57*
X284734Y162306D03*
X288290Y162306D03*
X293370Y162306D03*
D59*
X297561Y162306D03*
X302387Y162306D03*
X307975Y162306D03*
D57*
X311150Y162306D03*
X134112Y162560D03*
X144272Y162560D03*
D60*
X153035Y162560D03*
D57*
X163576Y162560D03*
X166624Y162560D03*
X172720Y162560D03*
X176276Y162560D03*
D60*
X181483Y162560D03*
X184785Y162560D03*
D57*
X189992Y162560D03*
X194056Y162560D03*
D58*
X202438Y162560D03*
D57*
X211328Y162560D03*
X217424Y162560D03*
D60*
X220853Y162560D03*
X226695Y162560D03*
D58*
X229870Y162560D03*
D60*
X235839Y162560D03*
D58*
X244602Y162560D03*
X251714Y162560D03*
D60*
X255397Y162560D03*
X261239Y162560D03*
X264795Y162560D03*
D57*
X269748Y162560D03*
X274828Y162560D03*
D60*
X278765Y162560D03*
X284607Y162560D03*
X288163Y162560D03*
D57*
X293624Y162560D03*
X297688Y162560D03*
X302260Y162560D03*
D60*
X311023Y162560D03*
X134239Y162814D03*
D57*
X144018Y162814D03*
X153162Y162814D03*
D60*
X163449Y162814D03*
D57*
X166624Y162814D03*
X172720Y162814D03*
X176022Y162814D03*
X181610Y162814D03*
X184658Y162814D03*
X190246Y162814D03*
X194056Y162814D03*
X202438Y162814D03*
X211328Y162814D03*
X217424Y162814D03*
X220726Y162814D03*
X226822Y162814D03*
X229870Y162814D03*
X235966Y162814D03*
D58*
X244348Y162814D03*
D57*
X251714Y162814D03*
X255270Y162814D03*
X261366Y162814D03*
X264922Y162814D03*
X270002Y162814D03*
X275082Y162814D03*
X278638Y162814D03*
X284734Y162814D03*
X288290Y162814D03*
X293370Y162814D03*
D59*
X297561Y162814D03*
D57*
X302006Y162814D03*
X311150Y162814D03*
X134112Y163068D03*
X144272Y163068D03*
D60*
X153035Y163068D03*
D50*
X163068Y163068D03*
D57*
X166624Y163068D03*
X172720Y163068D03*
X176276Y163068D03*
D60*
X181483Y163068D03*
X185039Y163068D03*
X190119Y163068D03*
D57*
X194056Y163068D03*
D58*
X202438Y163068D03*
D57*
X211328Y163068D03*
X217424Y163068D03*
D60*
X220599Y163068D03*
X226949Y163068D03*
D57*
X229616Y163068D03*
D60*
X235839Y163068D03*
X244221Y163068D03*
X251841Y163068D03*
X255143Y163068D03*
X261493Y163068D03*
X264795Y163068D03*
D57*
X269748Y163068D03*
X274828Y163068D03*
D60*
X278511Y163068D03*
X284861Y163068D03*
X288163Y163068D03*
D57*
X293624Y163068D03*
X297688Y163068D03*
X302260Y163068D03*
D60*
X311023Y163068D03*
X134239Y163322D03*
D57*
X144018Y163322D03*
X153162Y163322D03*
D10*
X160528Y163322D03*
D15*
X162560Y163322D03*
D57*
X166370Y163322D03*
X172974Y163322D03*
D59*
X176149Y163322D03*
D57*
X181610Y163322D03*
D58*
X185420Y163322D03*
D57*
X190246Y163322D03*
X194056Y163322D03*
X202438Y163322D03*
X211074Y163322D03*
X217678Y163322D03*
X220726Y163322D03*
X226822Y163322D03*
X229870Y163322D03*
X235966Y163322D03*
X244094Y163322D03*
D60*
X251841Y163322D03*
D57*
X255270Y163322D03*
X261366Y163322D03*
X264922Y163322D03*
X270002Y163322D03*
X274828Y163322D03*
X278638Y163322D03*
X284734Y163322D03*
X288290Y163322D03*
X293624Y163322D03*
X297688Y163322D03*
X302006Y163322D03*
X311150Y163322D03*
X134112Y163576D03*
D44*
X147066Y163576D03*
D60*
X153035Y163576D03*
D31*
X161925Y163576D03*
D60*
X166497Y163576D03*
D57*
X172720Y163576D03*
X176276Y163576D03*
D60*
X181483Y163576D03*
D47*
X185801Y163576D03*
D10*
X187706Y163576D03*
X188214Y163576D03*
D60*
X190119Y163576D03*
D57*
X194056Y163576D03*
D58*
X202438Y163576D03*
D60*
X211201Y163576D03*
D57*
X217424Y163576D03*
X220472Y163576D03*
X227076Y163576D03*
X229616Y163576D03*
X235966Y163576D03*
D58*
X244094Y163576D03*
D57*
X251968Y163576D03*
X255016Y163576D03*
X261620Y163576D03*
D60*
X264795Y163576D03*
D57*
X269748Y163576D03*
X274828Y163576D03*
D60*
X278511Y163576D03*
D57*
X284988Y163576D03*
D60*
X288163Y163576D03*
D57*
X293624Y163576D03*
X297688Y163576D03*
D44*
X305054Y163576D03*
D60*
X311023Y163576D03*
X134239Y163830D03*
D44*
X147066Y163830D03*
D57*
X153162Y163830D03*
D18*
X161290Y163830D03*
D57*
X166370Y163830D03*
X172974Y163830D03*
D59*
X176149Y163830D03*
D57*
X181610Y163830D03*
D28*
X186944Y163830D03*
D57*
X190246Y163830D03*
X194056Y163830D03*
X202438Y163830D03*
X211074Y163830D03*
X217678Y163830D03*
X220726Y163830D03*
X226822Y163830D03*
D59*
X229743Y163830D03*
D57*
X235966Y163830D03*
D60*
X243967Y163830D03*
X251841Y163830D03*
D57*
X255270Y163830D03*
X261366Y163830D03*
X264922Y163830D03*
X270002Y163830D03*
X274828Y163830D03*
X278638Y163830D03*
X284734Y163830D03*
X288290Y163830D03*
X293624Y163830D03*
X297688Y163830D03*
D44*
X305054Y163830D03*
D57*
X311150Y163830D03*
X134112Y164084D03*
D44*
X147066Y164084D03*
D60*
X153035Y164084D03*
D18*
X161036Y164084D03*
D57*
X166624Y164084D03*
X172720Y164084D03*
X176276Y164084D03*
D60*
X181483Y164084D03*
D24*
X187960Y164084D03*
D57*
X194056Y164084D03*
D58*
X202438Y164084D03*
D57*
X211328Y164084D03*
X217424Y164084D03*
X220472Y164084D03*
X227076Y164084D03*
X229616Y164084D03*
X235966Y164084D03*
X243840Y164084D03*
X251968Y164084D03*
X255016Y164084D03*
X261620Y164084D03*
D60*
X264795Y164084D03*
D57*
X269748Y164084D03*
X274828Y164084D03*
D59*
X278511Y164084D03*
D57*
X284988Y164084D03*
D60*
X288163Y164084D03*
D57*
X293624Y164084D03*
X297688Y164084D03*
D44*
X305054Y164084D03*
D60*
X311023Y164084D03*
D24*
X136144Y164338D03*
D44*
X147066Y164338D03*
D57*
X153162Y164338D03*
D18*
X160782Y164338D03*
D57*
X166370Y164338D03*
X172974Y164338D03*
D59*
X176149Y164338D03*
D57*
X181610Y164338D03*
D18*
X188722Y164338D03*
D57*
X194056Y164338D03*
X202438Y164338D03*
X211074Y164338D03*
X217678Y164338D03*
D59*
X220599Y164338D03*
D57*
X226822Y164338D03*
D59*
X229743Y164338D03*
D57*
X235966Y164338D03*
X243840Y164338D03*
D59*
X255143Y164338D03*
D57*
X261366Y164338D03*
X264922Y164338D03*
X270002Y164338D03*
D59*
X274955Y164338D03*
D57*
X278638Y164338D03*
X284734Y164338D03*
X288290Y164338D03*
D59*
X293497Y164338D03*
X297561Y164338D03*
D44*
X305054Y164338D03*
D57*
X311150Y164338D03*
D17*
X136652Y164592D03*
D44*
X147066Y164592D03*
D58*
X153162Y164592D03*
D31*
X160147Y164592D03*
D57*
X166624Y164592D03*
X172720Y164592D03*
X176276Y164592D03*
D60*
X181483Y164592D03*
D10*
X187706Y164592D03*
D50*
X189484Y164592D03*
D57*
X194056Y164592D03*
D58*
X202438Y164592D03*
D57*
X211328Y164592D03*
X217424Y164592D03*
X220472Y164592D03*
D60*
X226949Y164592D03*
D57*
X229616Y164592D03*
X235966Y164592D03*
X243840Y164592D03*
X255016Y164592D03*
D60*
X261493Y164592D03*
X264795Y164592D03*
D57*
X269748Y164592D03*
X274828Y164592D03*
X278638Y164592D03*
D60*
X284861Y164592D03*
X288163Y164592D03*
D57*
X293624Y164592D03*
X297688Y164592D03*
D44*
X305054Y164592D03*
D60*
X311023Y164592D03*
D63*
X137033Y164846D03*
D57*
X144018Y164846D03*
X150114Y164846D03*
X153162Y164846D03*
D15*
X159512Y164846D03*
D57*
X166370Y164846D03*
X172720Y164846D03*
D60*
X176149Y164846D03*
D57*
X181610Y164846D03*
D58*
X189992Y164846D03*
D57*
X194056Y164846D03*
X202438Y164846D03*
X211074Y164846D03*
X217424Y164846D03*
X220726Y164846D03*
X226822Y164846D03*
X229870Y164846D03*
X235966Y164846D03*
D60*
X243713Y164846D03*
D57*
X255270Y164846D03*
X261366Y164846D03*
X264922Y164846D03*
X270002Y164846D03*
X275082Y164846D03*
X278638Y164846D03*
X284734Y164846D03*
X288290Y164846D03*
D59*
X293497Y164846D03*
X297561Y164846D03*
D57*
X302006Y164846D03*
X308102Y164846D03*
X311150Y164846D03*
D44*
X137160Y165100D03*
D57*
X144272Y165100D03*
X149860Y165100D03*
D58*
X153162Y165100D03*
X158750Y165100D03*
D10*
X160274Y165100D03*
D57*
X166624Y165100D03*
X172720Y165100D03*
X176276Y165100D03*
D60*
X181483Y165100D03*
X190119Y165100D03*
D57*
X194056Y165100D03*
D22*
X204978Y165100D03*
D57*
X211328Y165100D03*
X217424Y165100D03*
D60*
X220599Y165100D03*
D58*
X226822Y165100D03*
D60*
X229743Y165100D03*
X235839Y165100D03*
X243713Y165100D03*
X255143Y165100D03*
D58*
X261366Y165100D03*
D60*
X264795Y165100D03*
D57*
X269748Y165100D03*
X274828Y165100D03*
D58*
X278638Y165100D03*
X284734Y165100D03*
D60*
X288163Y165100D03*
D57*
X293624Y165100D03*
X297688Y165100D03*
X302260Y165100D03*
X307848Y165100D03*
D58*
X311150Y165100D03*
D66*
X137287Y165354D03*
D59*
X144145Y165354D03*
X149987Y165354D03*
D60*
X153289Y165354D03*
X158623Y165354D03*
X166751Y165354D03*
X172593Y165354D03*
D57*
X176276Y165354D03*
X181610Y165354D03*
X190246Y165354D03*
X194056Y165354D03*
D17*
X204978Y165354D03*
D60*
X211455Y165354D03*
X217297Y165354D03*
D57*
X220726Y165354D03*
X226822Y165354D03*
X229870Y165354D03*
X235966Y165354D03*
D60*
X243713Y165354D03*
D57*
X255270Y165354D03*
X261366Y165354D03*
X264922Y165354D03*
X270002Y165354D03*
X274828Y165354D03*
X278638Y165354D03*
X284734Y165354D03*
X288290Y165354D03*
X293624Y165354D03*
X297688Y165354D03*
D59*
X302133Y165354D03*
X307975Y165354D03*
D60*
X311277Y165354D03*
D20*
X137414Y165608D03*
D57*
X144272Y165608D03*
X149860Y165608D03*
D61*
X153289Y165608D03*
D57*
X158496Y165608D03*
D60*
X166751Y165608D03*
X172593Y165608D03*
D57*
X176276Y165608D03*
D60*
X181483Y165608D03*
D57*
X184912Y165608D03*
D60*
X190119Y165608D03*
D57*
X194056Y165608D03*
D22*
X204978Y165608D03*
D60*
X211455Y165608D03*
X217297Y165608D03*
X220853Y165608D03*
X226695Y165608D03*
D58*
X229870Y165608D03*
D60*
X235839Y165608D03*
X243713Y165608D03*
X255397Y165608D03*
X261239Y165608D03*
D58*
X264922Y165608D03*
D60*
X269875Y165608D03*
D57*
X274828Y165608D03*
D58*
X278638Y165608D03*
D60*
X284607Y165608D03*
X288163Y165608D03*
D57*
X293624Y165608D03*
X297688Y165608D03*
X302260Y165608D03*
X307848Y165608D03*
D61*
X311277Y165608D03*
D60*
X134239Y165862D03*
D10*
X138684Y165862D03*
D58*
X140208Y165862D03*
D57*
X144526Y165862D03*
X149606Y165862D03*
D58*
X153416Y165862D03*
D57*
X158242Y165862D03*
X163322Y165862D03*
X166878Y165862D03*
X172466Y165862D03*
D60*
X176403Y165862D03*
X181483Y165862D03*
D57*
X185166Y165862D03*
X190246Y165862D03*
X194056Y165862D03*
D17*
X204978Y165862D03*
D57*
X211582Y165862D03*
X217170Y165862D03*
D58*
X220980Y165862D03*
D60*
X226441Y165862D03*
X229997Y165862D03*
D58*
X235712Y165862D03*
D60*
X243713Y165862D03*
D58*
X255524Y165862D03*
D60*
X260985Y165862D03*
X265049Y165862D03*
X269875Y165862D03*
D57*
X274828Y165862D03*
D58*
X278892Y165862D03*
X284480Y165862D03*
D57*
X288290Y165862D03*
X293624Y165862D03*
X297688Y165862D03*
X302514Y165862D03*
X307594Y165862D03*
D58*
X311404Y165862D03*
D57*
X134112Y166116D03*
D58*
X140462Y166116D03*
D60*
X144653Y166116D03*
X149479Y166116D03*
D47*
X153543Y166116D03*
D57*
X158496Y166116D03*
D58*
X163322Y166116D03*
D60*
X167005Y166116D03*
X172339Y166116D03*
D58*
X176530Y166116D03*
D60*
X181483Y166116D03*
X185039Y166116D03*
D57*
X189992Y166116D03*
X194056Y166116D03*
D22*
X204978Y166116D03*
D60*
X211709Y166116D03*
X217043Y166116D03*
D58*
X221234Y166116D03*
X226314Y166116D03*
X230378Y166116D03*
D61*
X235585Y166116D03*
D57*
X243840Y166116D03*
D58*
X255778Y166116D03*
X260858Y166116D03*
X264922Y166116D03*
X270002Y166116D03*
D57*
X274828Y166116D03*
D61*
X279019Y166116D03*
D58*
X284226Y166116D03*
D60*
X288163Y166116D03*
D57*
X293624Y166116D03*
X297688Y166116D03*
D60*
X302641Y166116D03*
X307467Y166116D03*
D50*
X311404Y166116D03*
D57*
X134112Y166370D03*
D58*
X140716Y166370D03*
X144780Y166370D03*
D60*
X149225Y166370D03*
D47*
X153797Y166370D03*
D57*
X158496Y166370D03*
D60*
X163195Y166370D03*
D58*
X167132Y166370D03*
D60*
X172085Y166370D03*
D61*
X176657Y166370D03*
D58*
X181356Y166370D03*
D60*
X185293Y166370D03*
D57*
X189992Y166370D03*
X194056Y166370D03*
D17*
X204978Y166370D03*
D58*
X211836Y166370D03*
D60*
X216789Y166370D03*
X221361Y166370D03*
D58*
X226060Y166370D03*
D57*
X230378Y166370D03*
D50*
X235458Y166370D03*
D57*
X243840Y166370D03*
D60*
X255905Y166370D03*
D58*
X260604Y166370D03*
X265176Y166370D03*
D50*
X270002Y166370D03*
D60*
X274701Y166370D03*
D50*
X279146Y166370D03*
D58*
X283972Y166370D03*
D57*
X288290Y166370D03*
D59*
X293497Y166370D03*
X297561Y166370D03*
D60*
X302895Y166370D03*
D58*
X307340Y166370D03*
D15*
X311912Y166370D03*
D57*
X134112Y166624D03*
D60*
X140843Y166624D03*
D58*
X145034Y166624D03*
D10*
X146558Y166624D03*
D58*
X149098Y166624D03*
D18*
X154432Y166624D03*
D58*
X158750Y166624D03*
X162814Y166624D03*
D50*
X167640Y166624D03*
X171704Y166624D03*
D15*
X177038Y166624D03*
D10*
X179578Y166624D03*
D58*
X181102Y166624D03*
D61*
X185547Y166624D03*
D58*
X189738Y166624D03*
D57*
X194056Y166624D03*
D58*
X202438Y166624D03*
D50*
X212344Y166624D03*
X216408Y166624D03*
D61*
X221615Y166624D03*
D10*
X223266Y166624D03*
X224282Y166624D03*
D61*
X225933Y166624D03*
D50*
X230632Y166624D03*
D10*
X233426Y166624D03*
D47*
X235331Y166624D03*
D57*
X243840Y166624D03*
D61*
X256159Y166624D03*
D10*
X257810Y166624D03*
X258826Y166624D03*
D61*
X260477Y166624D03*
D15*
X265430Y166624D03*
X270002Y166624D03*
D10*
X272034Y166624D03*
X273050Y166624D03*
D58*
X274574Y166624D03*
D47*
X279273Y166624D03*
D10*
X281178Y166624D03*
X282194Y166624D03*
D50*
X283972Y166624D03*
D60*
X288163Y166624D03*
D57*
X293624Y166624D03*
X297688Y166624D03*
D58*
X303022Y166624D03*
D10*
X304546Y166624D03*
X305562Y166624D03*
D58*
X307086Y166624D03*
D18*
X312420Y166624D03*
D60*
X134239Y166878D03*
X140843Y166878D03*
D24*
X147066Y166878D03*
D57*
X153162Y166878D03*
D50*
X155702Y166878D03*
D46*
X160909Y166878D03*
D19*
X169672Y166878D03*
D57*
X176022Y166878D03*
D40*
X179705Y166878D03*
D19*
X187452Y166878D03*
D57*
X194056Y166878D03*
X202438Y166878D03*
D19*
X214376Y166878D03*
X223774Y166878D03*
D22*
X233172Y166878D03*
D60*
X243967Y166878D03*
D19*
X258318Y166878D03*
D32*
X269748Y166878D03*
D22*
X281432Y166878D03*
D57*
X288290Y166878D03*
D59*
X293497Y166878D03*
D18*
X297942Y166878D03*
D24*
X305054Y166878D03*
D18*
X312674Y166878D03*
D57*
X134112Y167132D03*
D60*
X140843Y167132D03*
D13*
X147066Y167132D03*
D57*
X152908Y167132D03*
D50*
X155448Y167132D03*
D46*
X160909Y167132D03*
D24*
X169672Y167132D03*
D57*
X176276Y167132D03*
D18*
X179832Y167132D03*
D46*
X187579Y167132D03*
D57*
X194056Y167132D03*
D58*
X202438Y167132D03*
D24*
X214376Y167132D03*
D19*
X223774Y167132D03*
D37*
X233299Y167132D03*
D60*
X243967Y167132D03*
D19*
X258318Y167132D03*
D57*
X264668Y167132D03*
D67*
X270637Y167132D03*
D22*
X281178Y167132D03*
D60*
X288163Y167132D03*
D57*
X293624Y167132D03*
D18*
X297688Y167132D03*
D13*
X305054Y167132D03*
D57*
X310896Y167132D03*
D50*
X313436Y167132D03*
D60*
X134239Y167386D03*
D57*
X140970Y167386D03*
D18*
X147066Y167386D03*
D59*
X153035Y167386D03*
D50*
X155702Y167386D03*
D13*
X161036Y167386D03*
X169672Y167386D03*
D59*
X176149Y167386D03*
D28*
X179832Y167386D03*
D21*
X187579Y167386D03*
D57*
X194056Y167386D03*
X202438Y167386D03*
D13*
X214376Y167386D03*
D40*
X223647Y167386D03*
D31*
X232283Y167386D03*
D57*
X235966Y167386D03*
X244094Y167386D03*
D40*
X258191Y167386D03*
D59*
X264795Y167386D03*
D28*
X268224Y167386D03*
D31*
X273177Y167386D03*
D57*
X278638Y167386D03*
D18*
X282194Y167386D03*
D57*
X288290Y167386D03*
X293624Y167386D03*
D31*
X297815Y167386D03*
D18*
X305054Y167386D03*
D57*
X311150Y167386D03*
D50*
X313690Y167386D03*
D57*
X134112Y167640D03*
D58*
X140970Y167640D03*
D28*
X147066Y167640D03*
D57*
X152908Y167640D03*
D58*
X155702Y167640D03*
D40*
X160909Y167640D03*
D18*
X169672Y167640D03*
D57*
X176276Y167640D03*
D45*
X179705Y167640D03*
D13*
X187706Y167640D03*
D57*
X194056Y167640D03*
D58*
X202438Y167640D03*
D18*
X214376Y167640D03*
D31*
X223647Y167640D03*
D28*
X232410Y167640D03*
D60*
X235839Y167640D03*
D58*
X244094Y167640D03*
D57*
X251968Y167640D03*
D31*
X258191Y167640D03*
D57*
X264668Y167640D03*
D14*
X268224Y167640D03*
D45*
X273177Y167640D03*
D60*
X278511Y167640D03*
D28*
X282194Y167640D03*
D60*
X288163Y167640D03*
D57*
X293624Y167640D03*
D18*
X297688Y167640D03*
D28*
X305054Y167640D03*
D57*
X310896Y167640D03*
D58*
X313690Y167640D03*
D60*
X134239Y167894D03*
D57*
X140970Y167894D03*
D50*
X147066Y167894D03*
D59*
X153035Y167894D03*
D60*
X156083Y167894D03*
D14*
X160782Y167894D03*
D15*
X169672Y167894D03*
D59*
X176149Y167894D03*
D50*
X179578Y167894D03*
D14*
X187706Y167894D03*
D57*
X194056Y167894D03*
X202438Y167894D03*
D15*
X214376Y167894D03*
D14*
X223774Y167894D03*
D10*
X230632Y167894D03*
D50*
X232410Y167894D03*
D57*
X235966Y167894D03*
D60*
X244221Y167894D03*
X251841Y167894D03*
D14*
X258318Y167894D03*
D59*
X264795Y167894D03*
D50*
X267970Y167894D03*
X273050Y167894D03*
D57*
X278638Y167894D03*
D15*
X281940Y167894D03*
D57*
X288290Y167894D03*
X293624Y167894D03*
D31*
X297815Y167894D03*
D15*
X305308Y167894D03*
D57*
X311150Y167894D03*
X314198Y167894D03*
X134112Y168148D03*
D58*
X140970Y168148D03*
D10*
X146050Y168148D03*
D57*
X147320Y168148D03*
D11*
X156210Y168148D03*
D58*
X160782Y168148D03*
D10*
X162306Y168148D03*
X168402Y168148D03*
D57*
X169672Y168148D03*
D10*
X170942Y168148D03*
X178562Y168148D03*
D57*
X179832Y168148D03*
D10*
X186182Y168148D03*
D58*
X187706Y168148D03*
D57*
X194056Y168148D03*
D58*
X202438Y168148D03*
D10*
X213106Y168148D03*
D57*
X214376Y168148D03*
D10*
X215646Y168148D03*
D58*
X223774Y168148D03*
D57*
X232156Y168148D03*
D10*
X233426Y168148D03*
D57*
X235966Y168148D03*
X244348Y168148D03*
D58*
X251714Y168148D03*
X258318Y168148D03*
D57*
X268224Y168148D03*
D10*
X272034Y168148D03*
D57*
X273304Y168148D03*
X281940Y168148D03*
D10*
X283210Y168148D03*
D57*
X297688Y168148D03*
D10*
X304038Y168148D03*
D11*
X305054Y168148D03*
D10*
X306070Y168148D03*
D11*
X314198Y168148D03*
D57*
X134112Y168402D03*
X140970Y168402D03*
X194056Y168402D03*
X202438Y168402D03*
X235966Y168402D03*
D60*
X244475Y168402D03*
D57*
X251714Y168402D03*
D59*
X297561Y168402D03*
D57*
X134112Y168656D03*
D60*
X140843Y168656D03*
D57*
X194056Y168656D03*
D58*
X202438Y168656D03*
D57*
X235966Y168656D03*
D58*
X244602Y168656D03*
X251714Y168656D03*
D57*
X297688Y168656D03*
D60*
X134239Y168910D03*
D58*
X140716Y168910D03*
D57*
X194056Y168910D03*
X202438Y168910D03*
X235966Y168910D03*
D58*
X244856Y168910D03*
X251460Y168910D03*
D59*
X297561Y168910D03*
D57*
X134112Y169164D03*
D58*
X140462Y169164D03*
D57*
X194056Y169164D03*
D58*
X202438Y169164D03*
D60*
X235839Y169164D03*
D58*
X245110Y169164D03*
X251206Y169164D03*
D57*
X297688Y169164D03*
D60*
X134239Y169418D03*
D58*
X140208Y169418D03*
D57*
X194056Y169418D03*
D63*
X205359Y169418D03*
D57*
X235966Y169418D03*
D58*
X245364Y169418D03*
X250952Y169418D03*
D57*
X297688Y169418D03*
D20*
X137414Y169672D03*
D57*
X194056Y169672D03*
D44*
X205232Y169672D03*
D60*
X235839Y169672D03*
D47*
X245745Y169672D03*
D15*
X250698Y169672D03*
D57*
X297688Y169672D03*
D66*
X137287Y169926D03*
D57*
X194056Y169926D03*
D63*
X205359Y169926D03*
D57*
X235966Y169926D03*
D37*
X248285Y169926D03*
D57*
X297688Y169926D03*
D44*
X137160Y170180D03*
D57*
X194056Y170180D03*
D44*
X205232Y170180D03*
D57*
X235966Y170180D03*
D17*
X248412Y170180D03*
D57*
X297688Y170180D03*
D37*
X136779Y170434D03*
D57*
X194056Y170434D03*
D63*
X205359Y170434D03*
D57*
X235966Y170434D03*
D24*
X248158Y170434D03*
D59*
X297561Y170434D03*
D17*
X136652Y170688D03*
D57*
X194056Y170688D03*
D44*
X205232Y170688D03*
D57*
X235966Y170688D03*
D13*
X248158Y170688D03*
D46*
X136271Y170942D03*
D57*
X194056Y170942D03*
D63*
X205359Y170942D03*
D57*
X235966Y170942D03*
D14*
X248158Y170942D03*
D10*
X250444Y170942D03*
D58*
X248158Y171196D03*
D10*
X249682Y171196D03*
D68*
X50828Y262382D02*
X50828Y278638D01*
X49022Y262382D02*
X52634Y262382D01*
X52634Y278638D02*
X49022Y278638D01*
X59339Y278638D02*
X59339Y262382D01*
X68370Y262382D02*
X59339Y278638D01*
X68370Y278638D02*
X68370Y262382D01*
X397002Y266898D02*
X397002Y274122D01*
X397004Y274255D01*
X397010Y274387D01*
X397020Y274519D01*
X397033Y274651D01*
X397051Y274783D01*
X397072Y274913D01*
X397097Y275044D01*
X397126Y275173D01*
X397159Y275301D01*
X397195Y275429D01*
X397235Y275555D01*
X397279Y275680D01*
X397327Y275804D01*
X397378Y275926D01*
X397433Y276047D01*
X397491Y276166D01*
X397553Y276284D01*
X397618Y276399D01*
X397687Y276513D01*
X397758Y276624D01*
X397834Y276733D01*
X397912Y276840D01*
X397993Y276945D01*
X398078Y277047D01*
X398165Y277147D01*
X398255Y277244D01*
X398348Y277339D01*
X398444Y277430D01*
X398542Y277519D01*
X398643Y277605D01*
X398747Y277688D01*
X398853Y277768D01*
X398961Y277844D01*
X399071Y277918D01*
X399184Y277988D01*
X399298Y278055D01*
X399415Y278118D01*
X399533Y278178D01*
X399653Y278235D01*
X399775Y278288D01*
X399898Y278337D01*
X400022Y278383D01*
X400148Y278425D01*
X400275Y278463D01*
X400403Y278498D01*
X400532Y278529D01*
X400661Y278556D01*
X400792Y278579D01*
X400923Y278599D01*
X401055Y278614D01*
X401187Y278626D01*
X401319Y278634D01*
X401452Y278638D01*
X401584Y278638D01*
X401717Y278634D01*
X401849Y278626D01*
X401981Y278614D01*
X402113Y278599D01*
X402244Y278579D01*
X402375Y278556D01*
X402504Y278529D01*
X402633Y278498D01*
X402761Y278463D01*
X402888Y278425D01*
X403014Y278383D01*
X403138Y278337D01*
X403261Y278288D01*
X403383Y278235D01*
X403503Y278178D01*
X403621Y278118D01*
X403738Y278055D01*
X403852Y277988D01*
X403965Y277918D01*
X404075Y277844D01*
X404183Y277768D01*
X404289Y277688D01*
X404393Y277605D01*
X404494Y277519D01*
X404592Y277430D01*
X404688Y277339D01*
X404781Y277244D01*
X404871Y277147D01*
X404958Y277047D01*
X405043Y276945D01*
X405124Y276840D01*
X405202Y276733D01*
X405278Y276624D01*
X405349Y276513D01*
X405418Y276399D01*
X405483Y276284D01*
X405545Y276166D01*
X405603Y276047D01*
X405658Y275926D01*
X405709Y275804D01*
X405757Y275680D01*
X405801Y275555D01*
X405841Y275429D01*
X405877Y275301D01*
X405910Y275173D01*
X405939Y275044D01*
X405964Y274913D01*
X405985Y274783D01*
X406003Y274651D01*
X406016Y274519D01*
X406026Y274387D01*
X406032Y274255D01*
X406034Y274122D01*
X406033Y274122D02*
X406033Y266898D01*
X406034Y266898D02*
X406032Y266765D01*
X406026Y266633D01*
X406016Y266501D01*
X406003Y266369D01*
X405985Y266237D01*
X405964Y266107D01*
X405939Y265976D01*
X405910Y265847D01*
X405877Y265719D01*
X405841Y265591D01*
X405801Y265465D01*
X405757Y265340D01*
X405709Y265216D01*
X405658Y265094D01*
X405603Y264973D01*
X405545Y264854D01*
X405483Y264736D01*
X405418Y264621D01*
X405349Y264507D01*
X405278Y264396D01*
X405202Y264287D01*
X405124Y264180D01*
X405043Y264075D01*
X404958Y263973D01*
X404871Y263873D01*
X404781Y263776D01*
X404688Y263681D01*
X404592Y263590D01*
X404494Y263501D01*
X404393Y263415D01*
X404289Y263332D01*
X404183Y263252D01*
X404075Y263176D01*
X403965Y263102D01*
X403852Y263032D01*
X403738Y262965D01*
X403621Y262902D01*
X403503Y262842D01*
X403383Y262785D01*
X403261Y262732D01*
X403138Y262683D01*
X403014Y262637D01*
X402888Y262595D01*
X402761Y262557D01*
X402633Y262522D01*
X402504Y262491D01*
X402375Y262464D01*
X402244Y262441D01*
X402113Y262421D01*
X401981Y262406D01*
X401849Y262394D01*
X401717Y262386D01*
X401584Y262382D01*
X401452Y262382D01*
X401319Y262386D01*
X401187Y262394D01*
X401055Y262406D01*
X400923Y262421D01*
X400792Y262441D01*
X400661Y262464D01*
X400532Y262491D01*
X400403Y262522D01*
X400275Y262557D01*
X400148Y262595D01*
X400022Y262637D01*
X399898Y262683D01*
X399775Y262732D01*
X399653Y262785D01*
X399533Y262842D01*
X399415Y262902D01*
X399298Y262965D01*
X399184Y263032D01*
X399071Y263102D01*
X398961Y263176D01*
X398853Y263252D01*
X398747Y263332D01*
X398643Y263415D01*
X398542Y263501D01*
X398444Y263590D01*
X398348Y263681D01*
X398255Y263776D01*
X398165Y263873D01*
X398078Y263973D01*
X397993Y264075D01*
X397912Y264180D01*
X397834Y264287D01*
X397758Y264396D01*
X397687Y264507D01*
X397618Y264621D01*
X397553Y264736D01*
X397491Y264854D01*
X397433Y264973D01*
X397378Y265094D01*
X397327Y265216D01*
X397279Y265340D01*
X397235Y265465D01*
X397195Y265591D01*
X397159Y265719D01*
X397126Y265847D01*
X397097Y265976D01*
X397072Y266107D01*
X397051Y266237D01*
X397033Y266369D01*
X397020Y266501D01*
X397010Y266633D01*
X397004Y266765D01*
X397002Y266898D01*
X413154Y266898D02*
X413154Y278638D01*
X413154Y266898D02*
X413156Y266765D01*
X413162Y266633D01*
X413172Y266501D01*
X413185Y266369D01*
X413203Y266237D01*
X413224Y266107D01*
X413249Y265976D01*
X413278Y265847D01*
X413311Y265719D01*
X413347Y265591D01*
X413387Y265465D01*
X413431Y265340D01*
X413479Y265216D01*
X413530Y265094D01*
X413585Y264973D01*
X413643Y264854D01*
X413705Y264736D01*
X413770Y264621D01*
X413839Y264507D01*
X413910Y264396D01*
X413986Y264287D01*
X414064Y264180D01*
X414145Y264075D01*
X414230Y263973D01*
X414317Y263873D01*
X414407Y263776D01*
X414500Y263681D01*
X414596Y263590D01*
X414694Y263501D01*
X414795Y263415D01*
X414899Y263332D01*
X415005Y263252D01*
X415113Y263176D01*
X415223Y263102D01*
X415336Y263032D01*
X415450Y262965D01*
X415567Y262902D01*
X415685Y262842D01*
X415805Y262785D01*
X415927Y262732D01*
X416050Y262683D01*
X416174Y262637D01*
X416300Y262595D01*
X416427Y262557D01*
X416555Y262522D01*
X416684Y262491D01*
X416813Y262464D01*
X416944Y262441D01*
X417075Y262421D01*
X417207Y262406D01*
X417339Y262394D01*
X417471Y262386D01*
X417604Y262382D01*
X417736Y262382D01*
X417869Y262386D01*
X418001Y262394D01*
X418133Y262406D01*
X418265Y262421D01*
X418396Y262441D01*
X418527Y262464D01*
X418656Y262491D01*
X418785Y262522D01*
X418913Y262557D01*
X419040Y262595D01*
X419166Y262637D01*
X419290Y262683D01*
X419413Y262732D01*
X419535Y262785D01*
X419655Y262842D01*
X419773Y262902D01*
X419890Y262965D01*
X420004Y263032D01*
X420117Y263102D01*
X420227Y263176D01*
X420335Y263252D01*
X420441Y263332D01*
X420545Y263415D01*
X420646Y263501D01*
X420744Y263590D01*
X420840Y263681D01*
X420933Y263776D01*
X421023Y263873D01*
X421110Y263973D01*
X421195Y264075D01*
X421276Y264180D01*
X421354Y264287D01*
X421430Y264396D01*
X421501Y264507D01*
X421570Y264621D01*
X421635Y264736D01*
X421697Y264854D01*
X421755Y264973D01*
X421810Y265094D01*
X421861Y265216D01*
X421909Y265340D01*
X421953Y265465D01*
X421993Y265591D01*
X422029Y265719D01*
X422062Y265847D01*
X422091Y265976D01*
X422116Y266107D01*
X422137Y266237D01*
X422155Y266369D01*
X422168Y266501D01*
X422178Y266633D01*
X422184Y266765D01*
X422186Y266898D01*
X422185Y266898D02*
X422185Y278638D01*
X432780Y278638D02*
X432780Y262382D01*
X428265Y278638D02*
X437296Y278638D01*
D69*
X109220Y226060D02*
X109220Y200660D01*
X109220Y175260D01*
X83820Y175260D02*
X83820Y200660D01*
X83820Y226060D01*
X109220Y226060D01*
X109220Y200660D02*
X83820Y200660D01*
X83820Y175260D02*
X109220Y175260D01*
D70*
X123317Y193290D02*
X123317Y194927D01*
X123317Y193290D02*
X123315Y193212D01*
X123310Y193134D01*
X123300Y193057D01*
X123287Y192980D01*
X123271Y192904D01*
X123251Y192829D01*
X123227Y192755D01*
X123200Y192682D01*
X123169Y192610D01*
X123135Y192540D01*
X123098Y192472D01*
X123057Y192405D01*
X123013Y192340D01*
X122967Y192278D01*
X122917Y192218D01*
X122865Y192160D01*
X122810Y192105D01*
X122752Y192053D01*
X122692Y192003D01*
X122630Y191957D01*
X122565Y191913D01*
X122499Y191872D01*
X122430Y191835D01*
X122360Y191801D01*
X122288Y191770D01*
X122215Y191743D01*
X122141Y191719D01*
X122066Y191699D01*
X121990Y191683D01*
X121913Y191670D01*
X121836Y191660D01*
X121758Y191655D01*
X121680Y191653D01*
X117588Y191653D01*
X117508Y191655D01*
X117428Y191661D01*
X117348Y191671D01*
X117269Y191684D01*
X117190Y191702D01*
X117113Y191723D01*
X117037Y191749D01*
X116962Y191778D01*
X116888Y191810D01*
X116816Y191846D01*
X116746Y191886D01*
X116679Y191929D01*
X116613Y191975D01*
X116550Y192025D01*
X116489Y192077D01*
X116430Y192132D01*
X116375Y192191D01*
X116323Y192251D01*
X116273Y192315D01*
X116227Y192380D01*
X116184Y192448D01*
X116144Y192518D01*
X116108Y192590D01*
X116076Y192664D01*
X116047Y192738D01*
X116022Y192815D01*
X116000Y192892D01*
X115982Y192971D01*
X115969Y193050D01*
X115959Y193129D01*
X115953Y193210D01*
X115951Y193290D01*
X115951Y194927D01*
X115951Y198016D02*
X123317Y198016D01*
X119225Y198016D02*
X119225Y202108D01*
X115951Y202108D02*
X123317Y202108D01*
X117588Y205575D02*
X115951Y207621D01*
X123317Y207621D01*
X123317Y205575D02*
X123317Y209667D01*
X97338Y190415D02*
X97338Y185505D01*
X94883Y187960D02*
X99794Y187960D01*
X97338Y210291D02*
X97338Y216429D01*
D69*
X109220Y152400D02*
X109220Y127000D01*
X109220Y101600D01*
X83820Y101600D02*
X83820Y127000D01*
X83820Y152400D01*
X109220Y152400D01*
X109220Y127000D02*
X83820Y127000D01*
X83820Y101600D02*
X109220Y101600D01*
D70*
X123317Y119630D02*
X123317Y121267D01*
X123317Y119630D02*
X123315Y119552D01*
X123310Y119474D01*
X123300Y119397D01*
X123287Y119320D01*
X123271Y119244D01*
X123251Y119169D01*
X123227Y119095D01*
X123200Y119022D01*
X123169Y118950D01*
X123135Y118880D01*
X123098Y118812D01*
X123057Y118745D01*
X123013Y118680D01*
X122967Y118618D01*
X122917Y118558D01*
X122865Y118500D01*
X122810Y118445D01*
X122752Y118393D01*
X122692Y118343D01*
X122630Y118297D01*
X122565Y118253D01*
X122499Y118212D01*
X122430Y118175D01*
X122360Y118141D01*
X122288Y118110D01*
X122215Y118083D01*
X122141Y118059D01*
X122066Y118039D01*
X121990Y118023D01*
X121913Y118010D01*
X121836Y118000D01*
X121758Y117995D01*
X121680Y117993D01*
X117588Y117993D01*
X117508Y117995D01*
X117428Y118001D01*
X117348Y118011D01*
X117269Y118024D01*
X117190Y118042D01*
X117113Y118063D01*
X117037Y118089D01*
X116962Y118118D01*
X116888Y118150D01*
X116816Y118186D01*
X116746Y118226D01*
X116679Y118269D01*
X116613Y118315D01*
X116550Y118365D01*
X116489Y118417D01*
X116430Y118472D01*
X116375Y118531D01*
X116323Y118591D01*
X116273Y118655D01*
X116227Y118720D01*
X116184Y118788D01*
X116144Y118858D01*
X116108Y118930D01*
X116076Y119004D01*
X116047Y119078D01*
X116022Y119155D01*
X116000Y119232D01*
X115982Y119311D01*
X115969Y119390D01*
X115959Y119469D01*
X115953Y119550D01*
X115951Y119630D01*
X115951Y121267D01*
X115951Y124356D02*
X123317Y124356D01*
X119225Y124356D02*
X119225Y128448D01*
X115951Y128448D02*
X123317Y128448D01*
X115951Y134166D02*
X115953Y134251D01*
X115959Y134336D01*
X115969Y134420D01*
X115982Y134504D01*
X116000Y134588D01*
X116021Y134670D01*
X116046Y134751D01*
X116075Y134831D01*
X116108Y134910D01*
X116144Y134987D01*
X116184Y135062D01*
X116227Y135136D01*
X116273Y135207D01*
X116323Y135276D01*
X116376Y135343D01*
X116432Y135407D01*
X116491Y135468D01*
X116552Y135527D01*
X116616Y135583D01*
X116683Y135636D01*
X116752Y135686D01*
X116823Y135732D01*
X116897Y135775D01*
X116972Y135815D01*
X117049Y135851D01*
X117128Y135884D01*
X117208Y135913D01*
X117289Y135938D01*
X117371Y135959D01*
X117455Y135977D01*
X117539Y135990D01*
X117623Y136000D01*
X117708Y136006D01*
X117793Y136008D01*
X115951Y134166D02*
X115953Y134070D01*
X115959Y133974D01*
X115969Y133879D01*
X115982Y133784D01*
X116000Y133689D01*
X116021Y133596D01*
X116046Y133503D01*
X116075Y133412D01*
X116107Y133321D01*
X116143Y133232D01*
X116183Y133145D01*
X116226Y133059D01*
X116272Y132975D01*
X116322Y132893D01*
X116376Y132813D01*
X116432Y132736D01*
X116492Y132661D01*
X116554Y132588D01*
X116620Y132518D01*
X116688Y132450D01*
X116759Y132385D01*
X116832Y132324D01*
X116908Y132265D01*
X116987Y132209D01*
X117067Y132157D01*
X117150Y132108D01*
X117234Y132062D01*
X117320Y132020D01*
X117408Y131982D01*
X117497Y131947D01*
X117588Y131915D01*
X119225Y135393D02*
X119166Y135453D01*
X119104Y135510D01*
X119040Y135565D01*
X118973Y135616D01*
X118904Y135665D01*
X118834Y135711D01*
X118761Y135754D01*
X118687Y135794D01*
X118611Y135830D01*
X118533Y135863D01*
X118454Y135893D01*
X118374Y135920D01*
X118293Y135943D01*
X118211Y135962D01*
X118129Y135978D01*
X118045Y135991D01*
X117961Y136000D01*
X117877Y136005D01*
X117793Y136007D01*
X119225Y135393D02*
X123317Y131915D01*
X123317Y136007D01*
X97338Y116755D02*
X97338Y111845D01*
X94883Y114300D02*
X99794Y114300D01*
X97338Y136631D02*
X97338Y142769D01*
D69*
X109220Y78740D02*
X109220Y53340D01*
X109220Y27940D01*
X83820Y27940D02*
X83820Y53340D01*
X83820Y78740D01*
X109220Y78740D01*
X109220Y53340D02*
X83820Y53340D01*
X83820Y27940D02*
X109220Y27940D01*
D70*
X123317Y45970D02*
X123317Y47607D01*
X123317Y45970D02*
X123315Y45892D01*
X123310Y45814D01*
X123300Y45737D01*
X123287Y45660D01*
X123271Y45584D01*
X123251Y45509D01*
X123227Y45435D01*
X123200Y45362D01*
X123169Y45290D01*
X123135Y45220D01*
X123098Y45152D01*
X123057Y45085D01*
X123013Y45020D01*
X122967Y44958D01*
X122917Y44898D01*
X122865Y44840D01*
X122810Y44785D01*
X122752Y44733D01*
X122692Y44683D01*
X122630Y44637D01*
X122565Y44593D01*
X122499Y44552D01*
X122430Y44515D01*
X122360Y44481D01*
X122288Y44450D01*
X122215Y44423D01*
X122141Y44399D01*
X122066Y44379D01*
X121990Y44363D01*
X121913Y44350D01*
X121836Y44340D01*
X121758Y44335D01*
X121680Y44333D01*
X117588Y44333D01*
X117508Y44335D01*
X117428Y44341D01*
X117348Y44351D01*
X117269Y44364D01*
X117190Y44382D01*
X117113Y44403D01*
X117037Y44429D01*
X116962Y44458D01*
X116888Y44490D01*
X116816Y44526D01*
X116746Y44566D01*
X116679Y44609D01*
X116613Y44655D01*
X116550Y44705D01*
X116489Y44757D01*
X116430Y44812D01*
X116375Y44871D01*
X116323Y44931D01*
X116273Y44995D01*
X116227Y45060D01*
X116184Y45128D01*
X116144Y45198D01*
X116108Y45270D01*
X116076Y45344D01*
X116047Y45418D01*
X116022Y45495D01*
X116000Y45572D01*
X115982Y45651D01*
X115969Y45730D01*
X115959Y45809D01*
X115953Y45890D01*
X115951Y45970D01*
X115951Y47607D01*
X115951Y50696D02*
X123317Y50696D01*
X119225Y50696D02*
X119225Y54788D01*
X115951Y54788D02*
X123317Y54788D01*
X123317Y58255D02*
X123317Y60301D01*
X123315Y60390D01*
X123309Y60479D01*
X123299Y60568D01*
X123286Y60656D01*
X123269Y60744D01*
X123247Y60831D01*
X123222Y60916D01*
X123194Y61001D01*
X123161Y61084D01*
X123125Y61166D01*
X123086Y61246D01*
X123043Y61324D01*
X122997Y61400D01*
X122947Y61475D01*
X122894Y61547D01*
X122838Y61616D01*
X122779Y61683D01*
X122718Y61748D01*
X122653Y61809D01*
X122586Y61868D01*
X122517Y61924D01*
X122445Y61977D01*
X122370Y62027D01*
X122294Y62073D01*
X122216Y62116D01*
X122136Y62155D01*
X122054Y62191D01*
X121971Y62224D01*
X121886Y62252D01*
X121801Y62277D01*
X121714Y62299D01*
X121626Y62316D01*
X121538Y62329D01*
X121449Y62339D01*
X121360Y62345D01*
X121271Y62347D01*
X121182Y62345D01*
X121093Y62339D01*
X121004Y62329D01*
X120916Y62316D01*
X120828Y62299D01*
X120741Y62277D01*
X120656Y62252D01*
X120571Y62224D01*
X120488Y62191D01*
X120406Y62155D01*
X120326Y62116D01*
X120248Y62073D01*
X120172Y62027D01*
X120097Y61977D01*
X120025Y61924D01*
X119956Y61868D01*
X119889Y61809D01*
X119824Y61748D01*
X119763Y61683D01*
X119704Y61616D01*
X119648Y61547D01*
X119595Y61475D01*
X119545Y61400D01*
X119499Y61324D01*
X119456Y61246D01*
X119417Y61166D01*
X119381Y61084D01*
X119348Y61001D01*
X119320Y60916D01*
X119295Y60831D01*
X119273Y60744D01*
X119256Y60656D01*
X119243Y60568D01*
X119233Y60479D01*
X119227Y60390D01*
X119225Y60301D01*
X115951Y60710D02*
X115951Y58255D01*
X115951Y60710D02*
X115953Y60789D01*
X115959Y60868D01*
X115968Y60947D01*
X115981Y61025D01*
X115999Y61102D01*
X116019Y61178D01*
X116044Y61253D01*
X116072Y61327D01*
X116103Y61400D01*
X116139Y61471D01*
X116177Y61540D01*
X116219Y61607D01*
X116264Y61672D01*
X116312Y61735D01*
X116363Y61796D01*
X116417Y61853D01*
X116473Y61909D01*
X116532Y61961D01*
X116594Y62011D01*
X116658Y62057D01*
X116724Y62101D01*
X116792Y62141D01*
X116862Y62177D01*
X116934Y62211D01*
X117008Y62241D01*
X117082Y62267D01*
X117158Y62290D01*
X117235Y62308D01*
X117312Y62324D01*
X117391Y62335D01*
X117469Y62343D01*
X117548Y62347D01*
X117628Y62347D01*
X117707Y62343D01*
X117785Y62335D01*
X117864Y62324D01*
X117941Y62308D01*
X118018Y62290D01*
X118094Y62267D01*
X118168Y62241D01*
X118242Y62211D01*
X118314Y62177D01*
X118384Y62141D01*
X118452Y62101D01*
X118518Y62057D01*
X118582Y62011D01*
X118644Y61961D01*
X118703Y61909D01*
X118759Y61853D01*
X118813Y61796D01*
X118864Y61735D01*
X118912Y61672D01*
X118957Y61607D01*
X118999Y61540D01*
X119037Y61471D01*
X119073Y61400D01*
X119104Y61327D01*
X119132Y61253D01*
X119157Y61178D01*
X119177Y61102D01*
X119195Y61025D01*
X119208Y60947D01*
X119217Y60868D01*
X119223Y60789D01*
X119225Y60710D01*
X119225Y59073D01*
X97338Y43095D02*
X97338Y38185D01*
X94883Y40640D02*
X99794Y40640D01*
X97338Y62971D02*
X97338Y69109D01*
D59*
X194183Y98298D03*
X194183Y98552D03*
X194183Y98806D03*
X194183Y99060D03*
X194183Y99314D03*
D11*
X194310Y99568D03*
D59*
X194183Y99822D03*
D11*
X194310Y100076D03*
D59*
X194183Y100330D03*
X194183Y100584D03*
X194183Y100838D03*
X194183Y101092D03*
X194183Y101346D03*
D11*
X194310Y101600D03*
D59*
X194183Y101854D03*
D11*
X194310Y102108D03*
D59*
X194183Y102362D03*
X194183Y102616D03*
X194183Y102870D03*
X194183Y103124D03*
X194183Y103378D03*
D11*
X194310Y103632D03*
D59*
X194183Y103886D03*
D15*
X193294Y104140D03*
D16*
X193167Y104394D03*
X193167Y104648D03*
X193167Y104902D03*
D10*
X192278Y105156D03*
D58*
X193802Y105156D03*
D59*
X194183Y105410D03*
D11*
X194310Y105664D03*
D62*
X194437Y105918D03*
D11*
X194310Y106172D03*
D70*
X361569Y193290D02*
X361569Y194927D01*
X361569Y193290D02*
X361567Y193212D01*
X361562Y193134D01*
X361552Y193057D01*
X361539Y192980D01*
X361523Y192904D01*
X361503Y192829D01*
X361479Y192755D01*
X361452Y192682D01*
X361421Y192610D01*
X361387Y192540D01*
X361350Y192472D01*
X361309Y192405D01*
X361265Y192340D01*
X361219Y192278D01*
X361169Y192218D01*
X361117Y192160D01*
X361062Y192105D01*
X361004Y192053D01*
X360944Y192003D01*
X360882Y191957D01*
X360817Y191913D01*
X360751Y191872D01*
X360682Y191835D01*
X360612Y191801D01*
X360540Y191770D01*
X360467Y191743D01*
X360393Y191719D01*
X360318Y191699D01*
X360242Y191683D01*
X360165Y191670D01*
X360088Y191660D01*
X360010Y191655D01*
X359932Y191653D01*
X355840Y191653D01*
X355760Y191655D01*
X355680Y191661D01*
X355600Y191671D01*
X355521Y191684D01*
X355442Y191702D01*
X355365Y191723D01*
X355289Y191749D01*
X355214Y191778D01*
X355140Y191810D01*
X355068Y191846D01*
X354998Y191886D01*
X354931Y191929D01*
X354865Y191975D01*
X354802Y192025D01*
X354741Y192077D01*
X354682Y192132D01*
X354627Y192191D01*
X354575Y192251D01*
X354525Y192315D01*
X354479Y192380D01*
X354436Y192448D01*
X354396Y192518D01*
X354360Y192590D01*
X354328Y192664D01*
X354299Y192738D01*
X354274Y192815D01*
X354252Y192892D01*
X354234Y192971D01*
X354221Y193050D01*
X354211Y193129D01*
X354205Y193210D01*
X354203Y193290D01*
X354203Y194927D01*
X354203Y198016D02*
X361569Y198016D01*
X357477Y198016D02*
X357477Y202108D01*
X354203Y202108D02*
X361569Y202108D01*
X355840Y205575D02*
X354203Y207621D01*
X361569Y207621D01*
X361569Y205575D02*
X361569Y209667D01*
X361569Y121267D02*
X361569Y119630D01*
X361567Y119552D01*
X361562Y119474D01*
X361552Y119397D01*
X361539Y119320D01*
X361523Y119244D01*
X361503Y119169D01*
X361479Y119095D01*
X361452Y119022D01*
X361421Y118950D01*
X361387Y118880D01*
X361350Y118812D01*
X361309Y118745D01*
X361265Y118680D01*
X361219Y118618D01*
X361169Y118558D01*
X361117Y118500D01*
X361062Y118445D01*
X361004Y118393D01*
X360944Y118343D01*
X360882Y118297D01*
X360817Y118253D01*
X360751Y118212D01*
X360682Y118175D01*
X360612Y118141D01*
X360540Y118110D01*
X360467Y118083D01*
X360393Y118059D01*
X360318Y118039D01*
X360242Y118023D01*
X360165Y118010D01*
X360088Y118000D01*
X360010Y117995D01*
X359932Y117993D01*
X355840Y117993D01*
X355760Y117995D01*
X355680Y118001D01*
X355600Y118011D01*
X355521Y118024D01*
X355442Y118042D01*
X355365Y118063D01*
X355289Y118089D01*
X355214Y118118D01*
X355140Y118150D01*
X355068Y118186D01*
X354998Y118226D01*
X354931Y118269D01*
X354865Y118315D01*
X354802Y118365D01*
X354741Y118417D01*
X354682Y118472D01*
X354627Y118531D01*
X354575Y118591D01*
X354525Y118655D01*
X354479Y118720D01*
X354436Y118788D01*
X354396Y118858D01*
X354360Y118930D01*
X354328Y119004D01*
X354299Y119078D01*
X354274Y119155D01*
X354252Y119232D01*
X354234Y119311D01*
X354221Y119390D01*
X354211Y119469D01*
X354205Y119550D01*
X354203Y119630D01*
X354203Y121267D01*
X354203Y124356D02*
X361569Y124356D01*
X357477Y124356D02*
X357477Y128448D01*
X354203Y128448D02*
X361569Y128448D01*
X354203Y134166D02*
X354205Y134251D01*
X354211Y134336D01*
X354221Y134420D01*
X354234Y134504D01*
X354252Y134588D01*
X354273Y134670D01*
X354298Y134751D01*
X354327Y134831D01*
X354360Y134910D01*
X354396Y134987D01*
X354436Y135062D01*
X354479Y135136D01*
X354525Y135207D01*
X354575Y135276D01*
X354628Y135343D01*
X354684Y135407D01*
X354743Y135468D01*
X354804Y135527D01*
X354868Y135583D01*
X354935Y135636D01*
X355004Y135686D01*
X355075Y135732D01*
X355149Y135775D01*
X355224Y135815D01*
X355301Y135851D01*
X355380Y135884D01*
X355460Y135913D01*
X355541Y135938D01*
X355623Y135959D01*
X355707Y135977D01*
X355791Y135990D01*
X355875Y136000D01*
X355960Y136006D01*
X356045Y136008D01*
X354203Y134166D02*
X354205Y134070D01*
X354211Y133974D01*
X354221Y133879D01*
X354234Y133784D01*
X354252Y133689D01*
X354273Y133596D01*
X354298Y133503D01*
X354327Y133412D01*
X354359Y133321D01*
X354395Y133232D01*
X354435Y133145D01*
X354478Y133059D01*
X354524Y132975D01*
X354574Y132893D01*
X354628Y132813D01*
X354684Y132736D01*
X354744Y132661D01*
X354806Y132588D01*
X354872Y132518D01*
X354940Y132450D01*
X355011Y132385D01*
X355084Y132324D01*
X355160Y132265D01*
X355239Y132209D01*
X355319Y132157D01*
X355402Y132108D01*
X355486Y132062D01*
X355572Y132020D01*
X355660Y131982D01*
X355749Y131947D01*
X355840Y131915D01*
X357477Y135393D02*
X357418Y135453D01*
X357356Y135510D01*
X357292Y135565D01*
X357225Y135616D01*
X357156Y135665D01*
X357086Y135711D01*
X357013Y135754D01*
X356939Y135794D01*
X356863Y135830D01*
X356785Y135863D01*
X356706Y135893D01*
X356626Y135920D01*
X356545Y135943D01*
X356463Y135962D01*
X356381Y135978D01*
X356297Y135991D01*
X356213Y136000D01*
X356129Y136005D01*
X356045Y136007D01*
X357477Y135393D02*
X361569Y131915D01*
X361569Y136007D01*
D69*
X393700Y200660D02*
X393700Y226060D01*
X393700Y200660D02*
X393700Y175260D01*
X368300Y175260D02*
X368300Y200660D01*
X368300Y226060D01*
X393700Y226060D01*
X393700Y200660D02*
X368300Y200660D01*
X368300Y175260D02*
X393700Y175260D01*
D70*
X361569Y47607D02*
X361569Y45970D01*
X361567Y45892D01*
X361562Y45814D01*
X361552Y45737D01*
X361539Y45660D01*
X361523Y45584D01*
X361503Y45509D01*
X361479Y45435D01*
X361452Y45362D01*
X361421Y45290D01*
X361387Y45220D01*
X361350Y45152D01*
X361309Y45085D01*
X361265Y45020D01*
X361219Y44958D01*
X361169Y44898D01*
X361117Y44840D01*
X361062Y44785D01*
X361004Y44733D01*
X360944Y44683D01*
X360882Y44637D01*
X360817Y44593D01*
X360751Y44552D01*
X360682Y44515D01*
X360612Y44481D01*
X360540Y44450D01*
X360467Y44423D01*
X360393Y44399D01*
X360318Y44379D01*
X360242Y44363D01*
X360165Y44350D01*
X360088Y44340D01*
X360010Y44335D01*
X359932Y44333D01*
X355840Y44333D01*
X355760Y44335D01*
X355680Y44341D01*
X355600Y44351D01*
X355521Y44364D01*
X355442Y44382D01*
X355365Y44403D01*
X355289Y44429D01*
X355214Y44458D01*
X355140Y44490D01*
X355068Y44526D01*
X354998Y44566D01*
X354931Y44609D01*
X354865Y44655D01*
X354802Y44705D01*
X354741Y44757D01*
X354682Y44812D01*
X354627Y44871D01*
X354575Y44931D01*
X354525Y44995D01*
X354479Y45060D01*
X354436Y45128D01*
X354396Y45198D01*
X354360Y45270D01*
X354328Y45344D01*
X354299Y45418D01*
X354274Y45495D01*
X354252Y45572D01*
X354234Y45651D01*
X354221Y45730D01*
X354211Y45809D01*
X354205Y45890D01*
X354203Y45970D01*
X354203Y47607D01*
X354203Y50696D02*
X361569Y50696D01*
X357477Y50696D02*
X357477Y54788D01*
X354203Y54788D02*
X361569Y54788D01*
X361569Y58255D02*
X361569Y60301D01*
X361567Y60390D01*
X361561Y60479D01*
X361551Y60568D01*
X361538Y60656D01*
X361521Y60744D01*
X361499Y60831D01*
X361474Y60916D01*
X361446Y61001D01*
X361413Y61084D01*
X361377Y61166D01*
X361338Y61246D01*
X361295Y61324D01*
X361249Y61400D01*
X361199Y61475D01*
X361146Y61547D01*
X361090Y61616D01*
X361031Y61683D01*
X360970Y61748D01*
X360905Y61809D01*
X360838Y61868D01*
X360769Y61924D01*
X360697Y61977D01*
X360622Y62027D01*
X360546Y62073D01*
X360468Y62116D01*
X360388Y62155D01*
X360306Y62191D01*
X360223Y62224D01*
X360138Y62252D01*
X360053Y62277D01*
X359966Y62299D01*
X359878Y62316D01*
X359790Y62329D01*
X359701Y62339D01*
X359612Y62345D01*
X359523Y62347D01*
X359434Y62345D01*
X359345Y62339D01*
X359256Y62329D01*
X359168Y62316D01*
X359080Y62299D01*
X358993Y62277D01*
X358908Y62252D01*
X358823Y62224D01*
X358740Y62191D01*
X358658Y62155D01*
X358578Y62116D01*
X358500Y62073D01*
X358424Y62027D01*
X358349Y61977D01*
X358277Y61924D01*
X358208Y61868D01*
X358141Y61809D01*
X358076Y61748D01*
X358015Y61683D01*
X357956Y61616D01*
X357900Y61547D01*
X357847Y61475D01*
X357797Y61400D01*
X357751Y61324D01*
X357708Y61246D01*
X357669Y61166D01*
X357633Y61084D01*
X357600Y61001D01*
X357572Y60916D01*
X357547Y60831D01*
X357525Y60744D01*
X357508Y60656D01*
X357495Y60568D01*
X357485Y60479D01*
X357479Y60390D01*
X357477Y60301D01*
X354203Y60710D02*
X354203Y58255D01*
X354203Y60710D02*
X354205Y60789D01*
X354211Y60868D01*
X354220Y60947D01*
X354233Y61025D01*
X354251Y61102D01*
X354271Y61178D01*
X354296Y61253D01*
X354324Y61327D01*
X354355Y61400D01*
X354391Y61471D01*
X354429Y61540D01*
X354471Y61607D01*
X354516Y61672D01*
X354564Y61735D01*
X354615Y61796D01*
X354669Y61853D01*
X354725Y61909D01*
X354784Y61961D01*
X354846Y62011D01*
X354910Y62057D01*
X354976Y62101D01*
X355044Y62141D01*
X355114Y62177D01*
X355186Y62211D01*
X355260Y62241D01*
X355334Y62267D01*
X355410Y62290D01*
X355487Y62308D01*
X355564Y62324D01*
X355643Y62335D01*
X355721Y62343D01*
X355800Y62347D01*
X355880Y62347D01*
X355959Y62343D01*
X356037Y62335D01*
X356116Y62324D01*
X356193Y62308D01*
X356270Y62290D01*
X356346Y62267D01*
X356420Y62241D01*
X356494Y62211D01*
X356566Y62177D01*
X356636Y62141D01*
X356704Y62101D01*
X356770Y62057D01*
X356834Y62011D01*
X356896Y61961D01*
X356955Y61909D01*
X357011Y61853D01*
X357065Y61796D01*
X357116Y61735D01*
X357164Y61672D01*
X357209Y61607D01*
X357251Y61540D01*
X357289Y61471D01*
X357325Y61400D01*
X357356Y61327D01*
X357384Y61253D01*
X357409Y61178D01*
X357429Y61102D01*
X357447Y61025D01*
X357460Y60947D01*
X357469Y60868D01*
X357475Y60789D01*
X357477Y60710D01*
X357477Y59073D01*
X381818Y185505D02*
X381818Y190415D01*
X379363Y187960D02*
X384274Y187960D01*
X381818Y210291D02*
X381818Y216429D01*
D69*
X393700Y152400D02*
X393700Y127000D01*
X393700Y101600D01*
X368300Y101600D02*
X368300Y127000D01*
X368300Y152400D01*
X393700Y152400D01*
X393700Y127000D02*
X368300Y127000D01*
X368300Y101600D02*
X393700Y101600D01*
D70*
X381818Y111845D02*
X381818Y116755D01*
X379363Y114300D02*
X384274Y114300D01*
X381818Y136631D02*
X381818Y142769D01*
D69*
X393700Y78740D02*
X393700Y53340D01*
X393700Y27940D01*
X368300Y27940D02*
X368300Y53340D01*
X368300Y78740D01*
X393700Y78740D01*
X393700Y53340D02*
X368300Y53340D01*
X368300Y27940D02*
X393700Y27940D01*
D70*
X381818Y38185D02*
X381818Y43095D01*
X379363Y40640D02*
X384274Y40640D01*
X381818Y62971D02*
X381818Y69109D01*
D69*
X11430Y175260D02*
X11430Y226060D01*
X30480Y226060D01*
X74930Y226060D01*
X74930Y175260D01*
X30480Y175260D01*
X11430Y175260D01*
X30480Y175260D02*
X30480Y226060D01*
X11430Y152400D02*
X11430Y101600D01*
X11430Y152400D02*
X30480Y152400D01*
X74930Y152400D01*
X74930Y101600D01*
X30480Y101600D01*
X11430Y101600D01*
X30480Y101600D02*
X30480Y152400D01*
X11430Y78740D02*
X11430Y27940D01*
X11430Y78740D02*
X30480Y78740D01*
X74930Y78740D01*
X74930Y27940D01*
X30480Y27940D01*
X11430Y27940D01*
X30480Y27940D02*
X30480Y78740D01*
X402590Y175260D02*
X402590Y226060D01*
X421640Y226060D01*
X466090Y226060D01*
X466090Y175260D01*
X421640Y175260D01*
X402590Y175260D01*
X421640Y175260D02*
X421640Y226060D01*
X402590Y152400D02*
X402590Y101600D01*
X402590Y152400D02*
X421640Y152400D01*
X466090Y152400D01*
X466090Y101600D01*
X421640Y101600D01*
X402590Y101600D01*
X421640Y101600D02*
X421640Y152400D01*
X402590Y78740D02*
X402590Y27940D01*
X402590Y78740D02*
X421640Y78740D01*
X466090Y78740D01*
X466090Y27940D01*
X421640Y27940D01*
X402590Y27940D01*
X421640Y27940D02*
X421640Y78740D01*
M02*
