G04 EAGLE Gerber RS-274X export*
G75*
%MOMM*%
%FSLAX34Y34*%
%LPD*%
%INSoldermask Bottom*%
%IPPOS*%
%AMOC8*
5,1,8,0,0,1.08239X$1,22.5*%
G01*
%ADD10C,2.553200*%
%ADD11R,0.703200X3.503200*%
%ADD12R,1.503200X3.503200*%
%ADD13R,0.653200X0.703200*%
%ADD14C,1.812800*%


D10*
X311404Y284734D03*
X100584Y163576D03*
X311404Y41910D03*
D11*
X340136Y163576D03*
D12*
X326136Y163576D03*
D13*
X343386Y163576D03*
D11*
X312136Y163576D03*
D13*
X308886Y163576D03*
D11*
X212374Y89662D03*
D12*
X198374Y89662D03*
D13*
X215624Y89662D03*
D11*
X184374Y89662D03*
D13*
X181124Y89662D03*
D11*
X212374Y237490D03*
D12*
X198374Y237490D03*
D13*
X215624Y237490D03*
D11*
X184374Y237490D03*
D13*
X181124Y237490D03*
D14*
X51228Y187960D02*
X35132Y187960D01*
X35132Y213360D02*
X51228Y213360D01*
X51228Y114300D02*
X35132Y114300D01*
X35132Y139700D02*
X51228Y139700D01*
X51228Y40640D02*
X35132Y40640D01*
X35132Y66040D02*
X51228Y66040D01*
X426292Y187960D02*
X442388Y187960D01*
X442388Y213360D02*
X426292Y213360D01*
X426292Y114300D02*
X442388Y114300D01*
X442388Y139700D02*
X426292Y139700D01*
X426292Y40640D02*
X442388Y40640D01*
X442388Y66040D02*
X426292Y66040D01*
M02*
