G04 EAGLE Gerber RS-274X export*
G75*
%MOMM*%
%FSLAX34Y34*%
%LPD*%
%INTop Copper*%
%IPPOS*%
%AMOC8*
5,1,8,0,0,1.08239X$1,22.5*%
G01*
%ADD10R,1.100000X1.000000*%
%ADD11R,1.000000X1.100000*%
%ADD12R,1.300000X1.500000*%
%ADD13R,1.803000X1.600000*%
%ADD14C,0.600000*%
%ADD15R,0.400000X0.300000*%
%ADD16R,1.270000X1.651000*%
%ADD17R,0.600000X0.400000*%
%ADD18P,1.539592X8X292.500000*%
%ADD19P,1.539592X8X112.500000*%
%ADD20C,1.803400*%
%ADD21C,0.304800*%
%ADD22C,1.058000*%
%ADD23C,0.406400*%

G36*
X413792Y29214D02*
X413792Y29214D01*
X413818Y29212D01*
X413965Y29234D01*
X414112Y29251D01*
X414137Y29259D01*
X414163Y29263D01*
X414301Y29318D01*
X414440Y29368D01*
X414462Y29382D01*
X414487Y29392D01*
X414608Y29477D01*
X414733Y29557D01*
X414751Y29576D01*
X414773Y29591D01*
X414872Y29701D01*
X414975Y29808D01*
X414989Y29830D01*
X415006Y29850D01*
X415078Y29980D01*
X415154Y30107D01*
X415162Y30132D01*
X415175Y30155D01*
X415215Y30298D01*
X415260Y30439D01*
X415262Y30465D01*
X415270Y30490D01*
X415289Y30734D01*
X415289Y267716D01*
X415286Y267742D01*
X415288Y267768D01*
X415266Y267915D01*
X415249Y268062D01*
X415241Y268087D01*
X415237Y268113D01*
X415182Y268251D01*
X415132Y268390D01*
X415118Y268412D01*
X415108Y268437D01*
X415023Y268558D01*
X414943Y268683D01*
X414924Y268701D01*
X414909Y268723D01*
X414799Y268822D01*
X414692Y268925D01*
X414670Y268939D01*
X414650Y268956D01*
X414520Y269028D01*
X414393Y269104D01*
X414368Y269112D01*
X414345Y269125D01*
X414202Y269165D01*
X414061Y269210D01*
X414035Y269212D01*
X414010Y269220D01*
X413766Y269239D01*
X37084Y269239D01*
X37058Y269236D01*
X37032Y269238D01*
X36885Y269216D01*
X36738Y269199D01*
X36713Y269191D01*
X36687Y269187D01*
X36549Y269132D01*
X36410Y269082D01*
X36388Y269068D01*
X36363Y269058D01*
X36242Y268973D01*
X36117Y268893D01*
X36099Y268874D01*
X36077Y268859D01*
X35978Y268749D01*
X35875Y268642D01*
X35861Y268620D01*
X35844Y268600D01*
X35772Y268470D01*
X35696Y268343D01*
X35688Y268318D01*
X35675Y268295D01*
X35635Y268152D01*
X35590Y268011D01*
X35588Y267985D01*
X35580Y267960D01*
X35561Y267716D01*
X35561Y30734D01*
X35564Y30708D01*
X35562Y30682D01*
X35584Y30535D01*
X35601Y30388D01*
X35609Y30363D01*
X35613Y30337D01*
X35668Y30199D01*
X35718Y30060D01*
X35732Y30038D01*
X35742Y30013D01*
X35827Y29892D01*
X35907Y29767D01*
X35926Y29749D01*
X35941Y29727D01*
X36051Y29628D01*
X36158Y29525D01*
X36180Y29511D01*
X36200Y29494D01*
X36330Y29422D01*
X36457Y29346D01*
X36482Y29338D01*
X36505Y29325D01*
X36648Y29285D01*
X36789Y29240D01*
X36815Y29238D01*
X36840Y29230D01*
X37084Y29211D01*
X413766Y29211D01*
X413792Y29214D01*
G37*
%LPC*%
G36*
X343035Y172671D02*
X343035Y172671D01*
X331107Y176174D01*
X320650Y182894D01*
X312510Y192289D01*
X307346Y203596D01*
X305577Y215900D01*
X307346Y228204D01*
X312510Y239511D01*
X320650Y248906D01*
X331107Y255626D01*
X343035Y259129D01*
X355465Y259129D01*
X367393Y255626D01*
X377850Y248906D01*
X385990Y239511D01*
X391154Y228204D01*
X392923Y215900D01*
X391154Y203596D01*
X385990Y192289D01*
X377850Y182894D01*
X367393Y176174D01*
X355465Y172671D01*
X343035Y172671D01*
G37*
%LPD*%
%LPC*%
G36*
X159207Y104513D02*
X159207Y104513D01*
X157526Y105209D01*
X156026Y106710D01*
X153455Y109281D01*
X153356Y109360D01*
X153262Y109444D01*
X153220Y109468D01*
X153182Y109498D01*
X153068Y109552D01*
X152957Y109613D01*
X152910Y109626D01*
X152867Y109647D01*
X152743Y109673D01*
X152621Y109708D01*
X152561Y109713D01*
X152526Y109720D01*
X152478Y109719D01*
X152378Y109727D01*
X147551Y109727D01*
X147425Y109713D01*
X147299Y109706D01*
X147253Y109693D01*
X147205Y109687D01*
X147086Y109645D01*
X146964Y109610D01*
X146922Y109586D01*
X146877Y109570D01*
X146770Y109501D01*
X146660Y109440D01*
X146614Y109400D01*
X146584Y109381D01*
X146550Y109346D01*
X146474Y109281D01*
X144424Y107231D01*
X141359Y105961D01*
X138041Y105961D01*
X134976Y107231D01*
X132631Y109576D01*
X131361Y112641D01*
X131361Y115959D01*
X132631Y119024D01*
X134173Y120566D01*
X134252Y120665D01*
X134336Y120759D01*
X134360Y120801D01*
X134390Y120839D01*
X134444Y120953D01*
X134505Y121064D01*
X134518Y121110D01*
X134539Y121154D01*
X134565Y121277D01*
X134600Y121399D01*
X134605Y121460D01*
X134612Y121495D01*
X134611Y121543D01*
X134619Y121643D01*
X134619Y125608D01*
X134616Y125634D01*
X134618Y125660D01*
X134596Y125807D01*
X134579Y125954D01*
X134571Y125979D01*
X134567Y126005D01*
X134512Y126143D01*
X134462Y126282D01*
X134448Y126304D01*
X134438Y126329D01*
X134353Y126450D01*
X134273Y126575D01*
X134254Y126593D01*
X134239Y126615D01*
X134129Y126714D01*
X134022Y126817D01*
X134000Y126831D01*
X133980Y126848D01*
X133850Y126920D01*
X133723Y126996D01*
X133698Y127004D01*
X133675Y127017D01*
X133532Y127057D01*
X133391Y127102D01*
X133365Y127104D01*
X133340Y127112D01*
X133096Y127131D01*
X129422Y127131D01*
X127636Y128917D01*
X127636Y147443D01*
X129422Y149229D01*
X149978Y149229D01*
X151764Y147443D01*
X151764Y128917D01*
X149978Y127131D01*
X146304Y127131D01*
X146278Y127128D01*
X146252Y127130D01*
X146105Y127108D01*
X145958Y127091D01*
X145933Y127083D01*
X145907Y127079D01*
X145769Y127024D01*
X145630Y126974D01*
X145608Y126960D01*
X145583Y126950D01*
X145462Y126865D01*
X145337Y126785D01*
X145319Y126766D01*
X145297Y126751D01*
X145198Y126641D01*
X145095Y126534D01*
X145081Y126512D01*
X145064Y126492D01*
X144992Y126362D01*
X144916Y126235D01*
X144908Y126210D01*
X144895Y126187D01*
X144855Y126044D01*
X144810Y125903D01*
X144808Y125877D01*
X144800Y125852D01*
X144781Y125608D01*
X144781Y121643D01*
X144795Y121518D01*
X144802Y121391D01*
X144815Y121345D01*
X144821Y121297D01*
X144863Y121178D01*
X144898Y121056D01*
X144922Y121014D01*
X144938Y120969D01*
X145007Y120862D01*
X145068Y120752D01*
X145108Y120706D01*
X145127Y120676D01*
X145162Y120642D01*
X145227Y120566D01*
X146474Y119319D01*
X146573Y119240D01*
X146667Y119156D01*
X146709Y119132D01*
X146747Y119102D01*
X146861Y119048D01*
X146972Y118987D01*
X147018Y118974D01*
X147062Y118953D01*
X147185Y118927D01*
X147307Y118892D01*
X147368Y118887D01*
X147403Y118880D01*
X147451Y118881D01*
X147551Y118873D01*
X155812Y118873D01*
X157493Y118177D01*
X157621Y118049D01*
X157720Y117970D01*
X157813Y117886D01*
X157856Y117862D01*
X157894Y117832D01*
X158008Y117778D01*
X158118Y117717D01*
X158165Y117704D01*
X158209Y117683D01*
X158332Y117657D01*
X158454Y117622D01*
X158515Y117618D01*
X158549Y117610D01*
X158597Y117611D01*
X158698Y117603D01*
X166776Y117603D01*
X166802Y117606D01*
X166828Y117604D01*
X166975Y117626D01*
X167122Y117643D01*
X167147Y117651D01*
X167173Y117655D01*
X167311Y117710D01*
X167450Y117760D01*
X167472Y117774D01*
X167497Y117784D01*
X167618Y117869D01*
X167743Y117949D01*
X167761Y117968D01*
X167783Y117983D01*
X167882Y118093D01*
X167985Y118200D01*
X167999Y118222D01*
X168016Y118242D01*
X168088Y118372D01*
X168164Y118499D01*
X168172Y118524D01*
X168185Y118547D01*
X168225Y118690D01*
X168270Y118831D01*
X168272Y118857D01*
X168280Y118882D01*
X168299Y119126D01*
X168299Y120651D01*
X169824Y120651D01*
X169850Y120654D01*
X169876Y120652D01*
X170023Y120674D01*
X170170Y120691D01*
X170195Y120700D01*
X170221Y120703D01*
X170359Y120758D01*
X170498Y120808D01*
X170520Y120822D01*
X170545Y120832D01*
X170666Y120917D01*
X170791Y120997D01*
X170809Y121016D01*
X170831Y121031D01*
X170930Y121141D01*
X171033Y121248D01*
X171047Y121270D01*
X171064Y121290D01*
X171136Y121420D01*
X171212Y121547D01*
X171220Y121572D01*
X171233Y121595D01*
X171273Y121738D01*
X171318Y121879D01*
X171320Y121905D01*
X171328Y121930D01*
X171347Y122174D01*
X171347Y130691D01*
X175135Y130691D01*
X175781Y130518D01*
X176360Y130183D01*
X176364Y130179D01*
X176384Y130163D01*
X176401Y130143D01*
X176489Y130078D01*
X176545Y130028D01*
X176577Y130010D01*
X176637Y129963D01*
X176660Y129952D01*
X176682Y129936D01*
X176818Y129877D01*
X176850Y129860D01*
X176863Y129856D01*
X176952Y129814D01*
X176977Y129808D01*
X177002Y129798D01*
X177148Y129772D01*
X177293Y129741D01*
X177319Y129741D01*
X177345Y129736D01*
X177493Y129744D01*
X177641Y129747D01*
X177666Y129753D01*
X177693Y129754D01*
X177835Y129795D01*
X177979Y129832D01*
X178002Y129844D01*
X178027Y129851D01*
X178108Y129896D01*
X178127Y129903D01*
X178167Y129928D01*
X178289Y129991D01*
X178309Y130008D01*
X178332Y130021D01*
X178399Y130078D01*
X178420Y130092D01*
X178444Y130116D01*
X178518Y130179D01*
X179537Y131199D01*
X181204Y131199D01*
X181230Y131202D01*
X181256Y131200D01*
X181403Y131222D01*
X181550Y131239D01*
X181575Y131247D01*
X181601Y131251D01*
X181739Y131306D01*
X181878Y131356D01*
X181900Y131370D01*
X181925Y131380D01*
X182046Y131465D01*
X182171Y131545D01*
X182189Y131564D01*
X182211Y131579D01*
X182310Y131689D01*
X182413Y131796D01*
X182427Y131818D01*
X182444Y131838D01*
X182516Y131968D01*
X182592Y132095D01*
X182600Y132120D01*
X182613Y132143D01*
X182653Y132286D01*
X182698Y132427D01*
X182700Y132453D01*
X182708Y132478D01*
X182727Y132722D01*
X182727Y142380D01*
X182713Y142506D01*
X182706Y142632D01*
X182693Y142678D01*
X182687Y142726D01*
X182645Y142845D01*
X182610Y142967D01*
X182586Y143009D01*
X182570Y143055D01*
X182501Y143161D01*
X182440Y143271D01*
X182400Y143317D01*
X182381Y143347D01*
X182346Y143381D01*
X182281Y143457D01*
X182070Y143668D01*
X182070Y143669D01*
X181985Y143790D01*
X181905Y143915D01*
X181886Y143933D01*
X181871Y143955D01*
X181761Y144054D01*
X181654Y144157D01*
X181632Y144171D01*
X181612Y144188D01*
X181482Y144260D01*
X181355Y144336D01*
X181330Y144344D01*
X181307Y144357D01*
X181164Y144397D01*
X181023Y144442D01*
X180997Y144444D01*
X180972Y144452D01*
X180728Y144471D01*
X179323Y144471D01*
X179323Y147013D01*
X182030Y147013D01*
X182050Y147016D01*
X182069Y147014D01*
X182171Y147036D01*
X182273Y147053D01*
X182290Y147062D01*
X182310Y147066D01*
X182399Y147119D01*
X182490Y147168D01*
X182504Y147182D01*
X182521Y147192D01*
X182588Y147271D01*
X182660Y147346D01*
X182668Y147364D01*
X182681Y147379D01*
X182720Y147475D01*
X182763Y147569D01*
X182765Y147589D01*
X182773Y147607D01*
X182791Y147774D01*
X182791Y169980D01*
X182788Y170000D01*
X182790Y170019D01*
X182768Y170121D01*
X182752Y170223D01*
X182742Y170240D01*
X182738Y170260D01*
X182685Y170349D01*
X182636Y170440D01*
X182622Y170454D01*
X182612Y170471D01*
X182533Y170538D01*
X182458Y170610D01*
X182440Y170618D01*
X182425Y170631D01*
X182329Y170670D01*
X182235Y170713D01*
X182215Y170715D01*
X182197Y170723D01*
X182030Y170741D01*
X179323Y170741D01*
X179323Y173283D01*
X180890Y173283D01*
X181016Y173297D01*
X181142Y173304D01*
X181188Y173317D01*
X181236Y173323D01*
X181355Y173365D01*
X181477Y173400D01*
X181519Y173424D01*
X181565Y173440D01*
X181671Y173509D01*
X181781Y173570D01*
X181827Y173610D01*
X181857Y173629D01*
X181891Y173664D01*
X181967Y173729D01*
X184037Y175799D01*
X186251Y175799D01*
X186377Y175813D01*
X186503Y175820D01*
X186549Y175833D01*
X186597Y175839D01*
X186716Y175881D01*
X186838Y175916D01*
X186880Y175940D01*
X186925Y175956D01*
X187031Y176025D01*
X187142Y176086D01*
X187188Y176126D01*
X187218Y176145D01*
X187252Y176180D01*
X187328Y176245D01*
X191259Y180176D01*
X192760Y181677D01*
X194440Y182373D01*
X195349Y182373D01*
X195475Y182387D01*
X195601Y182394D01*
X195647Y182407D01*
X195695Y182413D01*
X195814Y182455D01*
X195936Y182490D01*
X195978Y182514D01*
X196023Y182530D01*
X196130Y182599D01*
X196240Y182660D01*
X196286Y182700D01*
X196316Y182719D01*
X196350Y182754D01*
X196426Y182819D01*
X198476Y184869D01*
X201541Y186139D01*
X204859Y186139D01*
X207924Y184869D01*
X209974Y182819D01*
X210073Y182740D01*
X210167Y182656D01*
X210209Y182632D01*
X210247Y182602D01*
X210361Y182548D01*
X210472Y182487D01*
X210518Y182474D01*
X210562Y182453D01*
X210685Y182427D01*
X210807Y182392D01*
X210868Y182387D01*
X210903Y182380D01*
X210951Y182381D01*
X211051Y182373D01*
X243510Y182373D01*
X245190Y181677D01*
X246477Y180390D01*
X247173Y178710D01*
X247173Y175153D01*
X247187Y175028D01*
X247194Y174902D01*
X247207Y174855D01*
X247213Y174807D01*
X247255Y174688D01*
X247290Y174567D01*
X247314Y174525D01*
X247330Y174479D01*
X247399Y174373D01*
X247460Y174263D01*
X247500Y174216D01*
X247519Y174186D01*
X247554Y174153D01*
X247619Y174076D01*
X249429Y172266D01*
X249429Y165300D01*
X249087Y164958D01*
X248977Y164820D01*
X248872Y164688D01*
X248871Y164686D01*
X248870Y164685D01*
X248793Y164520D01*
X248722Y164373D01*
X248722Y164371D01*
X248721Y164370D01*
X248683Y164194D01*
X248648Y164032D01*
X248648Y164031D01*
X248648Y164029D01*
X248651Y163854D01*
X248653Y163684D01*
X248654Y163682D01*
X248654Y163680D01*
X248699Y163502D01*
X248738Y163346D01*
X248738Y163344D01*
X248739Y163342D01*
X248820Y163185D01*
X248897Y163036D01*
X248898Y163034D01*
X248899Y163033D01*
X249013Y162899D01*
X249122Y162770D01*
X249123Y162769D01*
X249124Y162767D01*
X249270Y162660D01*
X249402Y162562D01*
X249403Y162561D01*
X249405Y162560D01*
X249561Y162493D01*
X249721Y162423D01*
X249723Y162423D01*
X249725Y162422D01*
X249732Y162421D01*
X249960Y162371D01*
X250574Y162288D01*
X250703Y162286D01*
X250830Y162275D01*
X250876Y162282D01*
X250923Y162281D01*
X251048Y162308D01*
X251175Y162327D01*
X251218Y162344D01*
X251264Y162354D01*
X251380Y162408D01*
X251499Y162456D01*
X251537Y162482D01*
X251579Y162502D01*
X251680Y162582D01*
X251785Y162655D01*
X251816Y162689D01*
X251853Y162718D01*
X251933Y162818D01*
X252018Y162913D01*
X252041Y162954D01*
X252070Y162991D01*
X252125Y163106D01*
X252187Y163219D01*
X252199Y163260D01*
X253321Y164382D01*
X253337Y164403D01*
X253357Y164420D01*
X253445Y164539D01*
X253537Y164655D01*
X253548Y164679D01*
X253564Y164700D01*
X253623Y164836D01*
X253686Y164970D01*
X253692Y164996D01*
X253702Y165020D01*
X253728Y165166D01*
X253759Y165311D01*
X253759Y165337D01*
X253764Y165363D01*
X253756Y165511D01*
X253753Y165659D01*
X253747Y165685D01*
X253746Y165711D01*
X253705Y165854D01*
X253668Y165997D01*
X253656Y166021D01*
X253649Y166046D01*
X253577Y166176D01*
X253509Y166307D01*
X253492Y166327D01*
X253479Y166350D01*
X253321Y166536D01*
X253317Y166540D01*
X252982Y167119D01*
X252809Y167765D01*
X252809Y171101D01*
X259374Y171101D01*
X259400Y171104D01*
X259426Y171102D01*
X259573Y171124D01*
X259720Y171141D01*
X259745Y171149D01*
X259771Y171153D01*
X259908Y171208D01*
X260048Y171258D01*
X260070Y171272D01*
X260095Y171282D01*
X260216Y171367D01*
X260341Y171447D01*
X260353Y171460D01*
X260400Y171415D01*
X260423Y171401D01*
X260442Y171384D01*
X260572Y171312D01*
X260699Y171236D01*
X260724Y171228D01*
X260747Y171215D01*
X260890Y171175D01*
X261031Y171130D01*
X261057Y171127D01*
X261082Y171120D01*
X261326Y171101D01*
X267891Y171101D01*
X267891Y167765D01*
X267718Y167119D01*
X267383Y166540D01*
X267379Y166536D01*
X267363Y166516D01*
X267343Y166499D01*
X267255Y166379D01*
X267163Y166263D01*
X267152Y166240D01*
X267136Y166218D01*
X267077Y166082D01*
X267014Y165948D01*
X267008Y165923D01*
X266998Y165898D01*
X266972Y165752D01*
X266941Y165607D01*
X266941Y165581D01*
X266936Y165555D01*
X266944Y165407D01*
X266947Y165259D01*
X266953Y165234D01*
X266954Y165207D01*
X266995Y165065D01*
X267032Y164921D01*
X267044Y164898D01*
X267051Y164873D01*
X267123Y164743D01*
X267191Y164611D01*
X267208Y164591D01*
X267221Y164568D01*
X267379Y164382D01*
X268399Y163363D01*
X268399Y161779D01*
X268416Y161630D01*
X268428Y161480D01*
X268436Y161457D01*
X268439Y161433D01*
X268489Y161291D01*
X268535Y161148D01*
X268548Y161127D01*
X268556Y161105D01*
X268638Y160978D01*
X268715Y160849D01*
X268732Y160832D01*
X268745Y160812D01*
X268853Y160707D01*
X268958Y160599D01*
X268978Y160586D01*
X268996Y160570D01*
X269125Y160492D01*
X269251Y160411D01*
X269274Y160403D01*
X269295Y160391D01*
X269438Y160345D01*
X269580Y160295D01*
X269604Y160292D01*
X269627Y160284D01*
X269776Y160272D01*
X269926Y160256D01*
X269950Y160258D01*
X269974Y160257D01*
X270123Y160279D01*
X270272Y160296D01*
X270300Y160305D01*
X270319Y160308D01*
X270363Y160326D01*
X270505Y160372D01*
X271391Y160739D01*
X274709Y160739D01*
X277774Y159469D01*
X279824Y157419D01*
X279923Y157340D01*
X280017Y157256D01*
X280059Y157232D01*
X280097Y157202D01*
X280211Y157148D01*
X280322Y157087D01*
X280368Y157074D01*
X280412Y157053D01*
X280535Y157027D01*
X280657Y156992D01*
X280718Y156987D01*
X280753Y156980D01*
X280801Y156981D01*
X280901Y156973D01*
X288022Y156973D01*
X288148Y156987D01*
X288274Y156994D01*
X288321Y157007D01*
X288369Y157013D01*
X288487Y157055D01*
X288609Y157090D01*
X288651Y157114D01*
X288697Y157130D01*
X288803Y157199D01*
X288913Y157260D01*
X288959Y157300D01*
X288989Y157319D01*
X289023Y157354D01*
X289099Y157419D01*
X294241Y162561D01*
X302659Y162561D01*
X308611Y156609D01*
X308611Y148191D01*
X302659Y142239D01*
X294241Y142239D01*
X289099Y147381D01*
X289000Y147460D01*
X288907Y147544D01*
X288864Y147568D01*
X288826Y147598D01*
X288712Y147652D01*
X288602Y147713D01*
X288555Y147726D01*
X288511Y147747D01*
X288388Y147773D01*
X288266Y147808D01*
X288205Y147813D01*
X288171Y147820D01*
X288123Y147819D01*
X288022Y147827D01*
X280901Y147827D01*
X280775Y147813D01*
X280649Y147806D01*
X280603Y147793D01*
X280555Y147787D01*
X280436Y147745D01*
X280314Y147710D01*
X280272Y147686D01*
X280227Y147670D01*
X280120Y147601D01*
X280010Y147540D01*
X279964Y147500D01*
X279934Y147481D01*
X279900Y147446D01*
X279824Y147381D01*
X277774Y145331D01*
X274709Y144061D01*
X271391Y144061D01*
X268326Y145331D01*
X266052Y147605D01*
X265953Y147684D01*
X265859Y147768D01*
X265817Y147792D01*
X265779Y147822D01*
X265665Y147876D01*
X265554Y147937D01*
X265508Y147950D01*
X265464Y147971D01*
X265341Y147997D01*
X265219Y148032D01*
X265158Y148037D01*
X265123Y148044D01*
X265075Y148043D01*
X264975Y148051D01*
X254087Y148051D01*
X252029Y150109D01*
X251951Y150172D01*
X251878Y150242D01*
X251814Y150280D01*
X251756Y150326D01*
X251665Y150369D01*
X251579Y150420D01*
X251508Y150443D01*
X251441Y150475D01*
X251343Y150496D01*
X251247Y150527D01*
X251173Y150533D01*
X251100Y150548D01*
X251000Y150547D01*
X250900Y150555D01*
X250826Y150544D01*
X250752Y150542D01*
X250655Y150518D01*
X250555Y150503D01*
X250486Y150475D01*
X250414Y150457D01*
X250325Y150411D01*
X250231Y150374D01*
X250170Y150332D01*
X250104Y150298D01*
X250028Y150233D01*
X249945Y150175D01*
X249895Y150120D01*
X249839Y150072D01*
X249779Y149991D01*
X249712Y149916D01*
X249676Y149851D01*
X249631Y149792D01*
X249592Y149699D01*
X249543Y149611D01*
X249523Y149540D01*
X249493Y149472D01*
X249476Y149373D01*
X249448Y149276D01*
X249440Y149176D01*
X249432Y149129D01*
X249434Y149093D01*
X249429Y149032D01*
X249429Y144980D01*
X247196Y142747D01*
X239214Y142747D01*
X239025Y142936D01*
X238926Y143015D01*
X238832Y143099D01*
X238789Y143123D01*
X238752Y143153D01*
X238637Y143207D01*
X238527Y143268D01*
X238480Y143281D01*
X238437Y143302D01*
X238313Y143328D01*
X238191Y143363D01*
X238131Y143368D01*
X238096Y143375D01*
X238048Y143374D01*
X237948Y143382D01*
X219506Y143382D01*
X219381Y143368D01*
X219255Y143361D01*
X219208Y143348D01*
X219160Y143342D01*
X219041Y143300D01*
X218920Y143265D01*
X218878Y143241D01*
X218832Y143225D01*
X218726Y143156D01*
X218616Y143095D01*
X218569Y143055D01*
X218539Y143036D01*
X218506Y143001D01*
X218429Y142936D01*
X218240Y142747D01*
X210004Y142747D01*
X207771Y144980D01*
X207771Y152454D01*
X208503Y153187D01*
X208504Y153188D01*
X208505Y153189D01*
X208607Y153317D01*
X208720Y153460D01*
X208721Y153461D01*
X208722Y153462D01*
X208793Y153615D01*
X208869Y153775D01*
X208869Y153776D01*
X208870Y153777D01*
X208907Y153949D01*
X208942Y154115D01*
X208942Y154117D01*
X208943Y154118D01*
X208939Y154295D01*
X208936Y154464D01*
X208936Y154465D01*
X208936Y154467D01*
X208893Y154635D01*
X208851Y154802D01*
X208851Y154803D01*
X208850Y154804D01*
X208746Y155025D01*
X208504Y155443D01*
X208311Y156165D01*
X208265Y156282D01*
X208226Y156402D01*
X208201Y156444D01*
X208183Y156489D01*
X208111Y156593D01*
X208046Y156701D01*
X208012Y156736D01*
X207984Y156776D01*
X207891Y156860D01*
X207803Y156951D01*
X207762Y156977D01*
X207726Y157010D01*
X207616Y157071D01*
X207510Y157139D01*
X207464Y157155D01*
X207421Y157179D01*
X207300Y157213D01*
X207182Y157255D01*
X207133Y157261D01*
X207086Y157274D01*
X206960Y157280D01*
X206835Y157294D01*
X206787Y157289D01*
X206738Y157291D01*
X206614Y157268D01*
X206489Y157254D01*
X206431Y157235D01*
X206395Y157228D01*
X206351Y157209D01*
X206257Y157178D01*
X204861Y156600D01*
X201543Y156600D01*
X198479Y157870D01*
X196949Y159399D01*
X196870Y159462D01*
X196798Y159531D01*
X196734Y159570D01*
X196676Y159616D01*
X196585Y159659D01*
X196499Y159710D01*
X196428Y159733D01*
X196361Y159765D01*
X196263Y159786D01*
X196167Y159816D01*
X196093Y159822D01*
X196020Y159838D01*
X195920Y159836D01*
X195820Y159844D01*
X195746Y159833D01*
X195672Y159832D01*
X195575Y159808D01*
X195475Y159793D01*
X195406Y159765D01*
X195334Y159747D01*
X195245Y159701D01*
X195151Y159664D01*
X195090Y159622D01*
X195024Y159588D01*
X194948Y159522D01*
X194865Y159465D01*
X194815Y159410D01*
X194759Y159362D01*
X194699Y159281D01*
X194632Y159206D01*
X194596Y159141D01*
X194551Y159081D01*
X194512Y158989D01*
X194463Y158901D01*
X194443Y158830D01*
X194413Y158761D01*
X194396Y158663D01*
X194368Y158566D01*
X194360Y158466D01*
X194352Y158418D01*
X194354Y158383D01*
X194349Y158322D01*
X194349Y155487D01*
X194287Y155425D01*
X194208Y155326D01*
X194124Y155232D01*
X194100Y155190D01*
X194070Y155152D01*
X194016Y155038D01*
X193955Y154927D01*
X193942Y154881D01*
X193921Y154837D01*
X193895Y154714D01*
X193860Y154592D01*
X193855Y154531D01*
X193848Y154497D01*
X193849Y154448D01*
X193841Y154348D01*
X193841Y154273D01*
X193766Y154273D01*
X193665Y154262D01*
X193566Y154260D01*
X193541Y154254D01*
X193514Y154252D01*
X193468Y154239D01*
X193420Y154234D01*
X193324Y154199D01*
X193228Y154175D01*
X193205Y154163D01*
X193179Y154156D01*
X193137Y154132D01*
X193092Y154116D01*
X193007Y154061D01*
X192918Y154015D01*
X192898Y153999D01*
X192875Y153986D01*
X192829Y153946D01*
X192799Y153927D01*
X192765Y153892D01*
X192689Y153827D01*
X192672Y153807D01*
X192652Y153790D01*
X192608Y153730D01*
X192557Y153676D01*
X192518Y153613D01*
X192472Y153554D01*
X192461Y153530D01*
X192445Y153509D01*
X192416Y153441D01*
X192378Y153377D01*
X192355Y153307D01*
X192323Y153239D01*
X192318Y153213D01*
X192307Y153189D01*
X192294Y153115D01*
X192272Y153045D01*
X192266Y152972D01*
X192250Y152898D01*
X192250Y152872D01*
X192246Y152846D01*
X192249Y152771D01*
X192244Y152698D01*
X192254Y152625D01*
X192256Y152550D01*
X192262Y152524D01*
X192263Y152498D01*
X192284Y152426D01*
X192295Y152353D01*
X192322Y152285D01*
X192341Y152212D01*
X192353Y152189D01*
X192360Y152163D01*
X192397Y152098D01*
X192424Y152029D01*
X192466Y151969D01*
X192500Y151902D01*
X192517Y151882D01*
X192530Y151859D01*
X192596Y151782D01*
X192623Y151743D01*
X192649Y151719D01*
X192689Y151673D01*
X192709Y151657D01*
X192726Y151637D01*
X192807Y151577D01*
X192882Y151509D01*
X192924Y151486D01*
X192962Y151456D01*
X192986Y151445D01*
X193006Y151429D01*
X193098Y151390D01*
X193187Y151341D01*
X193233Y151328D01*
X193277Y151307D01*
X193303Y151302D01*
X193327Y151291D01*
X193424Y151274D01*
X193522Y151246D01*
X193583Y151241D01*
X193618Y151234D01*
X193645Y151234D01*
X193670Y151230D01*
X193704Y151232D01*
X193766Y151227D01*
X193841Y151227D01*
X193841Y151152D01*
X193855Y151026D01*
X193862Y150900D01*
X193875Y150854D01*
X193881Y150806D01*
X193923Y150687D01*
X193958Y150565D01*
X193982Y150523D01*
X193998Y150477D01*
X194067Y150371D01*
X194128Y150261D01*
X194168Y150215D01*
X194187Y150185D01*
X194222Y150151D01*
X194287Y150075D01*
X194349Y150013D01*
X194349Y143487D01*
X192319Y141457D01*
X192252Y141373D01*
X192214Y141334D01*
X192206Y141321D01*
X192156Y141264D01*
X192132Y141222D01*
X192102Y141184D01*
X192048Y141070D01*
X191987Y140959D01*
X191974Y140913D01*
X191953Y140869D01*
X191927Y140746D01*
X191892Y140624D01*
X191887Y140563D01*
X191880Y140528D01*
X191881Y140480D01*
X191873Y140380D01*
X191873Y132722D01*
X191876Y132696D01*
X191874Y132670D01*
X191896Y132523D01*
X191913Y132376D01*
X191921Y132351D01*
X191925Y132325D01*
X191980Y132187D01*
X192030Y132048D01*
X192044Y132026D01*
X192054Y132001D01*
X192139Y131880D01*
X192219Y131755D01*
X192238Y131737D01*
X192253Y131715D01*
X192363Y131616D01*
X192470Y131513D01*
X192492Y131499D01*
X192512Y131482D01*
X192642Y131410D01*
X192769Y131334D01*
X192794Y131326D01*
X192817Y131313D01*
X192960Y131273D01*
X193101Y131228D01*
X193127Y131226D01*
X193152Y131218D01*
X193396Y131199D01*
X195063Y131199D01*
X196849Y129413D01*
X196849Y111887D01*
X195063Y110101D01*
X184266Y110101D01*
X184190Y110093D01*
X184113Y110094D01*
X184017Y110073D01*
X183920Y110061D01*
X183848Y110036D01*
X183773Y110019D01*
X183684Y109977D01*
X183591Y109944D01*
X183527Y109902D01*
X183458Y109870D01*
X183381Y109808D01*
X183299Y109755D01*
X183245Y109700D01*
X183186Y109652D01*
X183125Y109575D01*
X183056Y109504D01*
X183017Y109439D01*
X182970Y109379D01*
X182902Y109246D01*
X182878Y109205D01*
X182872Y109187D01*
X182858Y109161D01*
X182741Y108876D01*
X179074Y105209D01*
X177393Y104513D01*
X159207Y104513D01*
G37*
%LPD*%
%LPC*%
G36*
X52083Y165734D02*
X52083Y165734D01*
X47648Y167571D01*
X44254Y170965D01*
X42417Y175400D01*
X42417Y180200D01*
X44254Y184635D01*
X47648Y188029D01*
X52083Y189866D01*
X68468Y189866D01*
X68594Y189880D01*
X68720Y189887D01*
X68766Y189900D01*
X68814Y189906D01*
X68933Y189948D01*
X69055Y189983D01*
X69097Y190007D01*
X69142Y190023D01*
X69249Y190092D01*
X69359Y190153D01*
X69405Y190193D01*
X69435Y190212D01*
X69469Y190247D01*
X69545Y190312D01*
X116559Y237326D01*
X118060Y238827D01*
X119740Y239523D01*
X142207Y239523D01*
X142257Y239529D01*
X142307Y239526D01*
X142430Y239548D01*
X142553Y239563D01*
X142601Y239580D01*
X142650Y239589D01*
X142764Y239638D01*
X142881Y239680D01*
X142924Y239707D01*
X142970Y239728D01*
X143070Y239802D01*
X143174Y239869D01*
X143209Y239905D01*
X143250Y239935D01*
X143330Y240030D01*
X143416Y240120D01*
X143442Y240163D01*
X143475Y240201D01*
X143531Y240312D01*
X143595Y240419D01*
X143610Y240467D01*
X143633Y240512D01*
X143664Y240633D01*
X143701Y240751D01*
X143705Y240801D01*
X143718Y240850D01*
X143719Y240974D01*
X143729Y241098D01*
X143722Y241148D01*
X143723Y241198D01*
X143696Y241320D01*
X143678Y241443D01*
X143659Y241490D01*
X143648Y241539D01*
X143595Y241651D01*
X143549Y241767D01*
X143520Y241808D01*
X143499Y241854D01*
X143421Y241951D01*
X143350Y242053D01*
X143313Y242087D01*
X143281Y242126D01*
X143184Y242203D01*
X143091Y242286D01*
X143047Y242311D01*
X143008Y242342D01*
X142790Y242453D01*
X142624Y242522D01*
X142515Y242631D01*
X142416Y242710D01*
X142322Y242794D01*
X142279Y242818D01*
X142242Y242848D01*
X142127Y242902D01*
X142017Y242963D01*
X141970Y242976D01*
X141927Y242997D01*
X141803Y243023D01*
X141681Y243058D01*
X141621Y243063D01*
X141586Y243070D01*
X141538Y243069D01*
X141438Y243077D01*
X90932Y243077D01*
X90914Y243075D01*
X90895Y243077D01*
X90740Y243055D01*
X90586Y243037D01*
X90568Y243031D01*
X90550Y243029D01*
X90405Y242972D01*
X90258Y242920D01*
X90242Y242910D01*
X90225Y242903D01*
X90018Y242773D01*
X83074Y237565D01*
X83062Y237553D01*
X83056Y237550D01*
X83037Y237530D01*
X82977Y237473D01*
X82875Y237386D01*
X82851Y237353D01*
X82821Y237325D01*
X82748Y237214D01*
X82668Y237106D01*
X82652Y237068D01*
X82629Y237034D01*
X82583Y236909D01*
X82530Y236786D01*
X82523Y236746D01*
X82509Y236708D01*
X82492Y236574D01*
X82468Y236443D01*
X82470Y236402D01*
X82465Y236362D01*
X82479Y236228D01*
X82486Y236095D01*
X82497Y236056D01*
X82502Y236015D01*
X82546Y235888D01*
X82583Y235760D01*
X82602Y235724D01*
X82616Y235686D01*
X82687Y235572D01*
X82693Y235563D01*
X84583Y231000D01*
X84583Y226200D01*
X82746Y221765D01*
X79352Y218371D01*
X74917Y216534D01*
X52083Y216534D01*
X47648Y218371D01*
X44254Y221765D01*
X42417Y226200D01*
X42417Y231000D01*
X44254Y235435D01*
X47648Y238829D01*
X52083Y240666D01*
X71459Y240666D01*
X71477Y240668D01*
X71495Y240666D01*
X71651Y240688D01*
X71805Y240706D01*
X71822Y240712D01*
X71841Y240714D01*
X71986Y240771D01*
X72133Y240823D01*
X72149Y240833D01*
X72166Y240840D01*
X72373Y240970D01*
X85810Y251048D01*
X85837Y251074D01*
X85973Y251190D01*
X86310Y251527D01*
X86440Y251581D01*
X86500Y251614D01*
X86564Y251639D01*
X86709Y251730D01*
X86745Y251750D01*
X86754Y251759D01*
X86771Y251769D01*
X86884Y251854D01*
X87345Y251972D01*
X87381Y251986D01*
X87550Y252040D01*
X87990Y252223D01*
X88132Y252223D01*
X88200Y252231D01*
X88269Y252229D01*
X88437Y252258D01*
X88478Y252263D01*
X88490Y252267D01*
X88510Y252270D01*
X88646Y252305D01*
X89118Y252238D01*
X89156Y252237D01*
X89333Y252223D01*
X141438Y252223D01*
X141563Y252237D01*
X141689Y252244D01*
X141736Y252257D01*
X141784Y252263D01*
X141903Y252305D01*
X142024Y252340D01*
X142066Y252364D01*
X142112Y252380D01*
X142218Y252449D01*
X142328Y252510D01*
X142375Y252550D01*
X142405Y252569D01*
X142438Y252604D01*
X142515Y252669D01*
X142624Y252778D01*
X144847Y253699D01*
X147253Y253699D01*
X149476Y252778D01*
X151178Y251076D01*
X152099Y248853D01*
X152099Y246447D01*
X151178Y244224D01*
X149476Y242522D01*
X149310Y242453D01*
X149266Y242429D01*
X149219Y242412D01*
X149114Y242344D01*
X149006Y242284D01*
X148968Y242250D01*
X148926Y242223D01*
X148839Y242133D01*
X148747Y242050D01*
X148719Y242008D01*
X148684Y241972D01*
X148620Y241865D01*
X148549Y241763D01*
X148531Y241716D01*
X148505Y241673D01*
X148467Y241555D01*
X148421Y241439D01*
X148414Y241389D01*
X148399Y241341D01*
X148389Y241217D01*
X148371Y241094D01*
X148375Y241044D01*
X148371Y240994D01*
X148389Y240871D01*
X148399Y240747D01*
X148415Y240699D01*
X148422Y240649D01*
X148468Y240533D01*
X148506Y240415D01*
X148532Y240372D01*
X148551Y240325D01*
X148622Y240223D01*
X148686Y240117D01*
X148721Y240081D01*
X148750Y240039D01*
X148842Y239956D01*
X148929Y239867D01*
X148971Y239839D01*
X149009Y239806D01*
X149118Y239745D01*
X149222Y239678D01*
X149270Y239662D01*
X149314Y239637D01*
X149434Y239603D01*
X149551Y239562D01*
X149601Y239556D01*
X149649Y239542D01*
X149893Y239523D01*
X200675Y239523D01*
X200801Y239537D01*
X200927Y239544D01*
X200973Y239557D01*
X201021Y239563D01*
X201140Y239605D01*
X201262Y239640D01*
X201304Y239664D01*
X201349Y239680D01*
X201456Y239749D01*
X201566Y239810D01*
X201612Y239850D01*
X201642Y239869D01*
X201676Y239904D01*
X201752Y239969D01*
X209405Y247622D01*
X209484Y247721D01*
X209568Y247815D01*
X209592Y247857D01*
X209622Y247895D01*
X209676Y248009D01*
X209737Y248120D01*
X209750Y248166D01*
X209771Y248210D01*
X209797Y248333D01*
X209832Y248455D01*
X209837Y248516D01*
X209844Y248551D01*
X209843Y248599D01*
X209851Y248699D01*
X209851Y248853D01*
X210772Y251076D01*
X212474Y252778D01*
X214697Y253699D01*
X217103Y253699D01*
X219326Y252778D01*
X221028Y251076D01*
X221949Y248853D01*
X221949Y246447D01*
X221028Y244224D01*
X219326Y242522D01*
X217103Y241601D01*
X216949Y241601D01*
X216823Y241587D01*
X216697Y241580D01*
X216651Y241567D01*
X216603Y241561D01*
X216484Y241519D01*
X216362Y241484D01*
X216320Y241460D01*
X216275Y241444D01*
X216168Y241375D01*
X216058Y241314D01*
X216012Y241274D01*
X215982Y241255D01*
X215948Y241220D01*
X215872Y241155D01*
X207291Y232574D01*
X205790Y231073D01*
X204110Y230377D01*
X123175Y230377D01*
X123049Y230363D01*
X122923Y230356D01*
X122877Y230343D01*
X122829Y230337D01*
X122710Y230295D01*
X122588Y230260D01*
X122546Y230236D01*
X122501Y230220D01*
X122394Y230151D01*
X122284Y230090D01*
X122238Y230050D01*
X122208Y230031D01*
X122174Y229996D01*
X122098Y229931D01*
X80851Y188684D01*
X80834Y188663D01*
X80814Y188646D01*
X80768Y188583D01*
X80740Y188555D01*
X80716Y188514D01*
X80634Y188411D01*
X80623Y188387D01*
X80607Y188366D01*
X80549Y188230D01*
X80485Y188096D01*
X80480Y188070D01*
X80469Y188046D01*
X80443Y187900D01*
X80412Y187755D01*
X80412Y187729D01*
X80408Y187703D01*
X80415Y187555D01*
X80418Y187407D01*
X80424Y187381D01*
X80426Y187355D01*
X80467Y187213D01*
X80503Y187069D01*
X80515Y187045D01*
X80522Y187020D01*
X80594Y186891D01*
X80662Y186759D01*
X80679Y186739D01*
X80692Y186716D01*
X80851Y186530D01*
X82746Y184635D01*
X84583Y180200D01*
X84583Y175400D01*
X82746Y170965D01*
X79352Y167571D01*
X74917Y165734D01*
X52083Y165734D01*
G37*
%LPD*%
%LPC*%
G36*
X163037Y141701D02*
X163037Y141701D01*
X161251Y143487D01*
X161251Y158959D01*
X161232Y159125D01*
X161214Y159295D01*
X161212Y159300D01*
X161211Y159305D01*
X161155Y159463D01*
X161098Y159624D01*
X161096Y159628D01*
X161094Y159633D01*
X161002Y159776D01*
X160911Y159918D01*
X160908Y159922D01*
X160905Y159926D01*
X160782Y160044D01*
X160662Y160162D01*
X160658Y160165D01*
X160654Y160168D01*
X160508Y160256D01*
X160364Y160343D01*
X160360Y160344D01*
X160355Y160347D01*
X160193Y160399D01*
X160033Y160451D01*
X160027Y160452D01*
X160023Y160453D01*
X160004Y160455D01*
X159790Y160481D01*
X158463Y160535D01*
X158413Y160532D01*
X158297Y160533D01*
X157720Y160494D01*
X157685Y160506D01*
X157593Y160526D01*
X157503Y160555D01*
X157393Y160568D01*
X157344Y160579D01*
X157312Y160578D01*
X157260Y160584D01*
X157223Y160586D01*
X156698Y160829D01*
X156651Y160845D01*
X156545Y160890D01*
X155996Y161075D01*
X155968Y161100D01*
X155891Y161153D01*
X155819Y161214D01*
X155722Y161269D01*
X155681Y161297D01*
X155651Y161309D01*
X155606Y161335D01*
X155572Y161350D01*
X155180Y161776D01*
X155142Y161808D01*
X155062Y161891D01*
X154608Y162287D01*
X154560Y162361D01*
X154464Y162510D01*
X154463Y162511D01*
X154462Y162512D01*
X154340Y162630D01*
X154213Y162752D01*
X154212Y162753D01*
X154211Y162754D01*
X154064Y162842D01*
X153914Y162931D01*
X153913Y162932D01*
X153912Y162932D01*
X153751Y162983D01*
X153582Y163038D01*
X153581Y163038D01*
X153580Y163038D01*
X153403Y163052D01*
X153235Y163066D01*
X153234Y163065D01*
X153232Y163065D01*
X153055Y163039D01*
X152890Y163014D01*
X152889Y163013D01*
X152888Y163013D01*
X152719Y162946D01*
X152566Y162885D01*
X152565Y162884D01*
X152564Y162884D01*
X152419Y162783D01*
X152280Y162686D01*
X152279Y162685D01*
X152278Y162685D01*
X152158Y162551D01*
X152047Y162427D01*
X152046Y162426D01*
X152045Y162425D01*
X151960Y162271D01*
X151878Y162122D01*
X151878Y162121D01*
X151877Y162120D01*
X151832Y161961D01*
X151783Y161787D01*
X151783Y161785D01*
X151783Y161780D01*
X151764Y161543D01*
X151764Y157357D01*
X149978Y155571D01*
X129422Y155571D01*
X127636Y157357D01*
X127636Y175883D01*
X129422Y177669D01*
X133604Y177669D01*
X133630Y177672D01*
X133656Y177670D01*
X133803Y177692D01*
X133950Y177709D01*
X133975Y177717D01*
X134001Y177721D01*
X134139Y177776D01*
X134278Y177826D01*
X134300Y177840D01*
X134325Y177850D01*
X134446Y177935D01*
X134571Y178015D01*
X134589Y178034D01*
X134611Y178049D01*
X134710Y178159D01*
X134813Y178266D01*
X134827Y178288D01*
X134844Y178308D01*
X134916Y178438D01*
X134992Y178565D01*
X135000Y178590D01*
X135013Y178613D01*
X135053Y178756D01*
X135098Y178897D01*
X135100Y178923D01*
X135108Y178948D01*
X135127Y179192D01*
X135127Y191410D01*
X135823Y193090D01*
X137110Y194377D01*
X138790Y195073D01*
X146528Y195073D01*
X146554Y195076D01*
X146580Y195074D01*
X146727Y195096D01*
X146874Y195113D01*
X146899Y195121D01*
X146925Y195125D01*
X147063Y195180D01*
X147202Y195230D01*
X147224Y195244D01*
X147249Y195254D01*
X147370Y195339D01*
X147495Y195419D01*
X147513Y195438D01*
X147535Y195453D01*
X147634Y195563D01*
X147737Y195670D01*
X147751Y195692D01*
X147768Y195712D01*
X147840Y195842D01*
X147916Y195969D01*
X147924Y195994D01*
X147937Y196017D01*
X147977Y196160D01*
X148022Y196301D01*
X148024Y196327D01*
X148032Y196352D01*
X148051Y196596D01*
X148051Y196763D01*
X149837Y198549D01*
X163363Y198549D01*
X164382Y197529D01*
X164403Y197513D01*
X164420Y197493D01*
X164539Y197405D01*
X164655Y197313D01*
X164679Y197302D01*
X164700Y197286D01*
X164836Y197227D01*
X164970Y197164D01*
X164996Y197158D01*
X165020Y197148D01*
X165166Y197122D01*
X165311Y197091D01*
X165337Y197091D01*
X165363Y197086D01*
X165511Y197094D01*
X165659Y197097D01*
X165685Y197103D01*
X165711Y197104D01*
X165854Y197145D01*
X165997Y197182D01*
X166021Y197194D01*
X166046Y197201D01*
X166176Y197273D01*
X166307Y197341D01*
X166327Y197358D01*
X166350Y197371D01*
X166536Y197529D01*
X166540Y197533D01*
X167119Y197868D01*
X167765Y198041D01*
X171101Y198041D01*
X171101Y191476D01*
X171104Y191450D01*
X171102Y191424D01*
X171124Y191277D01*
X171141Y191130D01*
X171149Y191105D01*
X171153Y191079D01*
X171208Y190942D01*
X171258Y190802D01*
X171272Y190780D01*
X171282Y190755D01*
X171367Y190634D01*
X171447Y190509D01*
X171460Y190497D01*
X171415Y190450D01*
X171401Y190427D01*
X171384Y190408D01*
X171312Y190278D01*
X171236Y190151D01*
X171228Y190126D01*
X171215Y190103D01*
X171175Y189960D01*
X171130Y189819D01*
X171127Y189793D01*
X171120Y189768D01*
X171101Y189524D01*
X171101Y182959D01*
X167765Y182959D01*
X167119Y183132D01*
X166540Y183467D01*
X166536Y183471D01*
X166516Y183487D01*
X166499Y183507D01*
X166379Y183595D01*
X166263Y183687D01*
X166240Y183698D01*
X166218Y183714D01*
X166082Y183773D01*
X165948Y183836D01*
X165923Y183842D01*
X165898Y183852D01*
X165752Y183878D01*
X165607Y183909D01*
X165581Y183909D01*
X165555Y183914D01*
X165407Y183906D01*
X165259Y183903D01*
X165234Y183897D01*
X165207Y183896D01*
X165065Y183855D01*
X164921Y183818D01*
X164898Y183806D01*
X164873Y183799D01*
X164743Y183727D01*
X164611Y183659D01*
X164591Y183642D01*
X164568Y183629D01*
X164382Y183471D01*
X163363Y182451D01*
X163358Y182451D01*
X163281Y182442D01*
X163203Y182443D01*
X163108Y182422D01*
X163012Y182411D01*
X162939Y182385D01*
X162863Y182368D01*
X162775Y182327D01*
X162684Y182294D01*
X162618Y182252D01*
X162548Y182218D01*
X162473Y182158D01*
X162391Y182105D01*
X162337Y182049D01*
X162276Y182000D01*
X162216Y181924D01*
X162149Y181854D01*
X162109Y181788D01*
X162061Y181726D01*
X162020Y181638D01*
X161970Y181555D01*
X161946Y181481D01*
X161913Y181411D01*
X161893Y181316D01*
X161864Y181223D01*
X161858Y181146D01*
X161841Y181070D01*
X161840Y180923D01*
X161836Y180876D01*
X161839Y180856D01*
X161838Y180825D01*
X162119Y176677D01*
X162150Y176510D01*
X162182Y176336D01*
X162182Y176335D01*
X162252Y176175D01*
X162321Y176016D01*
X162322Y176016D01*
X162322Y176015D01*
X162438Y175860D01*
X162529Y175737D01*
X162530Y175736D01*
X162683Y175607D01*
X162796Y175512D01*
X162797Y175511D01*
X162972Y175422D01*
X163106Y175353D01*
X163107Y175353D01*
X163284Y175309D01*
X163444Y175269D01*
X163445Y175269D01*
X163619Y175267D01*
X163793Y175265D01*
X163794Y175265D01*
X163796Y175265D01*
X163934Y175291D01*
X165777Y175291D01*
X165777Y171322D01*
X165780Y171296D01*
X165777Y171270D01*
X165799Y171123D01*
X165816Y170976D01*
X165825Y170951D01*
X165829Y170925D01*
X165884Y170787D01*
X165934Y170648D01*
X165948Y170626D01*
X165958Y170601D01*
X166042Y170480D01*
X166123Y170355D01*
X166142Y170337D01*
X166157Y170315D01*
X166267Y170216D01*
X166374Y170113D01*
X166396Y170099D01*
X166416Y170082D01*
X166546Y170010D01*
X166673Y169934D01*
X166698Y169926D01*
X166721Y169913D01*
X166864Y169873D01*
X167005Y169828D01*
X167031Y169826D01*
X167056Y169818D01*
X167300Y169799D01*
X167326Y169802D01*
X167352Y169800D01*
X167499Y169822D01*
X167646Y169839D01*
X167671Y169847D01*
X167697Y169851D01*
X167835Y169906D01*
X167974Y169956D01*
X167997Y169970D01*
X168021Y169980D01*
X168142Y170065D01*
X168267Y170145D01*
X168286Y170164D01*
X168307Y170179D01*
X168406Y170289D01*
X168509Y170396D01*
X168523Y170418D01*
X168540Y170438D01*
X168612Y170568D01*
X168688Y170695D01*
X168696Y170720D01*
X168709Y170743D01*
X168749Y170886D01*
X168795Y171027D01*
X168797Y171053D01*
X168804Y171078D01*
X168823Y171322D01*
X168823Y175291D01*
X170635Y175291D01*
X171281Y175118D01*
X171860Y174783D01*
X172333Y174310D01*
X172487Y174044D01*
X172577Y173923D01*
X172663Y173799D01*
X172680Y173783D01*
X172694Y173764D01*
X172810Y173667D01*
X172921Y173566D01*
X172942Y173554D01*
X172960Y173539D01*
X173095Y173470D01*
X173226Y173397D01*
X173249Y173391D01*
X173270Y173380D01*
X173417Y173343D01*
X173562Y173302D01*
X173590Y173300D01*
X173608Y173296D01*
X173655Y173295D01*
X173806Y173283D01*
X174283Y173283D01*
X174287Y173283D01*
X174293Y173283D01*
X174857Y173286D01*
X174879Y173283D01*
X174895Y173285D01*
X174920Y173283D01*
X176277Y173283D01*
X176277Y170741D01*
X174300Y170741D01*
X174231Y170730D01*
X174161Y170728D01*
X174110Y170710D01*
X174057Y170702D01*
X173995Y170669D01*
X173930Y170645D01*
X173887Y170612D01*
X173840Y170586D01*
X173792Y170536D01*
X173737Y170492D01*
X173693Y170432D01*
X173671Y170408D01*
X173661Y170388D01*
X173638Y170356D01*
X172654Y168626D01*
X172616Y168522D01*
X172573Y168417D01*
X172572Y168404D01*
X172569Y168396D01*
X172568Y168370D01*
X172555Y168250D01*
X172555Y147774D01*
X172558Y147754D01*
X172556Y147735D01*
X172578Y147633D01*
X172595Y147531D01*
X172604Y147514D01*
X172608Y147494D01*
X172661Y147405D01*
X172710Y147314D01*
X172724Y147300D01*
X172734Y147283D01*
X172813Y147216D01*
X172888Y147145D01*
X172906Y147136D01*
X172921Y147123D01*
X173017Y147084D01*
X173111Y147041D01*
X173131Y147039D01*
X173149Y147031D01*
X173316Y147013D01*
X176277Y147013D01*
X176277Y144471D01*
X174872Y144471D01*
X174846Y144468D01*
X174820Y144470D01*
X174673Y144448D01*
X174526Y144431D01*
X174501Y144423D01*
X174475Y144419D01*
X174337Y144364D01*
X174198Y144314D01*
X174176Y144300D01*
X174151Y144290D01*
X174030Y144205D01*
X173905Y144125D01*
X173887Y144106D01*
X173865Y144091D01*
X173766Y143981D01*
X173663Y143874D01*
X173649Y143852D01*
X173632Y143832D01*
X173560Y143702D01*
X173554Y143692D01*
X171563Y141701D01*
X163037Y141701D01*
G37*
%LPD*%
%LPC*%
G36*
X144847Y44751D02*
X144847Y44751D01*
X142624Y45672D01*
X140922Y47374D01*
X140001Y49597D01*
X140001Y49751D01*
X139987Y49877D01*
X139980Y50003D01*
X139967Y50049D01*
X139961Y50097D01*
X139919Y50216D01*
X139884Y50338D01*
X139860Y50380D01*
X139844Y50425D01*
X139775Y50532D01*
X139714Y50642D01*
X139674Y50688D01*
X139655Y50718D01*
X139620Y50752D01*
X139555Y50828D01*
X125552Y64831D01*
X125453Y64910D01*
X125359Y64994D01*
X125317Y65018D01*
X125279Y65048D01*
X125165Y65102D01*
X125054Y65163D01*
X125008Y65176D01*
X124964Y65197D01*
X124841Y65223D01*
X124719Y65258D01*
X124658Y65263D01*
X124623Y65270D01*
X124575Y65269D01*
X124475Y65277D01*
X84701Y65277D01*
X84625Y65269D01*
X84548Y65270D01*
X84452Y65249D01*
X84354Y65237D01*
X84282Y65212D01*
X84208Y65195D01*
X84119Y65153D01*
X84026Y65120D01*
X83962Y65078D01*
X83893Y65046D01*
X83816Y64984D01*
X83733Y64931D01*
X83680Y64876D01*
X83621Y64828D01*
X83560Y64751D01*
X83491Y64680D01*
X83452Y64615D01*
X83405Y64555D01*
X83337Y64422D01*
X83312Y64381D01*
X83307Y64363D01*
X83293Y64337D01*
X82746Y63015D01*
X79352Y59621D01*
X74917Y57784D01*
X52083Y57784D01*
X47648Y59621D01*
X44254Y63015D01*
X42417Y67450D01*
X42417Y72250D01*
X44254Y76685D01*
X47648Y80079D01*
X52083Y81916D01*
X74917Y81916D01*
X79352Y80079D01*
X82746Y76685D01*
X83293Y75363D01*
X83330Y75296D01*
X83359Y75225D01*
X83415Y75144D01*
X83463Y75058D01*
X83514Y75002D01*
X83558Y74939D01*
X83631Y74873D01*
X83697Y74800D01*
X83760Y74757D01*
X83816Y74706D01*
X83903Y74658D01*
X83983Y74602D01*
X84054Y74574D01*
X84121Y74537D01*
X84216Y74510D01*
X84308Y74474D01*
X84383Y74463D01*
X84457Y74442D01*
X84606Y74430D01*
X84652Y74423D01*
X84671Y74425D01*
X84701Y74423D01*
X127910Y74423D01*
X129590Y73727D01*
X146022Y57295D01*
X146121Y57216D01*
X146215Y57132D01*
X146257Y57108D01*
X146295Y57078D01*
X146409Y57024D01*
X146520Y56963D01*
X146566Y56950D01*
X146610Y56929D01*
X146733Y56903D01*
X146855Y56868D01*
X146916Y56863D01*
X146951Y56856D01*
X146999Y56857D01*
X147099Y56849D01*
X147253Y56849D01*
X149476Y55928D01*
X151178Y54226D01*
X152099Y52003D01*
X152099Y49597D01*
X151178Y47374D01*
X149476Y45672D01*
X147253Y44751D01*
X144847Y44751D01*
G37*
%LPD*%
%LPC*%
G36*
X294241Y40639D02*
X294241Y40639D01*
X288289Y46591D01*
X288289Y55009D01*
X294241Y60961D01*
X302659Y60961D01*
X307801Y55819D01*
X307900Y55740D01*
X307993Y55656D01*
X308036Y55632D01*
X308074Y55602D01*
X308188Y55548D01*
X308298Y55487D01*
X308345Y55474D01*
X308389Y55453D01*
X308512Y55427D01*
X308634Y55392D01*
X308695Y55387D01*
X308729Y55380D01*
X308777Y55381D01*
X308878Y55373D01*
X327675Y55373D01*
X327801Y55387D01*
X327927Y55394D01*
X327973Y55407D01*
X328021Y55413D01*
X328140Y55455D01*
X328262Y55490D01*
X328304Y55514D01*
X328349Y55530D01*
X328456Y55599D01*
X328566Y55660D01*
X328612Y55700D01*
X328642Y55719D01*
X328676Y55754D01*
X328752Y55819D01*
X357693Y84760D01*
X357772Y84859D01*
X357856Y84953D01*
X357880Y84995D01*
X357910Y85033D01*
X357964Y85147D01*
X358025Y85258D01*
X358038Y85304D01*
X358059Y85348D01*
X358085Y85471D01*
X358120Y85593D01*
X358125Y85654D01*
X358132Y85689D01*
X358131Y85737D01*
X358139Y85837D01*
X358139Y93109D01*
X364091Y99061D01*
X372509Y99061D01*
X378461Y93109D01*
X378461Y84691D01*
X372509Y78739D01*
X365237Y78739D01*
X365111Y78725D01*
X364985Y78718D01*
X364939Y78705D01*
X364891Y78699D01*
X364772Y78657D01*
X364650Y78622D01*
X364608Y78598D01*
X364563Y78582D01*
X364456Y78513D01*
X364346Y78452D01*
X364300Y78412D01*
X364270Y78393D01*
X364236Y78358D01*
X364160Y78293D01*
X332790Y46923D01*
X331110Y46227D01*
X308878Y46227D01*
X308752Y46213D01*
X308626Y46206D01*
X308579Y46193D01*
X308531Y46187D01*
X308412Y46145D01*
X308291Y46110D01*
X308249Y46086D01*
X308203Y46070D01*
X308097Y46001D01*
X307987Y45940D01*
X307941Y45900D01*
X307911Y45881D01*
X307877Y45846D01*
X307801Y45781D01*
X302659Y40639D01*
X294241Y40639D01*
G37*
%LPD*%
G36*
X235112Y147508D02*
X235112Y147508D01*
X235131Y147506D01*
X235233Y147528D01*
X235335Y147545D01*
X235352Y147554D01*
X235372Y147558D01*
X235461Y147611D01*
X235552Y147660D01*
X235566Y147674D01*
X235583Y147684D01*
X235650Y147763D01*
X235722Y147838D01*
X235730Y147856D01*
X235743Y147871D01*
X235782Y147967D01*
X235825Y148061D01*
X235827Y148081D01*
X235835Y148099D01*
X235853Y148266D01*
X235853Y169234D01*
X235850Y169254D01*
X235852Y169273D01*
X235830Y169375D01*
X235814Y169477D01*
X235804Y169494D01*
X235800Y169514D01*
X235747Y169603D01*
X235698Y169694D01*
X235684Y169708D01*
X235674Y169725D01*
X235595Y169792D01*
X235520Y169864D01*
X235502Y169872D01*
X235487Y169885D01*
X235391Y169924D01*
X235297Y169967D01*
X235277Y169969D01*
X235259Y169977D01*
X235092Y169995D01*
X224100Y169995D01*
X224010Y169981D01*
X223919Y169973D01*
X223889Y169961D01*
X223857Y169956D01*
X223777Y169913D01*
X223693Y169877D01*
X223661Y169851D01*
X223640Y169840D01*
X223618Y169817D01*
X223562Y169772D01*
X221570Y167780D01*
X221517Y167706D01*
X221457Y167637D01*
X221445Y167607D01*
X221426Y167581D01*
X221399Y167494D01*
X221365Y167409D01*
X221361Y167368D01*
X221354Y167345D01*
X221355Y167313D01*
X221347Y167242D01*
X221347Y148266D01*
X221350Y148246D01*
X221348Y148227D01*
X221370Y148125D01*
X221387Y148023D01*
X221396Y148006D01*
X221400Y147986D01*
X221453Y147897D01*
X221502Y147806D01*
X221516Y147792D01*
X221526Y147775D01*
X221605Y147708D01*
X221680Y147637D01*
X221698Y147628D01*
X221713Y147615D01*
X221809Y147576D01*
X221903Y147533D01*
X221923Y147531D01*
X221941Y147523D01*
X222108Y147505D01*
X235092Y147505D01*
X235112Y147508D01*
G37*
%LPC*%
G36*
X66484Y123634D02*
X66484Y123634D01*
X66484Y132208D01*
X73427Y132208D01*
X75223Y131923D01*
X76954Y131361D01*
X78575Y130535D01*
X80046Y129466D01*
X81333Y128179D01*
X82402Y126708D01*
X83228Y125087D01*
X83700Y123634D01*
X66484Y123634D01*
G37*
%LPD*%
%LPC*%
G36*
X43300Y123634D02*
X43300Y123634D01*
X43772Y125087D01*
X44598Y126708D01*
X45667Y128179D01*
X46954Y129466D01*
X48425Y130535D01*
X50046Y131361D01*
X51777Y131923D01*
X53573Y132208D01*
X60516Y132208D01*
X60516Y123634D01*
X43300Y123634D01*
G37*
%LPD*%
%LPC*%
G36*
X66484Y109092D02*
X66484Y109092D01*
X66484Y117666D01*
X83700Y117666D01*
X83228Y116213D01*
X82402Y114592D01*
X81333Y113121D01*
X80046Y111834D01*
X78575Y110765D01*
X76954Y109939D01*
X75223Y109377D01*
X73427Y109092D01*
X66484Y109092D01*
G37*
%LPD*%
%LPC*%
G36*
X53573Y109092D02*
X53573Y109092D01*
X51777Y109377D01*
X50046Y109939D01*
X48425Y110765D01*
X46954Y111834D01*
X45667Y113121D01*
X44598Y114592D01*
X43772Y116213D01*
X43300Y117666D01*
X60516Y117666D01*
X60516Y109092D01*
X53573Y109092D01*
G37*
%LPD*%
%LPC*%
G36*
X370331Y116331D02*
X370331Y116331D01*
X370331Y123953D01*
X372298Y123953D01*
X377953Y118298D01*
X377953Y116331D01*
X370331Y116331D01*
G37*
%LPD*%
%LPC*%
G36*
X358647Y116331D02*
X358647Y116331D01*
X358647Y118298D01*
X364302Y123953D01*
X366269Y123953D01*
X366269Y116331D01*
X358647Y116331D01*
G37*
%LPD*%
%LPC*%
G36*
X370331Y104647D02*
X370331Y104647D01*
X370331Y112269D01*
X377953Y112269D01*
X377953Y110302D01*
X372298Y104647D01*
X370331Y104647D01*
G37*
%LPD*%
%LPC*%
G36*
X364302Y104647D02*
X364302Y104647D01*
X358647Y110302D01*
X358647Y112269D01*
X366269Y112269D01*
X366269Y104647D01*
X364302Y104647D01*
G37*
%LPD*%
G36*
X216752Y145812D02*
X216752Y145812D01*
X216843Y145819D01*
X216873Y145831D01*
X216905Y145837D01*
X216985Y145879D01*
X217069Y145915D01*
X217101Y145941D01*
X217122Y145952D01*
X217144Y145975D01*
X217200Y146020D01*
X218216Y147036D01*
X218269Y147110D01*
X218329Y147179D01*
X218341Y147209D01*
X218360Y147235D01*
X218387Y147322D01*
X218421Y147407D01*
X218425Y147448D01*
X218432Y147471D01*
X218431Y147503D01*
X218439Y147574D01*
X218439Y149860D01*
X218425Y149950D01*
X218417Y150041D01*
X218405Y150071D01*
X218400Y150103D01*
X218357Y150183D01*
X218321Y150267D01*
X218295Y150299D01*
X218284Y150320D01*
X218261Y150342D01*
X218216Y150398D01*
X217200Y151414D01*
X217126Y151467D01*
X217057Y151527D01*
X217027Y151539D01*
X217001Y151558D01*
X216914Y151585D01*
X216829Y151619D01*
X216788Y151623D01*
X216765Y151630D01*
X216733Y151629D01*
X216662Y151637D01*
X211582Y151637D01*
X211562Y151634D01*
X211543Y151636D01*
X211441Y151614D01*
X211339Y151598D01*
X211322Y151588D01*
X211302Y151584D01*
X211213Y151531D01*
X211122Y151482D01*
X211108Y151468D01*
X211091Y151458D01*
X211024Y151379D01*
X210953Y151304D01*
X210944Y151286D01*
X210931Y151271D01*
X210892Y151175D01*
X210849Y151081D01*
X210847Y151061D01*
X210839Y151043D01*
X210821Y150876D01*
X210821Y146558D01*
X210824Y146538D01*
X210822Y146519D01*
X210844Y146417D01*
X210861Y146315D01*
X210870Y146298D01*
X210874Y146278D01*
X210927Y146189D01*
X210976Y146098D01*
X210990Y146084D01*
X211000Y146067D01*
X211079Y146000D01*
X211154Y145929D01*
X211172Y145920D01*
X211187Y145907D01*
X211283Y145868D01*
X211377Y145825D01*
X211397Y145823D01*
X211415Y145815D01*
X211582Y145797D01*
X216662Y145797D01*
X216752Y145812D01*
G37*
G36*
X216498Y165878D02*
X216498Y165878D01*
X216589Y165885D01*
X216619Y165897D01*
X216651Y165903D01*
X216731Y165945D01*
X216815Y165981D01*
X216847Y166007D01*
X216868Y166018D01*
X216890Y166041D01*
X216946Y166086D01*
X217962Y167102D01*
X218015Y167176D01*
X218075Y167245D01*
X218087Y167275D01*
X218106Y167301D01*
X218133Y167388D01*
X218167Y167473D01*
X218171Y167514D01*
X218178Y167537D01*
X218177Y167569D01*
X218185Y167640D01*
X218185Y170180D01*
X218171Y170270D01*
X218163Y170361D01*
X218151Y170391D01*
X218146Y170423D01*
X218103Y170503D01*
X218067Y170587D01*
X218041Y170619D01*
X218030Y170640D01*
X218007Y170662D01*
X217962Y170718D01*
X217200Y171480D01*
X217126Y171533D01*
X217057Y171593D01*
X217027Y171605D01*
X217001Y171624D01*
X216914Y171651D01*
X216829Y171685D01*
X216788Y171689D01*
X216765Y171696D01*
X216733Y171695D01*
X216662Y171703D01*
X211582Y171703D01*
X211562Y171700D01*
X211543Y171702D01*
X211441Y171680D01*
X211339Y171664D01*
X211322Y171654D01*
X211302Y171650D01*
X211213Y171597D01*
X211122Y171548D01*
X211108Y171534D01*
X211091Y171524D01*
X211024Y171445D01*
X210953Y171370D01*
X210944Y171352D01*
X210931Y171337D01*
X210892Y171241D01*
X210849Y171147D01*
X210847Y171127D01*
X210839Y171109D01*
X210821Y170942D01*
X210821Y166624D01*
X210824Y166604D01*
X210822Y166585D01*
X210844Y166483D01*
X210861Y166381D01*
X210870Y166364D01*
X210874Y166344D01*
X210927Y166255D01*
X210976Y166164D01*
X210990Y166150D01*
X211000Y166133D01*
X211079Y166066D01*
X211154Y165995D01*
X211172Y165986D01*
X211187Y165973D01*
X211283Y165934D01*
X211377Y165891D01*
X211397Y165889D01*
X211415Y165881D01*
X211582Y165863D01*
X216408Y165863D01*
X216498Y165878D01*
G37*
%LPC*%
G36*
X159259Y123697D02*
X159259Y123697D01*
X159259Y128485D01*
X159432Y129131D01*
X159767Y129710D01*
X160240Y130183D01*
X160819Y130518D01*
X161465Y130691D01*
X165253Y130691D01*
X165253Y123697D01*
X159259Y123697D01*
G37*
%LPD*%
G36*
X245638Y145800D02*
X245638Y145800D01*
X245657Y145798D01*
X245759Y145820D01*
X245861Y145837D01*
X245878Y145846D01*
X245898Y145850D01*
X245987Y145903D01*
X246078Y145952D01*
X246092Y145966D01*
X246109Y145976D01*
X246176Y146055D01*
X246248Y146130D01*
X246256Y146148D01*
X246269Y146163D01*
X246308Y146259D01*
X246351Y146353D01*
X246353Y146373D01*
X246361Y146391D01*
X246379Y146558D01*
X246379Y150876D01*
X246376Y150896D01*
X246378Y150915D01*
X246356Y151017D01*
X246340Y151119D01*
X246330Y151136D01*
X246326Y151156D01*
X246273Y151245D01*
X246224Y151336D01*
X246210Y151350D01*
X246200Y151367D01*
X246121Y151434D01*
X246046Y151506D01*
X246028Y151514D01*
X246013Y151527D01*
X245917Y151566D01*
X245823Y151609D01*
X245803Y151611D01*
X245785Y151619D01*
X245618Y151637D01*
X240792Y151637D01*
X240702Y151623D01*
X240611Y151615D01*
X240581Y151603D01*
X240549Y151598D01*
X240469Y151555D01*
X240385Y151519D01*
X240353Y151493D01*
X240332Y151482D01*
X240310Y151459D01*
X240254Y151414D01*
X239238Y150398D01*
X239185Y150324D01*
X239125Y150255D01*
X239113Y150225D01*
X239094Y150199D01*
X239067Y150112D01*
X239033Y150027D01*
X239029Y149986D01*
X239022Y149963D01*
X239023Y149931D01*
X239015Y149860D01*
X239015Y147574D01*
X239030Y147484D01*
X239037Y147393D01*
X239049Y147363D01*
X239055Y147331D01*
X239097Y147251D01*
X239133Y147167D01*
X239159Y147135D01*
X239170Y147114D01*
X239193Y147092D01*
X239238Y147036D01*
X240254Y146020D01*
X240328Y145967D01*
X240397Y145907D01*
X240427Y145895D01*
X240453Y145876D01*
X240540Y145849D01*
X240625Y145815D01*
X240666Y145811D01*
X240689Y145804D01*
X240721Y145805D01*
X240792Y145797D01*
X245618Y145797D01*
X245638Y145800D01*
G37*
G36*
X216752Y155972D02*
X216752Y155972D01*
X216843Y155979D01*
X216873Y155991D01*
X216905Y155997D01*
X216985Y156039D01*
X217069Y156075D01*
X217101Y156101D01*
X217122Y156112D01*
X217144Y156135D01*
X217200Y156180D01*
X217962Y156942D01*
X218004Y157000D01*
X218053Y157051D01*
X218061Y157069D01*
X218075Y157085D01*
X218087Y157115D01*
X218106Y157141D01*
X218128Y157212D01*
X218156Y157274D01*
X218158Y157292D01*
X218167Y157313D01*
X218171Y157354D01*
X218178Y157377D01*
X218177Y157409D01*
X218185Y157480D01*
X218185Y160020D01*
X218171Y160110D01*
X218163Y160201D01*
X218151Y160231D01*
X218146Y160263D01*
X218103Y160343D01*
X218067Y160427D01*
X218041Y160459D01*
X218030Y160480D01*
X218007Y160502D01*
X217962Y160558D01*
X217200Y161320D01*
X217126Y161373D01*
X217057Y161433D01*
X217027Y161445D01*
X217001Y161464D01*
X216914Y161491D01*
X216829Y161525D01*
X216788Y161529D01*
X216765Y161536D01*
X216733Y161535D01*
X216662Y161543D01*
X211582Y161543D01*
X211562Y161540D01*
X211543Y161542D01*
X211441Y161520D01*
X211339Y161504D01*
X211322Y161494D01*
X211302Y161490D01*
X211213Y161437D01*
X211122Y161388D01*
X211108Y161374D01*
X211091Y161364D01*
X211024Y161285D01*
X210953Y161210D01*
X210944Y161192D01*
X210931Y161177D01*
X210892Y161081D01*
X210849Y160987D01*
X210847Y160967D01*
X210839Y160949D01*
X210821Y160782D01*
X210821Y156718D01*
X210824Y156698D01*
X210822Y156679D01*
X210844Y156577D01*
X210861Y156475D01*
X210870Y156458D01*
X210874Y156438D01*
X210927Y156349D01*
X210976Y156258D01*
X210990Y156244D01*
X211000Y156227D01*
X211079Y156160D01*
X211154Y156089D01*
X211172Y156080D01*
X211187Y156067D01*
X211283Y156028D01*
X211377Y155985D01*
X211397Y155983D01*
X211415Y155975D01*
X211582Y155957D01*
X216662Y155957D01*
X216752Y155972D01*
G37*
G36*
X245638Y155960D02*
X245638Y155960D01*
X245657Y155958D01*
X245759Y155980D01*
X245861Y155997D01*
X245878Y156006D01*
X245898Y156010D01*
X245987Y156063D01*
X246078Y156112D01*
X246092Y156126D01*
X246109Y156136D01*
X246176Y156215D01*
X246248Y156290D01*
X246256Y156308D01*
X246269Y156323D01*
X246308Y156419D01*
X246351Y156513D01*
X246353Y156533D01*
X246361Y156551D01*
X246379Y156718D01*
X246379Y160782D01*
X246376Y160802D01*
X246378Y160821D01*
X246356Y160923D01*
X246340Y161025D01*
X246330Y161042D01*
X246326Y161062D01*
X246273Y161151D01*
X246224Y161242D01*
X246210Y161256D01*
X246200Y161273D01*
X246121Y161340D01*
X246046Y161412D01*
X246028Y161420D01*
X246013Y161433D01*
X245917Y161472D01*
X245823Y161515D01*
X245803Y161517D01*
X245785Y161525D01*
X245618Y161543D01*
X240792Y161543D01*
X240702Y161529D01*
X240611Y161521D01*
X240581Y161509D01*
X240549Y161504D01*
X240469Y161461D01*
X240385Y161425D01*
X240353Y161399D01*
X240332Y161388D01*
X240310Y161365D01*
X240254Y161320D01*
X239238Y160304D01*
X239187Y160234D01*
X239147Y160191D01*
X239141Y160180D01*
X239125Y160161D01*
X239113Y160131D01*
X239094Y160105D01*
X239070Y160027D01*
X239043Y159968D01*
X239041Y159952D01*
X239033Y159933D01*
X239029Y159892D01*
X239022Y159869D01*
X239023Y159837D01*
X239015Y159766D01*
X239015Y157734D01*
X239030Y157644D01*
X239037Y157553D01*
X239049Y157523D01*
X239055Y157491D01*
X239097Y157411D01*
X239133Y157327D01*
X239159Y157295D01*
X239170Y157274D01*
X239193Y157252D01*
X239238Y157196D01*
X240254Y156180D01*
X240328Y156127D01*
X240397Y156067D01*
X240427Y156055D01*
X240453Y156036D01*
X240540Y156009D01*
X240625Y155975D01*
X240666Y155971D01*
X240689Y155964D01*
X240721Y155965D01*
X240792Y155957D01*
X245618Y155957D01*
X245638Y155960D01*
G37*
G36*
X245638Y166120D02*
X245638Y166120D01*
X245657Y166118D01*
X245759Y166140D01*
X245861Y166157D01*
X245878Y166166D01*
X245898Y166170D01*
X245987Y166223D01*
X246078Y166272D01*
X246092Y166286D01*
X246109Y166296D01*
X246176Y166375D01*
X246248Y166450D01*
X246256Y166468D01*
X246269Y166483D01*
X246308Y166579D01*
X246351Y166673D01*
X246353Y166693D01*
X246361Y166711D01*
X246379Y166878D01*
X246379Y170688D01*
X246376Y170706D01*
X246378Y170724D01*
X246378Y170725D01*
X246378Y170727D01*
X246356Y170829D01*
X246340Y170931D01*
X246330Y170948D01*
X246326Y170968D01*
X246273Y171057D01*
X246224Y171148D01*
X246210Y171162D01*
X246200Y171179D01*
X246121Y171246D01*
X246046Y171318D01*
X246028Y171326D01*
X246013Y171339D01*
X245917Y171378D01*
X245823Y171421D01*
X245803Y171423D01*
X245785Y171431D01*
X245618Y171449D01*
X240792Y171449D01*
X240702Y171435D01*
X240611Y171427D01*
X240581Y171415D01*
X240549Y171410D01*
X240469Y171367D01*
X240385Y171331D01*
X240353Y171305D01*
X240332Y171294D01*
X240329Y171291D01*
X240328Y171291D01*
X240309Y171270D01*
X240254Y171226D01*
X239238Y170210D01*
X239185Y170136D01*
X239125Y170067D01*
X239113Y170037D01*
X239094Y170011D01*
X239067Y169924D01*
X239033Y169839D01*
X239029Y169798D01*
X239022Y169775D01*
X239023Y169743D01*
X239015Y169672D01*
X239015Y167640D01*
X239018Y167617D01*
X239017Y167600D01*
X239031Y167535D01*
X239037Y167459D01*
X239049Y167429D01*
X239055Y167397D01*
X239065Y167378D01*
X239069Y167359D01*
X239104Y167300D01*
X239133Y167233D01*
X239159Y167201D01*
X239170Y167180D01*
X239185Y167166D01*
X239195Y167148D01*
X239212Y167134D01*
X239238Y167102D01*
X240000Y166340D01*
X240074Y166287D01*
X240143Y166227D01*
X240173Y166215D01*
X240199Y166196D01*
X240286Y166169D01*
X240371Y166135D01*
X240412Y166131D01*
X240435Y166124D01*
X240467Y166125D01*
X240538Y166117D01*
X245618Y166117D01*
X245638Y166120D01*
G37*
%LPC*%
G36*
X262849Y176099D02*
X262849Y176099D01*
X262849Y181641D01*
X265685Y181641D01*
X266331Y181468D01*
X266910Y181133D01*
X267383Y180660D01*
X267718Y180081D01*
X267891Y179435D01*
X267891Y176099D01*
X262849Y176099D01*
G37*
%LPD*%
%LPC*%
G36*
X176099Y192999D02*
X176099Y192999D01*
X176099Y198041D01*
X179435Y198041D01*
X180081Y197868D01*
X180660Y197533D01*
X181133Y197060D01*
X181468Y196481D01*
X181641Y195835D01*
X181641Y192999D01*
X176099Y192999D01*
G37*
%LPD*%
%LPC*%
G36*
X176099Y182959D02*
X176099Y182959D01*
X176099Y188001D01*
X181641Y188001D01*
X181641Y185165D01*
X181468Y184519D01*
X181133Y183940D01*
X180660Y183467D01*
X180081Y183132D01*
X179435Y182959D01*
X176099Y182959D01*
G37*
%LPD*%
%LPC*%
G36*
X252809Y176099D02*
X252809Y176099D01*
X252809Y179435D01*
X252982Y180081D01*
X253317Y180660D01*
X253790Y181133D01*
X254369Y181468D01*
X255015Y181641D01*
X257851Y181641D01*
X257851Y176099D01*
X252809Y176099D01*
G37*
%LPD*%
%LPC*%
G36*
X217423Y52323D02*
X217423Y52323D01*
X217423Y56146D01*
X217516Y56128D01*
X218525Y55710D01*
X219432Y55104D01*
X220204Y54332D01*
X220810Y53425D01*
X221228Y52416D01*
X221246Y52323D01*
X217423Y52323D01*
G37*
%LPD*%
%LPC*%
G36*
X210554Y52323D02*
X210554Y52323D01*
X210572Y52416D01*
X210990Y53425D01*
X211596Y54332D01*
X212368Y55104D01*
X213275Y55710D01*
X214284Y56128D01*
X214377Y56146D01*
X214377Y52323D01*
X210554Y52323D01*
G37*
%LPD*%
%LPC*%
G36*
X217423Y49277D02*
X217423Y49277D01*
X221246Y49277D01*
X221228Y49184D01*
X220810Y48175D01*
X220204Y47268D01*
X219432Y46496D01*
X218525Y45890D01*
X217516Y45472D01*
X217423Y45454D01*
X217423Y49277D01*
G37*
%LPD*%
%LPC*%
G36*
X214284Y45472D02*
X214284Y45472D01*
X213275Y45890D01*
X212368Y46496D01*
X211596Y47268D01*
X210990Y48175D01*
X210572Y49184D01*
X210554Y49277D01*
X214377Y49277D01*
X214377Y45454D01*
X214284Y45472D01*
G37*
%LPD*%
D10*
X156600Y190500D03*
X173600Y190500D03*
D11*
X260350Y156600D03*
X260350Y173600D03*
D12*
X187300Y120650D03*
X168300Y120650D03*
D13*
X139700Y166620D03*
X139700Y138180D03*
D14*
X146050Y247650D03*
X215900Y247650D03*
X215900Y50800D03*
X146050Y50800D03*
D15*
X214600Y168750D03*
X214600Y158750D03*
X214600Y148750D03*
X242600Y148750D03*
X242600Y158750D03*
X242600Y168750D03*
D16*
X228600Y158750D03*
D17*
X167300Y158750D03*
X188300Y158750D03*
X167300Y164750D03*
X167300Y170750D03*
X167300Y152750D03*
X167300Y146750D03*
X188300Y146750D03*
X188300Y152750D03*
X188300Y164750D03*
X188300Y170750D03*
X177800Y158750D03*
D18*
X298450Y152400D03*
X298450Y50800D03*
D19*
X368300Y88900D03*
X368300Y114300D03*
D20*
X72517Y69850D02*
X54483Y69850D01*
X54483Y120650D02*
X72517Y120650D01*
X72517Y177800D02*
X54483Y177800D01*
X54483Y228600D02*
X72517Y228600D01*
D21*
X167300Y152750D02*
X167300Y146750D01*
X141220Y166620D02*
X139700Y166620D01*
X139700Y190500D01*
X156600Y190500D01*
X158319Y165118D01*
X167300Y164750D01*
D22*
X139700Y114300D03*
D23*
X139700Y138180D01*
D22*
X273050Y152400D03*
D21*
X187300Y145686D02*
X187300Y120650D01*
X187300Y145686D02*
X188300Y146686D01*
X260350Y156600D02*
X261602Y156186D01*
X273050Y152400D01*
X261602Y156186D02*
X242600Y158750D01*
X273050Y152400D02*
X298450Y152400D01*
X127000Y69850D02*
X63500Y69850D01*
X127000Y69850D02*
X146050Y50800D01*
X160117Y109086D02*
X176483Y109086D01*
X178864Y111467D01*
X154903Y114300D02*
X139700Y114300D01*
X178864Y112214D02*
X178864Y111467D01*
X178864Y112214D02*
X187300Y120650D01*
X160117Y109086D02*
X154903Y114300D01*
X188300Y164750D02*
X203202Y164939D01*
X207994Y165000D01*
X214600Y168750D01*
D22*
X203202Y164939D03*
D21*
X120650Y234950D02*
X63500Y177800D01*
X203200Y234950D02*
X215900Y247650D01*
X203200Y234950D02*
X120650Y234950D01*
X188300Y170750D02*
X195350Y177800D01*
X242600Y177800D02*
X242600Y168750D01*
X203200Y177800D02*
X195350Y177800D01*
X203200Y177800D02*
X242600Y177800D01*
D22*
X203200Y177800D03*
D21*
X88900Y247650D02*
X63500Y228600D01*
X88900Y247650D02*
X146050Y247650D01*
X177697Y158750D02*
X177800Y158750D01*
X177697Y158750D02*
X174364Y162083D01*
X183697Y152750D02*
X188300Y152750D01*
X183697Y152750D02*
X177697Y158750D01*
X210242Y158750D02*
X214600Y158750D01*
X210242Y158750D02*
X207077Y155585D01*
X203200Y155585D01*
X129002Y150244D02*
X126621Y147863D01*
X129002Y150244D02*
X150398Y150244D01*
X137273Y103498D02*
X189895Y103498D01*
X137273Y103498D02*
X126621Y114150D01*
X126621Y147863D01*
X176736Y145933D02*
X183553Y152750D01*
X176736Y145933D02*
X176736Y123906D01*
X150398Y150244D01*
X189895Y103498D02*
X203200Y116803D01*
X203200Y152400D02*
X203200Y155585D01*
X203200Y152400D02*
X203200Y116803D01*
X188650Y152400D02*
X188300Y152750D01*
X188650Y152400D02*
X203200Y152400D01*
X330200Y50800D02*
X368300Y88900D01*
X330200Y50800D02*
X298450Y50800D01*
M02*
