G04 EAGLE Gerber RS-274X export*
G75*
%MOMM*%
%FSLAX34Y34*%
%LPD*%
%INSilkscreen Top*%
%IPPOS*%
%AMOC8*
5,1,8,0,0,1.08239X$1,22.5*%
G01*
%ADD10C,0.152400*%
%ADD11C,0.050800*%
%ADD12C,0.200000*%
%ADD13C,0.508000*%
%ADD14R,0.609600X0.863600*%
%ADD15C,0.127000*%
%ADD16C,0.203200*%
%ADD17C,0.254000*%


D10*
X129616Y57048D02*
X129616Y241198D01*
X265506Y241198D01*
X256616Y57048D02*
X129616Y57048D01*
X116916Y44348D02*
X278206Y44348D01*
X116916Y44348D02*
X116916Y253898D01*
X279476Y253898D01*
D11*
X232881Y245573D02*
X232879Y245495D01*
X232873Y245418D01*
X232864Y245341D01*
X232851Y245265D01*
X232834Y245189D01*
X232813Y245114D01*
X232789Y245041D01*
X232761Y244968D01*
X232729Y244897D01*
X232694Y244828D01*
X232656Y244761D01*
X232615Y244695D01*
X232570Y244632D01*
X232522Y244571D01*
X232472Y244512D01*
X232418Y244456D01*
X232362Y244402D01*
X232303Y244352D01*
X232242Y244304D01*
X232179Y244259D01*
X232113Y244218D01*
X232046Y244180D01*
X231977Y244145D01*
X231906Y244113D01*
X231833Y244085D01*
X231760Y244061D01*
X231685Y244040D01*
X231609Y244023D01*
X231533Y244010D01*
X231456Y244001D01*
X231379Y243995D01*
X231301Y243993D01*
X231301Y243992D02*
X231186Y243994D01*
X231072Y244000D01*
X230958Y244010D01*
X230844Y244023D01*
X230731Y244041D01*
X230618Y244063D01*
X230506Y244088D01*
X230396Y244117D01*
X230286Y244150D01*
X230177Y244187D01*
X230070Y244227D01*
X229964Y244271D01*
X229860Y244319D01*
X229757Y244370D01*
X229657Y244425D01*
X229558Y244483D01*
X229461Y244545D01*
X229367Y244609D01*
X229274Y244677D01*
X229184Y244749D01*
X229097Y244823D01*
X229012Y244900D01*
X228930Y244980D01*
X229128Y249524D02*
X229130Y249602D01*
X229136Y249679D01*
X229145Y249756D01*
X229158Y249832D01*
X229175Y249908D01*
X229196Y249983D01*
X229220Y250056D01*
X229248Y250129D01*
X229280Y250200D01*
X229315Y250269D01*
X229353Y250336D01*
X229394Y250402D01*
X229439Y250465D01*
X229487Y250526D01*
X229537Y250585D01*
X229591Y250641D01*
X229647Y250695D01*
X229706Y250745D01*
X229767Y250793D01*
X229830Y250838D01*
X229896Y250879D01*
X229963Y250917D01*
X230032Y250952D01*
X230103Y250984D01*
X230176Y251012D01*
X230249Y251036D01*
X230324Y251057D01*
X230400Y251074D01*
X230476Y251087D01*
X230553Y251096D01*
X230631Y251102D01*
X230708Y251104D01*
X230814Y251102D01*
X230920Y251096D01*
X231025Y251087D01*
X231130Y251074D01*
X231235Y251057D01*
X231339Y251036D01*
X231442Y251012D01*
X231544Y250984D01*
X231645Y250952D01*
X231745Y250917D01*
X231843Y250878D01*
X231941Y250835D01*
X232036Y250790D01*
X232130Y250741D01*
X232222Y250688D01*
X232312Y250632D01*
X232400Y250573D01*
X232486Y250511D01*
X229918Y248141D02*
X229851Y248183D01*
X229786Y248228D01*
X229723Y248277D01*
X229662Y248328D01*
X229605Y248383D01*
X229550Y248440D01*
X229497Y248500D01*
X229448Y248562D01*
X229402Y248627D01*
X229360Y248693D01*
X229320Y248762D01*
X229284Y248833D01*
X229252Y248906D01*
X229223Y248980D01*
X229198Y249055D01*
X229177Y249131D01*
X229159Y249209D01*
X229146Y249287D01*
X229136Y249366D01*
X229130Y249445D01*
X229128Y249524D01*
X232091Y246956D02*
X232158Y246914D01*
X232223Y246869D01*
X232286Y246820D01*
X232347Y246769D01*
X232404Y246714D01*
X232459Y246657D01*
X232512Y246597D01*
X232561Y246535D01*
X232607Y246470D01*
X232649Y246404D01*
X232689Y246335D01*
X232725Y246264D01*
X232757Y246191D01*
X232786Y246117D01*
X232811Y246042D01*
X232832Y245966D01*
X232850Y245888D01*
X232863Y245810D01*
X232873Y245731D01*
X232879Y245652D01*
X232881Y245573D01*
X232091Y246956D02*
X229918Y248141D01*
X235788Y251104D02*
X235788Y243992D01*
X235788Y251104D02*
X237764Y251104D01*
X237764Y251105D02*
X237850Y251103D01*
X237936Y251097D01*
X238022Y251088D01*
X238107Y251075D01*
X238192Y251058D01*
X238275Y251038D01*
X238358Y251014D01*
X238440Y250986D01*
X238520Y250955D01*
X238599Y250920D01*
X238676Y250882D01*
X238752Y250840D01*
X238826Y250796D01*
X238897Y250748D01*
X238967Y250697D01*
X239034Y250643D01*
X239099Y250586D01*
X239161Y250526D01*
X239221Y250464D01*
X239278Y250399D01*
X239332Y250332D01*
X239383Y250262D01*
X239431Y250191D01*
X239475Y250117D01*
X239517Y250041D01*
X239555Y249964D01*
X239590Y249885D01*
X239621Y249805D01*
X239649Y249723D01*
X239673Y249640D01*
X239693Y249557D01*
X239710Y249472D01*
X239723Y249387D01*
X239732Y249301D01*
X239738Y249215D01*
X239740Y249129D01*
X239739Y249129D02*
X239739Y245968D01*
X239740Y245968D02*
X239738Y245882D01*
X239732Y245796D01*
X239723Y245710D01*
X239710Y245625D01*
X239693Y245540D01*
X239673Y245457D01*
X239649Y245374D01*
X239621Y245292D01*
X239590Y245212D01*
X239555Y245133D01*
X239517Y245056D01*
X239475Y244980D01*
X239431Y244906D01*
X239383Y244835D01*
X239332Y244765D01*
X239278Y244698D01*
X239221Y244633D01*
X239161Y244571D01*
X239099Y244511D01*
X239034Y244454D01*
X238967Y244400D01*
X238897Y244349D01*
X238826Y244301D01*
X238752Y244257D01*
X238676Y244215D01*
X238599Y244177D01*
X238520Y244142D01*
X238440Y244111D01*
X238358Y244083D01*
X238275Y244059D01*
X238192Y244039D01*
X238107Y244022D01*
X238022Y244009D01*
X237936Y244000D01*
X237850Y243994D01*
X237764Y243992D01*
X235788Y243992D01*
X242480Y243992D02*
X244850Y251104D01*
X247221Y243992D01*
X246628Y245770D02*
X243072Y245770D01*
X164301Y245573D02*
X164299Y245495D01*
X164293Y245418D01*
X164284Y245341D01*
X164271Y245265D01*
X164254Y245189D01*
X164233Y245114D01*
X164209Y245041D01*
X164181Y244968D01*
X164149Y244897D01*
X164114Y244828D01*
X164076Y244761D01*
X164035Y244695D01*
X163990Y244632D01*
X163942Y244571D01*
X163892Y244512D01*
X163838Y244456D01*
X163782Y244402D01*
X163723Y244352D01*
X163662Y244304D01*
X163599Y244259D01*
X163533Y244218D01*
X163466Y244180D01*
X163397Y244145D01*
X163326Y244113D01*
X163253Y244085D01*
X163180Y244061D01*
X163105Y244040D01*
X163029Y244023D01*
X162953Y244010D01*
X162876Y244001D01*
X162799Y243995D01*
X162721Y243993D01*
X162721Y243992D02*
X162606Y243994D01*
X162492Y244000D01*
X162378Y244010D01*
X162264Y244023D01*
X162151Y244041D01*
X162038Y244063D01*
X161926Y244088D01*
X161816Y244117D01*
X161706Y244150D01*
X161597Y244187D01*
X161490Y244227D01*
X161384Y244271D01*
X161280Y244319D01*
X161177Y244370D01*
X161077Y244425D01*
X160978Y244483D01*
X160881Y244545D01*
X160787Y244609D01*
X160694Y244677D01*
X160604Y244749D01*
X160517Y244823D01*
X160432Y244900D01*
X160350Y244980D01*
X160548Y249524D02*
X160550Y249602D01*
X160556Y249679D01*
X160565Y249756D01*
X160578Y249832D01*
X160595Y249908D01*
X160616Y249983D01*
X160640Y250056D01*
X160668Y250129D01*
X160700Y250200D01*
X160735Y250269D01*
X160773Y250336D01*
X160814Y250402D01*
X160859Y250465D01*
X160907Y250526D01*
X160957Y250585D01*
X161011Y250641D01*
X161067Y250695D01*
X161126Y250745D01*
X161187Y250793D01*
X161250Y250838D01*
X161316Y250879D01*
X161383Y250917D01*
X161452Y250952D01*
X161523Y250984D01*
X161596Y251012D01*
X161669Y251036D01*
X161744Y251057D01*
X161820Y251074D01*
X161896Y251087D01*
X161973Y251096D01*
X162051Y251102D01*
X162128Y251104D01*
X162234Y251102D01*
X162340Y251096D01*
X162445Y251087D01*
X162550Y251074D01*
X162655Y251057D01*
X162759Y251036D01*
X162862Y251012D01*
X162964Y250984D01*
X163065Y250952D01*
X163165Y250917D01*
X163263Y250878D01*
X163361Y250835D01*
X163456Y250790D01*
X163550Y250741D01*
X163642Y250688D01*
X163732Y250632D01*
X163820Y250573D01*
X163906Y250511D01*
X161338Y248141D02*
X161271Y248183D01*
X161206Y248228D01*
X161143Y248277D01*
X161082Y248328D01*
X161025Y248383D01*
X160970Y248440D01*
X160917Y248500D01*
X160868Y248562D01*
X160822Y248627D01*
X160780Y248693D01*
X160740Y248762D01*
X160704Y248833D01*
X160672Y248906D01*
X160643Y248980D01*
X160618Y249055D01*
X160597Y249131D01*
X160579Y249209D01*
X160566Y249287D01*
X160556Y249366D01*
X160550Y249445D01*
X160548Y249524D01*
X163511Y246956D02*
X163578Y246914D01*
X163643Y246869D01*
X163706Y246820D01*
X163767Y246769D01*
X163824Y246714D01*
X163879Y246657D01*
X163932Y246597D01*
X163981Y246535D01*
X164027Y246470D01*
X164069Y246404D01*
X164109Y246335D01*
X164145Y246264D01*
X164177Y246191D01*
X164206Y246117D01*
X164231Y246042D01*
X164252Y245966D01*
X164270Y245888D01*
X164283Y245810D01*
X164293Y245731D01*
X164299Y245652D01*
X164301Y245573D01*
X163511Y246956D02*
X161338Y248141D01*
X168542Y243992D02*
X170122Y243992D01*
X168542Y243993D02*
X168464Y243995D01*
X168387Y244001D01*
X168310Y244010D01*
X168234Y244023D01*
X168158Y244040D01*
X168083Y244061D01*
X168010Y244085D01*
X167937Y244113D01*
X167866Y244145D01*
X167797Y244180D01*
X167730Y244218D01*
X167664Y244259D01*
X167601Y244304D01*
X167540Y244352D01*
X167481Y244402D01*
X167425Y244456D01*
X167371Y244512D01*
X167321Y244571D01*
X167273Y244632D01*
X167228Y244695D01*
X167187Y244761D01*
X167149Y244828D01*
X167114Y244897D01*
X167082Y244968D01*
X167054Y245041D01*
X167030Y245114D01*
X167009Y245189D01*
X166992Y245265D01*
X166979Y245341D01*
X166970Y245418D01*
X166964Y245495D01*
X166962Y245573D01*
X166961Y245573D02*
X166961Y249524D01*
X166962Y249524D02*
X166964Y249602D01*
X166970Y249679D01*
X166979Y249756D01*
X166992Y249832D01*
X167009Y249908D01*
X167030Y249983D01*
X167054Y250056D01*
X167082Y250129D01*
X167114Y250200D01*
X167149Y250269D01*
X167187Y250336D01*
X167228Y250402D01*
X167273Y250465D01*
X167321Y250526D01*
X167371Y250585D01*
X167425Y250641D01*
X167481Y250695D01*
X167540Y250745D01*
X167601Y250793D01*
X167664Y250838D01*
X167730Y250879D01*
X167797Y250917D01*
X167866Y250952D01*
X167937Y250984D01*
X168010Y251012D01*
X168083Y251036D01*
X168158Y251057D01*
X168234Y251074D01*
X168310Y251087D01*
X168387Y251096D01*
X168464Y251102D01*
X168542Y251104D01*
X170122Y251104D01*
X172936Y251104D02*
X172936Y243992D01*
X176096Y243992D01*
X236737Y51093D02*
X237922Y51093D01*
X237922Y47142D01*
X235551Y47142D01*
X235551Y47143D02*
X235473Y47145D01*
X235396Y47151D01*
X235319Y47160D01*
X235243Y47173D01*
X235167Y47190D01*
X235092Y47211D01*
X235019Y47235D01*
X234946Y47263D01*
X234875Y47295D01*
X234806Y47330D01*
X234739Y47368D01*
X234673Y47409D01*
X234610Y47454D01*
X234549Y47502D01*
X234490Y47552D01*
X234434Y47606D01*
X234380Y47662D01*
X234330Y47721D01*
X234282Y47782D01*
X234237Y47845D01*
X234196Y47911D01*
X234158Y47978D01*
X234123Y48047D01*
X234091Y48118D01*
X234063Y48191D01*
X234039Y48264D01*
X234018Y48339D01*
X234001Y48415D01*
X233988Y48491D01*
X233979Y48568D01*
X233973Y48645D01*
X233971Y48723D01*
X233971Y52674D01*
X233973Y52752D01*
X233979Y52829D01*
X233988Y52906D01*
X234001Y52982D01*
X234018Y53058D01*
X234039Y53133D01*
X234063Y53206D01*
X234091Y53279D01*
X234123Y53350D01*
X234158Y53419D01*
X234196Y53486D01*
X234237Y53552D01*
X234282Y53615D01*
X234330Y53676D01*
X234380Y53735D01*
X234434Y53791D01*
X234490Y53845D01*
X234549Y53895D01*
X234610Y53943D01*
X234673Y53988D01*
X234739Y54029D01*
X234806Y54067D01*
X234875Y54102D01*
X234946Y54134D01*
X235019Y54162D01*
X235092Y54186D01*
X235167Y54207D01*
X235243Y54224D01*
X235319Y54237D01*
X235396Y54246D01*
X235473Y54252D01*
X235551Y54254D01*
X237922Y54254D01*
X241286Y54254D02*
X241286Y47142D01*
X245237Y47142D02*
X241286Y54254D01*
X245237Y54254D02*
X245237Y47142D01*
X248601Y47142D02*
X248601Y54254D01*
X250577Y54254D01*
X250577Y54255D02*
X250663Y54253D01*
X250749Y54247D01*
X250835Y54238D01*
X250920Y54225D01*
X251005Y54208D01*
X251088Y54188D01*
X251171Y54164D01*
X251253Y54136D01*
X251333Y54105D01*
X251412Y54070D01*
X251489Y54032D01*
X251565Y53990D01*
X251639Y53946D01*
X251710Y53898D01*
X251780Y53847D01*
X251847Y53793D01*
X251912Y53736D01*
X251974Y53676D01*
X252034Y53614D01*
X252091Y53549D01*
X252145Y53482D01*
X252196Y53412D01*
X252244Y53341D01*
X252288Y53267D01*
X252330Y53191D01*
X252368Y53114D01*
X252403Y53035D01*
X252434Y52955D01*
X252462Y52873D01*
X252486Y52790D01*
X252506Y52707D01*
X252523Y52622D01*
X252536Y52537D01*
X252545Y52451D01*
X252551Y52365D01*
X252553Y52279D01*
X252552Y52279D02*
X252552Y49118D01*
X252553Y49118D02*
X252551Y49032D01*
X252545Y48946D01*
X252536Y48860D01*
X252523Y48775D01*
X252506Y48690D01*
X252486Y48607D01*
X252462Y48524D01*
X252434Y48442D01*
X252403Y48362D01*
X252368Y48283D01*
X252330Y48206D01*
X252288Y48130D01*
X252244Y48056D01*
X252196Y47985D01*
X252145Y47915D01*
X252091Y47848D01*
X252034Y47783D01*
X251974Y47721D01*
X251912Y47661D01*
X251847Y47604D01*
X251780Y47550D01*
X251710Y47499D01*
X251639Y47451D01*
X251565Y47407D01*
X251489Y47365D01*
X251412Y47327D01*
X251333Y47292D01*
X251253Y47261D01*
X251171Y47233D01*
X251088Y47209D01*
X251005Y47189D01*
X250920Y47172D01*
X250835Y47159D01*
X250749Y47150D01*
X250663Y47144D01*
X250577Y47142D01*
X248601Y47142D01*
D10*
X123266Y50698D02*
X123266Y62084D01*
X123266Y72084D02*
X123266Y83470D01*
X123266Y93470D02*
X123266Y104856D01*
X123266Y114856D02*
X123266Y126241D01*
X123266Y136241D02*
X123266Y147627D01*
X123266Y157627D02*
X123266Y169013D01*
X123266Y179013D02*
X123266Y190398D01*
D11*
X138130Y227482D02*
X139710Y227482D01*
X138130Y227483D02*
X138052Y227485D01*
X137975Y227491D01*
X137898Y227500D01*
X137822Y227513D01*
X137746Y227530D01*
X137671Y227551D01*
X137598Y227575D01*
X137525Y227603D01*
X137454Y227635D01*
X137385Y227670D01*
X137318Y227708D01*
X137252Y227749D01*
X137189Y227794D01*
X137128Y227842D01*
X137069Y227892D01*
X137013Y227946D01*
X136959Y228002D01*
X136909Y228061D01*
X136861Y228122D01*
X136816Y228185D01*
X136775Y228251D01*
X136737Y228318D01*
X136702Y228387D01*
X136670Y228458D01*
X136642Y228531D01*
X136618Y228604D01*
X136597Y228679D01*
X136580Y228755D01*
X136567Y228831D01*
X136558Y228908D01*
X136552Y228985D01*
X136550Y229063D01*
X136550Y233014D01*
X136552Y233092D01*
X136558Y233169D01*
X136567Y233246D01*
X136580Y233322D01*
X136597Y233398D01*
X136618Y233473D01*
X136642Y233546D01*
X136670Y233619D01*
X136702Y233690D01*
X136737Y233759D01*
X136775Y233826D01*
X136816Y233892D01*
X136861Y233955D01*
X136909Y234016D01*
X136959Y234075D01*
X137013Y234131D01*
X137069Y234185D01*
X137128Y234235D01*
X137189Y234283D01*
X137252Y234328D01*
X137318Y234369D01*
X137385Y234407D01*
X137454Y234442D01*
X137525Y234474D01*
X137598Y234502D01*
X137671Y234526D01*
X137746Y234547D01*
X137822Y234564D01*
X137898Y234577D01*
X137975Y234586D01*
X138052Y234592D01*
X138130Y234594D01*
X139710Y234594D01*
X143845Y227482D02*
X145425Y227482D01*
X143845Y227483D02*
X143767Y227485D01*
X143690Y227491D01*
X143613Y227500D01*
X143537Y227513D01*
X143461Y227530D01*
X143386Y227551D01*
X143313Y227575D01*
X143240Y227603D01*
X143169Y227635D01*
X143100Y227670D01*
X143033Y227708D01*
X142967Y227749D01*
X142904Y227794D01*
X142843Y227842D01*
X142784Y227892D01*
X142728Y227946D01*
X142674Y228002D01*
X142624Y228061D01*
X142576Y228122D01*
X142531Y228185D01*
X142490Y228251D01*
X142452Y228318D01*
X142417Y228387D01*
X142385Y228458D01*
X142357Y228531D01*
X142333Y228604D01*
X142312Y228679D01*
X142295Y228755D01*
X142282Y228831D01*
X142273Y228908D01*
X142267Y228985D01*
X142265Y229063D01*
X142265Y233014D01*
X142267Y233092D01*
X142273Y233169D01*
X142282Y233246D01*
X142295Y233322D01*
X142312Y233398D01*
X142333Y233473D01*
X142357Y233546D01*
X142385Y233619D01*
X142417Y233690D01*
X142452Y233759D01*
X142490Y233826D01*
X142531Y233892D01*
X142576Y233955D01*
X142624Y234016D01*
X142674Y234075D01*
X142728Y234131D01*
X142784Y234185D01*
X142843Y234235D01*
X142904Y234283D01*
X142967Y234328D01*
X143033Y234369D01*
X143100Y234407D01*
X143169Y234442D01*
X143240Y234474D01*
X143313Y234502D01*
X143386Y234526D01*
X143461Y234547D01*
X143537Y234564D01*
X143613Y234577D01*
X143690Y234586D01*
X143767Y234592D01*
X143845Y234594D01*
X145425Y234594D01*
X151720Y229063D02*
X151718Y228985D01*
X151712Y228908D01*
X151703Y228831D01*
X151690Y228755D01*
X151673Y228679D01*
X151652Y228604D01*
X151628Y228531D01*
X151600Y228458D01*
X151568Y228387D01*
X151533Y228318D01*
X151495Y228251D01*
X151454Y228185D01*
X151409Y228122D01*
X151361Y228061D01*
X151311Y228002D01*
X151257Y227946D01*
X151201Y227892D01*
X151142Y227842D01*
X151081Y227794D01*
X151018Y227749D01*
X150952Y227708D01*
X150885Y227670D01*
X150816Y227635D01*
X150745Y227603D01*
X150672Y227575D01*
X150599Y227551D01*
X150524Y227530D01*
X150448Y227513D01*
X150372Y227500D01*
X150295Y227491D01*
X150218Y227485D01*
X150140Y227483D01*
X150140Y227482D02*
X150025Y227484D01*
X149911Y227490D01*
X149797Y227500D01*
X149683Y227513D01*
X149570Y227531D01*
X149457Y227553D01*
X149345Y227578D01*
X149235Y227607D01*
X149125Y227640D01*
X149016Y227677D01*
X148909Y227717D01*
X148803Y227761D01*
X148699Y227809D01*
X148596Y227860D01*
X148496Y227915D01*
X148397Y227973D01*
X148300Y228035D01*
X148206Y228099D01*
X148113Y228167D01*
X148023Y228239D01*
X147936Y228313D01*
X147851Y228390D01*
X147769Y228470D01*
X147967Y233014D02*
X147969Y233092D01*
X147975Y233169D01*
X147984Y233246D01*
X147997Y233322D01*
X148014Y233398D01*
X148035Y233473D01*
X148059Y233546D01*
X148087Y233619D01*
X148119Y233690D01*
X148154Y233759D01*
X148192Y233826D01*
X148233Y233892D01*
X148278Y233955D01*
X148326Y234016D01*
X148376Y234075D01*
X148430Y234131D01*
X148486Y234185D01*
X148545Y234235D01*
X148606Y234283D01*
X148669Y234328D01*
X148735Y234369D01*
X148802Y234407D01*
X148871Y234442D01*
X148942Y234474D01*
X149015Y234502D01*
X149088Y234526D01*
X149163Y234547D01*
X149239Y234564D01*
X149315Y234577D01*
X149392Y234586D01*
X149470Y234592D01*
X149547Y234594D01*
X149653Y234592D01*
X149759Y234586D01*
X149864Y234577D01*
X149969Y234564D01*
X150074Y234547D01*
X150178Y234526D01*
X150281Y234502D01*
X150383Y234474D01*
X150484Y234442D01*
X150584Y234407D01*
X150682Y234368D01*
X150780Y234325D01*
X150875Y234280D01*
X150969Y234231D01*
X151061Y234178D01*
X151151Y234122D01*
X151239Y234063D01*
X151325Y234001D01*
X148757Y231631D02*
X148690Y231673D01*
X148625Y231718D01*
X148562Y231767D01*
X148501Y231818D01*
X148444Y231873D01*
X148389Y231930D01*
X148336Y231990D01*
X148287Y232052D01*
X148241Y232117D01*
X148199Y232183D01*
X148159Y232252D01*
X148123Y232323D01*
X148091Y232396D01*
X148062Y232470D01*
X148037Y232545D01*
X148016Y232621D01*
X147998Y232699D01*
X147985Y232777D01*
X147975Y232856D01*
X147969Y232935D01*
X147967Y233014D01*
X150930Y230446D02*
X150997Y230404D01*
X151062Y230359D01*
X151125Y230310D01*
X151186Y230259D01*
X151243Y230204D01*
X151298Y230147D01*
X151351Y230087D01*
X151400Y230025D01*
X151446Y229960D01*
X151488Y229894D01*
X151528Y229825D01*
X151564Y229754D01*
X151596Y229681D01*
X151625Y229607D01*
X151650Y229532D01*
X151671Y229456D01*
X151689Y229378D01*
X151702Y229300D01*
X151712Y229221D01*
X151718Y229142D01*
X151720Y229063D01*
X150930Y230446D02*
X148757Y231631D01*
X154398Y229458D02*
X154400Y229545D01*
X154406Y229633D01*
X154415Y229720D01*
X154429Y229806D01*
X154446Y229892D01*
X154467Y229976D01*
X154492Y230060D01*
X154521Y230143D01*
X154553Y230224D01*
X154588Y230304D01*
X154627Y230382D01*
X154670Y230459D01*
X154716Y230533D01*
X154765Y230605D01*
X154817Y230675D01*
X154873Y230743D01*
X154931Y230808D01*
X154992Y230871D01*
X155056Y230930D01*
X155123Y230987D01*
X155191Y231041D01*
X155263Y231092D01*
X155336Y231139D01*
X155411Y231184D01*
X155489Y231225D01*
X155568Y231262D01*
X155648Y231296D01*
X155730Y231326D01*
X155813Y231353D01*
X155898Y231376D01*
X155983Y231395D01*
X156069Y231410D01*
X156156Y231422D01*
X156243Y231430D01*
X156330Y231434D01*
X156418Y231434D01*
X156505Y231430D01*
X156592Y231422D01*
X156679Y231410D01*
X156765Y231395D01*
X156850Y231376D01*
X156935Y231353D01*
X157018Y231326D01*
X157100Y231296D01*
X157180Y231262D01*
X157259Y231225D01*
X157337Y231184D01*
X157412Y231139D01*
X157485Y231092D01*
X157557Y231041D01*
X157625Y230987D01*
X157692Y230930D01*
X157756Y230871D01*
X157817Y230808D01*
X157875Y230743D01*
X157931Y230675D01*
X157983Y230605D01*
X158032Y230533D01*
X158078Y230459D01*
X158121Y230382D01*
X158160Y230304D01*
X158195Y230224D01*
X158227Y230143D01*
X158256Y230060D01*
X158281Y229976D01*
X158302Y229892D01*
X158319Y229806D01*
X158333Y229720D01*
X158342Y229633D01*
X158348Y229545D01*
X158350Y229458D01*
X158348Y229371D01*
X158342Y229283D01*
X158333Y229196D01*
X158319Y229110D01*
X158302Y229024D01*
X158281Y228940D01*
X158256Y228856D01*
X158227Y228773D01*
X158195Y228692D01*
X158160Y228612D01*
X158121Y228534D01*
X158078Y228457D01*
X158032Y228383D01*
X157983Y228311D01*
X157931Y228241D01*
X157875Y228173D01*
X157817Y228108D01*
X157756Y228045D01*
X157692Y227986D01*
X157625Y227929D01*
X157557Y227875D01*
X157485Y227824D01*
X157412Y227777D01*
X157337Y227732D01*
X157259Y227691D01*
X157180Y227654D01*
X157100Y227620D01*
X157018Y227590D01*
X156935Y227563D01*
X156850Y227540D01*
X156765Y227521D01*
X156679Y227506D01*
X156592Y227494D01*
X156505Y227486D01*
X156418Y227482D01*
X156330Y227482D01*
X156243Y227486D01*
X156156Y227494D01*
X156069Y227506D01*
X155983Y227521D01*
X155898Y227540D01*
X155813Y227563D01*
X155730Y227590D01*
X155648Y227620D01*
X155568Y227654D01*
X155489Y227691D01*
X155411Y227732D01*
X155336Y227777D01*
X155263Y227824D01*
X155191Y227875D01*
X155123Y227929D01*
X155056Y227986D01*
X154992Y228045D01*
X154931Y228108D01*
X154873Y228173D01*
X154817Y228241D01*
X154765Y228311D01*
X154716Y228383D01*
X154670Y228457D01*
X154627Y228534D01*
X154588Y228612D01*
X154553Y228692D01*
X154521Y228773D01*
X154492Y228856D01*
X154467Y228940D01*
X154446Y229024D01*
X154429Y229110D01*
X154415Y229196D01*
X154406Y229283D01*
X154400Y229371D01*
X154398Y229458D01*
X154794Y233014D02*
X154796Y233093D01*
X154802Y233171D01*
X154812Y233249D01*
X154825Y233327D01*
X154843Y233404D01*
X154864Y233480D01*
X154889Y233554D01*
X154918Y233628D01*
X154950Y233700D01*
X154986Y233770D01*
X155026Y233838D01*
X155069Y233904D01*
X155115Y233968D01*
X155164Y234030D01*
X155216Y234089D01*
X155271Y234145D01*
X155329Y234199D01*
X155389Y234249D01*
X155452Y234297D01*
X155517Y234341D01*
X155584Y234382D01*
X155653Y234420D01*
X155724Y234454D01*
X155797Y234485D01*
X155871Y234512D01*
X155946Y234535D01*
X156022Y234554D01*
X156100Y234570D01*
X156178Y234582D01*
X156256Y234590D01*
X156335Y234594D01*
X156413Y234594D01*
X156492Y234590D01*
X156570Y234582D01*
X156648Y234570D01*
X156726Y234554D01*
X156802Y234535D01*
X156877Y234512D01*
X156951Y234485D01*
X157024Y234454D01*
X157095Y234420D01*
X157164Y234382D01*
X157231Y234341D01*
X157296Y234297D01*
X157359Y234249D01*
X157419Y234199D01*
X157477Y234145D01*
X157532Y234089D01*
X157584Y234030D01*
X157633Y233968D01*
X157679Y233904D01*
X157722Y233838D01*
X157762Y233770D01*
X157798Y233700D01*
X157830Y233628D01*
X157859Y233554D01*
X157884Y233480D01*
X157905Y233404D01*
X157923Y233327D01*
X157936Y233249D01*
X157946Y233171D01*
X157952Y233093D01*
X157954Y233014D01*
X157952Y232935D01*
X157946Y232857D01*
X157936Y232779D01*
X157923Y232701D01*
X157905Y232624D01*
X157884Y232548D01*
X157859Y232474D01*
X157830Y232400D01*
X157798Y232328D01*
X157762Y232258D01*
X157722Y232190D01*
X157679Y232124D01*
X157633Y232060D01*
X157584Y231998D01*
X157532Y231939D01*
X157477Y231883D01*
X157419Y231829D01*
X157359Y231779D01*
X157296Y231731D01*
X157231Y231687D01*
X157164Y231646D01*
X157095Y231608D01*
X157024Y231574D01*
X156951Y231543D01*
X156877Y231516D01*
X156802Y231493D01*
X156726Y231474D01*
X156648Y231458D01*
X156570Y231446D01*
X156492Y231438D01*
X156413Y231434D01*
X156335Y231434D01*
X156256Y231438D01*
X156178Y231446D01*
X156100Y231458D01*
X156022Y231474D01*
X155946Y231493D01*
X155871Y231516D01*
X155797Y231543D01*
X155724Y231574D01*
X155653Y231608D01*
X155584Y231646D01*
X155517Y231687D01*
X155452Y231731D01*
X155389Y231779D01*
X155329Y231829D01*
X155271Y231883D01*
X155216Y231939D01*
X155164Y231998D01*
X155115Y232060D01*
X155069Y232124D01*
X155026Y232190D01*
X154986Y232258D01*
X154950Y232328D01*
X154918Y232400D01*
X154889Y232474D01*
X154864Y232548D01*
X154843Y232624D01*
X154825Y232701D01*
X154812Y232779D01*
X154802Y232857D01*
X154796Y232935D01*
X154794Y233014D01*
X161257Y233014D02*
X163232Y234594D01*
X163232Y227482D01*
X161257Y227482D02*
X165208Y227482D01*
X168114Y233014D02*
X170090Y234594D01*
X170090Y227482D01*
X168114Y227482D02*
X172066Y227482D01*
X139710Y216052D02*
X138130Y216052D01*
X138130Y216053D02*
X138052Y216055D01*
X137975Y216061D01*
X137898Y216070D01*
X137822Y216083D01*
X137746Y216100D01*
X137671Y216121D01*
X137598Y216145D01*
X137525Y216173D01*
X137454Y216205D01*
X137385Y216240D01*
X137318Y216278D01*
X137252Y216319D01*
X137189Y216364D01*
X137128Y216412D01*
X137069Y216462D01*
X137013Y216516D01*
X136959Y216572D01*
X136909Y216631D01*
X136861Y216692D01*
X136816Y216755D01*
X136775Y216821D01*
X136737Y216888D01*
X136702Y216957D01*
X136670Y217028D01*
X136642Y217101D01*
X136618Y217174D01*
X136597Y217249D01*
X136580Y217325D01*
X136567Y217401D01*
X136558Y217478D01*
X136552Y217555D01*
X136550Y217633D01*
X136550Y221584D01*
X136552Y221662D01*
X136558Y221739D01*
X136567Y221816D01*
X136580Y221892D01*
X136597Y221968D01*
X136618Y222043D01*
X136642Y222116D01*
X136670Y222189D01*
X136702Y222260D01*
X136737Y222329D01*
X136775Y222396D01*
X136816Y222462D01*
X136861Y222525D01*
X136909Y222586D01*
X136959Y222645D01*
X137013Y222701D01*
X137069Y222755D01*
X137128Y222805D01*
X137189Y222853D01*
X137252Y222898D01*
X137318Y222939D01*
X137385Y222977D01*
X137454Y223012D01*
X137525Y223044D01*
X137598Y223072D01*
X137671Y223096D01*
X137746Y223117D01*
X137822Y223134D01*
X137898Y223147D01*
X137975Y223156D01*
X138052Y223162D01*
X138130Y223164D01*
X139710Y223164D01*
X142283Y221189D02*
X142283Y218028D01*
X142282Y221189D02*
X142284Y221276D01*
X142290Y221364D01*
X142299Y221451D01*
X142313Y221537D01*
X142330Y221623D01*
X142351Y221707D01*
X142376Y221791D01*
X142405Y221874D01*
X142437Y221955D01*
X142472Y222035D01*
X142511Y222113D01*
X142554Y222190D01*
X142600Y222264D01*
X142649Y222336D01*
X142701Y222406D01*
X142757Y222474D01*
X142815Y222539D01*
X142876Y222602D01*
X142940Y222661D01*
X143007Y222718D01*
X143075Y222772D01*
X143147Y222823D01*
X143220Y222870D01*
X143295Y222915D01*
X143373Y222956D01*
X143452Y222993D01*
X143532Y223027D01*
X143614Y223057D01*
X143697Y223084D01*
X143782Y223107D01*
X143867Y223126D01*
X143953Y223141D01*
X144040Y223153D01*
X144127Y223161D01*
X144214Y223165D01*
X144302Y223165D01*
X144389Y223161D01*
X144476Y223153D01*
X144563Y223141D01*
X144649Y223126D01*
X144734Y223107D01*
X144819Y223084D01*
X144902Y223057D01*
X144984Y223027D01*
X145064Y222993D01*
X145143Y222956D01*
X145221Y222915D01*
X145296Y222870D01*
X145369Y222823D01*
X145441Y222772D01*
X145509Y222718D01*
X145576Y222661D01*
X145640Y222602D01*
X145701Y222539D01*
X145759Y222474D01*
X145815Y222406D01*
X145867Y222336D01*
X145916Y222264D01*
X145962Y222190D01*
X146005Y222113D01*
X146044Y222035D01*
X146079Y221955D01*
X146111Y221874D01*
X146140Y221791D01*
X146165Y221707D01*
X146186Y221623D01*
X146203Y221537D01*
X146217Y221451D01*
X146226Y221364D01*
X146232Y221276D01*
X146234Y221189D01*
X146234Y218028D01*
X146232Y217941D01*
X146226Y217853D01*
X146217Y217766D01*
X146203Y217680D01*
X146186Y217594D01*
X146165Y217510D01*
X146140Y217426D01*
X146111Y217343D01*
X146079Y217262D01*
X146044Y217182D01*
X146005Y217104D01*
X145962Y217027D01*
X145916Y216953D01*
X145867Y216881D01*
X145815Y216811D01*
X145759Y216743D01*
X145701Y216678D01*
X145640Y216615D01*
X145576Y216556D01*
X145509Y216499D01*
X145441Y216445D01*
X145369Y216394D01*
X145296Y216347D01*
X145221Y216302D01*
X145143Y216261D01*
X145064Y216224D01*
X144984Y216190D01*
X144902Y216160D01*
X144819Y216133D01*
X144734Y216110D01*
X144649Y216091D01*
X144563Y216076D01*
X144476Y216064D01*
X144389Y216056D01*
X144302Y216052D01*
X144214Y216052D01*
X144127Y216056D01*
X144040Y216064D01*
X143953Y216076D01*
X143867Y216091D01*
X143782Y216110D01*
X143697Y216133D01*
X143614Y216160D01*
X143532Y216190D01*
X143452Y216224D01*
X143373Y216261D01*
X143295Y216302D01*
X143220Y216347D01*
X143147Y216394D01*
X143075Y216445D01*
X143007Y216499D01*
X142940Y216556D01*
X142876Y216615D01*
X142815Y216678D01*
X142757Y216743D01*
X142701Y216811D01*
X142649Y216881D01*
X142600Y216953D01*
X142554Y217027D01*
X142511Y217104D01*
X142472Y217182D01*
X142437Y217262D01*
X142405Y217343D01*
X142376Y217426D01*
X142351Y217510D01*
X142330Y217594D01*
X142313Y217680D01*
X142299Y217766D01*
X142290Y217853D01*
X142284Y217941D01*
X142282Y218028D01*
X151314Y223164D02*
X151396Y223162D01*
X151478Y223156D01*
X151560Y223147D01*
X151641Y223134D01*
X151721Y223117D01*
X151801Y223096D01*
X151879Y223072D01*
X151956Y223044D01*
X152032Y223013D01*
X152107Y222978D01*
X152179Y222939D01*
X152250Y222898D01*
X152319Y222853D01*
X152385Y222805D01*
X152450Y222754D01*
X152512Y222700D01*
X152571Y222643D01*
X152628Y222584D01*
X152682Y222522D01*
X152733Y222457D01*
X152781Y222391D01*
X152826Y222322D01*
X152867Y222251D01*
X152906Y222179D01*
X152941Y222104D01*
X152972Y222028D01*
X153000Y221951D01*
X153024Y221873D01*
X153045Y221793D01*
X153062Y221713D01*
X153075Y221632D01*
X153084Y221550D01*
X153090Y221468D01*
X153092Y221386D01*
X151314Y223164D02*
X151221Y223162D01*
X151129Y223156D01*
X151037Y223147D01*
X150945Y223134D01*
X150854Y223117D01*
X150764Y223097D01*
X150674Y223073D01*
X150586Y223045D01*
X150498Y223013D01*
X150413Y222979D01*
X150328Y222940D01*
X150246Y222899D01*
X150165Y222854D01*
X150085Y222805D01*
X150008Y222754D01*
X149933Y222700D01*
X149861Y222642D01*
X149791Y222582D01*
X149723Y222518D01*
X149658Y222453D01*
X149595Y222384D01*
X149536Y222313D01*
X149479Y222240D01*
X149425Y222164D01*
X149375Y222087D01*
X149327Y222007D01*
X149283Y221926D01*
X149243Y221842D01*
X149205Y221758D01*
X149171Y221671D01*
X149141Y221584D01*
X152499Y220003D02*
X152560Y220064D01*
X152618Y220127D01*
X152673Y220193D01*
X152726Y220261D01*
X152775Y220332D01*
X152820Y220404D01*
X152863Y220479D01*
X152902Y220555D01*
X152938Y220634D01*
X152970Y220713D01*
X152998Y220794D01*
X153023Y220877D01*
X153044Y220960D01*
X153061Y221044D01*
X153075Y221129D01*
X153084Y221214D01*
X153090Y221300D01*
X153092Y221386D01*
X152499Y220003D02*
X149141Y216052D01*
X153092Y216052D01*
X161798Y216053D02*
X161876Y216055D01*
X161953Y216061D01*
X162030Y216070D01*
X162106Y216083D01*
X162182Y216100D01*
X162257Y216121D01*
X162330Y216145D01*
X162403Y216173D01*
X162474Y216205D01*
X162543Y216240D01*
X162610Y216278D01*
X162676Y216319D01*
X162739Y216364D01*
X162800Y216412D01*
X162859Y216462D01*
X162915Y216516D01*
X162969Y216572D01*
X163019Y216631D01*
X163067Y216692D01*
X163112Y216755D01*
X163153Y216821D01*
X163191Y216888D01*
X163226Y216957D01*
X163258Y217028D01*
X163286Y217101D01*
X163310Y217174D01*
X163331Y217249D01*
X163348Y217325D01*
X163361Y217401D01*
X163370Y217478D01*
X163376Y217555D01*
X163378Y217633D01*
X161798Y216052D02*
X161683Y216054D01*
X161569Y216060D01*
X161455Y216070D01*
X161341Y216083D01*
X161228Y216101D01*
X161115Y216123D01*
X161003Y216148D01*
X160893Y216177D01*
X160783Y216210D01*
X160674Y216247D01*
X160567Y216287D01*
X160461Y216331D01*
X160357Y216379D01*
X160254Y216430D01*
X160154Y216485D01*
X160055Y216543D01*
X159958Y216605D01*
X159864Y216669D01*
X159771Y216737D01*
X159681Y216809D01*
X159594Y216883D01*
X159509Y216960D01*
X159427Y217040D01*
X159626Y221584D02*
X159628Y221662D01*
X159634Y221739D01*
X159643Y221816D01*
X159656Y221892D01*
X159673Y221968D01*
X159694Y222043D01*
X159718Y222116D01*
X159746Y222189D01*
X159778Y222260D01*
X159813Y222329D01*
X159851Y222396D01*
X159892Y222462D01*
X159937Y222525D01*
X159985Y222586D01*
X160035Y222645D01*
X160089Y222701D01*
X160145Y222755D01*
X160204Y222805D01*
X160265Y222853D01*
X160328Y222898D01*
X160394Y222939D01*
X160461Y222977D01*
X160530Y223012D01*
X160601Y223044D01*
X160674Y223072D01*
X160747Y223096D01*
X160822Y223117D01*
X160898Y223134D01*
X160974Y223147D01*
X161051Y223156D01*
X161129Y223162D01*
X161206Y223164D01*
X161312Y223162D01*
X161418Y223156D01*
X161523Y223147D01*
X161628Y223134D01*
X161733Y223117D01*
X161837Y223096D01*
X161940Y223072D01*
X162042Y223044D01*
X162143Y223012D01*
X162243Y222977D01*
X162341Y222938D01*
X162439Y222895D01*
X162534Y222850D01*
X162628Y222801D01*
X162720Y222748D01*
X162810Y222692D01*
X162898Y222633D01*
X162984Y222571D01*
X160415Y220201D02*
X160348Y220243D01*
X160283Y220288D01*
X160220Y220337D01*
X160159Y220388D01*
X160102Y220443D01*
X160047Y220500D01*
X159994Y220560D01*
X159945Y220622D01*
X159899Y220687D01*
X159857Y220753D01*
X159817Y220822D01*
X159781Y220893D01*
X159749Y220966D01*
X159720Y221040D01*
X159695Y221115D01*
X159674Y221191D01*
X159656Y221269D01*
X159643Y221347D01*
X159633Y221426D01*
X159627Y221505D01*
X159625Y221584D01*
X162589Y219016D02*
X162656Y218974D01*
X162721Y218929D01*
X162784Y218880D01*
X162845Y218829D01*
X162902Y218774D01*
X162957Y218717D01*
X163010Y218657D01*
X163059Y218595D01*
X163105Y218530D01*
X163147Y218464D01*
X163187Y218395D01*
X163223Y218324D01*
X163255Y218251D01*
X163284Y218177D01*
X163309Y218102D01*
X163330Y218026D01*
X163348Y217948D01*
X163361Y217870D01*
X163371Y217791D01*
X163377Y217712D01*
X163379Y217633D01*
X162589Y219016D02*
X160415Y220201D01*
X167180Y216052D02*
X169156Y216052D01*
X167180Y216053D02*
X167114Y216055D01*
X167047Y216060D01*
X166982Y216070D01*
X166916Y216083D01*
X166852Y216099D01*
X166789Y216119D01*
X166727Y216143D01*
X166666Y216170D01*
X166607Y216201D01*
X166550Y216235D01*
X166494Y216272D01*
X166441Y216312D01*
X166390Y216354D01*
X166342Y216400D01*
X166296Y216448D01*
X166254Y216499D01*
X166214Y216552D01*
X166177Y216608D01*
X166143Y216665D01*
X166112Y216724D01*
X166085Y216785D01*
X166061Y216847D01*
X166041Y216910D01*
X166025Y216974D01*
X166012Y217040D01*
X166002Y217105D01*
X165997Y217172D01*
X165995Y217238D01*
X165995Y219213D01*
X165997Y219292D01*
X166003Y219370D01*
X166013Y219448D01*
X166026Y219526D01*
X166044Y219603D01*
X166065Y219679D01*
X166090Y219753D01*
X166119Y219827D01*
X166151Y219899D01*
X166187Y219969D01*
X166227Y220037D01*
X166270Y220103D01*
X166316Y220167D01*
X166365Y220229D01*
X166417Y220288D01*
X166472Y220344D01*
X166530Y220398D01*
X166590Y220448D01*
X166653Y220496D01*
X166718Y220540D01*
X166785Y220581D01*
X166854Y220619D01*
X166925Y220653D01*
X166998Y220684D01*
X167072Y220711D01*
X167147Y220734D01*
X167223Y220753D01*
X167301Y220769D01*
X167379Y220781D01*
X167457Y220789D01*
X167536Y220793D01*
X167614Y220793D01*
X167693Y220789D01*
X167771Y220781D01*
X167849Y220769D01*
X167927Y220753D01*
X168003Y220734D01*
X168078Y220711D01*
X168152Y220684D01*
X168225Y220653D01*
X168296Y220619D01*
X168365Y220581D01*
X168432Y220540D01*
X168497Y220496D01*
X168560Y220448D01*
X168620Y220398D01*
X168678Y220344D01*
X168733Y220288D01*
X168785Y220229D01*
X168834Y220167D01*
X168880Y220103D01*
X168923Y220037D01*
X168963Y219969D01*
X168999Y219899D01*
X169031Y219827D01*
X169060Y219753D01*
X169085Y219679D01*
X169106Y219603D01*
X169124Y219526D01*
X169137Y219448D01*
X169147Y219370D01*
X169153Y219292D01*
X169155Y219213D01*
X169156Y219213D02*
X169156Y218423D01*
X165995Y218423D01*
X172167Y216052D02*
X172167Y220794D01*
X174143Y220794D01*
X174143Y220793D02*
X174209Y220791D01*
X174276Y220786D01*
X174341Y220776D01*
X174407Y220763D01*
X174471Y220747D01*
X174534Y220727D01*
X174596Y220703D01*
X174657Y220676D01*
X174716Y220645D01*
X174773Y220611D01*
X174829Y220574D01*
X174882Y220534D01*
X174933Y220492D01*
X174981Y220446D01*
X175027Y220398D01*
X175069Y220347D01*
X175109Y220294D01*
X175146Y220238D01*
X175180Y220181D01*
X175211Y220122D01*
X175238Y220062D01*
X175261Y219999D01*
X175282Y219936D01*
X175298Y219872D01*
X175311Y219807D01*
X175321Y219741D01*
X175326Y219674D01*
X175328Y219608D01*
X175328Y216052D01*
X178932Y218818D02*
X180907Y218028D01*
X178932Y218818D02*
X178874Y218843D01*
X178818Y218872D01*
X178763Y218904D01*
X178711Y218940D01*
X178661Y218979D01*
X178614Y219020D01*
X178569Y219065D01*
X178527Y219112D01*
X178488Y219161D01*
X178452Y219213D01*
X178419Y219267D01*
X178390Y219323D01*
X178364Y219381D01*
X178342Y219440D01*
X178324Y219501D01*
X178309Y219562D01*
X178298Y219624D01*
X178291Y219687D01*
X178288Y219750D01*
X178289Y219813D01*
X178294Y219876D01*
X178302Y219939D01*
X178315Y220001D01*
X178331Y220062D01*
X178351Y220122D01*
X178374Y220180D01*
X178401Y220237D01*
X178432Y220292D01*
X178466Y220346D01*
X178503Y220397D01*
X178543Y220445D01*
X178586Y220492D01*
X178632Y220535D01*
X178681Y220575D01*
X178732Y220613D01*
X178785Y220647D01*
X178840Y220678D01*
X178897Y220705D01*
X178955Y220729D01*
X179015Y220749D01*
X179076Y220765D01*
X179138Y220778D01*
X179201Y220787D01*
X179263Y220792D01*
X179327Y220793D01*
X179327Y220794D02*
X179458Y220790D01*
X179589Y220782D01*
X179719Y220771D01*
X179849Y220756D01*
X179979Y220736D01*
X180108Y220714D01*
X180236Y220687D01*
X180364Y220657D01*
X180490Y220623D01*
X180616Y220585D01*
X180740Y220544D01*
X180863Y220499D01*
X180985Y220450D01*
X181105Y220398D01*
X180907Y218028D02*
X180965Y218003D01*
X181021Y217974D01*
X181076Y217942D01*
X181128Y217906D01*
X181178Y217867D01*
X181225Y217826D01*
X181270Y217781D01*
X181312Y217734D01*
X181351Y217685D01*
X181387Y217633D01*
X181420Y217579D01*
X181449Y217523D01*
X181475Y217465D01*
X181497Y217406D01*
X181515Y217345D01*
X181530Y217284D01*
X181541Y217222D01*
X181548Y217159D01*
X181551Y217096D01*
X181550Y217033D01*
X181545Y216970D01*
X181537Y216907D01*
X181524Y216845D01*
X181508Y216784D01*
X181488Y216724D01*
X181465Y216666D01*
X181438Y216609D01*
X181407Y216554D01*
X181373Y216500D01*
X181336Y216449D01*
X181296Y216401D01*
X181253Y216354D01*
X181207Y216311D01*
X181158Y216271D01*
X181107Y216233D01*
X181054Y216199D01*
X180999Y216168D01*
X180942Y216141D01*
X180884Y216117D01*
X180824Y216097D01*
X180763Y216081D01*
X180701Y216068D01*
X180638Y216059D01*
X180576Y216054D01*
X180512Y216053D01*
X180512Y216052D02*
X180354Y216056D01*
X180196Y216064D01*
X180038Y216075D01*
X179880Y216091D01*
X179722Y216110D01*
X179566Y216133D01*
X179409Y216159D01*
X179254Y216189D01*
X179099Y216223D01*
X178945Y216261D01*
X178792Y216302D01*
X178640Y216347D01*
X178489Y216395D01*
X178339Y216447D01*
X184283Y217633D02*
X184283Y219213D01*
X184285Y219292D01*
X184291Y219370D01*
X184301Y219448D01*
X184314Y219526D01*
X184332Y219603D01*
X184353Y219679D01*
X184378Y219753D01*
X184407Y219827D01*
X184439Y219899D01*
X184475Y219969D01*
X184515Y220037D01*
X184558Y220103D01*
X184604Y220167D01*
X184653Y220229D01*
X184705Y220288D01*
X184760Y220344D01*
X184818Y220398D01*
X184878Y220448D01*
X184941Y220496D01*
X185006Y220540D01*
X185073Y220581D01*
X185142Y220619D01*
X185213Y220653D01*
X185286Y220684D01*
X185360Y220711D01*
X185435Y220734D01*
X185511Y220753D01*
X185589Y220769D01*
X185667Y220781D01*
X185745Y220789D01*
X185824Y220793D01*
X185902Y220793D01*
X185981Y220789D01*
X186059Y220781D01*
X186137Y220769D01*
X186215Y220753D01*
X186291Y220734D01*
X186366Y220711D01*
X186440Y220684D01*
X186513Y220653D01*
X186584Y220619D01*
X186653Y220581D01*
X186720Y220540D01*
X186785Y220496D01*
X186848Y220448D01*
X186908Y220398D01*
X186966Y220344D01*
X187021Y220288D01*
X187073Y220229D01*
X187122Y220167D01*
X187168Y220103D01*
X187211Y220037D01*
X187251Y219969D01*
X187287Y219899D01*
X187319Y219827D01*
X187348Y219753D01*
X187373Y219679D01*
X187394Y219603D01*
X187412Y219526D01*
X187425Y219448D01*
X187435Y219370D01*
X187441Y219292D01*
X187443Y219213D01*
X187444Y219213D02*
X187444Y217633D01*
X187443Y217633D02*
X187441Y217554D01*
X187435Y217476D01*
X187425Y217398D01*
X187412Y217320D01*
X187394Y217243D01*
X187373Y217167D01*
X187348Y217093D01*
X187319Y217019D01*
X187287Y216947D01*
X187251Y216877D01*
X187211Y216809D01*
X187168Y216743D01*
X187122Y216679D01*
X187073Y216617D01*
X187021Y216558D01*
X186966Y216502D01*
X186908Y216448D01*
X186848Y216398D01*
X186785Y216350D01*
X186720Y216306D01*
X186653Y216265D01*
X186584Y216227D01*
X186513Y216193D01*
X186440Y216162D01*
X186366Y216135D01*
X186291Y216112D01*
X186215Y216093D01*
X186137Y216077D01*
X186059Y216065D01*
X185981Y216057D01*
X185902Y216053D01*
X185824Y216053D01*
X185745Y216057D01*
X185667Y216065D01*
X185589Y216077D01*
X185511Y216093D01*
X185435Y216112D01*
X185360Y216135D01*
X185286Y216162D01*
X185213Y216193D01*
X185142Y216227D01*
X185073Y216265D01*
X185006Y216306D01*
X184941Y216350D01*
X184878Y216398D01*
X184818Y216448D01*
X184760Y216502D01*
X184705Y216558D01*
X184653Y216617D01*
X184604Y216679D01*
X184558Y216743D01*
X184515Y216809D01*
X184475Y216877D01*
X184439Y216947D01*
X184407Y217019D01*
X184378Y217093D01*
X184353Y217167D01*
X184332Y217243D01*
X184314Y217320D01*
X184301Y217398D01*
X184291Y217476D01*
X184285Y217554D01*
X184283Y217633D01*
X190492Y216052D02*
X190492Y220794D01*
X192862Y220794D01*
X192862Y220003D01*
X214506Y228930D02*
X214506Y236042D01*
X213716Y228930D02*
X215296Y228930D01*
X215296Y236042D02*
X213716Y236042D01*
X220190Y236042D02*
X220272Y236040D01*
X220354Y236034D01*
X220436Y236025D01*
X220517Y236012D01*
X220597Y235995D01*
X220677Y235974D01*
X220755Y235950D01*
X220832Y235922D01*
X220908Y235891D01*
X220983Y235856D01*
X221055Y235817D01*
X221126Y235776D01*
X221195Y235731D01*
X221261Y235683D01*
X221326Y235632D01*
X221388Y235578D01*
X221447Y235521D01*
X221504Y235462D01*
X221558Y235400D01*
X221609Y235335D01*
X221657Y235269D01*
X221702Y235200D01*
X221743Y235129D01*
X221782Y235057D01*
X221817Y234982D01*
X221848Y234906D01*
X221876Y234829D01*
X221900Y234751D01*
X221921Y234671D01*
X221938Y234591D01*
X221951Y234510D01*
X221960Y234428D01*
X221966Y234346D01*
X221968Y234264D01*
X220190Y236042D02*
X220097Y236040D01*
X220005Y236034D01*
X219913Y236025D01*
X219821Y236012D01*
X219730Y235995D01*
X219640Y235975D01*
X219550Y235951D01*
X219462Y235923D01*
X219374Y235891D01*
X219289Y235857D01*
X219204Y235818D01*
X219122Y235777D01*
X219041Y235732D01*
X218961Y235683D01*
X218884Y235632D01*
X218809Y235578D01*
X218737Y235520D01*
X218667Y235460D01*
X218599Y235396D01*
X218534Y235331D01*
X218471Y235262D01*
X218412Y235191D01*
X218355Y235118D01*
X218301Y235042D01*
X218251Y234965D01*
X218203Y234885D01*
X218159Y234804D01*
X218119Y234720D01*
X218081Y234636D01*
X218047Y234549D01*
X218017Y234462D01*
X221375Y232881D02*
X221436Y232942D01*
X221494Y233005D01*
X221549Y233071D01*
X221602Y233139D01*
X221651Y233210D01*
X221696Y233282D01*
X221739Y233357D01*
X221778Y233433D01*
X221814Y233512D01*
X221846Y233591D01*
X221874Y233672D01*
X221899Y233755D01*
X221920Y233838D01*
X221937Y233922D01*
X221951Y234007D01*
X221960Y234092D01*
X221966Y234178D01*
X221968Y234264D01*
X221375Y232881D02*
X218017Y228930D01*
X221968Y228930D01*
X226437Y228930D02*
X228017Y228930D01*
X226437Y228931D02*
X226359Y228933D01*
X226282Y228939D01*
X226205Y228948D01*
X226129Y228961D01*
X226053Y228978D01*
X225978Y228999D01*
X225905Y229023D01*
X225832Y229051D01*
X225761Y229083D01*
X225692Y229118D01*
X225625Y229156D01*
X225559Y229197D01*
X225496Y229242D01*
X225435Y229290D01*
X225376Y229340D01*
X225320Y229394D01*
X225266Y229450D01*
X225216Y229509D01*
X225168Y229570D01*
X225123Y229633D01*
X225082Y229699D01*
X225044Y229766D01*
X225009Y229835D01*
X224977Y229906D01*
X224949Y229979D01*
X224925Y230052D01*
X224904Y230127D01*
X224887Y230203D01*
X224874Y230279D01*
X224865Y230356D01*
X224859Y230433D01*
X224857Y230511D01*
X224856Y230511D02*
X224856Y234462D01*
X224857Y234462D02*
X224859Y234540D01*
X224865Y234617D01*
X224874Y234694D01*
X224887Y234770D01*
X224904Y234846D01*
X224925Y234921D01*
X224949Y234994D01*
X224977Y235067D01*
X225009Y235138D01*
X225044Y235207D01*
X225082Y235274D01*
X225123Y235340D01*
X225168Y235403D01*
X225216Y235464D01*
X225266Y235523D01*
X225320Y235579D01*
X225376Y235633D01*
X225435Y235683D01*
X225496Y235731D01*
X225559Y235776D01*
X225625Y235817D01*
X225692Y235855D01*
X225761Y235890D01*
X225832Y235922D01*
X225905Y235950D01*
X225978Y235974D01*
X226053Y235995D01*
X226129Y236012D01*
X226205Y236025D01*
X226282Y236034D01*
X226359Y236040D01*
X226437Y236042D01*
X228017Y236042D01*
X236223Y236042D02*
X233852Y228930D01*
X238593Y228930D02*
X236223Y236042D01*
X238001Y230708D02*
X234445Y230708D01*
X244171Y228930D02*
X244171Y236042D01*
X244171Y228930D02*
X242196Y228930D01*
X242196Y228931D02*
X242130Y228933D01*
X242063Y228938D01*
X241998Y228948D01*
X241932Y228961D01*
X241868Y228977D01*
X241805Y228997D01*
X241743Y229021D01*
X241682Y229048D01*
X241623Y229079D01*
X241566Y229113D01*
X241510Y229150D01*
X241457Y229190D01*
X241406Y229232D01*
X241358Y229278D01*
X241312Y229326D01*
X241270Y229377D01*
X241230Y229430D01*
X241193Y229486D01*
X241159Y229543D01*
X241128Y229602D01*
X241101Y229663D01*
X241077Y229725D01*
X241057Y229788D01*
X241041Y229852D01*
X241028Y229918D01*
X241018Y229983D01*
X241013Y230050D01*
X241011Y230116D01*
X241011Y232486D01*
X241013Y232552D01*
X241018Y232619D01*
X241028Y232684D01*
X241041Y232750D01*
X241057Y232814D01*
X241077Y232877D01*
X241101Y232939D01*
X241128Y233000D01*
X241159Y233059D01*
X241193Y233116D01*
X241230Y233172D01*
X241270Y233225D01*
X241312Y233276D01*
X241358Y233324D01*
X241406Y233370D01*
X241457Y233412D01*
X241510Y233452D01*
X241566Y233489D01*
X241623Y233523D01*
X241682Y233554D01*
X241743Y233581D01*
X241805Y233605D01*
X241868Y233625D01*
X241932Y233641D01*
X241998Y233654D01*
X242063Y233664D01*
X242130Y233669D01*
X242196Y233671D01*
X242196Y233672D02*
X244171Y233672D01*
X250344Y236042D02*
X250344Y228930D01*
X248368Y228930D01*
X248368Y228931D02*
X248302Y228933D01*
X248235Y228938D01*
X248170Y228948D01*
X248104Y228961D01*
X248040Y228977D01*
X247977Y228997D01*
X247915Y229021D01*
X247854Y229048D01*
X247795Y229079D01*
X247738Y229113D01*
X247682Y229150D01*
X247629Y229190D01*
X247578Y229232D01*
X247530Y229278D01*
X247484Y229326D01*
X247442Y229377D01*
X247402Y229430D01*
X247365Y229486D01*
X247331Y229543D01*
X247300Y229602D01*
X247273Y229663D01*
X247249Y229725D01*
X247229Y229788D01*
X247213Y229852D01*
X247200Y229918D01*
X247190Y229983D01*
X247185Y230050D01*
X247183Y230116D01*
X247183Y232486D01*
X247185Y232552D01*
X247190Y232619D01*
X247200Y232684D01*
X247213Y232750D01*
X247229Y232814D01*
X247249Y232877D01*
X247273Y232939D01*
X247300Y233000D01*
X247331Y233059D01*
X247365Y233116D01*
X247402Y233172D01*
X247442Y233225D01*
X247484Y233276D01*
X247530Y233324D01*
X247578Y233370D01*
X247629Y233412D01*
X247682Y233452D01*
X247738Y233489D01*
X247795Y233523D01*
X247854Y233554D01*
X247915Y233581D01*
X247977Y233605D01*
X248040Y233625D01*
X248104Y233641D01*
X248170Y233654D01*
X248235Y233664D01*
X248302Y233669D01*
X248368Y233671D01*
X248368Y233672D02*
X250344Y233672D01*
X253652Y233672D02*
X253652Y228930D01*
X253652Y233672D02*
X256023Y233672D01*
X256023Y232881D01*
X221928Y222354D02*
X221865Y222221D01*
X221805Y222086D01*
X221749Y221949D01*
X221696Y221811D01*
X221647Y221672D01*
X221601Y221531D01*
X221559Y221390D01*
X221520Y221247D01*
X221485Y221104D01*
X221454Y220960D01*
X221426Y220815D01*
X221402Y220669D01*
X221381Y220523D01*
X221365Y220376D01*
X221352Y220229D01*
X221342Y220081D01*
X221337Y219934D01*
X221335Y219786D01*
X221928Y222354D02*
X221954Y222425D01*
X221984Y222494D01*
X222018Y222562D01*
X222055Y222628D01*
X222095Y222692D01*
X222139Y222754D01*
X222185Y222813D01*
X222235Y222870D01*
X222288Y222924D01*
X222343Y222976D01*
X222401Y223024D01*
X222461Y223070D01*
X222524Y223112D01*
X222589Y223151D01*
X222655Y223187D01*
X222724Y223219D01*
X222793Y223247D01*
X222865Y223272D01*
X222937Y223293D01*
X223011Y223311D01*
X223085Y223324D01*
X223160Y223334D01*
X223235Y223340D01*
X223311Y223342D01*
X223387Y223340D01*
X223462Y223334D01*
X223537Y223324D01*
X223611Y223311D01*
X223685Y223293D01*
X223757Y223272D01*
X223828Y223247D01*
X223898Y223219D01*
X223967Y223187D01*
X224033Y223151D01*
X224098Y223112D01*
X224161Y223070D01*
X224221Y223024D01*
X224279Y222976D01*
X224334Y222924D01*
X224387Y222870D01*
X224437Y222813D01*
X224483Y222754D01*
X224527Y222692D01*
X224567Y222628D01*
X224604Y222562D01*
X224638Y222494D01*
X224668Y222425D01*
X224694Y222354D01*
X224757Y222221D01*
X224817Y222086D01*
X224873Y221949D01*
X224926Y221811D01*
X224975Y221672D01*
X225021Y221531D01*
X225063Y221390D01*
X225102Y221247D01*
X225137Y221104D01*
X225168Y220960D01*
X225196Y220815D01*
X225220Y220669D01*
X225241Y220523D01*
X225257Y220376D01*
X225270Y220229D01*
X225280Y220081D01*
X225285Y219934D01*
X225287Y219786D01*
X221336Y219786D02*
X221338Y219638D01*
X221343Y219491D01*
X221353Y219343D01*
X221366Y219196D01*
X221382Y219049D01*
X221403Y218903D01*
X221427Y218758D01*
X221455Y218612D01*
X221486Y218468D01*
X221521Y218325D01*
X221560Y218182D01*
X221602Y218041D01*
X221648Y217900D01*
X221697Y217761D01*
X221750Y217623D01*
X221806Y217486D01*
X221866Y217351D01*
X221929Y217218D01*
X221928Y217218D02*
X221954Y217147D01*
X221984Y217078D01*
X222018Y217010D01*
X222055Y216944D01*
X222095Y216880D01*
X222139Y216818D01*
X222185Y216759D01*
X222235Y216702D01*
X222288Y216648D01*
X222343Y216596D01*
X222401Y216548D01*
X222461Y216502D01*
X222524Y216460D01*
X222589Y216421D01*
X222655Y216385D01*
X222724Y216353D01*
X222794Y216325D01*
X222865Y216300D01*
X222937Y216279D01*
X223011Y216261D01*
X223085Y216248D01*
X223160Y216238D01*
X223235Y216232D01*
X223311Y216230D01*
X224694Y217218D02*
X224757Y217351D01*
X224817Y217486D01*
X224873Y217623D01*
X224926Y217761D01*
X224975Y217900D01*
X225021Y218041D01*
X225063Y218182D01*
X225102Y218325D01*
X225137Y218468D01*
X225168Y218612D01*
X225196Y218758D01*
X225220Y218903D01*
X225241Y219049D01*
X225257Y219196D01*
X225270Y219343D01*
X225280Y219491D01*
X225285Y219638D01*
X225287Y219786D01*
X224694Y217218D02*
X224668Y217147D01*
X224638Y217078D01*
X224604Y217010D01*
X224567Y216944D01*
X224527Y216880D01*
X224483Y216818D01*
X224437Y216759D01*
X224387Y216702D01*
X224334Y216648D01*
X224279Y216596D01*
X224221Y216548D01*
X224161Y216502D01*
X224098Y216460D01*
X224033Y216421D01*
X223967Y216385D01*
X223898Y216353D01*
X223828Y216325D01*
X223757Y216300D01*
X223685Y216279D01*
X223611Y216261D01*
X223537Y216248D01*
X223462Y216238D01*
X223387Y216232D01*
X223311Y216230D01*
X221731Y217811D02*
X224892Y221762D01*
X231064Y220972D02*
X227903Y216230D01*
X231064Y216230D02*
X227903Y220972D01*
X233680Y216230D02*
X236051Y216230D01*
X236051Y216231D02*
X236129Y216233D01*
X236206Y216239D01*
X236283Y216248D01*
X236359Y216261D01*
X236435Y216278D01*
X236510Y216299D01*
X236583Y216323D01*
X236656Y216351D01*
X236727Y216383D01*
X236796Y216418D01*
X236863Y216456D01*
X236929Y216497D01*
X236992Y216542D01*
X237053Y216590D01*
X237112Y216640D01*
X237168Y216694D01*
X237222Y216750D01*
X237272Y216809D01*
X237320Y216870D01*
X237365Y216933D01*
X237406Y216999D01*
X237444Y217066D01*
X237479Y217135D01*
X237511Y217206D01*
X237539Y217279D01*
X237563Y217352D01*
X237584Y217427D01*
X237601Y217503D01*
X237614Y217579D01*
X237623Y217656D01*
X237629Y217733D01*
X237631Y217811D01*
X237631Y218601D01*
X237629Y218679D01*
X237623Y218756D01*
X237614Y218833D01*
X237601Y218909D01*
X237584Y218985D01*
X237563Y219060D01*
X237539Y219133D01*
X237511Y219206D01*
X237479Y219277D01*
X237444Y219346D01*
X237406Y219413D01*
X237365Y219479D01*
X237320Y219542D01*
X237272Y219603D01*
X237222Y219662D01*
X237168Y219718D01*
X237112Y219772D01*
X237053Y219822D01*
X236992Y219870D01*
X236929Y219915D01*
X236863Y219956D01*
X236796Y219994D01*
X236727Y220029D01*
X236656Y220061D01*
X236583Y220089D01*
X236510Y220113D01*
X236435Y220134D01*
X236359Y220151D01*
X236283Y220164D01*
X236206Y220173D01*
X236129Y220179D01*
X236051Y220181D01*
X233680Y220181D01*
X233680Y223342D01*
X237631Y223342D01*
X242513Y223342D02*
X240143Y216230D01*
X244884Y216230D02*
X242513Y223342D01*
X244291Y218008D02*
X240735Y218008D01*
D10*
X259182Y238836D02*
X210922Y238836D01*
X259182Y238836D02*
X259182Y226136D01*
X210922Y226136D01*
X210922Y238836D01*
X210922Y226136D02*
X210922Y213436D01*
X259182Y213436D01*
X259182Y226136D01*
D11*
X139483Y89363D02*
X139481Y89285D01*
X139475Y89208D01*
X139466Y89131D01*
X139453Y89055D01*
X139436Y88979D01*
X139415Y88904D01*
X139391Y88831D01*
X139363Y88758D01*
X139331Y88687D01*
X139296Y88618D01*
X139258Y88551D01*
X139217Y88485D01*
X139172Y88422D01*
X139124Y88361D01*
X139074Y88302D01*
X139020Y88246D01*
X138964Y88192D01*
X138905Y88142D01*
X138844Y88094D01*
X138781Y88049D01*
X138715Y88008D01*
X138648Y87970D01*
X138579Y87935D01*
X138508Y87903D01*
X138435Y87875D01*
X138362Y87851D01*
X138287Y87830D01*
X138211Y87813D01*
X138135Y87800D01*
X138058Y87791D01*
X137981Y87785D01*
X137903Y87783D01*
X137903Y87782D02*
X137788Y87784D01*
X137674Y87790D01*
X137560Y87800D01*
X137446Y87813D01*
X137333Y87831D01*
X137220Y87853D01*
X137108Y87878D01*
X136998Y87907D01*
X136888Y87940D01*
X136779Y87977D01*
X136672Y88017D01*
X136566Y88061D01*
X136462Y88109D01*
X136359Y88160D01*
X136259Y88215D01*
X136160Y88273D01*
X136063Y88335D01*
X135969Y88399D01*
X135876Y88467D01*
X135786Y88539D01*
X135699Y88613D01*
X135614Y88690D01*
X135532Y88770D01*
X135730Y93314D02*
X135732Y93392D01*
X135738Y93469D01*
X135747Y93546D01*
X135760Y93622D01*
X135777Y93698D01*
X135798Y93773D01*
X135822Y93846D01*
X135850Y93919D01*
X135882Y93990D01*
X135917Y94059D01*
X135955Y94126D01*
X135996Y94192D01*
X136041Y94255D01*
X136089Y94316D01*
X136139Y94375D01*
X136193Y94431D01*
X136249Y94485D01*
X136308Y94535D01*
X136369Y94583D01*
X136432Y94628D01*
X136498Y94669D01*
X136565Y94707D01*
X136634Y94742D01*
X136705Y94774D01*
X136778Y94802D01*
X136851Y94826D01*
X136926Y94847D01*
X137002Y94864D01*
X137078Y94877D01*
X137155Y94886D01*
X137233Y94892D01*
X137310Y94894D01*
X137416Y94892D01*
X137522Y94886D01*
X137627Y94877D01*
X137732Y94864D01*
X137837Y94847D01*
X137941Y94826D01*
X138044Y94802D01*
X138146Y94774D01*
X138247Y94742D01*
X138347Y94707D01*
X138445Y94668D01*
X138543Y94625D01*
X138638Y94580D01*
X138732Y94531D01*
X138824Y94478D01*
X138914Y94422D01*
X139002Y94363D01*
X139088Y94301D01*
X136519Y91931D02*
X136452Y91973D01*
X136387Y92018D01*
X136324Y92067D01*
X136263Y92118D01*
X136206Y92173D01*
X136151Y92230D01*
X136098Y92290D01*
X136049Y92352D01*
X136003Y92417D01*
X135961Y92483D01*
X135921Y92552D01*
X135885Y92623D01*
X135853Y92696D01*
X135824Y92770D01*
X135799Y92845D01*
X135778Y92921D01*
X135760Y92999D01*
X135747Y93077D01*
X135737Y93156D01*
X135731Y93235D01*
X135729Y93314D01*
X138693Y90746D02*
X138760Y90704D01*
X138825Y90659D01*
X138888Y90610D01*
X138949Y90559D01*
X139006Y90504D01*
X139061Y90447D01*
X139114Y90387D01*
X139163Y90325D01*
X139209Y90260D01*
X139251Y90194D01*
X139291Y90125D01*
X139327Y90054D01*
X139359Y89981D01*
X139388Y89907D01*
X139413Y89832D01*
X139434Y89756D01*
X139452Y89678D01*
X139465Y89600D01*
X139475Y89521D01*
X139481Y89442D01*
X139483Y89363D01*
X138693Y90746D02*
X136520Y91931D01*
X142390Y94894D02*
X142390Y87782D01*
X142390Y91733D02*
X146341Y91733D01*
X146341Y94894D02*
X146341Y87782D01*
X150995Y87782D02*
X150995Y94894D01*
X152970Y94894D02*
X149019Y94894D01*
X157593Y94894D02*
X157675Y94892D01*
X157757Y94886D01*
X157839Y94877D01*
X157920Y94864D01*
X158000Y94847D01*
X158080Y94826D01*
X158158Y94802D01*
X158235Y94774D01*
X158311Y94743D01*
X158386Y94708D01*
X158458Y94669D01*
X158529Y94628D01*
X158598Y94583D01*
X158664Y94535D01*
X158729Y94484D01*
X158791Y94430D01*
X158850Y94373D01*
X158907Y94314D01*
X158961Y94252D01*
X159012Y94187D01*
X159060Y94121D01*
X159105Y94052D01*
X159146Y93981D01*
X159185Y93909D01*
X159220Y93834D01*
X159251Y93758D01*
X159279Y93681D01*
X159303Y93603D01*
X159324Y93523D01*
X159341Y93443D01*
X159354Y93362D01*
X159363Y93280D01*
X159369Y93198D01*
X159371Y93116D01*
X157593Y94894D02*
X157500Y94892D01*
X157408Y94886D01*
X157316Y94877D01*
X157224Y94864D01*
X157133Y94847D01*
X157043Y94827D01*
X156953Y94803D01*
X156865Y94775D01*
X156777Y94743D01*
X156692Y94709D01*
X156607Y94670D01*
X156525Y94629D01*
X156444Y94584D01*
X156364Y94535D01*
X156287Y94484D01*
X156212Y94430D01*
X156140Y94372D01*
X156070Y94312D01*
X156002Y94248D01*
X155937Y94183D01*
X155874Y94114D01*
X155815Y94043D01*
X155758Y93970D01*
X155704Y93894D01*
X155654Y93817D01*
X155606Y93737D01*
X155562Y93656D01*
X155522Y93572D01*
X155484Y93488D01*
X155450Y93401D01*
X155420Y93314D01*
X158778Y91733D02*
X158839Y91794D01*
X158897Y91857D01*
X158952Y91923D01*
X159005Y91991D01*
X159054Y92062D01*
X159099Y92134D01*
X159142Y92209D01*
X159181Y92285D01*
X159217Y92364D01*
X159249Y92443D01*
X159277Y92524D01*
X159302Y92607D01*
X159323Y92690D01*
X159340Y92774D01*
X159354Y92859D01*
X159363Y92944D01*
X159369Y93030D01*
X159371Y93116D01*
X158778Y91733D02*
X155420Y87782D01*
X159371Y87782D01*
X162278Y87782D02*
X164649Y87782D01*
X164649Y87783D02*
X164727Y87785D01*
X164804Y87791D01*
X164881Y87800D01*
X164957Y87813D01*
X165033Y87830D01*
X165108Y87851D01*
X165181Y87875D01*
X165254Y87903D01*
X165325Y87935D01*
X165394Y87970D01*
X165461Y88008D01*
X165527Y88049D01*
X165590Y88094D01*
X165651Y88142D01*
X165710Y88192D01*
X165766Y88246D01*
X165820Y88302D01*
X165870Y88361D01*
X165918Y88422D01*
X165963Y88485D01*
X166004Y88551D01*
X166042Y88618D01*
X166077Y88687D01*
X166109Y88758D01*
X166137Y88831D01*
X166161Y88904D01*
X166182Y88979D01*
X166199Y89055D01*
X166212Y89131D01*
X166221Y89208D01*
X166227Y89285D01*
X166229Y89363D01*
X166229Y90153D01*
X166227Y90231D01*
X166221Y90308D01*
X166212Y90385D01*
X166199Y90461D01*
X166182Y90537D01*
X166161Y90612D01*
X166137Y90685D01*
X166109Y90758D01*
X166077Y90829D01*
X166042Y90898D01*
X166004Y90965D01*
X165963Y91031D01*
X165918Y91094D01*
X165870Y91155D01*
X165820Y91214D01*
X165766Y91270D01*
X165710Y91324D01*
X165651Y91374D01*
X165590Y91422D01*
X165527Y91467D01*
X165461Y91508D01*
X165394Y91546D01*
X165325Y91581D01*
X165254Y91613D01*
X165181Y91641D01*
X165108Y91665D01*
X165033Y91686D01*
X164957Y91703D01*
X164881Y91716D01*
X164804Y91725D01*
X164727Y91731D01*
X164649Y91733D01*
X162278Y91733D01*
X162278Y94894D01*
X166229Y94894D01*
X137507Y83464D02*
X137507Y76352D01*
X135532Y83464D02*
X139483Y83464D01*
X143056Y76352D02*
X145031Y76352D01*
X143056Y76353D02*
X142990Y76355D01*
X142923Y76360D01*
X142858Y76370D01*
X142792Y76383D01*
X142728Y76399D01*
X142665Y76419D01*
X142603Y76443D01*
X142542Y76470D01*
X142483Y76501D01*
X142426Y76535D01*
X142370Y76572D01*
X142317Y76612D01*
X142266Y76654D01*
X142218Y76700D01*
X142172Y76748D01*
X142130Y76799D01*
X142090Y76852D01*
X142053Y76908D01*
X142019Y76965D01*
X141988Y77024D01*
X141961Y77085D01*
X141937Y77147D01*
X141917Y77210D01*
X141901Y77274D01*
X141888Y77340D01*
X141878Y77405D01*
X141873Y77472D01*
X141871Y77538D01*
X141871Y79513D01*
X141873Y79592D01*
X141879Y79670D01*
X141889Y79748D01*
X141902Y79826D01*
X141920Y79903D01*
X141941Y79979D01*
X141966Y80053D01*
X141995Y80127D01*
X142027Y80199D01*
X142063Y80269D01*
X142103Y80337D01*
X142146Y80403D01*
X142192Y80467D01*
X142241Y80529D01*
X142293Y80588D01*
X142348Y80644D01*
X142406Y80698D01*
X142466Y80748D01*
X142529Y80796D01*
X142594Y80840D01*
X142661Y80881D01*
X142730Y80919D01*
X142801Y80953D01*
X142874Y80984D01*
X142948Y81011D01*
X143023Y81034D01*
X143099Y81053D01*
X143177Y81069D01*
X143255Y81081D01*
X143333Y81089D01*
X143412Y81093D01*
X143490Y81093D01*
X143569Y81089D01*
X143647Y81081D01*
X143725Y81069D01*
X143803Y81053D01*
X143879Y81034D01*
X143954Y81011D01*
X144028Y80984D01*
X144101Y80953D01*
X144172Y80919D01*
X144241Y80881D01*
X144308Y80840D01*
X144373Y80796D01*
X144436Y80748D01*
X144496Y80698D01*
X144554Y80644D01*
X144609Y80588D01*
X144661Y80529D01*
X144710Y80467D01*
X144756Y80403D01*
X144799Y80337D01*
X144839Y80269D01*
X144875Y80199D01*
X144907Y80127D01*
X144936Y80053D01*
X144961Y79979D01*
X144982Y79903D01*
X145000Y79826D01*
X145013Y79748D01*
X145023Y79670D01*
X145029Y79592D01*
X145031Y79513D01*
X145031Y78723D01*
X141871Y78723D01*
X148167Y76352D02*
X148167Y81094D01*
X151723Y81094D01*
X151723Y81093D02*
X151789Y81091D01*
X151856Y81086D01*
X151921Y81076D01*
X151987Y81063D01*
X152051Y81047D01*
X152114Y81027D01*
X152176Y81003D01*
X152237Y80976D01*
X152296Y80945D01*
X152353Y80911D01*
X152409Y80874D01*
X152462Y80834D01*
X152513Y80792D01*
X152561Y80746D01*
X152607Y80698D01*
X152649Y80647D01*
X152689Y80594D01*
X152726Y80538D01*
X152760Y80481D01*
X152791Y80422D01*
X152818Y80361D01*
X152842Y80299D01*
X152862Y80236D01*
X152878Y80172D01*
X152891Y80106D01*
X152901Y80041D01*
X152906Y79974D01*
X152908Y79908D01*
X152908Y76352D01*
X150538Y76352D02*
X150538Y81094D01*
X156305Y81094D02*
X156305Y73982D01*
X156305Y81094D02*
X158280Y81094D01*
X158280Y81093D02*
X158346Y81091D01*
X158413Y81086D01*
X158478Y81076D01*
X158544Y81063D01*
X158608Y81047D01*
X158671Y81027D01*
X158733Y81003D01*
X158794Y80976D01*
X158853Y80945D01*
X158910Y80911D01*
X158966Y80874D01*
X159019Y80834D01*
X159070Y80792D01*
X159118Y80746D01*
X159164Y80698D01*
X159206Y80647D01*
X159246Y80594D01*
X159283Y80538D01*
X159317Y80481D01*
X159348Y80422D01*
X159375Y80362D01*
X159398Y80299D01*
X159419Y80236D01*
X159435Y80172D01*
X159448Y80107D01*
X159458Y80041D01*
X159463Y79974D01*
X159465Y79908D01*
X159466Y79908D02*
X159466Y77538D01*
X159465Y77538D02*
X159463Y77472D01*
X159458Y77405D01*
X159448Y77340D01*
X159435Y77274D01*
X159419Y77210D01*
X159399Y77147D01*
X159375Y77085D01*
X159348Y77024D01*
X159317Y76965D01*
X159283Y76908D01*
X159246Y76852D01*
X159206Y76799D01*
X159164Y76748D01*
X159118Y76700D01*
X159070Y76654D01*
X159019Y76612D01*
X158966Y76572D01*
X158910Y76535D01*
X158853Y76501D01*
X158794Y76470D01*
X158733Y76443D01*
X158671Y76419D01*
X158608Y76399D01*
X158544Y76383D01*
X158478Y76370D01*
X158413Y76360D01*
X158346Y76355D01*
X158280Y76353D01*
X158280Y76352D02*
X156305Y76352D01*
X161987Y75562D02*
X165148Y84255D01*
X167993Y83464D02*
X167993Y76352D01*
X167993Y80303D02*
X171944Y80303D01*
X171944Y83464D02*
X171944Y76352D01*
X175246Y77538D02*
X175246Y81094D01*
X175246Y77538D02*
X175248Y77472D01*
X175253Y77405D01*
X175263Y77340D01*
X175276Y77274D01*
X175292Y77210D01*
X175312Y77147D01*
X175336Y77085D01*
X175363Y77024D01*
X175394Y76965D01*
X175428Y76908D01*
X175465Y76852D01*
X175505Y76799D01*
X175547Y76748D01*
X175593Y76700D01*
X175641Y76654D01*
X175692Y76612D01*
X175745Y76572D01*
X175801Y76535D01*
X175858Y76501D01*
X175917Y76470D01*
X175978Y76443D01*
X176040Y76419D01*
X176103Y76399D01*
X176167Y76383D01*
X176233Y76370D01*
X176298Y76360D01*
X176365Y76355D01*
X176431Y76353D01*
X176431Y76352D02*
X178407Y76352D01*
X178407Y81094D01*
X181771Y81094D02*
X181771Y76352D01*
X181771Y81094D02*
X185327Y81094D01*
X185327Y81093D02*
X185393Y81091D01*
X185460Y81086D01*
X185525Y81076D01*
X185591Y81063D01*
X185655Y81047D01*
X185718Y81027D01*
X185780Y81003D01*
X185841Y80976D01*
X185900Y80945D01*
X185957Y80911D01*
X186013Y80874D01*
X186066Y80834D01*
X186117Y80792D01*
X186165Y80746D01*
X186211Y80698D01*
X186253Y80647D01*
X186293Y80594D01*
X186330Y80538D01*
X186364Y80481D01*
X186395Y80422D01*
X186422Y80361D01*
X186446Y80299D01*
X186466Y80236D01*
X186482Y80172D01*
X186495Y80106D01*
X186505Y80041D01*
X186510Y79974D01*
X186512Y79908D01*
X186512Y76352D01*
X184142Y76352D02*
X184142Y81094D01*
X139483Y66503D02*
X139481Y66425D01*
X139475Y66348D01*
X139466Y66271D01*
X139453Y66195D01*
X139436Y66119D01*
X139415Y66044D01*
X139391Y65971D01*
X139363Y65898D01*
X139331Y65827D01*
X139296Y65758D01*
X139258Y65691D01*
X139217Y65625D01*
X139172Y65562D01*
X139124Y65501D01*
X139074Y65442D01*
X139020Y65386D01*
X138964Y65332D01*
X138905Y65282D01*
X138844Y65234D01*
X138781Y65189D01*
X138715Y65148D01*
X138648Y65110D01*
X138579Y65075D01*
X138508Y65043D01*
X138435Y65015D01*
X138362Y64991D01*
X138287Y64970D01*
X138211Y64953D01*
X138135Y64940D01*
X138058Y64931D01*
X137981Y64925D01*
X137903Y64923D01*
X137903Y64922D02*
X137788Y64924D01*
X137674Y64930D01*
X137560Y64940D01*
X137446Y64953D01*
X137333Y64971D01*
X137220Y64993D01*
X137108Y65018D01*
X136998Y65047D01*
X136888Y65080D01*
X136779Y65117D01*
X136672Y65157D01*
X136566Y65201D01*
X136462Y65249D01*
X136359Y65300D01*
X136259Y65355D01*
X136160Y65413D01*
X136063Y65475D01*
X135969Y65539D01*
X135876Y65607D01*
X135786Y65679D01*
X135699Y65753D01*
X135614Y65830D01*
X135532Y65910D01*
X135730Y70454D02*
X135732Y70532D01*
X135738Y70609D01*
X135747Y70686D01*
X135760Y70762D01*
X135777Y70838D01*
X135798Y70913D01*
X135822Y70986D01*
X135850Y71059D01*
X135882Y71130D01*
X135917Y71199D01*
X135955Y71266D01*
X135996Y71332D01*
X136041Y71395D01*
X136089Y71456D01*
X136139Y71515D01*
X136193Y71571D01*
X136249Y71625D01*
X136308Y71675D01*
X136369Y71723D01*
X136432Y71768D01*
X136498Y71809D01*
X136565Y71847D01*
X136634Y71882D01*
X136705Y71914D01*
X136778Y71942D01*
X136851Y71966D01*
X136926Y71987D01*
X137002Y72004D01*
X137078Y72017D01*
X137155Y72026D01*
X137233Y72032D01*
X137310Y72034D01*
X137416Y72032D01*
X137522Y72026D01*
X137627Y72017D01*
X137732Y72004D01*
X137837Y71987D01*
X137941Y71966D01*
X138044Y71942D01*
X138146Y71914D01*
X138247Y71882D01*
X138347Y71847D01*
X138445Y71808D01*
X138543Y71765D01*
X138638Y71720D01*
X138732Y71671D01*
X138824Y71618D01*
X138914Y71562D01*
X139002Y71503D01*
X139088Y71441D01*
X136519Y69071D02*
X136452Y69113D01*
X136387Y69158D01*
X136324Y69207D01*
X136263Y69258D01*
X136206Y69313D01*
X136151Y69370D01*
X136098Y69430D01*
X136049Y69492D01*
X136003Y69557D01*
X135961Y69623D01*
X135921Y69692D01*
X135885Y69763D01*
X135853Y69836D01*
X135824Y69910D01*
X135799Y69985D01*
X135778Y70061D01*
X135760Y70139D01*
X135747Y70217D01*
X135737Y70296D01*
X135731Y70375D01*
X135729Y70454D01*
X138693Y67886D02*
X138760Y67844D01*
X138825Y67799D01*
X138888Y67750D01*
X138949Y67699D01*
X139006Y67644D01*
X139061Y67587D01*
X139114Y67527D01*
X139163Y67465D01*
X139209Y67400D01*
X139251Y67334D01*
X139291Y67265D01*
X139327Y67194D01*
X139359Y67121D01*
X139388Y67047D01*
X139413Y66972D01*
X139434Y66896D01*
X139452Y66818D01*
X139465Y66740D01*
X139475Y66661D01*
X139481Y66582D01*
X139483Y66503D01*
X138693Y67886D02*
X136520Y69071D01*
X143284Y64922D02*
X145260Y64922D01*
X143284Y64923D02*
X143218Y64925D01*
X143151Y64930D01*
X143086Y64940D01*
X143020Y64953D01*
X142956Y64969D01*
X142893Y64989D01*
X142831Y65013D01*
X142770Y65040D01*
X142711Y65071D01*
X142654Y65105D01*
X142598Y65142D01*
X142545Y65182D01*
X142494Y65224D01*
X142446Y65270D01*
X142400Y65318D01*
X142358Y65369D01*
X142318Y65422D01*
X142281Y65478D01*
X142247Y65535D01*
X142216Y65594D01*
X142189Y65655D01*
X142165Y65717D01*
X142145Y65780D01*
X142129Y65844D01*
X142116Y65910D01*
X142106Y65975D01*
X142101Y66042D01*
X142099Y66108D01*
X142099Y68083D01*
X142100Y68083D02*
X142102Y68162D01*
X142108Y68240D01*
X142118Y68318D01*
X142131Y68396D01*
X142149Y68473D01*
X142170Y68549D01*
X142195Y68623D01*
X142224Y68697D01*
X142256Y68769D01*
X142292Y68839D01*
X142332Y68907D01*
X142375Y68973D01*
X142421Y69037D01*
X142470Y69099D01*
X142522Y69158D01*
X142577Y69214D01*
X142635Y69268D01*
X142695Y69318D01*
X142758Y69366D01*
X142823Y69410D01*
X142890Y69451D01*
X142959Y69489D01*
X143030Y69523D01*
X143103Y69554D01*
X143177Y69581D01*
X143252Y69604D01*
X143328Y69623D01*
X143406Y69639D01*
X143484Y69651D01*
X143562Y69659D01*
X143641Y69663D01*
X143719Y69663D01*
X143798Y69659D01*
X143876Y69651D01*
X143954Y69639D01*
X144032Y69623D01*
X144108Y69604D01*
X144183Y69581D01*
X144257Y69554D01*
X144330Y69523D01*
X144401Y69489D01*
X144470Y69451D01*
X144537Y69410D01*
X144602Y69366D01*
X144665Y69318D01*
X144725Y69268D01*
X144783Y69214D01*
X144838Y69158D01*
X144890Y69099D01*
X144939Y69037D01*
X144985Y68973D01*
X145028Y68907D01*
X145068Y68839D01*
X145104Y68769D01*
X145136Y68697D01*
X145165Y68623D01*
X145190Y68549D01*
X145211Y68473D01*
X145229Y68396D01*
X145242Y68318D01*
X145252Y68240D01*
X145258Y68162D01*
X145260Y68083D01*
X145260Y67293D01*
X142099Y67293D01*
X148271Y64922D02*
X148271Y69664D01*
X150247Y69664D01*
X150247Y69663D02*
X150313Y69661D01*
X150380Y69656D01*
X150445Y69646D01*
X150511Y69633D01*
X150575Y69617D01*
X150638Y69597D01*
X150700Y69573D01*
X150761Y69546D01*
X150820Y69515D01*
X150877Y69481D01*
X150933Y69444D01*
X150986Y69404D01*
X151037Y69362D01*
X151085Y69316D01*
X151131Y69268D01*
X151173Y69217D01*
X151213Y69164D01*
X151250Y69108D01*
X151284Y69051D01*
X151315Y68992D01*
X151342Y68932D01*
X151365Y68869D01*
X151386Y68806D01*
X151402Y68742D01*
X151415Y68677D01*
X151425Y68611D01*
X151430Y68544D01*
X151432Y68478D01*
X151432Y64922D01*
X155036Y67688D02*
X157012Y66898D01*
X155037Y67688D02*
X154979Y67713D01*
X154923Y67742D01*
X154868Y67774D01*
X154816Y67810D01*
X154766Y67849D01*
X154719Y67890D01*
X154674Y67935D01*
X154632Y67982D01*
X154593Y68031D01*
X154557Y68083D01*
X154524Y68137D01*
X154495Y68193D01*
X154469Y68251D01*
X154447Y68310D01*
X154429Y68371D01*
X154414Y68432D01*
X154403Y68494D01*
X154396Y68557D01*
X154393Y68620D01*
X154394Y68683D01*
X154399Y68746D01*
X154407Y68809D01*
X154420Y68871D01*
X154436Y68932D01*
X154456Y68992D01*
X154479Y69050D01*
X154506Y69107D01*
X154537Y69162D01*
X154571Y69216D01*
X154608Y69267D01*
X154648Y69315D01*
X154691Y69362D01*
X154737Y69405D01*
X154786Y69445D01*
X154837Y69483D01*
X154890Y69517D01*
X154945Y69548D01*
X155002Y69575D01*
X155060Y69599D01*
X155120Y69619D01*
X155181Y69635D01*
X155243Y69648D01*
X155306Y69657D01*
X155368Y69662D01*
X155432Y69663D01*
X155431Y69664D02*
X155562Y69660D01*
X155693Y69652D01*
X155823Y69641D01*
X155953Y69626D01*
X156083Y69606D01*
X156212Y69584D01*
X156340Y69557D01*
X156468Y69527D01*
X156594Y69493D01*
X156720Y69455D01*
X156844Y69414D01*
X156967Y69369D01*
X157089Y69320D01*
X157209Y69268D01*
X157011Y66898D02*
X157069Y66873D01*
X157125Y66844D01*
X157180Y66812D01*
X157232Y66776D01*
X157282Y66737D01*
X157329Y66696D01*
X157374Y66651D01*
X157416Y66604D01*
X157455Y66555D01*
X157491Y66503D01*
X157524Y66449D01*
X157553Y66393D01*
X157579Y66335D01*
X157601Y66276D01*
X157619Y66215D01*
X157634Y66154D01*
X157645Y66092D01*
X157652Y66029D01*
X157655Y65966D01*
X157654Y65903D01*
X157649Y65840D01*
X157641Y65777D01*
X157628Y65715D01*
X157612Y65654D01*
X157592Y65594D01*
X157569Y65536D01*
X157542Y65479D01*
X157511Y65424D01*
X157477Y65370D01*
X157440Y65319D01*
X157400Y65271D01*
X157357Y65224D01*
X157311Y65181D01*
X157262Y65141D01*
X157211Y65103D01*
X157158Y65069D01*
X157103Y65038D01*
X157046Y65011D01*
X156988Y64987D01*
X156928Y64967D01*
X156867Y64951D01*
X156805Y64938D01*
X156742Y64929D01*
X156680Y64924D01*
X156616Y64923D01*
X156616Y64922D02*
X156458Y64926D01*
X156300Y64934D01*
X156142Y64945D01*
X155984Y64961D01*
X155826Y64980D01*
X155670Y65003D01*
X155513Y65029D01*
X155358Y65059D01*
X155203Y65093D01*
X155049Y65131D01*
X154896Y65172D01*
X154744Y65217D01*
X154593Y65265D01*
X154443Y65317D01*
X160387Y66503D02*
X160387Y68083D01*
X160389Y68162D01*
X160395Y68240D01*
X160405Y68318D01*
X160418Y68396D01*
X160436Y68473D01*
X160457Y68549D01*
X160482Y68623D01*
X160511Y68697D01*
X160543Y68769D01*
X160579Y68839D01*
X160619Y68907D01*
X160662Y68973D01*
X160708Y69037D01*
X160757Y69099D01*
X160809Y69158D01*
X160864Y69214D01*
X160922Y69268D01*
X160982Y69318D01*
X161045Y69366D01*
X161110Y69410D01*
X161177Y69451D01*
X161246Y69489D01*
X161317Y69523D01*
X161390Y69554D01*
X161464Y69581D01*
X161539Y69604D01*
X161615Y69623D01*
X161693Y69639D01*
X161771Y69651D01*
X161849Y69659D01*
X161928Y69663D01*
X162006Y69663D01*
X162085Y69659D01*
X162163Y69651D01*
X162241Y69639D01*
X162319Y69623D01*
X162395Y69604D01*
X162470Y69581D01*
X162544Y69554D01*
X162617Y69523D01*
X162688Y69489D01*
X162757Y69451D01*
X162824Y69410D01*
X162889Y69366D01*
X162952Y69318D01*
X163012Y69268D01*
X163070Y69214D01*
X163125Y69158D01*
X163177Y69099D01*
X163226Y69037D01*
X163272Y68973D01*
X163315Y68907D01*
X163355Y68839D01*
X163391Y68769D01*
X163423Y68697D01*
X163452Y68623D01*
X163477Y68549D01*
X163498Y68473D01*
X163516Y68396D01*
X163529Y68318D01*
X163539Y68240D01*
X163545Y68162D01*
X163547Y68083D01*
X163548Y68083D02*
X163548Y66503D01*
X163547Y66503D02*
X163545Y66424D01*
X163539Y66346D01*
X163529Y66268D01*
X163516Y66190D01*
X163498Y66113D01*
X163477Y66037D01*
X163452Y65963D01*
X163423Y65889D01*
X163391Y65817D01*
X163355Y65747D01*
X163315Y65679D01*
X163272Y65613D01*
X163226Y65549D01*
X163177Y65487D01*
X163125Y65428D01*
X163070Y65372D01*
X163012Y65318D01*
X162952Y65268D01*
X162889Y65220D01*
X162824Y65176D01*
X162757Y65135D01*
X162688Y65097D01*
X162617Y65063D01*
X162544Y65032D01*
X162470Y65005D01*
X162395Y64982D01*
X162319Y64963D01*
X162241Y64947D01*
X162163Y64935D01*
X162085Y64927D01*
X162006Y64923D01*
X161928Y64923D01*
X161849Y64927D01*
X161771Y64935D01*
X161693Y64947D01*
X161615Y64963D01*
X161539Y64982D01*
X161464Y65005D01*
X161390Y65032D01*
X161317Y65063D01*
X161246Y65097D01*
X161177Y65135D01*
X161110Y65176D01*
X161045Y65220D01*
X160982Y65268D01*
X160922Y65318D01*
X160864Y65372D01*
X160809Y65428D01*
X160757Y65487D01*
X160708Y65549D01*
X160662Y65613D01*
X160619Y65679D01*
X160579Y65747D01*
X160543Y65817D01*
X160511Y65889D01*
X160482Y65963D01*
X160457Y66037D01*
X160436Y66113D01*
X160418Y66190D01*
X160405Y66268D01*
X160395Y66346D01*
X160389Y66424D01*
X160387Y66503D01*
X166596Y64922D02*
X166596Y69664D01*
X168966Y69664D01*
X168966Y68873D01*
X213575Y72034D02*
X213575Y64922D01*
X212785Y64922D02*
X214365Y64922D01*
X214365Y72034D02*
X212785Y72034D01*
X219259Y72034D02*
X219341Y72032D01*
X219423Y72026D01*
X219505Y72017D01*
X219586Y72004D01*
X219666Y71987D01*
X219746Y71966D01*
X219824Y71942D01*
X219901Y71914D01*
X219977Y71883D01*
X220052Y71848D01*
X220124Y71809D01*
X220195Y71768D01*
X220264Y71723D01*
X220330Y71675D01*
X220395Y71624D01*
X220457Y71570D01*
X220516Y71513D01*
X220573Y71454D01*
X220627Y71392D01*
X220678Y71327D01*
X220726Y71261D01*
X220771Y71192D01*
X220812Y71121D01*
X220851Y71049D01*
X220886Y70974D01*
X220917Y70898D01*
X220945Y70821D01*
X220969Y70743D01*
X220990Y70663D01*
X221007Y70583D01*
X221020Y70502D01*
X221029Y70420D01*
X221035Y70338D01*
X221037Y70256D01*
X219259Y72034D02*
X219166Y72032D01*
X219074Y72026D01*
X218982Y72017D01*
X218890Y72004D01*
X218799Y71987D01*
X218709Y71967D01*
X218619Y71943D01*
X218531Y71915D01*
X218443Y71883D01*
X218358Y71849D01*
X218273Y71810D01*
X218191Y71769D01*
X218110Y71724D01*
X218030Y71675D01*
X217953Y71624D01*
X217878Y71570D01*
X217806Y71512D01*
X217736Y71452D01*
X217668Y71388D01*
X217603Y71323D01*
X217540Y71254D01*
X217481Y71183D01*
X217424Y71110D01*
X217370Y71034D01*
X217320Y70957D01*
X217272Y70877D01*
X217228Y70796D01*
X217188Y70712D01*
X217150Y70628D01*
X217116Y70541D01*
X217086Y70454D01*
X220444Y68873D02*
X220505Y68934D01*
X220563Y68997D01*
X220618Y69063D01*
X220671Y69131D01*
X220720Y69202D01*
X220765Y69274D01*
X220808Y69349D01*
X220847Y69425D01*
X220883Y69504D01*
X220915Y69583D01*
X220943Y69664D01*
X220968Y69747D01*
X220989Y69830D01*
X221006Y69914D01*
X221020Y69999D01*
X221029Y70084D01*
X221035Y70170D01*
X221037Y70256D01*
X220444Y68873D02*
X217086Y64922D01*
X221037Y64922D01*
X225506Y64922D02*
X227086Y64922D01*
X225506Y64923D02*
X225428Y64925D01*
X225351Y64931D01*
X225274Y64940D01*
X225198Y64953D01*
X225122Y64970D01*
X225047Y64991D01*
X224974Y65015D01*
X224901Y65043D01*
X224830Y65075D01*
X224761Y65110D01*
X224694Y65148D01*
X224628Y65189D01*
X224565Y65234D01*
X224504Y65282D01*
X224445Y65332D01*
X224389Y65386D01*
X224335Y65442D01*
X224285Y65501D01*
X224237Y65562D01*
X224192Y65625D01*
X224151Y65691D01*
X224113Y65758D01*
X224078Y65827D01*
X224046Y65898D01*
X224018Y65971D01*
X223994Y66044D01*
X223973Y66119D01*
X223956Y66195D01*
X223943Y66271D01*
X223934Y66348D01*
X223928Y66425D01*
X223926Y66503D01*
X223925Y66503D02*
X223925Y70454D01*
X223926Y70454D02*
X223928Y70532D01*
X223934Y70609D01*
X223943Y70686D01*
X223956Y70762D01*
X223973Y70838D01*
X223994Y70913D01*
X224018Y70986D01*
X224046Y71059D01*
X224078Y71130D01*
X224113Y71199D01*
X224151Y71266D01*
X224192Y71332D01*
X224237Y71395D01*
X224285Y71456D01*
X224335Y71515D01*
X224389Y71571D01*
X224445Y71625D01*
X224504Y71675D01*
X224565Y71723D01*
X224628Y71768D01*
X224694Y71809D01*
X224761Y71847D01*
X224830Y71882D01*
X224901Y71914D01*
X224974Y71942D01*
X225047Y71966D01*
X225122Y71987D01*
X225198Y72004D01*
X225274Y72017D01*
X225351Y72026D01*
X225428Y72032D01*
X225506Y72034D01*
X227086Y72034D01*
X235292Y72034D02*
X232921Y64922D01*
X237662Y64922D02*
X235292Y72034D01*
X237070Y66700D02*
X233514Y66700D01*
X243241Y64922D02*
X243241Y72034D01*
X243241Y64922D02*
X241265Y64922D01*
X241265Y64923D02*
X241199Y64925D01*
X241132Y64930D01*
X241067Y64940D01*
X241001Y64953D01*
X240937Y64969D01*
X240874Y64989D01*
X240812Y65013D01*
X240751Y65040D01*
X240692Y65071D01*
X240635Y65105D01*
X240579Y65142D01*
X240526Y65182D01*
X240475Y65224D01*
X240427Y65270D01*
X240381Y65318D01*
X240339Y65369D01*
X240299Y65422D01*
X240262Y65478D01*
X240228Y65535D01*
X240197Y65594D01*
X240170Y65655D01*
X240146Y65717D01*
X240126Y65780D01*
X240110Y65844D01*
X240097Y65910D01*
X240087Y65975D01*
X240082Y66042D01*
X240080Y66108D01*
X240080Y68478D01*
X240082Y68544D01*
X240087Y68611D01*
X240097Y68676D01*
X240110Y68742D01*
X240126Y68806D01*
X240146Y68869D01*
X240170Y68931D01*
X240197Y68992D01*
X240228Y69051D01*
X240262Y69108D01*
X240299Y69164D01*
X240339Y69217D01*
X240381Y69268D01*
X240427Y69316D01*
X240475Y69362D01*
X240526Y69404D01*
X240579Y69444D01*
X240635Y69481D01*
X240692Y69515D01*
X240751Y69546D01*
X240812Y69573D01*
X240874Y69597D01*
X240937Y69617D01*
X241001Y69633D01*
X241067Y69646D01*
X241132Y69656D01*
X241199Y69661D01*
X241265Y69663D01*
X241265Y69664D02*
X243241Y69664D01*
X249413Y72034D02*
X249413Y64922D01*
X247437Y64922D01*
X247437Y64923D02*
X247371Y64925D01*
X247304Y64930D01*
X247239Y64940D01*
X247173Y64953D01*
X247109Y64969D01*
X247046Y64989D01*
X246984Y65013D01*
X246923Y65040D01*
X246864Y65071D01*
X246807Y65105D01*
X246751Y65142D01*
X246698Y65182D01*
X246647Y65224D01*
X246599Y65270D01*
X246553Y65318D01*
X246511Y65369D01*
X246471Y65422D01*
X246434Y65478D01*
X246400Y65535D01*
X246369Y65594D01*
X246342Y65655D01*
X246318Y65717D01*
X246298Y65780D01*
X246282Y65844D01*
X246269Y65910D01*
X246259Y65975D01*
X246254Y66042D01*
X246252Y66108D01*
X246252Y68478D01*
X246254Y68544D01*
X246259Y68611D01*
X246269Y68676D01*
X246282Y68742D01*
X246298Y68806D01*
X246318Y68869D01*
X246342Y68931D01*
X246369Y68992D01*
X246400Y69051D01*
X246434Y69108D01*
X246471Y69164D01*
X246511Y69217D01*
X246553Y69268D01*
X246599Y69316D01*
X246647Y69362D01*
X246698Y69404D01*
X246751Y69444D01*
X246807Y69481D01*
X246864Y69515D01*
X246923Y69546D01*
X246984Y69573D01*
X247046Y69597D01*
X247109Y69617D01*
X247173Y69633D01*
X247239Y69646D01*
X247304Y69656D01*
X247371Y69661D01*
X247437Y69663D01*
X247437Y69664D02*
X249413Y69664D01*
X252722Y69664D02*
X252722Y64922D01*
X252722Y69664D02*
X255092Y69664D01*
X255092Y68873D01*
X224319Y81178D02*
X224321Y81326D01*
X224326Y81473D01*
X224336Y81621D01*
X224349Y81768D01*
X224365Y81915D01*
X224386Y82061D01*
X224410Y82207D01*
X224438Y82352D01*
X224469Y82496D01*
X224504Y82639D01*
X224543Y82782D01*
X224585Y82923D01*
X224631Y83064D01*
X224680Y83203D01*
X224733Y83341D01*
X224789Y83478D01*
X224849Y83613D01*
X224912Y83746D01*
X224911Y83746D02*
X224937Y83817D01*
X224967Y83886D01*
X225001Y83954D01*
X225038Y84020D01*
X225078Y84084D01*
X225122Y84146D01*
X225168Y84205D01*
X225218Y84262D01*
X225271Y84316D01*
X225326Y84368D01*
X225384Y84416D01*
X225444Y84462D01*
X225507Y84504D01*
X225572Y84543D01*
X225638Y84579D01*
X225707Y84611D01*
X225776Y84639D01*
X225848Y84664D01*
X225920Y84685D01*
X225994Y84703D01*
X226068Y84716D01*
X226143Y84726D01*
X226218Y84732D01*
X226294Y84734D01*
X226370Y84732D01*
X226445Y84726D01*
X226520Y84716D01*
X226594Y84703D01*
X226668Y84685D01*
X226740Y84664D01*
X226811Y84639D01*
X226881Y84611D01*
X226950Y84579D01*
X227016Y84543D01*
X227081Y84504D01*
X227144Y84462D01*
X227204Y84416D01*
X227262Y84368D01*
X227317Y84316D01*
X227370Y84262D01*
X227420Y84205D01*
X227466Y84146D01*
X227510Y84084D01*
X227550Y84020D01*
X227587Y83954D01*
X227621Y83886D01*
X227651Y83817D01*
X227677Y83746D01*
X227740Y83613D01*
X227800Y83478D01*
X227856Y83341D01*
X227909Y83203D01*
X227958Y83064D01*
X228004Y82923D01*
X228046Y82782D01*
X228085Y82639D01*
X228120Y82496D01*
X228151Y82352D01*
X228179Y82207D01*
X228203Y82061D01*
X228224Y81915D01*
X228240Y81768D01*
X228253Y81621D01*
X228263Y81473D01*
X228268Y81326D01*
X228270Y81178D01*
X224319Y81178D02*
X224321Y81030D01*
X224326Y80883D01*
X224336Y80735D01*
X224349Y80588D01*
X224365Y80441D01*
X224386Y80295D01*
X224410Y80150D01*
X224438Y80004D01*
X224469Y79860D01*
X224504Y79717D01*
X224543Y79574D01*
X224585Y79433D01*
X224631Y79292D01*
X224680Y79153D01*
X224733Y79015D01*
X224789Y78878D01*
X224849Y78743D01*
X224912Y78610D01*
X224911Y78610D02*
X224937Y78539D01*
X224967Y78470D01*
X225001Y78402D01*
X225038Y78336D01*
X225078Y78272D01*
X225122Y78210D01*
X225168Y78151D01*
X225218Y78094D01*
X225271Y78040D01*
X225326Y77988D01*
X225384Y77940D01*
X225444Y77894D01*
X225507Y77852D01*
X225572Y77813D01*
X225638Y77777D01*
X225707Y77745D01*
X225777Y77717D01*
X225848Y77692D01*
X225920Y77671D01*
X225994Y77653D01*
X226068Y77640D01*
X226143Y77630D01*
X226218Y77624D01*
X226294Y77622D01*
X227677Y78610D02*
X227740Y78743D01*
X227800Y78878D01*
X227856Y79015D01*
X227909Y79153D01*
X227958Y79292D01*
X228004Y79433D01*
X228046Y79574D01*
X228085Y79717D01*
X228120Y79860D01*
X228151Y80004D01*
X228179Y80150D01*
X228203Y80295D01*
X228224Y80441D01*
X228240Y80588D01*
X228253Y80735D01*
X228263Y80883D01*
X228268Y81030D01*
X228270Y81178D01*
X227677Y78610D02*
X227651Y78539D01*
X227621Y78470D01*
X227587Y78402D01*
X227550Y78336D01*
X227510Y78272D01*
X227466Y78210D01*
X227420Y78151D01*
X227370Y78094D01*
X227317Y78040D01*
X227262Y77988D01*
X227204Y77940D01*
X227144Y77894D01*
X227081Y77852D01*
X227016Y77813D01*
X226950Y77777D01*
X226881Y77745D01*
X226811Y77717D01*
X226740Y77692D01*
X226668Y77671D01*
X226594Y77653D01*
X226520Y77640D01*
X226445Y77630D01*
X226370Y77624D01*
X226294Y77622D01*
X224714Y79203D02*
X227875Y83154D01*
X234047Y82364D02*
X230886Y77622D01*
X234047Y77622D02*
X230886Y82364D01*
X236663Y79203D02*
X238244Y84734D01*
X236663Y79203D02*
X240614Y79203D01*
X239429Y80783D02*
X239429Y77622D01*
X243521Y81178D02*
X243523Y81326D01*
X243528Y81473D01*
X243538Y81621D01*
X243551Y81768D01*
X243567Y81915D01*
X243588Y82061D01*
X243612Y82207D01*
X243640Y82352D01*
X243671Y82496D01*
X243706Y82639D01*
X243745Y82782D01*
X243787Y82923D01*
X243833Y83064D01*
X243882Y83203D01*
X243935Y83341D01*
X243991Y83478D01*
X244051Y83613D01*
X244114Y83746D01*
X244140Y83817D01*
X244170Y83886D01*
X244204Y83954D01*
X244241Y84020D01*
X244281Y84084D01*
X244325Y84146D01*
X244371Y84205D01*
X244421Y84262D01*
X244474Y84316D01*
X244529Y84368D01*
X244587Y84416D01*
X244647Y84462D01*
X244710Y84504D01*
X244775Y84543D01*
X244841Y84579D01*
X244910Y84611D01*
X244979Y84639D01*
X245051Y84664D01*
X245123Y84685D01*
X245197Y84703D01*
X245271Y84716D01*
X245346Y84726D01*
X245421Y84732D01*
X245497Y84734D01*
X245573Y84732D01*
X245648Y84726D01*
X245723Y84716D01*
X245797Y84703D01*
X245871Y84685D01*
X245943Y84664D01*
X246014Y84639D01*
X246084Y84611D01*
X246153Y84579D01*
X246219Y84543D01*
X246284Y84504D01*
X246347Y84462D01*
X246407Y84416D01*
X246465Y84368D01*
X246520Y84316D01*
X246573Y84262D01*
X246623Y84205D01*
X246669Y84146D01*
X246713Y84084D01*
X246753Y84020D01*
X246790Y83954D01*
X246824Y83886D01*
X246854Y83817D01*
X246880Y83746D01*
X246879Y83746D02*
X246942Y83613D01*
X247002Y83478D01*
X247058Y83341D01*
X247111Y83203D01*
X247160Y83064D01*
X247206Y82923D01*
X247248Y82782D01*
X247287Y82639D01*
X247322Y82496D01*
X247353Y82352D01*
X247381Y82207D01*
X247405Y82061D01*
X247426Y81915D01*
X247442Y81768D01*
X247455Y81621D01*
X247465Y81473D01*
X247470Y81326D01*
X247472Y81178D01*
X243521Y81178D02*
X243523Y81030D01*
X243528Y80883D01*
X243538Y80735D01*
X243551Y80588D01*
X243567Y80441D01*
X243588Y80295D01*
X243612Y80150D01*
X243640Y80004D01*
X243671Y79860D01*
X243706Y79717D01*
X243745Y79574D01*
X243787Y79433D01*
X243833Y79292D01*
X243882Y79153D01*
X243935Y79015D01*
X243991Y78878D01*
X244051Y78743D01*
X244114Y78610D01*
X244140Y78539D01*
X244170Y78470D01*
X244204Y78402D01*
X244241Y78336D01*
X244281Y78272D01*
X244325Y78210D01*
X244371Y78151D01*
X244421Y78094D01*
X244474Y78040D01*
X244529Y77988D01*
X244587Y77940D01*
X244647Y77894D01*
X244710Y77852D01*
X244775Y77813D01*
X244841Y77777D01*
X244910Y77745D01*
X244980Y77717D01*
X245051Y77692D01*
X245123Y77671D01*
X245197Y77653D01*
X245271Y77640D01*
X245346Y77630D01*
X245421Y77624D01*
X245497Y77622D01*
X246879Y78610D02*
X246942Y78743D01*
X247002Y78878D01*
X247058Y79015D01*
X247111Y79153D01*
X247160Y79292D01*
X247206Y79433D01*
X247248Y79574D01*
X247287Y79717D01*
X247322Y79860D01*
X247353Y80004D01*
X247381Y80150D01*
X247405Y80295D01*
X247426Y80441D01*
X247442Y80588D01*
X247455Y80735D01*
X247465Y80883D01*
X247470Y81030D01*
X247472Y81178D01*
X246880Y78610D02*
X246854Y78539D01*
X246824Y78470D01*
X246790Y78402D01*
X246753Y78336D01*
X246713Y78272D01*
X246669Y78210D01*
X246623Y78151D01*
X246573Y78094D01*
X246520Y78040D01*
X246465Y77988D01*
X246407Y77940D01*
X246347Y77894D01*
X246284Y77852D01*
X246219Y77813D01*
X246153Y77777D01*
X246084Y77745D01*
X246014Y77717D01*
X245943Y77692D01*
X245871Y77671D01*
X245797Y77653D01*
X245723Y77640D01*
X245648Y77630D01*
X245573Y77624D01*
X245497Y77622D01*
X243916Y79203D02*
X247077Y83154D01*
D10*
X257886Y62128D02*
X209626Y62128D01*
X209626Y74828D01*
X257886Y74828D01*
X257886Y62128D01*
X257886Y74828D02*
X257886Y87528D01*
X209626Y87528D01*
X209626Y74828D01*
D12*
X279400Y44450D02*
X279400Y254000D01*
X266700Y241300D02*
X266700Y57150D01*
X254000Y57150D01*
X123190Y190500D02*
X123190Y202883D01*
X123190Y212883D02*
X123190Y225267D01*
X123190Y235267D02*
X123190Y247650D01*
X273050Y61485D02*
X273050Y50800D01*
X273050Y71485D02*
X273050Y82170D01*
X273050Y92170D02*
X273050Y102855D01*
X273050Y112855D02*
X273050Y123540D01*
X273050Y133540D02*
X273050Y144225D01*
X273050Y154225D02*
X273050Y164910D01*
X273050Y174910D02*
X273050Y185595D01*
X273050Y195595D02*
X273050Y206280D01*
X273050Y216280D02*
X273050Y226965D01*
X273050Y236965D02*
X273050Y247650D01*
X232410Y213360D02*
X232410Y200660D01*
X187960Y200660D01*
X187960Y186690D01*
X182880Y191770D01*
X187960Y186690D02*
X193040Y191770D01*
X228600Y127000D02*
X228600Y88900D01*
X222250Y120650D02*
X228600Y127000D01*
X234950Y120650D01*
D11*
X162066Y49908D02*
X157325Y49908D01*
X159696Y47537D02*
X159696Y52279D01*
X165035Y47142D02*
X167011Y47142D01*
X167098Y47144D01*
X167186Y47150D01*
X167273Y47159D01*
X167359Y47173D01*
X167445Y47190D01*
X167529Y47211D01*
X167613Y47236D01*
X167696Y47265D01*
X167777Y47297D01*
X167857Y47332D01*
X167935Y47371D01*
X168012Y47414D01*
X168086Y47460D01*
X168158Y47509D01*
X168228Y47561D01*
X168296Y47617D01*
X168361Y47675D01*
X168424Y47736D01*
X168483Y47800D01*
X168540Y47867D01*
X168594Y47935D01*
X168645Y48007D01*
X168692Y48080D01*
X168737Y48155D01*
X168778Y48233D01*
X168815Y48312D01*
X168849Y48392D01*
X168879Y48474D01*
X168906Y48557D01*
X168929Y48642D01*
X168948Y48727D01*
X168963Y48813D01*
X168975Y48900D01*
X168983Y48987D01*
X168987Y49074D01*
X168987Y49162D01*
X168983Y49249D01*
X168975Y49336D01*
X168963Y49423D01*
X168948Y49509D01*
X168929Y49594D01*
X168906Y49679D01*
X168879Y49762D01*
X168849Y49844D01*
X168815Y49924D01*
X168778Y50003D01*
X168737Y50081D01*
X168692Y50156D01*
X168645Y50229D01*
X168594Y50301D01*
X168540Y50369D01*
X168483Y50436D01*
X168424Y50500D01*
X168361Y50561D01*
X168296Y50619D01*
X168228Y50675D01*
X168158Y50727D01*
X168086Y50776D01*
X168012Y50822D01*
X167935Y50865D01*
X167857Y50904D01*
X167777Y50939D01*
X167696Y50971D01*
X167613Y51000D01*
X167529Y51025D01*
X167445Y51046D01*
X167359Y51063D01*
X167273Y51077D01*
X167186Y51086D01*
X167098Y51092D01*
X167011Y51094D01*
X167406Y54254D02*
X165035Y54254D01*
X167406Y54254D02*
X167485Y54252D01*
X167563Y54246D01*
X167641Y54236D01*
X167719Y54223D01*
X167796Y54205D01*
X167872Y54184D01*
X167946Y54159D01*
X168020Y54130D01*
X168092Y54098D01*
X168162Y54062D01*
X168230Y54022D01*
X168296Y53979D01*
X168360Y53933D01*
X168422Y53884D01*
X168481Y53832D01*
X168537Y53777D01*
X168591Y53719D01*
X168641Y53659D01*
X168689Y53596D01*
X168733Y53531D01*
X168774Y53464D01*
X168812Y53395D01*
X168846Y53324D01*
X168877Y53251D01*
X168904Y53177D01*
X168927Y53102D01*
X168946Y53026D01*
X168962Y52948D01*
X168974Y52870D01*
X168982Y52792D01*
X168986Y52713D01*
X168986Y52635D01*
X168982Y52556D01*
X168974Y52478D01*
X168962Y52400D01*
X168946Y52322D01*
X168927Y52246D01*
X168904Y52171D01*
X168877Y52097D01*
X168846Y52024D01*
X168812Y51953D01*
X168774Y51884D01*
X168733Y51817D01*
X168689Y51752D01*
X168641Y51689D01*
X168591Y51629D01*
X168537Y51571D01*
X168481Y51516D01*
X168422Y51464D01*
X168360Y51415D01*
X168296Y51369D01*
X168230Y51326D01*
X168162Y51286D01*
X168092Y51250D01*
X168020Y51218D01*
X167946Y51189D01*
X167872Y51164D01*
X167796Y51143D01*
X167719Y51125D01*
X167641Y51112D01*
X167563Y51102D01*
X167485Y51096D01*
X167406Y51094D01*
X167406Y51093D02*
X165825Y51093D01*
X171498Y54254D02*
X173869Y47142D01*
X176239Y54254D01*
X178751Y47142D02*
X180727Y47142D01*
X180814Y47144D01*
X180902Y47150D01*
X180989Y47159D01*
X181075Y47173D01*
X181161Y47190D01*
X181245Y47211D01*
X181329Y47236D01*
X181412Y47265D01*
X181493Y47297D01*
X181573Y47332D01*
X181651Y47371D01*
X181728Y47414D01*
X181802Y47460D01*
X181874Y47509D01*
X181944Y47561D01*
X182012Y47617D01*
X182077Y47675D01*
X182140Y47736D01*
X182199Y47800D01*
X182256Y47867D01*
X182310Y47935D01*
X182361Y48007D01*
X182408Y48080D01*
X182453Y48155D01*
X182494Y48233D01*
X182531Y48312D01*
X182565Y48392D01*
X182595Y48474D01*
X182622Y48557D01*
X182645Y48642D01*
X182664Y48727D01*
X182679Y48813D01*
X182691Y48900D01*
X182699Y48987D01*
X182703Y49074D01*
X182703Y49162D01*
X182699Y49249D01*
X182691Y49336D01*
X182679Y49423D01*
X182664Y49509D01*
X182645Y49594D01*
X182622Y49679D01*
X182595Y49762D01*
X182565Y49844D01*
X182531Y49924D01*
X182494Y50003D01*
X182453Y50081D01*
X182408Y50156D01*
X182361Y50229D01*
X182310Y50301D01*
X182256Y50369D01*
X182199Y50436D01*
X182140Y50500D01*
X182077Y50561D01*
X182012Y50619D01*
X181944Y50675D01*
X181874Y50727D01*
X181802Y50776D01*
X181728Y50822D01*
X181651Y50865D01*
X181573Y50904D01*
X181493Y50939D01*
X181412Y50971D01*
X181329Y51000D01*
X181245Y51025D01*
X181161Y51046D01*
X181075Y51063D01*
X180989Y51077D01*
X180902Y51086D01*
X180814Y51092D01*
X180727Y51094D01*
X181122Y54254D02*
X178751Y54254D01*
X181122Y54254D02*
X181201Y54252D01*
X181279Y54246D01*
X181357Y54236D01*
X181435Y54223D01*
X181512Y54205D01*
X181588Y54184D01*
X181662Y54159D01*
X181736Y54130D01*
X181808Y54098D01*
X181878Y54062D01*
X181946Y54022D01*
X182012Y53979D01*
X182076Y53933D01*
X182138Y53884D01*
X182197Y53832D01*
X182253Y53777D01*
X182307Y53719D01*
X182357Y53659D01*
X182405Y53596D01*
X182449Y53531D01*
X182490Y53464D01*
X182528Y53395D01*
X182562Y53324D01*
X182593Y53251D01*
X182620Y53177D01*
X182643Y53102D01*
X182662Y53026D01*
X182678Y52948D01*
X182690Y52870D01*
X182698Y52792D01*
X182702Y52713D01*
X182702Y52635D01*
X182698Y52556D01*
X182690Y52478D01*
X182678Y52400D01*
X182662Y52322D01*
X182643Y52246D01*
X182620Y52171D01*
X182593Y52097D01*
X182562Y52024D01*
X182528Y51953D01*
X182490Y51884D01*
X182449Y51817D01*
X182405Y51752D01*
X182357Y51689D01*
X182307Y51629D01*
X182253Y51571D01*
X182197Y51516D01*
X182138Y51464D01*
X182076Y51415D01*
X182012Y51369D01*
X181946Y51326D01*
X181878Y51286D01*
X181808Y51250D01*
X181736Y51218D01*
X181662Y51189D01*
X181588Y51164D01*
X181512Y51143D01*
X181435Y51125D01*
X181357Y51112D01*
X181279Y51102D01*
X181201Y51096D01*
X181122Y51094D01*
X181122Y51093D02*
X179541Y51093D01*
D12*
X129540Y57150D02*
X129540Y44450D01*
X198120Y44450D02*
X198120Y57150D01*
X266700Y57150D02*
X266700Y44450D01*
X129540Y241300D02*
X129540Y254000D01*
X266700Y254000D02*
X266700Y241300D01*
X199390Y241300D02*
X199390Y254000D01*
D11*
X174865Y203454D02*
X173284Y203454D01*
X173206Y203456D01*
X173129Y203462D01*
X173052Y203471D01*
X172976Y203484D01*
X172900Y203501D01*
X172825Y203522D01*
X172752Y203546D01*
X172679Y203574D01*
X172608Y203606D01*
X172539Y203641D01*
X172472Y203679D01*
X172406Y203720D01*
X172343Y203765D01*
X172282Y203813D01*
X172223Y203863D01*
X172167Y203917D01*
X172113Y203973D01*
X172063Y204032D01*
X172015Y204093D01*
X171970Y204156D01*
X171929Y204222D01*
X171891Y204289D01*
X171856Y204358D01*
X171824Y204429D01*
X171796Y204502D01*
X171772Y204575D01*
X171751Y204650D01*
X171734Y204726D01*
X171721Y204802D01*
X171712Y204879D01*
X171706Y204956D01*
X171704Y205034D01*
X171704Y208986D01*
X171706Y209064D01*
X171712Y209141D01*
X171721Y209218D01*
X171734Y209294D01*
X171751Y209370D01*
X171772Y209445D01*
X171796Y209518D01*
X171824Y209591D01*
X171856Y209662D01*
X171891Y209731D01*
X171929Y209798D01*
X171970Y209864D01*
X172015Y209927D01*
X172063Y209988D01*
X172113Y210047D01*
X172167Y210103D01*
X172223Y210157D01*
X172282Y210207D01*
X172343Y210255D01*
X172406Y210300D01*
X172472Y210341D01*
X172539Y210379D01*
X172608Y210414D01*
X172679Y210446D01*
X172752Y210474D01*
X172825Y210498D01*
X172900Y210519D01*
X172976Y210536D01*
X173052Y210549D01*
X173129Y210558D01*
X173206Y210564D01*
X173284Y210566D01*
X174865Y210566D01*
X177437Y208986D02*
X179413Y210566D01*
X179413Y203454D01*
X181388Y203454D02*
X177437Y203454D01*
X184295Y203454D02*
X186271Y203454D01*
X186358Y203456D01*
X186446Y203462D01*
X186533Y203471D01*
X186619Y203485D01*
X186705Y203502D01*
X186789Y203523D01*
X186873Y203548D01*
X186956Y203577D01*
X187037Y203609D01*
X187117Y203644D01*
X187195Y203683D01*
X187272Y203726D01*
X187346Y203772D01*
X187418Y203821D01*
X187488Y203873D01*
X187556Y203929D01*
X187621Y203987D01*
X187684Y204048D01*
X187743Y204112D01*
X187800Y204179D01*
X187854Y204247D01*
X187905Y204319D01*
X187952Y204392D01*
X187997Y204467D01*
X188038Y204545D01*
X188075Y204624D01*
X188109Y204704D01*
X188139Y204786D01*
X188166Y204869D01*
X188189Y204954D01*
X188208Y205039D01*
X188223Y205125D01*
X188235Y205212D01*
X188243Y205299D01*
X188247Y205386D01*
X188247Y205474D01*
X188243Y205561D01*
X188235Y205648D01*
X188223Y205735D01*
X188208Y205821D01*
X188189Y205906D01*
X188166Y205991D01*
X188139Y206074D01*
X188109Y206156D01*
X188075Y206236D01*
X188038Y206315D01*
X187997Y206393D01*
X187952Y206468D01*
X187905Y206541D01*
X187854Y206613D01*
X187800Y206681D01*
X187743Y206748D01*
X187684Y206812D01*
X187621Y206873D01*
X187556Y206931D01*
X187488Y206987D01*
X187418Y207039D01*
X187346Y207088D01*
X187272Y207134D01*
X187195Y207177D01*
X187117Y207216D01*
X187037Y207251D01*
X186956Y207283D01*
X186873Y207312D01*
X186789Y207337D01*
X186705Y207358D01*
X186619Y207375D01*
X186533Y207389D01*
X186446Y207398D01*
X186358Y207404D01*
X186271Y207406D01*
X186666Y210566D02*
X184295Y210566D01*
X186666Y210566D02*
X186745Y210564D01*
X186823Y210558D01*
X186901Y210548D01*
X186979Y210535D01*
X187056Y210517D01*
X187132Y210496D01*
X187206Y210471D01*
X187280Y210442D01*
X187352Y210410D01*
X187422Y210374D01*
X187490Y210334D01*
X187556Y210291D01*
X187620Y210245D01*
X187682Y210196D01*
X187741Y210144D01*
X187797Y210089D01*
X187851Y210031D01*
X187901Y209971D01*
X187949Y209908D01*
X187993Y209843D01*
X188034Y209776D01*
X188072Y209707D01*
X188106Y209636D01*
X188137Y209563D01*
X188164Y209489D01*
X188187Y209414D01*
X188206Y209338D01*
X188222Y209260D01*
X188234Y209182D01*
X188242Y209104D01*
X188246Y209025D01*
X188246Y208947D01*
X188242Y208868D01*
X188234Y208790D01*
X188222Y208712D01*
X188206Y208634D01*
X188187Y208558D01*
X188164Y208483D01*
X188137Y208409D01*
X188106Y208336D01*
X188072Y208265D01*
X188034Y208196D01*
X187993Y208129D01*
X187949Y208064D01*
X187901Y208001D01*
X187851Y207941D01*
X187797Y207883D01*
X187741Y207828D01*
X187682Y207776D01*
X187620Y207727D01*
X187556Y207681D01*
X187490Y207638D01*
X187422Y207598D01*
X187352Y207562D01*
X187280Y207530D01*
X187206Y207501D01*
X187132Y207476D01*
X187056Y207455D01*
X186979Y207437D01*
X186901Y207424D01*
X186823Y207414D01*
X186745Y207408D01*
X186666Y207406D01*
X186666Y207405D02*
X185085Y207405D01*
X139177Y209578D02*
X139114Y209445D01*
X139054Y209310D01*
X138998Y209173D01*
X138945Y209035D01*
X138896Y208896D01*
X138850Y208755D01*
X138808Y208614D01*
X138769Y208471D01*
X138734Y208328D01*
X138703Y208184D01*
X138675Y208039D01*
X138651Y207893D01*
X138630Y207747D01*
X138614Y207600D01*
X138601Y207453D01*
X138591Y207305D01*
X138586Y207158D01*
X138584Y207010D01*
X139177Y209578D02*
X139203Y209649D01*
X139233Y209718D01*
X139267Y209786D01*
X139304Y209852D01*
X139344Y209916D01*
X139388Y209978D01*
X139434Y210037D01*
X139484Y210094D01*
X139537Y210148D01*
X139592Y210200D01*
X139650Y210248D01*
X139710Y210294D01*
X139773Y210336D01*
X139838Y210375D01*
X139904Y210411D01*
X139973Y210443D01*
X140042Y210471D01*
X140114Y210496D01*
X140186Y210517D01*
X140260Y210535D01*
X140334Y210548D01*
X140409Y210558D01*
X140484Y210564D01*
X140560Y210566D01*
X140636Y210564D01*
X140711Y210558D01*
X140786Y210548D01*
X140860Y210535D01*
X140934Y210517D01*
X141006Y210496D01*
X141077Y210471D01*
X141147Y210443D01*
X141216Y210411D01*
X141282Y210375D01*
X141347Y210336D01*
X141410Y210294D01*
X141470Y210248D01*
X141528Y210200D01*
X141583Y210148D01*
X141636Y210094D01*
X141686Y210037D01*
X141732Y209978D01*
X141776Y209916D01*
X141816Y209852D01*
X141853Y209786D01*
X141887Y209718D01*
X141917Y209649D01*
X141943Y209578D01*
X142006Y209445D01*
X142066Y209310D01*
X142122Y209173D01*
X142175Y209035D01*
X142224Y208896D01*
X142270Y208755D01*
X142312Y208614D01*
X142351Y208471D01*
X142386Y208328D01*
X142417Y208184D01*
X142445Y208039D01*
X142469Y207893D01*
X142490Y207747D01*
X142506Y207600D01*
X142519Y207453D01*
X142529Y207305D01*
X142534Y207158D01*
X142536Y207010D01*
X138584Y207010D02*
X138586Y206862D01*
X138591Y206715D01*
X138601Y206567D01*
X138614Y206420D01*
X138630Y206273D01*
X138651Y206127D01*
X138675Y205982D01*
X138703Y205836D01*
X138734Y205692D01*
X138769Y205549D01*
X138808Y205406D01*
X138850Y205265D01*
X138896Y205124D01*
X138945Y204985D01*
X138998Y204847D01*
X139054Y204710D01*
X139114Y204575D01*
X139177Y204442D01*
X139203Y204371D01*
X139233Y204302D01*
X139267Y204234D01*
X139304Y204168D01*
X139344Y204104D01*
X139388Y204042D01*
X139434Y203983D01*
X139484Y203926D01*
X139537Y203872D01*
X139592Y203820D01*
X139650Y203772D01*
X139710Y203726D01*
X139773Y203684D01*
X139838Y203645D01*
X139904Y203609D01*
X139973Y203577D01*
X140043Y203549D01*
X140114Y203524D01*
X140186Y203503D01*
X140260Y203485D01*
X140334Y203472D01*
X140409Y203462D01*
X140484Y203456D01*
X140560Y203454D01*
X141942Y204442D02*
X142005Y204575D01*
X142065Y204710D01*
X142121Y204847D01*
X142174Y204985D01*
X142223Y205124D01*
X142269Y205265D01*
X142311Y205406D01*
X142350Y205549D01*
X142385Y205692D01*
X142416Y205836D01*
X142444Y205982D01*
X142468Y206127D01*
X142489Y206273D01*
X142505Y206420D01*
X142518Y206567D01*
X142528Y206715D01*
X142533Y206862D01*
X142535Y207010D01*
X141943Y204442D02*
X141917Y204371D01*
X141887Y204302D01*
X141853Y204234D01*
X141816Y204168D01*
X141776Y204104D01*
X141732Y204042D01*
X141686Y203983D01*
X141636Y203926D01*
X141583Y203872D01*
X141528Y203820D01*
X141470Y203772D01*
X141410Y203726D01*
X141347Y203684D01*
X141282Y203645D01*
X141216Y203609D01*
X141147Y203577D01*
X141077Y203549D01*
X141006Y203524D01*
X140934Y203503D01*
X140860Y203485D01*
X140786Y203472D01*
X140711Y203462D01*
X140636Y203456D01*
X140560Y203454D01*
X138979Y205034D02*
X142140Y208986D01*
X145163Y203849D02*
X145163Y203454D01*
X145163Y203849D02*
X145558Y203849D01*
X145558Y203454D01*
X145163Y203454D01*
X148185Y208986D02*
X150161Y210566D01*
X150161Y203454D01*
X152136Y203454D02*
X148185Y203454D01*
X155210Y204639D02*
X155210Y208195D01*
X155210Y204639D02*
X155212Y204573D01*
X155217Y204506D01*
X155227Y204441D01*
X155240Y204375D01*
X155256Y204311D01*
X155276Y204248D01*
X155300Y204186D01*
X155327Y204125D01*
X155358Y204066D01*
X155392Y204009D01*
X155429Y203953D01*
X155469Y203900D01*
X155511Y203849D01*
X155557Y203801D01*
X155605Y203755D01*
X155656Y203713D01*
X155709Y203673D01*
X155765Y203636D01*
X155822Y203602D01*
X155881Y203571D01*
X155942Y203544D01*
X156004Y203520D01*
X156067Y203500D01*
X156131Y203484D01*
X156197Y203471D01*
X156262Y203461D01*
X156329Y203456D01*
X156395Y203454D01*
X158371Y203454D01*
X158371Y208195D01*
X161685Y210566D02*
X161685Y203454D01*
X161685Y210566D02*
X164846Y210566D01*
X164846Y207405D02*
X161685Y207405D01*
X245134Y194564D02*
X246715Y194564D01*
X245134Y194564D02*
X245056Y194566D01*
X244979Y194572D01*
X244902Y194581D01*
X244826Y194594D01*
X244750Y194611D01*
X244675Y194632D01*
X244602Y194656D01*
X244529Y194684D01*
X244458Y194716D01*
X244389Y194751D01*
X244322Y194789D01*
X244256Y194830D01*
X244193Y194875D01*
X244132Y194923D01*
X244073Y194973D01*
X244017Y195027D01*
X243963Y195083D01*
X243913Y195142D01*
X243865Y195203D01*
X243820Y195266D01*
X243779Y195332D01*
X243741Y195399D01*
X243706Y195468D01*
X243674Y195539D01*
X243646Y195612D01*
X243622Y195685D01*
X243601Y195760D01*
X243584Y195836D01*
X243571Y195912D01*
X243562Y195989D01*
X243556Y196066D01*
X243554Y196144D01*
X243554Y200096D01*
X243556Y200174D01*
X243562Y200251D01*
X243571Y200328D01*
X243584Y200404D01*
X243601Y200480D01*
X243622Y200555D01*
X243646Y200628D01*
X243674Y200701D01*
X243706Y200772D01*
X243741Y200841D01*
X243779Y200908D01*
X243820Y200974D01*
X243865Y201037D01*
X243913Y201098D01*
X243963Y201157D01*
X244017Y201213D01*
X244073Y201267D01*
X244132Y201317D01*
X244193Y201365D01*
X244256Y201410D01*
X244322Y201451D01*
X244389Y201489D01*
X244458Y201524D01*
X244529Y201556D01*
X244602Y201584D01*
X244675Y201608D01*
X244750Y201629D01*
X244826Y201646D01*
X244902Y201659D01*
X244979Y201668D01*
X245056Y201674D01*
X245134Y201676D01*
X246715Y201676D01*
X249287Y200096D02*
X251262Y201676D01*
X251262Y194564D01*
X249287Y194564D02*
X253238Y194564D01*
X256145Y194564D02*
X258516Y194564D01*
X258594Y194566D01*
X258671Y194572D01*
X258748Y194581D01*
X258824Y194594D01*
X258900Y194611D01*
X258975Y194632D01*
X259048Y194656D01*
X259121Y194684D01*
X259192Y194716D01*
X259261Y194751D01*
X259328Y194789D01*
X259394Y194830D01*
X259457Y194875D01*
X259518Y194923D01*
X259577Y194973D01*
X259633Y195027D01*
X259687Y195083D01*
X259737Y195142D01*
X259785Y195203D01*
X259830Y195266D01*
X259871Y195332D01*
X259909Y195399D01*
X259944Y195468D01*
X259976Y195539D01*
X260004Y195612D01*
X260028Y195685D01*
X260049Y195760D01*
X260066Y195836D01*
X260079Y195912D01*
X260088Y195989D01*
X260094Y196066D01*
X260096Y196144D01*
X260096Y196935D01*
X260094Y197013D01*
X260088Y197090D01*
X260079Y197167D01*
X260066Y197243D01*
X260049Y197319D01*
X260028Y197394D01*
X260004Y197467D01*
X259976Y197540D01*
X259944Y197611D01*
X259909Y197680D01*
X259871Y197747D01*
X259830Y197813D01*
X259785Y197876D01*
X259737Y197937D01*
X259687Y197996D01*
X259633Y198052D01*
X259577Y198106D01*
X259518Y198156D01*
X259457Y198204D01*
X259394Y198249D01*
X259328Y198290D01*
X259261Y198328D01*
X259192Y198363D01*
X259121Y198395D01*
X259048Y198423D01*
X258975Y198447D01*
X258900Y198468D01*
X258824Y198485D01*
X258748Y198498D01*
X258671Y198507D01*
X258594Y198513D01*
X258516Y198515D01*
X256145Y198515D01*
X256145Y201676D01*
X260096Y201676D01*
X242147Y191798D02*
X242084Y191665D01*
X242024Y191530D01*
X241968Y191393D01*
X241915Y191255D01*
X241866Y191116D01*
X241820Y190975D01*
X241778Y190834D01*
X241739Y190691D01*
X241704Y190548D01*
X241673Y190404D01*
X241645Y190259D01*
X241621Y190113D01*
X241600Y189967D01*
X241584Y189820D01*
X241571Y189673D01*
X241561Y189525D01*
X241556Y189378D01*
X241554Y189230D01*
X242147Y191798D02*
X242173Y191869D01*
X242203Y191938D01*
X242237Y192006D01*
X242274Y192072D01*
X242314Y192136D01*
X242358Y192198D01*
X242404Y192257D01*
X242454Y192314D01*
X242507Y192368D01*
X242562Y192420D01*
X242620Y192468D01*
X242680Y192514D01*
X242743Y192556D01*
X242808Y192595D01*
X242874Y192631D01*
X242943Y192663D01*
X243012Y192691D01*
X243084Y192716D01*
X243156Y192737D01*
X243230Y192755D01*
X243304Y192768D01*
X243379Y192778D01*
X243454Y192784D01*
X243530Y192786D01*
X243606Y192784D01*
X243681Y192778D01*
X243756Y192768D01*
X243830Y192755D01*
X243904Y192737D01*
X243976Y192716D01*
X244047Y192691D01*
X244117Y192663D01*
X244186Y192631D01*
X244252Y192595D01*
X244317Y192556D01*
X244380Y192514D01*
X244440Y192468D01*
X244498Y192420D01*
X244553Y192368D01*
X244606Y192314D01*
X244656Y192257D01*
X244702Y192198D01*
X244746Y192136D01*
X244786Y192072D01*
X244823Y192006D01*
X244857Y191938D01*
X244887Y191869D01*
X244913Y191798D01*
X244912Y191798D02*
X244975Y191665D01*
X245035Y191530D01*
X245091Y191393D01*
X245144Y191255D01*
X245193Y191116D01*
X245239Y190975D01*
X245281Y190834D01*
X245320Y190691D01*
X245355Y190548D01*
X245386Y190404D01*
X245414Y190259D01*
X245438Y190113D01*
X245459Y189967D01*
X245475Y189820D01*
X245488Y189673D01*
X245498Y189525D01*
X245503Y189378D01*
X245505Y189230D01*
X241554Y189230D02*
X241556Y189082D01*
X241561Y188935D01*
X241571Y188787D01*
X241584Y188640D01*
X241600Y188493D01*
X241621Y188347D01*
X241645Y188202D01*
X241673Y188056D01*
X241704Y187912D01*
X241739Y187769D01*
X241778Y187626D01*
X241820Y187485D01*
X241866Y187344D01*
X241915Y187205D01*
X241968Y187067D01*
X242024Y186930D01*
X242084Y186795D01*
X242147Y186662D01*
X242173Y186591D01*
X242203Y186522D01*
X242237Y186454D01*
X242274Y186388D01*
X242314Y186324D01*
X242358Y186262D01*
X242404Y186203D01*
X242454Y186146D01*
X242507Y186092D01*
X242562Y186040D01*
X242620Y185992D01*
X242680Y185946D01*
X242743Y185904D01*
X242808Y185865D01*
X242874Y185829D01*
X242943Y185797D01*
X243013Y185769D01*
X243084Y185744D01*
X243156Y185723D01*
X243230Y185705D01*
X243304Y185692D01*
X243379Y185682D01*
X243454Y185676D01*
X243530Y185674D01*
X244912Y186662D02*
X244975Y186795D01*
X245035Y186930D01*
X245091Y187067D01*
X245144Y187205D01*
X245193Y187344D01*
X245239Y187485D01*
X245281Y187626D01*
X245320Y187769D01*
X245355Y187912D01*
X245386Y188056D01*
X245414Y188202D01*
X245438Y188347D01*
X245459Y188493D01*
X245475Y188640D01*
X245488Y188787D01*
X245498Y188935D01*
X245503Y189082D01*
X245505Y189230D01*
X244913Y186662D02*
X244887Y186591D01*
X244857Y186522D01*
X244823Y186454D01*
X244786Y186388D01*
X244746Y186324D01*
X244702Y186262D01*
X244656Y186203D01*
X244606Y186146D01*
X244553Y186092D01*
X244498Y186040D01*
X244440Y185992D01*
X244380Y185946D01*
X244317Y185904D01*
X244252Y185865D01*
X244186Y185829D01*
X244117Y185797D01*
X244047Y185769D01*
X243976Y185744D01*
X243904Y185723D01*
X243830Y185705D01*
X243756Y185692D01*
X243681Y185682D01*
X243606Y185676D01*
X243530Y185674D01*
X241949Y187254D02*
X245110Y191206D01*
X248133Y186069D02*
X248133Y185674D01*
X248133Y186069D02*
X248528Y186069D01*
X248528Y185674D01*
X248133Y185674D01*
X251155Y191206D02*
X253131Y192786D01*
X253131Y185674D01*
X255106Y185674D02*
X251155Y185674D01*
X258180Y186859D02*
X258180Y190415D01*
X258180Y186859D02*
X258182Y186793D01*
X258187Y186726D01*
X258197Y186661D01*
X258210Y186595D01*
X258226Y186531D01*
X258246Y186468D01*
X258270Y186406D01*
X258297Y186345D01*
X258328Y186286D01*
X258362Y186229D01*
X258399Y186173D01*
X258439Y186120D01*
X258481Y186069D01*
X258527Y186021D01*
X258575Y185975D01*
X258626Y185933D01*
X258679Y185893D01*
X258735Y185856D01*
X258792Y185822D01*
X258851Y185791D01*
X258912Y185764D01*
X258974Y185740D01*
X259037Y185720D01*
X259101Y185704D01*
X259167Y185691D01*
X259232Y185681D01*
X259299Y185676D01*
X259365Y185674D01*
X261340Y185674D01*
X261340Y190415D01*
X264655Y192786D02*
X264655Y185674D01*
X264655Y192786D02*
X267816Y192786D01*
X267816Y189625D02*
X264655Y189625D01*
X184485Y100584D02*
X182904Y100584D01*
X182826Y100586D01*
X182749Y100592D01*
X182672Y100601D01*
X182596Y100614D01*
X182520Y100631D01*
X182445Y100652D01*
X182372Y100676D01*
X182299Y100704D01*
X182228Y100736D01*
X182159Y100771D01*
X182092Y100809D01*
X182026Y100850D01*
X181963Y100895D01*
X181902Y100943D01*
X181843Y100993D01*
X181787Y101047D01*
X181733Y101103D01*
X181683Y101162D01*
X181635Y101223D01*
X181590Y101286D01*
X181549Y101352D01*
X181511Y101419D01*
X181476Y101488D01*
X181444Y101559D01*
X181416Y101632D01*
X181392Y101705D01*
X181371Y101780D01*
X181354Y101856D01*
X181341Y101932D01*
X181332Y102009D01*
X181326Y102086D01*
X181324Y102164D01*
X181324Y106116D01*
X181326Y106194D01*
X181332Y106271D01*
X181341Y106348D01*
X181354Y106424D01*
X181371Y106500D01*
X181392Y106575D01*
X181416Y106648D01*
X181444Y106721D01*
X181476Y106792D01*
X181511Y106861D01*
X181549Y106928D01*
X181590Y106994D01*
X181635Y107057D01*
X181683Y107118D01*
X181733Y107177D01*
X181787Y107233D01*
X181843Y107287D01*
X181902Y107337D01*
X181963Y107385D01*
X182026Y107430D01*
X182092Y107471D01*
X182159Y107509D01*
X182228Y107544D01*
X182299Y107576D01*
X182372Y107604D01*
X182445Y107628D01*
X182520Y107649D01*
X182596Y107666D01*
X182672Y107679D01*
X182749Y107688D01*
X182826Y107694D01*
X182904Y107696D01*
X184485Y107696D01*
X189230Y107696D02*
X189312Y107694D01*
X189394Y107688D01*
X189476Y107679D01*
X189557Y107666D01*
X189637Y107649D01*
X189717Y107628D01*
X189795Y107604D01*
X189872Y107576D01*
X189948Y107545D01*
X190023Y107510D01*
X190095Y107471D01*
X190166Y107430D01*
X190235Y107385D01*
X190301Y107337D01*
X190366Y107286D01*
X190428Y107232D01*
X190487Y107175D01*
X190544Y107116D01*
X190598Y107054D01*
X190649Y106989D01*
X190697Y106923D01*
X190742Y106854D01*
X190783Y106783D01*
X190822Y106711D01*
X190857Y106636D01*
X190888Y106560D01*
X190916Y106483D01*
X190940Y106405D01*
X190961Y106325D01*
X190978Y106245D01*
X190991Y106164D01*
X191000Y106082D01*
X191006Y106000D01*
X191008Y105918D01*
X189230Y107696D02*
X189137Y107694D01*
X189045Y107688D01*
X188953Y107679D01*
X188861Y107666D01*
X188770Y107649D01*
X188680Y107629D01*
X188590Y107605D01*
X188502Y107577D01*
X188414Y107545D01*
X188329Y107511D01*
X188244Y107472D01*
X188162Y107431D01*
X188081Y107386D01*
X188001Y107337D01*
X187924Y107286D01*
X187849Y107232D01*
X187777Y107174D01*
X187707Y107114D01*
X187639Y107050D01*
X187574Y106985D01*
X187511Y106916D01*
X187452Y106845D01*
X187395Y106772D01*
X187341Y106696D01*
X187291Y106619D01*
X187243Y106539D01*
X187199Y106458D01*
X187159Y106374D01*
X187121Y106290D01*
X187087Y106203D01*
X187057Y106116D01*
X190415Y104535D02*
X190476Y104596D01*
X190534Y104659D01*
X190589Y104725D01*
X190642Y104793D01*
X190691Y104864D01*
X190736Y104936D01*
X190779Y105011D01*
X190818Y105087D01*
X190854Y105166D01*
X190886Y105245D01*
X190914Y105326D01*
X190939Y105409D01*
X190960Y105492D01*
X190977Y105576D01*
X190991Y105661D01*
X191000Y105746D01*
X191006Y105832D01*
X191008Y105918D01*
X190415Y104535D02*
X187057Y100584D01*
X191008Y100584D01*
X197866Y105918D02*
X197864Y106000D01*
X197858Y106082D01*
X197849Y106164D01*
X197836Y106245D01*
X197819Y106325D01*
X197798Y106405D01*
X197774Y106483D01*
X197746Y106560D01*
X197715Y106636D01*
X197680Y106711D01*
X197641Y106783D01*
X197600Y106854D01*
X197555Y106923D01*
X197507Y106989D01*
X197456Y107054D01*
X197402Y107116D01*
X197345Y107175D01*
X197286Y107232D01*
X197224Y107286D01*
X197159Y107337D01*
X197093Y107385D01*
X197024Y107430D01*
X196953Y107471D01*
X196881Y107510D01*
X196806Y107545D01*
X196730Y107576D01*
X196653Y107604D01*
X196575Y107628D01*
X196495Y107649D01*
X196415Y107666D01*
X196334Y107679D01*
X196252Y107688D01*
X196170Y107694D01*
X196088Y107696D01*
X195995Y107694D01*
X195903Y107688D01*
X195811Y107679D01*
X195719Y107666D01*
X195628Y107649D01*
X195538Y107629D01*
X195448Y107605D01*
X195360Y107577D01*
X195272Y107545D01*
X195187Y107511D01*
X195102Y107472D01*
X195020Y107431D01*
X194939Y107386D01*
X194859Y107337D01*
X194782Y107286D01*
X194707Y107232D01*
X194635Y107174D01*
X194565Y107114D01*
X194497Y107050D01*
X194432Y106985D01*
X194369Y106916D01*
X194310Y106845D01*
X194253Y106772D01*
X194199Y106696D01*
X194149Y106619D01*
X194101Y106539D01*
X194057Y106458D01*
X194017Y106374D01*
X193979Y106290D01*
X193945Y106203D01*
X193915Y106116D01*
X197273Y104535D02*
X197334Y104596D01*
X197392Y104659D01*
X197447Y104725D01*
X197500Y104793D01*
X197549Y104864D01*
X197594Y104936D01*
X197637Y105011D01*
X197676Y105087D01*
X197712Y105166D01*
X197744Y105245D01*
X197772Y105326D01*
X197797Y105409D01*
X197818Y105492D01*
X197835Y105576D01*
X197849Y105661D01*
X197858Y105746D01*
X197864Y105832D01*
X197866Y105918D01*
X197273Y104535D02*
X193915Y100584D01*
X197866Y100584D01*
X147785Y108966D02*
X146204Y103434D01*
X150155Y103434D01*
X148970Y105015D02*
X148970Y101854D01*
X152783Y101854D02*
X152783Y102249D01*
X153178Y102249D01*
X153178Y101854D01*
X152783Y101854D01*
X155805Y108176D02*
X155805Y108966D01*
X159756Y108966D01*
X157781Y101854D01*
X162830Y103039D02*
X162830Y106595D01*
X162830Y103039D02*
X162832Y102973D01*
X162837Y102906D01*
X162847Y102841D01*
X162860Y102775D01*
X162876Y102711D01*
X162896Y102648D01*
X162920Y102586D01*
X162947Y102525D01*
X162978Y102466D01*
X163012Y102409D01*
X163049Y102353D01*
X163089Y102300D01*
X163131Y102249D01*
X163177Y102201D01*
X163225Y102155D01*
X163276Y102113D01*
X163329Y102073D01*
X163385Y102036D01*
X163442Y102002D01*
X163501Y101971D01*
X163562Y101944D01*
X163624Y101920D01*
X163687Y101900D01*
X163751Y101884D01*
X163817Y101871D01*
X163882Y101861D01*
X163949Y101856D01*
X164015Y101854D01*
X165991Y101854D01*
X165991Y106595D01*
X169305Y108966D02*
X169305Y101854D01*
X169305Y108966D02*
X172466Y108966D01*
X172466Y105805D02*
X169305Y105805D01*
X159766Y153569D02*
X152654Y153569D01*
X152654Y155545D01*
X152656Y155632D01*
X152662Y155720D01*
X152671Y155807D01*
X152685Y155893D01*
X152702Y155979D01*
X152723Y156063D01*
X152748Y156147D01*
X152777Y156230D01*
X152809Y156311D01*
X152844Y156391D01*
X152883Y156469D01*
X152926Y156546D01*
X152972Y156620D01*
X153021Y156692D01*
X153073Y156762D01*
X153129Y156830D01*
X153187Y156895D01*
X153248Y156958D01*
X153312Y157017D01*
X153379Y157074D01*
X153447Y157128D01*
X153519Y157179D01*
X153592Y157226D01*
X153667Y157271D01*
X153745Y157312D01*
X153824Y157349D01*
X153904Y157383D01*
X153986Y157413D01*
X154069Y157440D01*
X154154Y157463D01*
X154239Y157482D01*
X154325Y157497D01*
X154412Y157509D01*
X154499Y157517D01*
X154586Y157521D01*
X154674Y157521D01*
X154761Y157517D01*
X154848Y157509D01*
X154935Y157497D01*
X155021Y157482D01*
X155106Y157463D01*
X155191Y157440D01*
X155274Y157413D01*
X155356Y157383D01*
X155436Y157349D01*
X155515Y157312D01*
X155593Y157271D01*
X155668Y157226D01*
X155741Y157179D01*
X155813Y157128D01*
X155881Y157074D01*
X155948Y157017D01*
X156012Y156958D01*
X156073Y156895D01*
X156131Y156830D01*
X156187Y156762D01*
X156239Y156692D01*
X156288Y156620D01*
X156334Y156546D01*
X156377Y156469D01*
X156416Y156391D01*
X156451Y156311D01*
X156483Y156230D01*
X156512Y156147D01*
X156537Y156063D01*
X156558Y155979D01*
X156575Y155893D01*
X156589Y155807D01*
X156598Y155720D01*
X156604Y155632D01*
X156606Y155545D01*
X156605Y155545D02*
X156605Y153569D01*
X156605Y155940D02*
X159766Y157521D01*
X158186Y160387D02*
X152654Y161967D01*
X158186Y160387D02*
X158186Y164338D01*
X156605Y163153D02*
X159766Y163153D01*
X152654Y169418D02*
X152656Y169500D01*
X152662Y169582D01*
X152671Y169664D01*
X152684Y169745D01*
X152701Y169825D01*
X152722Y169905D01*
X152746Y169983D01*
X152774Y170060D01*
X152805Y170136D01*
X152840Y170211D01*
X152879Y170283D01*
X152920Y170354D01*
X152965Y170423D01*
X153013Y170489D01*
X153064Y170554D01*
X153118Y170616D01*
X153175Y170675D01*
X153234Y170732D01*
X153296Y170786D01*
X153361Y170837D01*
X153427Y170885D01*
X153496Y170930D01*
X153567Y170971D01*
X153639Y171010D01*
X153714Y171045D01*
X153790Y171076D01*
X153867Y171104D01*
X153945Y171128D01*
X154025Y171149D01*
X154105Y171166D01*
X154186Y171179D01*
X154268Y171188D01*
X154350Y171194D01*
X154432Y171196D01*
X152654Y169418D02*
X152656Y169325D01*
X152662Y169233D01*
X152671Y169141D01*
X152684Y169049D01*
X152701Y168958D01*
X152721Y168868D01*
X152745Y168778D01*
X152773Y168690D01*
X152805Y168602D01*
X152839Y168517D01*
X152878Y168432D01*
X152919Y168350D01*
X152964Y168269D01*
X153013Y168189D01*
X153064Y168112D01*
X153118Y168037D01*
X153176Y167965D01*
X153236Y167894D01*
X153300Y167827D01*
X153365Y167762D01*
X153434Y167699D01*
X153505Y167640D01*
X153578Y167583D01*
X153654Y167529D01*
X153731Y167479D01*
X153811Y167431D01*
X153893Y167387D01*
X153976Y167347D01*
X154061Y167309D01*
X154147Y167275D01*
X154234Y167245D01*
X155815Y170603D02*
X155754Y170664D01*
X155691Y170722D01*
X155625Y170777D01*
X155557Y170830D01*
X155486Y170879D01*
X155414Y170924D01*
X155339Y170967D01*
X155263Y171006D01*
X155184Y171042D01*
X155105Y171074D01*
X155024Y171102D01*
X154941Y171127D01*
X154858Y171148D01*
X154774Y171165D01*
X154689Y171179D01*
X154604Y171188D01*
X154518Y171194D01*
X154432Y171196D01*
X155815Y170603D02*
X159766Y167245D01*
X159766Y171196D01*
X151384Y126645D02*
X156916Y125064D01*
X156916Y129015D01*
X155335Y127830D02*
X158496Y127830D01*
X158496Y131643D02*
X158101Y131643D01*
X158101Y132038D01*
X158496Y132038D01*
X158496Y131643D01*
X152174Y134665D02*
X151384Y134665D01*
X151384Y138616D01*
X158496Y136641D01*
X158496Y141845D02*
X151384Y141845D01*
X151384Y145796D02*
X155730Y141845D01*
X154150Y143425D02*
X158496Y145796D01*
D10*
X213600Y172750D02*
X213600Y173750D01*
X243600Y173750D01*
X243600Y172750D01*
X243600Y164750D02*
X243600Y162750D01*
X243600Y154750D02*
X243600Y152750D01*
X213600Y162750D02*
X213600Y164750D01*
X213600Y154750D02*
X213600Y152750D01*
X243600Y144750D02*
X243600Y143750D01*
X213600Y143750D01*
X213600Y144750D01*
D13*
X205740Y179070D02*
X205742Y179170D01*
X205748Y179271D01*
X205758Y179370D01*
X205772Y179470D01*
X205789Y179569D01*
X205811Y179667D01*
X205837Y179764D01*
X205866Y179860D01*
X205899Y179954D01*
X205936Y180048D01*
X205976Y180140D01*
X206020Y180230D01*
X206068Y180318D01*
X206119Y180405D01*
X206173Y180489D01*
X206231Y180571D01*
X206292Y180651D01*
X206356Y180728D01*
X206423Y180803D01*
X206493Y180875D01*
X206566Y180944D01*
X206641Y181010D01*
X206719Y181074D01*
X206799Y181134D01*
X206882Y181191D01*
X206967Y181244D01*
X207054Y181294D01*
X207143Y181341D01*
X207233Y181384D01*
X207325Y181424D01*
X207419Y181460D01*
X207514Y181492D01*
X207610Y181520D01*
X207708Y181545D01*
X207806Y181565D01*
X207905Y181582D01*
X208005Y181595D01*
X208104Y181604D01*
X208205Y181609D01*
X208305Y181610D01*
X208405Y181607D01*
X208506Y181600D01*
X208605Y181589D01*
X208705Y181574D01*
X208803Y181556D01*
X208901Y181533D01*
X208998Y181506D01*
X209093Y181476D01*
X209188Y181442D01*
X209281Y181404D01*
X209372Y181363D01*
X209462Y181318D01*
X209550Y181270D01*
X209636Y181218D01*
X209720Y181163D01*
X209801Y181104D01*
X209880Y181042D01*
X209957Y180978D01*
X210031Y180910D01*
X210102Y180839D01*
X210171Y180766D01*
X210236Y180690D01*
X210299Y180611D01*
X210358Y180530D01*
X210414Y180447D01*
X210467Y180362D01*
X210516Y180274D01*
X210562Y180185D01*
X210604Y180094D01*
X210643Y180001D01*
X210678Y179907D01*
X210709Y179812D01*
X210737Y179715D01*
X210760Y179618D01*
X210780Y179519D01*
X210796Y179420D01*
X210808Y179321D01*
X210816Y179220D01*
X210820Y179120D01*
X210820Y179020D01*
X210816Y178920D01*
X210808Y178819D01*
X210796Y178720D01*
X210780Y178621D01*
X210760Y178522D01*
X210737Y178425D01*
X210709Y178328D01*
X210678Y178233D01*
X210643Y178139D01*
X210604Y178046D01*
X210562Y177955D01*
X210516Y177866D01*
X210467Y177778D01*
X210414Y177693D01*
X210358Y177610D01*
X210299Y177529D01*
X210236Y177450D01*
X210171Y177374D01*
X210102Y177301D01*
X210031Y177230D01*
X209957Y177162D01*
X209880Y177098D01*
X209801Y177036D01*
X209720Y176977D01*
X209636Y176922D01*
X209550Y176870D01*
X209462Y176822D01*
X209372Y176777D01*
X209281Y176736D01*
X209188Y176698D01*
X209093Y176664D01*
X208998Y176634D01*
X208901Y176607D01*
X208803Y176584D01*
X208705Y176566D01*
X208605Y176551D01*
X208506Y176540D01*
X208405Y176533D01*
X208305Y176530D01*
X208205Y176531D01*
X208104Y176536D01*
X208005Y176545D01*
X207905Y176558D01*
X207806Y176575D01*
X207708Y176595D01*
X207610Y176620D01*
X207514Y176648D01*
X207419Y176680D01*
X207325Y176716D01*
X207233Y176756D01*
X207143Y176799D01*
X207054Y176846D01*
X206967Y176896D01*
X206882Y176949D01*
X206799Y177006D01*
X206719Y177066D01*
X206641Y177130D01*
X206566Y177196D01*
X206493Y177265D01*
X206423Y177337D01*
X206356Y177412D01*
X206292Y177489D01*
X206231Y177569D01*
X206173Y177651D01*
X206119Y177735D01*
X206068Y177822D01*
X206020Y177910D01*
X205976Y178000D01*
X205936Y178092D01*
X205899Y178186D01*
X205866Y178280D01*
X205837Y178376D01*
X205811Y178473D01*
X205789Y178571D01*
X205772Y178670D01*
X205758Y178770D01*
X205748Y178869D01*
X205742Y178970D01*
X205740Y179070D01*
D11*
X216154Y178407D02*
X216154Y182626D01*
X216154Y178407D02*
X216156Y178327D01*
X216162Y178248D01*
X216172Y178169D01*
X216185Y178090D01*
X216203Y178013D01*
X216224Y177936D01*
X216249Y177860D01*
X216278Y177786D01*
X216310Y177713D01*
X216346Y177642D01*
X216385Y177573D01*
X216428Y177505D01*
X216473Y177440D01*
X216522Y177377D01*
X216574Y177317D01*
X216629Y177259D01*
X216687Y177204D01*
X216747Y177152D01*
X216810Y177103D01*
X216875Y177058D01*
X216943Y177015D01*
X217012Y176976D01*
X217083Y176940D01*
X217156Y176908D01*
X217230Y176879D01*
X217306Y176854D01*
X217383Y176833D01*
X217460Y176815D01*
X217539Y176802D01*
X217618Y176792D01*
X217697Y176786D01*
X217777Y176784D01*
X217857Y176786D01*
X217936Y176792D01*
X218015Y176802D01*
X218094Y176815D01*
X218171Y176833D01*
X218248Y176854D01*
X218324Y176879D01*
X218398Y176908D01*
X218471Y176940D01*
X218542Y176976D01*
X218611Y177015D01*
X218679Y177058D01*
X218744Y177103D01*
X218807Y177152D01*
X218867Y177204D01*
X218925Y177259D01*
X218980Y177317D01*
X219032Y177377D01*
X219081Y177440D01*
X219126Y177505D01*
X219169Y177573D01*
X219208Y177642D01*
X219244Y177713D01*
X219276Y177786D01*
X219305Y177860D01*
X219330Y177936D01*
X219351Y178013D01*
X219369Y178090D01*
X219382Y178169D01*
X219392Y178248D01*
X219398Y178327D01*
X219400Y178407D01*
X219400Y182626D01*
X222059Y181328D02*
X223682Y182626D01*
X223682Y176784D01*
X222059Y176784D02*
X225305Y176784D01*
X227774Y181328D02*
X229397Y182626D01*
X229397Y176784D01*
X227774Y176784D02*
X231020Y176784D01*
X216859Y134902D02*
X216857Y134832D01*
X216851Y134762D01*
X216842Y134692D01*
X216829Y134623D01*
X216812Y134555D01*
X216791Y134488D01*
X216767Y134422D01*
X216739Y134357D01*
X216708Y134294D01*
X216673Y134233D01*
X216635Y134174D01*
X216594Y134116D01*
X216550Y134062D01*
X216503Y134009D01*
X216454Y133960D01*
X216401Y133913D01*
X216347Y133869D01*
X216289Y133828D01*
X216230Y133790D01*
X216169Y133755D01*
X216106Y133724D01*
X216041Y133696D01*
X215975Y133672D01*
X215908Y133651D01*
X215840Y133634D01*
X215771Y133621D01*
X215701Y133612D01*
X215631Y133606D01*
X215561Y133604D01*
X215458Y133606D01*
X215355Y133612D01*
X215252Y133621D01*
X215150Y133635D01*
X215049Y133652D01*
X214948Y133673D01*
X214848Y133698D01*
X214749Y133727D01*
X214651Y133759D01*
X214554Y133796D01*
X214459Y133835D01*
X214365Y133878D01*
X214273Y133925D01*
X214183Y133975D01*
X214095Y134029D01*
X214009Y134085D01*
X213925Y134145D01*
X213844Y134208D01*
X213765Y134274D01*
X213688Y134343D01*
X213614Y134415D01*
X213777Y138148D02*
X213779Y138218D01*
X213785Y138288D01*
X213794Y138358D01*
X213807Y138427D01*
X213824Y138495D01*
X213845Y138562D01*
X213869Y138628D01*
X213897Y138693D01*
X213928Y138756D01*
X213963Y138817D01*
X214001Y138876D01*
X214042Y138934D01*
X214086Y138988D01*
X214133Y139041D01*
X214182Y139090D01*
X214235Y139137D01*
X214289Y139181D01*
X214347Y139222D01*
X214406Y139260D01*
X214467Y139295D01*
X214530Y139326D01*
X214595Y139354D01*
X214661Y139378D01*
X214728Y139399D01*
X214796Y139416D01*
X214865Y139429D01*
X214935Y139438D01*
X215005Y139444D01*
X215075Y139446D01*
X215173Y139444D01*
X215271Y139438D01*
X215368Y139428D01*
X215465Y139415D01*
X215561Y139397D01*
X215657Y139375D01*
X215751Y139350D01*
X215845Y139321D01*
X215937Y139288D01*
X216028Y139252D01*
X216117Y139212D01*
X216205Y139168D01*
X216290Y139121D01*
X216374Y139070D01*
X216456Y139016D01*
X216535Y138959D01*
X214426Y137012D02*
X214368Y137049D01*
X214312Y137088D01*
X214258Y137130D01*
X214206Y137175D01*
X214157Y137222D01*
X214110Y137272D01*
X214066Y137324D01*
X214025Y137379D01*
X213986Y137436D01*
X213951Y137494D01*
X213918Y137554D01*
X213889Y137616D01*
X213863Y137679D01*
X213840Y137744D01*
X213821Y137810D01*
X213805Y137876D01*
X213793Y137944D01*
X213784Y138011D01*
X213779Y138080D01*
X213777Y138148D01*
X216211Y136038D02*
X216269Y136002D01*
X216325Y135963D01*
X216379Y135921D01*
X216431Y135876D01*
X216480Y135828D01*
X216527Y135778D01*
X216571Y135726D01*
X216612Y135672D01*
X216651Y135615D01*
X216686Y135556D01*
X216719Y135496D01*
X216748Y135434D01*
X216774Y135371D01*
X216797Y135306D01*
X216816Y135241D01*
X216832Y135174D01*
X216844Y135107D01*
X216853Y135039D01*
X216858Y134970D01*
X216860Y134902D01*
X216210Y136038D02*
X214425Y137012D01*
X219329Y139446D02*
X219329Y133604D01*
X219329Y136850D02*
X222575Y136850D01*
X222575Y139446D02*
X222575Y133604D01*
X226476Y133604D02*
X226476Y139446D01*
X224853Y139446D02*
X228099Y139446D01*
X231972Y139447D02*
X232046Y139445D01*
X232120Y139440D01*
X232193Y139430D01*
X232266Y139417D01*
X232338Y139400D01*
X232409Y139380D01*
X232479Y139356D01*
X232548Y139329D01*
X232615Y139298D01*
X232681Y139263D01*
X232745Y139226D01*
X232807Y139185D01*
X232866Y139141D01*
X232924Y139095D01*
X232979Y139045D01*
X233031Y138993D01*
X233081Y138938D01*
X233127Y138880D01*
X233171Y138821D01*
X233212Y138759D01*
X233249Y138695D01*
X233284Y138629D01*
X233315Y138562D01*
X233342Y138493D01*
X233366Y138423D01*
X233386Y138352D01*
X233403Y138280D01*
X233416Y138207D01*
X233426Y138134D01*
X233431Y138060D01*
X233433Y137986D01*
X231972Y139446D02*
X231888Y139444D01*
X231804Y139438D01*
X231720Y139429D01*
X231637Y139416D01*
X231554Y139399D01*
X231473Y139378D01*
X231392Y139354D01*
X231312Y139326D01*
X231234Y139295D01*
X231157Y139260D01*
X231082Y139222D01*
X231009Y139180D01*
X230938Y139135D01*
X230869Y139087D01*
X230802Y139036D01*
X230737Y138982D01*
X230675Y138925D01*
X230615Y138866D01*
X230558Y138803D01*
X230504Y138739D01*
X230453Y138672D01*
X230406Y138602D01*
X230361Y138531D01*
X230319Y138458D01*
X230281Y138382D01*
X230246Y138306D01*
X230215Y138228D01*
X230187Y138148D01*
X232946Y136850D02*
X232999Y136903D01*
X233049Y136958D01*
X233097Y137016D01*
X233142Y137075D01*
X233184Y137137D01*
X233223Y137201D01*
X233258Y137267D01*
X233291Y137334D01*
X233320Y137402D01*
X233347Y137473D01*
X233369Y137544D01*
X233389Y137616D01*
X233405Y137689D01*
X233417Y137763D01*
X233426Y137837D01*
X233431Y137911D01*
X233433Y137986D01*
X232946Y136850D02*
X230187Y133604D01*
X233433Y133604D01*
X235902Y133604D02*
X237850Y133604D01*
X237920Y133606D01*
X237990Y133612D01*
X238060Y133621D01*
X238129Y133634D01*
X238197Y133651D01*
X238264Y133672D01*
X238330Y133696D01*
X238395Y133724D01*
X238458Y133755D01*
X238519Y133790D01*
X238578Y133828D01*
X238636Y133869D01*
X238690Y133913D01*
X238743Y133960D01*
X238792Y134009D01*
X238839Y134062D01*
X238883Y134116D01*
X238924Y134174D01*
X238962Y134233D01*
X238997Y134294D01*
X239028Y134357D01*
X239056Y134422D01*
X239080Y134488D01*
X239101Y134555D01*
X239118Y134623D01*
X239131Y134692D01*
X239140Y134762D01*
X239146Y134832D01*
X239148Y134902D01*
X239148Y135551D01*
X239146Y135621D01*
X239140Y135691D01*
X239131Y135761D01*
X239118Y135830D01*
X239101Y135898D01*
X239080Y135965D01*
X239056Y136031D01*
X239028Y136096D01*
X238997Y136159D01*
X238962Y136220D01*
X238924Y136279D01*
X238883Y136337D01*
X238839Y136391D01*
X238792Y136444D01*
X238743Y136493D01*
X238690Y136540D01*
X238636Y136584D01*
X238578Y136625D01*
X238519Y136663D01*
X238458Y136698D01*
X238395Y136729D01*
X238330Y136757D01*
X238264Y136781D01*
X238197Y136802D01*
X238129Y136819D01*
X238060Y136832D01*
X237990Y136841D01*
X237920Y136847D01*
X237850Y136849D01*
X237850Y136850D02*
X235902Y136850D01*
X235902Y139446D01*
X239148Y139446D01*
D10*
X164300Y138750D02*
X164300Y143250D01*
X164300Y138750D02*
X191300Y138750D01*
X191300Y143250D01*
X191300Y178750D02*
X164300Y178750D01*
X191300Y178750D02*
X191300Y174250D01*
X164300Y174250D02*
X164300Y178750D01*
X162386Y179750D02*
X162388Y179825D01*
X162394Y179899D01*
X162404Y179973D01*
X162417Y180046D01*
X162435Y180119D01*
X162456Y180190D01*
X162481Y180261D01*
X162510Y180330D01*
X162543Y180397D01*
X162579Y180462D01*
X162618Y180526D01*
X162660Y180587D01*
X162706Y180646D01*
X162755Y180703D01*
X162807Y180756D01*
X162861Y180807D01*
X162918Y180856D01*
X162978Y180900D01*
X163040Y180942D01*
X163104Y180981D01*
X163170Y181016D01*
X163237Y181047D01*
X163307Y181075D01*
X163377Y181099D01*
X163449Y181120D01*
X163522Y181136D01*
X163595Y181149D01*
X163670Y181158D01*
X163744Y181163D01*
X163819Y181164D01*
X163893Y181161D01*
X163968Y181154D01*
X164041Y181143D01*
X164115Y181129D01*
X164187Y181110D01*
X164258Y181088D01*
X164328Y181062D01*
X164397Y181032D01*
X164463Y180999D01*
X164528Y180962D01*
X164591Y180922D01*
X164652Y180878D01*
X164710Y180832D01*
X164766Y180782D01*
X164819Y180730D01*
X164870Y180675D01*
X164917Y180617D01*
X164961Y180557D01*
X165002Y180494D01*
X165040Y180430D01*
X165074Y180364D01*
X165105Y180295D01*
X165132Y180226D01*
X165155Y180155D01*
X165174Y180083D01*
X165190Y180010D01*
X165202Y179936D01*
X165210Y179862D01*
X165214Y179787D01*
X165214Y179713D01*
X165210Y179638D01*
X165202Y179564D01*
X165190Y179490D01*
X165174Y179417D01*
X165155Y179345D01*
X165132Y179274D01*
X165105Y179205D01*
X165074Y179136D01*
X165040Y179070D01*
X165002Y179006D01*
X164961Y178943D01*
X164917Y178883D01*
X164870Y178825D01*
X164819Y178770D01*
X164766Y178718D01*
X164710Y178668D01*
X164652Y178622D01*
X164591Y178578D01*
X164528Y178538D01*
X164463Y178501D01*
X164397Y178468D01*
X164328Y178438D01*
X164258Y178412D01*
X164187Y178390D01*
X164115Y178371D01*
X164041Y178357D01*
X163968Y178346D01*
X163893Y178339D01*
X163819Y178336D01*
X163744Y178337D01*
X163670Y178342D01*
X163595Y178351D01*
X163522Y178364D01*
X163449Y178380D01*
X163377Y178401D01*
X163307Y178425D01*
X163237Y178453D01*
X163170Y178484D01*
X163104Y178519D01*
X163040Y178558D01*
X162978Y178600D01*
X162918Y178644D01*
X162861Y178693D01*
X162807Y178744D01*
X162755Y178797D01*
X162706Y178854D01*
X162660Y178913D01*
X162618Y178974D01*
X162579Y179038D01*
X162543Y179103D01*
X162510Y179170D01*
X162481Y179239D01*
X162456Y179310D01*
X162435Y179381D01*
X162417Y179454D01*
X162404Y179527D01*
X162394Y179601D01*
X162388Y179675D01*
X162386Y179750D01*
X162800Y179750D02*
X162802Y179813D01*
X162808Y179875D01*
X162818Y179937D01*
X162831Y179999D01*
X162849Y180059D01*
X162870Y180118D01*
X162895Y180176D01*
X162924Y180232D01*
X162956Y180286D01*
X162991Y180338D01*
X163029Y180387D01*
X163071Y180435D01*
X163115Y180479D01*
X163163Y180521D01*
X163212Y180559D01*
X163264Y180594D01*
X163318Y180626D01*
X163374Y180655D01*
X163432Y180680D01*
X163491Y180701D01*
X163551Y180719D01*
X163613Y180732D01*
X163675Y180742D01*
X163737Y180748D01*
X163800Y180750D01*
X163863Y180748D01*
X163925Y180742D01*
X163987Y180732D01*
X164049Y180719D01*
X164109Y180701D01*
X164168Y180680D01*
X164226Y180655D01*
X164282Y180626D01*
X164336Y180594D01*
X164388Y180559D01*
X164437Y180521D01*
X164485Y180479D01*
X164529Y180435D01*
X164571Y180387D01*
X164609Y180338D01*
X164644Y180286D01*
X164676Y180232D01*
X164705Y180176D01*
X164730Y180118D01*
X164751Y180059D01*
X164769Y179999D01*
X164782Y179937D01*
X164792Y179875D01*
X164798Y179813D01*
X164800Y179750D01*
X164798Y179687D01*
X164792Y179625D01*
X164782Y179563D01*
X164769Y179501D01*
X164751Y179441D01*
X164730Y179382D01*
X164705Y179324D01*
X164676Y179268D01*
X164644Y179214D01*
X164609Y179162D01*
X164571Y179113D01*
X164529Y179065D01*
X164485Y179021D01*
X164437Y178979D01*
X164388Y178941D01*
X164336Y178906D01*
X164282Y178874D01*
X164226Y178845D01*
X164168Y178820D01*
X164109Y178799D01*
X164049Y178781D01*
X163987Y178768D01*
X163925Y178758D01*
X163863Y178752D01*
X163800Y178750D01*
X163737Y178752D01*
X163675Y178758D01*
X163613Y178768D01*
X163551Y178781D01*
X163491Y178799D01*
X163432Y178820D01*
X163374Y178845D01*
X163318Y178874D01*
X163264Y178906D01*
X163212Y178941D01*
X163163Y178979D01*
X163115Y179021D01*
X163071Y179065D01*
X163029Y179113D01*
X162991Y179162D01*
X162956Y179214D01*
X162924Y179268D01*
X162895Y179324D01*
X162870Y179382D01*
X162849Y179441D01*
X162831Y179501D01*
X162818Y179563D01*
X162808Y179625D01*
X162802Y179687D01*
X162800Y179750D01*
D11*
X164054Y183363D02*
X164054Y186896D01*
X164054Y183363D02*
X164056Y183291D01*
X164062Y183219D01*
X164071Y183147D01*
X164085Y183076D01*
X164102Y183005D01*
X164123Y182936D01*
X164147Y182868D01*
X164175Y182801D01*
X164207Y182736D01*
X164242Y182673D01*
X164281Y182612D01*
X164322Y182553D01*
X164367Y182496D01*
X164414Y182441D01*
X164465Y182389D01*
X164518Y182340D01*
X164574Y182294D01*
X164632Y182251D01*
X164692Y182211D01*
X164754Y182174D01*
X164819Y182141D01*
X164885Y182111D01*
X164952Y182085D01*
X165021Y182062D01*
X165090Y182043D01*
X165161Y182028D01*
X165233Y182016D01*
X165305Y182008D01*
X165377Y182004D01*
X165449Y182004D01*
X165521Y182008D01*
X165593Y182016D01*
X165665Y182028D01*
X165736Y182043D01*
X165805Y182062D01*
X165874Y182085D01*
X165941Y182111D01*
X166007Y182141D01*
X166072Y182174D01*
X166134Y182211D01*
X166194Y182251D01*
X166252Y182294D01*
X166308Y182340D01*
X166361Y182389D01*
X166412Y182441D01*
X166459Y182496D01*
X166504Y182553D01*
X166545Y182612D01*
X166584Y182673D01*
X166619Y182736D01*
X166651Y182801D01*
X166679Y182868D01*
X166703Y182936D01*
X166724Y183005D01*
X166741Y183076D01*
X166755Y183147D01*
X166764Y183219D01*
X166770Y183291D01*
X166772Y183363D01*
X166772Y186896D01*
X170163Y184178D02*
X171794Y184178D01*
X170163Y184178D02*
X170100Y184180D01*
X170037Y184185D01*
X169974Y184195D01*
X169912Y184207D01*
X169851Y184224D01*
X169791Y184244D01*
X169732Y184267D01*
X169675Y184294D01*
X169620Y184324D01*
X169566Y184357D01*
X169514Y184393D01*
X169464Y184432D01*
X169417Y184474D01*
X169372Y184519D01*
X169330Y184566D01*
X169291Y184616D01*
X169255Y184668D01*
X169222Y184722D01*
X169192Y184777D01*
X169165Y184834D01*
X169142Y184893D01*
X169122Y184953D01*
X169105Y185014D01*
X169093Y185076D01*
X169083Y185139D01*
X169078Y185202D01*
X169076Y185265D01*
X169076Y185537D01*
X169078Y185609D01*
X169084Y185681D01*
X169093Y185753D01*
X169107Y185824D01*
X169124Y185895D01*
X169145Y185964D01*
X169169Y186032D01*
X169197Y186099D01*
X169229Y186164D01*
X169264Y186227D01*
X169303Y186288D01*
X169344Y186347D01*
X169389Y186404D01*
X169436Y186459D01*
X169487Y186511D01*
X169540Y186560D01*
X169596Y186606D01*
X169654Y186649D01*
X169714Y186689D01*
X169776Y186726D01*
X169841Y186759D01*
X169907Y186789D01*
X169974Y186815D01*
X170043Y186838D01*
X170112Y186857D01*
X170183Y186872D01*
X170255Y186884D01*
X170327Y186892D01*
X170399Y186896D01*
X170471Y186896D01*
X170543Y186892D01*
X170615Y186884D01*
X170687Y186872D01*
X170758Y186857D01*
X170827Y186838D01*
X170896Y186815D01*
X170963Y186789D01*
X171029Y186759D01*
X171094Y186726D01*
X171156Y186689D01*
X171216Y186649D01*
X171274Y186606D01*
X171330Y186560D01*
X171383Y186511D01*
X171434Y186459D01*
X171481Y186404D01*
X171526Y186347D01*
X171567Y186288D01*
X171606Y186227D01*
X171641Y186164D01*
X171673Y186099D01*
X171701Y186032D01*
X171725Y185964D01*
X171746Y185895D01*
X171763Y185824D01*
X171777Y185753D01*
X171786Y185681D01*
X171792Y185609D01*
X171794Y185537D01*
X171794Y184178D01*
X171792Y184086D01*
X171786Y183994D01*
X171776Y183902D01*
X171763Y183811D01*
X171745Y183720D01*
X171724Y183630D01*
X171699Y183541D01*
X171670Y183454D01*
X171637Y183367D01*
X171601Y183283D01*
X171561Y183199D01*
X171518Y183118D01*
X171471Y183038D01*
X171421Y182961D01*
X171368Y182885D01*
X171311Y182812D01*
X171252Y182742D01*
X171190Y182674D01*
X171124Y182608D01*
X171056Y182546D01*
X170986Y182487D01*
X170913Y182430D01*
X170837Y182377D01*
X170760Y182327D01*
X170680Y182280D01*
X170599Y182237D01*
X170515Y182197D01*
X170431Y182161D01*
X170344Y182128D01*
X170257Y182099D01*
X170168Y182074D01*
X170078Y182053D01*
X169987Y182035D01*
X169896Y182022D01*
X169804Y182012D01*
X169712Y182006D01*
X169620Y182004D01*
X166228Y131004D02*
X165141Y131004D01*
X165078Y131006D01*
X165015Y131011D01*
X164952Y131021D01*
X164890Y131033D01*
X164829Y131050D01*
X164769Y131070D01*
X164710Y131093D01*
X164653Y131120D01*
X164598Y131150D01*
X164544Y131183D01*
X164492Y131219D01*
X164442Y131258D01*
X164395Y131300D01*
X164350Y131345D01*
X164308Y131392D01*
X164269Y131442D01*
X164233Y131494D01*
X164200Y131548D01*
X164170Y131603D01*
X164143Y131660D01*
X164120Y131719D01*
X164100Y131779D01*
X164083Y131840D01*
X164071Y131902D01*
X164061Y131965D01*
X164056Y132028D01*
X164054Y132091D01*
X164054Y134809D01*
X164056Y134875D01*
X164062Y134940D01*
X164072Y135005D01*
X164086Y135069D01*
X164103Y135132D01*
X164125Y135194D01*
X164150Y135255D01*
X164179Y135314D01*
X164211Y135371D01*
X164246Y135426D01*
X164285Y135479D01*
X164327Y135530D01*
X164372Y135578D01*
X164420Y135623D01*
X164471Y135665D01*
X164523Y135704D01*
X164579Y135739D01*
X164636Y135771D01*
X164695Y135800D01*
X164756Y135825D01*
X164818Y135847D01*
X164881Y135864D01*
X164945Y135878D01*
X165010Y135888D01*
X165075Y135894D01*
X165141Y135896D01*
X166228Y135896D01*
X169191Y131004D02*
X170278Y131004D01*
X169191Y131004D02*
X169128Y131006D01*
X169065Y131011D01*
X169002Y131021D01*
X168940Y131033D01*
X168879Y131050D01*
X168819Y131070D01*
X168760Y131093D01*
X168703Y131120D01*
X168648Y131150D01*
X168594Y131183D01*
X168542Y131219D01*
X168492Y131258D01*
X168445Y131300D01*
X168400Y131345D01*
X168358Y131392D01*
X168319Y131442D01*
X168283Y131494D01*
X168250Y131548D01*
X168220Y131603D01*
X168193Y131660D01*
X168170Y131719D01*
X168150Y131779D01*
X168133Y131840D01*
X168121Y131902D01*
X168111Y131965D01*
X168106Y132028D01*
X168104Y132091D01*
X168104Y134809D01*
X168106Y134875D01*
X168112Y134940D01*
X168122Y135005D01*
X168136Y135069D01*
X168153Y135132D01*
X168175Y135194D01*
X168200Y135255D01*
X168229Y135314D01*
X168261Y135371D01*
X168296Y135426D01*
X168335Y135479D01*
X168377Y135530D01*
X168422Y135578D01*
X168470Y135623D01*
X168521Y135665D01*
X168573Y135704D01*
X168629Y135739D01*
X168686Y135771D01*
X168745Y135800D01*
X168806Y135825D01*
X168868Y135847D01*
X168931Y135864D01*
X168995Y135878D01*
X169060Y135888D01*
X169125Y135894D01*
X169191Y135896D01*
X170278Y135896D01*
X174725Y132091D02*
X174723Y132025D01*
X174717Y131960D01*
X174707Y131895D01*
X174693Y131831D01*
X174676Y131768D01*
X174654Y131706D01*
X174629Y131645D01*
X174600Y131586D01*
X174568Y131529D01*
X174533Y131474D01*
X174494Y131421D01*
X174452Y131370D01*
X174407Y131322D01*
X174359Y131277D01*
X174308Y131235D01*
X174256Y131196D01*
X174200Y131161D01*
X174143Y131129D01*
X174084Y131100D01*
X174023Y131075D01*
X173961Y131053D01*
X173898Y131036D01*
X173834Y131022D01*
X173769Y131012D01*
X173704Y131006D01*
X173638Y131004D01*
X173543Y131006D01*
X173447Y131012D01*
X173353Y131022D01*
X173258Y131036D01*
X173164Y131053D01*
X173071Y131075D01*
X172980Y131100D01*
X172889Y131130D01*
X172799Y131163D01*
X172711Y131199D01*
X172625Y131240D01*
X172540Y131284D01*
X172457Y131331D01*
X172376Y131382D01*
X172298Y131436D01*
X172221Y131493D01*
X172148Y131554D01*
X172076Y131617D01*
X172008Y131683D01*
X172143Y134809D02*
X172145Y134872D01*
X172150Y134935D01*
X172160Y134998D01*
X172172Y135060D01*
X172189Y135121D01*
X172209Y135181D01*
X172232Y135240D01*
X172259Y135297D01*
X172289Y135353D01*
X172322Y135406D01*
X172358Y135458D01*
X172397Y135508D01*
X172439Y135555D01*
X172484Y135600D01*
X172531Y135642D01*
X172581Y135681D01*
X172633Y135717D01*
X172687Y135750D01*
X172742Y135780D01*
X172799Y135807D01*
X172858Y135830D01*
X172918Y135850D01*
X172979Y135867D01*
X173041Y135879D01*
X173104Y135889D01*
X173167Y135894D01*
X173230Y135896D01*
X173317Y135894D01*
X173405Y135889D01*
X173492Y135879D01*
X173578Y135866D01*
X173664Y135849D01*
X173749Y135829D01*
X173833Y135805D01*
X173916Y135777D01*
X173998Y135746D01*
X174078Y135711D01*
X174156Y135673D01*
X174233Y135632D01*
X174309Y135587D01*
X174382Y135539D01*
X174453Y135488D01*
X172686Y133858D02*
X172633Y133892D01*
X172581Y133929D01*
X172531Y133969D01*
X172484Y134011D01*
X172439Y134057D01*
X172397Y134104D01*
X172358Y134155D01*
X172322Y134207D01*
X172288Y134261D01*
X172258Y134317D01*
X172232Y134375D01*
X172208Y134434D01*
X172189Y134495D01*
X172172Y134557D01*
X172159Y134619D01*
X172150Y134682D01*
X172145Y134745D01*
X172143Y134809D01*
X174182Y133042D02*
X174235Y133008D01*
X174287Y132971D01*
X174337Y132931D01*
X174384Y132889D01*
X174429Y132843D01*
X174471Y132796D01*
X174510Y132745D01*
X174546Y132693D01*
X174580Y132639D01*
X174610Y132583D01*
X174636Y132525D01*
X174660Y132466D01*
X174679Y132405D01*
X174696Y132343D01*
X174709Y132281D01*
X174718Y132218D01*
X174723Y132155D01*
X174725Y132091D01*
X174182Y133042D02*
X172687Y133858D01*
X176705Y132363D02*
X176707Y132435D01*
X176713Y132507D01*
X176722Y132579D01*
X176736Y132650D01*
X176753Y132721D01*
X176774Y132790D01*
X176798Y132858D01*
X176826Y132925D01*
X176858Y132990D01*
X176893Y133053D01*
X176932Y133114D01*
X176973Y133173D01*
X177018Y133230D01*
X177065Y133285D01*
X177116Y133337D01*
X177169Y133386D01*
X177225Y133432D01*
X177283Y133475D01*
X177343Y133515D01*
X177405Y133552D01*
X177470Y133585D01*
X177536Y133615D01*
X177603Y133641D01*
X177672Y133664D01*
X177741Y133683D01*
X177812Y133698D01*
X177884Y133710D01*
X177956Y133718D01*
X178028Y133722D01*
X178100Y133722D01*
X178172Y133718D01*
X178244Y133710D01*
X178316Y133698D01*
X178387Y133683D01*
X178456Y133664D01*
X178525Y133641D01*
X178592Y133615D01*
X178658Y133585D01*
X178723Y133552D01*
X178785Y133515D01*
X178845Y133475D01*
X178903Y133432D01*
X178959Y133386D01*
X179012Y133337D01*
X179063Y133285D01*
X179110Y133230D01*
X179155Y133173D01*
X179196Y133114D01*
X179235Y133053D01*
X179270Y132990D01*
X179302Y132925D01*
X179330Y132858D01*
X179354Y132790D01*
X179375Y132721D01*
X179392Y132650D01*
X179406Y132579D01*
X179415Y132507D01*
X179421Y132435D01*
X179423Y132363D01*
X179421Y132291D01*
X179415Y132219D01*
X179406Y132147D01*
X179392Y132076D01*
X179375Y132005D01*
X179354Y131936D01*
X179330Y131868D01*
X179302Y131801D01*
X179270Y131736D01*
X179235Y131673D01*
X179196Y131612D01*
X179155Y131553D01*
X179110Y131496D01*
X179063Y131441D01*
X179012Y131389D01*
X178959Y131340D01*
X178903Y131294D01*
X178845Y131251D01*
X178785Y131211D01*
X178723Y131174D01*
X178658Y131141D01*
X178592Y131111D01*
X178525Y131085D01*
X178456Y131062D01*
X178387Y131043D01*
X178316Y131028D01*
X178244Y131016D01*
X178172Y131008D01*
X178100Y131004D01*
X178028Y131004D01*
X177956Y131008D01*
X177884Y131016D01*
X177812Y131028D01*
X177741Y131043D01*
X177672Y131062D01*
X177603Y131085D01*
X177536Y131111D01*
X177470Y131141D01*
X177405Y131174D01*
X177343Y131211D01*
X177283Y131251D01*
X177225Y131294D01*
X177169Y131340D01*
X177116Y131389D01*
X177065Y131441D01*
X177018Y131496D01*
X176973Y131553D01*
X176932Y131612D01*
X176893Y131673D01*
X176858Y131736D01*
X176826Y131801D01*
X176798Y131868D01*
X176774Y131936D01*
X176753Y132005D01*
X176736Y132076D01*
X176722Y132147D01*
X176713Y132219D01*
X176707Y132291D01*
X176705Y132363D01*
X176977Y134809D02*
X176979Y134873D01*
X176985Y134938D01*
X176994Y135001D01*
X177007Y135064D01*
X177024Y135126D01*
X177045Y135187D01*
X177069Y135247D01*
X177097Y135305D01*
X177128Y135362D01*
X177162Y135416D01*
X177200Y135469D01*
X177241Y135519D01*
X177284Y135566D01*
X177330Y135611D01*
X177379Y135653D01*
X177430Y135692D01*
X177484Y135728D01*
X177539Y135761D01*
X177597Y135790D01*
X177655Y135816D01*
X177716Y135839D01*
X177777Y135858D01*
X177840Y135873D01*
X177904Y135884D01*
X177967Y135892D01*
X178032Y135896D01*
X178096Y135896D01*
X178161Y135892D01*
X178224Y135884D01*
X178288Y135873D01*
X178351Y135858D01*
X178412Y135839D01*
X178473Y135816D01*
X178531Y135790D01*
X178589Y135761D01*
X178644Y135728D01*
X178698Y135692D01*
X178749Y135653D01*
X178798Y135611D01*
X178844Y135566D01*
X178887Y135519D01*
X178928Y135469D01*
X178966Y135416D01*
X179000Y135362D01*
X179031Y135305D01*
X179059Y135247D01*
X179083Y135187D01*
X179104Y135126D01*
X179121Y135064D01*
X179134Y135001D01*
X179143Y134938D01*
X179149Y134873D01*
X179151Y134809D01*
X179149Y134745D01*
X179143Y134680D01*
X179134Y134617D01*
X179121Y134554D01*
X179104Y134492D01*
X179083Y134431D01*
X179059Y134371D01*
X179031Y134313D01*
X179000Y134256D01*
X178966Y134202D01*
X178928Y134149D01*
X178887Y134099D01*
X178844Y134052D01*
X178798Y134007D01*
X178749Y133965D01*
X178698Y133926D01*
X178644Y133890D01*
X178589Y133857D01*
X178531Y133828D01*
X178473Y133802D01*
X178412Y133779D01*
X178351Y133760D01*
X178288Y133745D01*
X178224Y133734D01*
X178161Y133726D01*
X178096Y133722D01*
X178032Y133722D01*
X177967Y133726D01*
X177904Y133734D01*
X177840Y133745D01*
X177777Y133760D01*
X177716Y133779D01*
X177655Y133802D01*
X177597Y133828D01*
X177539Y133857D01*
X177484Y133890D01*
X177430Y133926D01*
X177379Y133965D01*
X177330Y134007D01*
X177284Y134052D01*
X177241Y134099D01*
X177200Y134149D01*
X177162Y134202D01*
X177128Y134256D01*
X177097Y134313D01*
X177069Y134371D01*
X177045Y134431D01*
X177024Y134492D01*
X177007Y134554D01*
X176994Y134617D01*
X176985Y134680D01*
X176979Y134745D01*
X176977Y134809D01*
X181565Y134809D02*
X182924Y135896D01*
X182924Y131004D01*
X181565Y131004D02*
X184283Y131004D01*
X186425Y134809D02*
X187784Y135896D01*
X187784Y131004D01*
X186425Y131004D02*
X189143Y131004D01*
D10*
X307340Y133350D02*
X307440Y133348D01*
X307539Y133342D01*
X307639Y133332D01*
X307737Y133319D01*
X307836Y133301D01*
X307933Y133280D01*
X308029Y133255D01*
X308125Y133226D01*
X308219Y133193D01*
X308312Y133157D01*
X308403Y133117D01*
X308493Y133073D01*
X308581Y133026D01*
X308667Y132976D01*
X308751Y132922D01*
X308833Y132865D01*
X308912Y132805D01*
X308990Y132741D01*
X309064Y132675D01*
X309136Y132606D01*
X309205Y132534D01*
X309271Y132460D01*
X309335Y132382D01*
X309395Y132303D01*
X309452Y132221D01*
X309506Y132137D01*
X309556Y132051D01*
X309603Y131963D01*
X309647Y131873D01*
X309687Y131782D01*
X309723Y131689D01*
X309756Y131595D01*
X309785Y131499D01*
X309810Y131403D01*
X309831Y131306D01*
X309849Y131207D01*
X309862Y131109D01*
X309872Y131009D01*
X309878Y130910D01*
X309880Y130810D01*
X289560Y133350D02*
X289460Y133348D01*
X289361Y133342D01*
X289261Y133332D01*
X289163Y133319D01*
X289064Y133301D01*
X288967Y133280D01*
X288871Y133255D01*
X288775Y133226D01*
X288681Y133193D01*
X288588Y133157D01*
X288497Y133117D01*
X288407Y133073D01*
X288319Y133026D01*
X288233Y132976D01*
X288149Y132922D01*
X288067Y132865D01*
X287988Y132805D01*
X287910Y132741D01*
X287836Y132675D01*
X287764Y132606D01*
X287695Y132534D01*
X287629Y132460D01*
X287565Y132382D01*
X287505Y132303D01*
X287448Y132221D01*
X287394Y132137D01*
X287344Y132051D01*
X287297Y131963D01*
X287253Y131873D01*
X287213Y131782D01*
X287177Y131689D01*
X287144Y131595D01*
X287115Y131499D01*
X287090Y131403D01*
X287069Y131306D01*
X287051Y131207D01*
X287038Y131109D01*
X287028Y131009D01*
X287022Y130910D01*
X287020Y130810D01*
X287020Y72390D02*
X287022Y72290D01*
X287028Y72191D01*
X287038Y72091D01*
X287051Y71993D01*
X287069Y71894D01*
X287090Y71797D01*
X287115Y71701D01*
X287144Y71605D01*
X287177Y71511D01*
X287213Y71418D01*
X287253Y71327D01*
X287297Y71237D01*
X287344Y71149D01*
X287394Y71063D01*
X287448Y70979D01*
X287505Y70897D01*
X287565Y70818D01*
X287629Y70740D01*
X287695Y70666D01*
X287764Y70594D01*
X287836Y70525D01*
X287910Y70459D01*
X287988Y70395D01*
X288067Y70335D01*
X288149Y70278D01*
X288233Y70224D01*
X288319Y70174D01*
X288407Y70127D01*
X288497Y70083D01*
X288588Y70043D01*
X288681Y70007D01*
X288775Y69974D01*
X288871Y69945D01*
X288967Y69920D01*
X289064Y69899D01*
X289163Y69881D01*
X289261Y69868D01*
X289361Y69858D01*
X289460Y69852D01*
X289560Y69850D01*
X307340Y69850D02*
X307440Y69852D01*
X307539Y69858D01*
X307639Y69868D01*
X307737Y69881D01*
X307836Y69899D01*
X307933Y69920D01*
X308029Y69945D01*
X308125Y69974D01*
X308219Y70007D01*
X308312Y70043D01*
X308403Y70083D01*
X308493Y70127D01*
X308581Y70174D01*
X308667Y70224D01*
X308751Y70278D01*
X308833Y70335D01*
X308912Y70395D01*
X308990Y70459D01*
X309064Y70525D01*
X309136Y70594D01*
X309205Y70666D01*
X309271Y70740D01*
X309335Y70818D01*
X309395Y70897D01*
X309452Y70979D01*
X309506Y71063D01*
X309556Y71149D01*
X309603Y71237D01*
X309647Y71327D01*
X309687Y71418D01*
X309723Y71511D01*
X309756Y71605D01*
X309785Y71701D01*
X309810Y71797D01*
X309831Y71894D01*
X309849Y71993D01*
X309862Y72091D01*
X309872Y72191D01*
X309878Y72290D01*
X309880Y72390D01*
X307340Y133350D02*
X289560Y133350D01*
X309880Y130810D02*
X309880Y127000D01*
X308610Y125730D01*
X287020Y127000D02*
X287020Y130810D01*
X287020Y127000D02*
X288290Y125730D01*
X308610Y77470D02*
X309880Y76200D01*
X308610Y77470D02*
X308610Y125730D01*
X288290Y77470D02*
X287020Y76200D01*
X288290Y77470D02*
X288290Y125730D01*
X309880Y76200D02*
X309880Y72390D01*
X287020Y72390D02*
X287020Y76200D01*
X289560Y69850D02*
X307340Y69850D01*
D14*
X298450Y65532D03*
X298450Y137668D03*
D15*
X314325Y113748D02*
X325755Y113748D01*
X314325Y113748D02*
X314325Y116923D01*
X314327Y117034D01*
X314333Y117144D01*
X314342Y117255D01*
X314356Y117365D01*
X314373Y117474D01*
X314394Y117583D01*
X314419Y117691D01*
X314448Y117798D01*
X314480Y117904D01*
X314516Y118009D01*
X314556Y118112D01*
X314599Y118214D01*
X314646Y118315D01*
X314697Y118414D01*
X314750Y118510D01*
X314807Y118605D01*
X314868Y118698D01*
X314931Y118789D01*
X314998Y118878D01*
X315068Y118964D01*
X315141Y119047D01*
X315216Y119129D01*
X315294Y119207D01*
X315376Y119282D01*
X315459Y119355D01*
X315545Y119425D01*
X315634Y119492D01*
X315725Y119555D01*
X315818Y119616D01*
X315913Y119673D01*
X316009Y119726D01*
X316108Y119777D01*
X316209Y119824D01*
X316311Y119867D01*
X316414Y119907D01*
X316519Y119943D01*
X316625Y119975D01*
X316732Y120004D01*
X316840Y120029D01*
X316949Y120050D01*
X317058Y120067D01*
X317168Y120081D01*
X317279Y120090D01*
X317389Y120096D01*
X317500Y120098D01*
X317611Y120096D01*
X317721Y120090D01*
X317832Y120081D01*
X317942Y120067D01*
X318051Y120050D01*
X318160Y120029D01*
X318268Y120004D01*
X318375Y119975D01*
X318481Y119943D01*
X318586Y119907D01*
X318689Y119867D01*
X318791Y119824D01*
X318892Y119777D01*
X318991Y119726D01*
X319088Y119673D01*
X319182Y119616D01*
X319275Y119555D01*
X319366Y119492D01*
X319455Y119425D01*
X319541Y119355D01*
X319624Y119282D01*
X319706Y119207D01*
X319784Y119129D01*
X319859Y119047D01*
X319932Y118964D01*
X320002Y118878D01*
X320069Y118789D01*
X320132Y118698D01*
X320193Y118605D01*
X320250Y118511D01*
X320303Y118414D01*
X320354Y118315D01*
X320401Y118214D01*
X320444Y118112D01*
X320484Y118009D01*
X320520Y117904D01*
X320552Y117798D01*
X320581Y117691D01*
X320606Y117583D01*
X320627Y117474D01*
X320644Y117365D01*
X320658Y117255D01*
X320667Y117144D01*
X320673Y117034D01*
X320675Y116923D01*
X320675Y113748D01*
X320675Y117558D02*
X325755Y120098D01*
X316865Y125095D02*
X314325Y128270D01*
X325755Y128270D01*
X325755Y125095D02*
X325755Y131445D01*
X292735Y84709D02*
X295275Y81534D01*
X292735Y84709D02*
X304165Y84709D01*
X304165Y81534D02*
X304165Y87884D01*
X304165Y92964D02*
X304165Y96774D01*
X304163Y96874D01*
X304157Y96973D01*
X304147Y97073D01*
X304134Y97171D01*
X304116Y97270D01*
X304095Y97367D01*
X304070Y97463D01*
X304041Y97559D01*
X304008Y97653D01*
X303972Y97746D01*
X303932Y97837D01*
X303888Y97927D01*
X303841Y98015D01*
X303791Y98101D01*
X303737Y98185D01*
X303680Y98267D01*
X303620Y98346D01*
X303556Y98424D01*
X303490Y98498D01*
X303421Y98570D01*
X303349Y98639D01*
X303275Y98705D01*
X303197Y98769D01*
X303118Y98829D01*
X303036Y98886D01*
X302952Y98940D01*
X302866Y98990D01*
X302778Y99037D01*
X302688Y99081D01*
X302597Y99121D01*
X302504Y99157D01*
X302410Y99190D01*
X302314Y99219D01*
X302218Y99244D01*
X302121Y99265D01*
X302022Y99283D01*
X301924Y99296D01*
X301824Y99306D01*
X301725Y99312D01*
X301625Y99314D01*
X300355Y99314D01*
X300255Y99312D01*
X300156Y99306D01*
X300056Y99296D01*
X299958Y99283D01*
X299859Y99265D01*
X299762Y99244D01*
X299666Y99219D01*
X299570Y99190D01*
X299476Y99157D01*
X299383Y99121D01*
X299292Y99081D01*
X299202Y99037D01*
X299114Y98990D01*
X299028Y98940D01*
X298944Y98886D01*
X298862Y98829D01*
X298783Y98769D01*
X298705Y98705D01*
X298631Y98639D01*
X298559Y98570D01*
X298490Y98498D01*
X298424Y98424D01*
X298360Y98346D01*
X298300Y98267D01*
X298243Y98185D01*
X298189Y98101D01*
X298139Y98015D01*
X298092Y97927D01*
X298048Y97837D01*
X298008Y97746D01*
X297972Y97653D01*
X297939Y97559D01*
X297910Y97463D01*
X297885Y97367D01*
X297864Y97270D01*
X297846Y97171D01*
X297833Y97073D01*
X297823Y96973D01*
X297817Y96874D01*
X297815Y96774D01*
X297815Y92964D01*
X292735Y92964D01*
X292735Y99314D01*
X294323Y105346D02*
X294526Y105250D01*
X294731Y105159D01*
X294939Y105073D01*
X295149Y104992D01*
X295360Y104915D01*
X295573Y104844D01*
X295788Y104778D01*
X296005Y104717D01*
X296223Y104661D01*
X296442Y104611D01*
X296662Y104565D01*
X296883Y104525D01*
X297105Y104490D01*
X297328Y104461D01*
X297552Y104437D01*
X297776Y104418D01*
X298000Y104405D01*
X298225Y104397D01*
X298450Y104394D01*
X294323Y105346D02*
X294235Y105378D01*
X294148Y105414D01*
X294062Y105453D01*
X293978Y105496D01*
X293896Y105542D01*
X293816Y105591D01*
X293738Y105643D01*
X293662Y105699D01*
X293588Y105757D01*
X293517Y105819D01*
X293448Y105883D01*
X293382Y105950D01*
X293319Y106019D01*
X293258Y106091D01*
X293200Y106165D01*
X293146Y106242D01*
X293094Y106320D01*
X293046Y106401D01*
X293001Y106483D01*
X292959Y106568D01*
X292921Y106654D01*
X292886Y106741D01*
X292854Y106829D01*
X292827Y106919D01*
X292802Y107010D01*
X292782Y107102D01*
X292765Y107194D01*
X292752Y107288D01*
X292743Y107381D01*
X292737Y107475D01*
X292735Y107569D01*
X292737Y107663D01*
X292743Y107757D01*
X292752Y107850D01*
X292765Y107944D01*
X292782Y108036D01*
X292802Y108128D01*
X292827Y108219D01*
X292854Y108309D01*
X292886Y108397D01*
X292921Y108484D01*
X292959Y108570D01*
X293001Y108655D01*
X293046Y108737D01*
X293094Y108818D01*
X293146Y108896D01*
X293200Y108973D01*
X293258Y109047D01*
X293319Y109119D01*
X293382Y109188D01*
X293448Y109255D01*
X293517Y109319D01*
X293588Y109381D01*
X293662Y109439D01*
X293738Y109495D01*
X293816Y109547D01*
X293896Y109596D01*
X293978Y109642D01*
X294062Y109685D01*
X294148Y109724D01*
X294235Y109760D01*
X294323Y109792D01*
X294526Y109888D01*
X294731Y109979D01*
X294939Y110065D01*
X295149Y110146D01*
X295360Y110223D01*
X295573Y110294D01*
X295788Y110360D01*
X296005Y110421D01*
X296223Y110477D01*
X296442Y110527D01*
X296662Y110573D01*
X296883Y110613D01*
X297105Y110648D01*
X297328Y110677D01*
X297552Y110701D01*
X297776Y110720D01*
X298000Y110733D01*
X298225Y110741D01*
X298450Y110744D01*
X298450Y104394D02*
X298675Y104397D01*
X298900Y104405D01*
X299124Y104418D01*
X299348Y104437D01*
X299572Y104461D01*
X299795Y104490D01*
X300017Y104525D01*
X300238Y104565D01*
X300458Y104611D01*
X300677Y104661D01*
X300895Y104717D01*
X301112Y104778D01*
X301327Y104844D01*
X301540Y104915D01*
X301751Y104992D01*
X301961Y105073D01*
X302169Y105159D01*
X302374Y105250D01*
X302577Y105346D01*
X302578Y105346D02*
X302666Y105378D01*
X302753Y105414D01*
X302839Y105453D01*
X302923Y105496D01*
X303005Y105542D01*
X303085Y105591D01*
X303163Y105643D01*
X303239Y105699D01*
X303313Y105757D01*
X303384Y105819D01*
X303453Y105883D01*
X303519Y105950D01*
X303582Y106019D01*
X303643Y106091D01*
X303701Y106165D01*
X303755Y106242D01*
X303807Y106320D01*
X303855Y106401D01*
X303900Y106483D01*
X303942Y106568D01*
X303980Y106654D01*
X304015Y106741D01*
X304047Y106829D01*
X304074Y106919D01*
X304099Y107010D01*
X304119Y107102D01*
X304136Y107194D01*
X304149Y107288D01*
X304158Y107381D01*
X304164Y107475D01*
X304166Y107569D01*
X302577Y109792D02*
X302374Y109888D01*
X302169Y109979D01*
X301961Y110065D01*
X301751Y110146D01*
X301540Y110223D01*
X301327Y110294D01*
X301112Y110360D01*
X300895Y110421D01*
X300677Y110477D01*
X300458Y110527D01*
X300238Y110573D01*
X300017Y110613D01*
X299795Y110648D01*
X299572Y110677D01*
X299348Y110701D01*
X299124Y110720D01*
X298900Y110733D01*
X298675Y110741D01*
X298450Y110744D01*
X302578Y109792D02*
X302666Y109760D01*
X302753Y109724D01*
X302839Y109685D01*
X302923Y109642D01*
X303005Y109596D01*
X303085Y109547D01*
X303163Y109495D01*
X303239Y109439D01*
X303313Y109381D01*
X303384Y109319D01*
X303453Y109255D01*
X303519Y109188D01*
X303582Y109119D01*
X303643Y109047D01*
X303701Y108973D01*
X303755Y108896D01*
X303807Y108818D01*
X303855Y108737D01*
X303900Y108655D01*
X303942Y108570D01*
X303980Y108484D01*
X304015Y108397D01*
X304047Y108309D01*
X304074Y108219D01*
X304099Y108128D01*
X304119Y108036D01*
X304136Y107944D01*
X304149Y107850D01*
X304158Y107757D01*
X304164Y107663D01*
X304166Y107569D01*
X301625Y105029D02*
X295275Y110109D01*
X296545Y115951D02*
X296423Y115953D01*
X296301Y115959D01*
X296179Y115969D01*
X296058Y115982D01*
X295937Y116000D01*
X295817Y116021D01*
X295697Y116047D01*
X295579Y116076D01*
X295461Y116108D01*
X295344Y116145D01*
X295229Y116185D01*
X295115Y116229D01*
X295003Y116277D01*
X294892Y116328D01*
X294783Y116383D01*
X294675Y116441D01*
X294570Y116503D01*
X294467Y116568D01*
X294365Y116636D01*
X294266Y116708D01*
X294170Y116782D01*
X294075Y116860D01*
X293984Y116941D01*
X293894Y117024D01*
X293808Y117110D01*
X293725Y117200D01*
X293644Y117291D01*
X293566Y117386D01*
X293492Y117482D01*
X293420Y117581D01*
X293352Y117683D01*
X293287Y117786D01*
X293225Y117891D01*
X293167Y117999D01*
X293112Y118108D01*
X293061Y118219D01*
X293013Y118331D01*
X292969Y118445D01*
X292929Y118560D01*
X292892Y118677D01*
X292860Y118795D01*
X292831Y118913D01*
X292805Y119033D01*
X292784Y119153D01*
X292766Y119274D01*
X292753Y119395D01*
X292743Y119517D01*
X292737Y119639D01*
X292735Y119761D01*
X296545Y115951D02*
X297815Y115951D01*
X297933Y115953D01*
X298051Y115959D01*
X298168Y115968D01*
X298285Y115982D01*
X298402Y115999D01*
X298518Y116020D01*
X298633Y116045D01*
X298747Y116074D01*
X298860Y116106D01*
X298972Y116142D01*
X299083Y116182D01*
X299193Y116225D01*
X299301Y116272D01*
X299408Y116323D01*
X299512Y116377D01*
X299615Y116434D01*
X299716Y116494D01*
X299815Y116558D01*
X299912Y116625D01*
X300007Y116696D01*
X300099Y116769D01*
X300189Y116845D01*
X300276Y116925D01*
X300361Y117007D01*
X300443Y117091D01*
X300522Y117179D01*
X300598Y117269D01*
X300671Y117361D01*
X300741Y117456D01*
X300808Y117553D01*
X300872Y117652D01*
X300933Y117753D01*
X300990Y117856D01*
X304165Y117856D01*
X304165Y115951D01*
X296545Y123571D02*
X296423Y123569D01*
X296301Y123563D01*
X296179Y123553D01*
X296058Y123540D01*
X295937Y123522D01*
X295817Y123501D01*
X295697Y123475D01*
X295579Y123446D01*
X295461Y123414D01*
X295344Y123377D01*
X295229Y123337D01*
X295115Y123293D01*
X295003Y123245D01*
X294892Y123194D01*
X294783Y123139D01*
X294675Y123081D01*
X294570Y123019D01*
X294467Y122954D01*
X294365Y122886D01*
X294266Y122814D01*
X294170Y122740D01*
X294075Y122662D01*
X293984Y122581D01*
X293894Y122498D01*
X293808Y122412D01*
X293725Y122322D01*
X293644Y122231D01*
X293566Y122136D01*
X293492Y122040D01*
X293420Y121941D01*
X293352Y121839D01*
X293287Y121736D01*
X293225Y121631D01*
X293167Y121523D01*
X293112Y121414D01*
X293061Y121303D01*
X293013Y121191D01*
X292969Y121077D01*
X292929Y120962D01*
X292892Y120845D01*
X292860Y120727D01*
X292831Y120609D01*
X292805Y120489D01*
X292784Y120369D01*
X292766Y120248D01*
X292753Y120127D01*
X292743Y120005D01*
X292737Y119883D01*
X292735Y119761D01*
X296545Y123571D02*
X297815Y123571D01*
X297933Y123569D01*
X298051Y123563D01*
X298168Y123554D01*
X298285Y123540D01*
X298402Y123523D01*
X298518Y123502D01*
X298633Y123477D01*
X298747Y123448D01*
X298860Y123416D01*
X298972Y123380D01*
X299083Y123340D01*
X299193Y123297D01*
X299301Y123250D01*
X299408Y123199D01*
X299512Y123145D01*
X299615Y123088D01*
X299716Y123028D01*
X299815Y122964D01*
X299912Y122897D01*
X300007Y122826D01*
X300099Y122753D01*
X300189Y122677D01*
X300276Y122597D01*
X300361Y122515D01*
X300443Y122431D01*
X300522Y122343D01*
X300598Y122253D01*
X300671Y122161D01*
X300741Y122066D01*
X300808Y121969D01*
X300872Y121870D01*
X300933Y121769D01*
X300990Y121666D01*
X304165Y121666D01*
X304165Y123571D01*
D16*
X349250Y127000D02*
X387350Y127000D01*
D17*
X387966Y126526D01*
X388571Y126037D01*
X389163Y125533D01*
X389743Y125015D01*
X390310Y124483D01*
X390864Y123937D01*
X391404Y123378D01*
X391930Y122805D01*
X392443Y122220D01*
X392940Y121623D01*
X393423Y121014D01*
X393891Y120393D01*
X394344Y119760D01*
X394781Y119117D01*
X395202Y118463D01*
X395606Y117799D01*
X395995Y117126D01*
X396367Y116443D01*
X396722Y115751D01*
X397060Y115051D01*
X397381Y114343D01*
X397684Y113627D01*
X397970Y112903D01*
X398238Y112174D01*
X398488Y111437D01*
X398719Y110695D01*
X398933Y109947D01*
X399128Y109195D01*
X399305Y108437D01*
X399463Y107676D01*
X399603Y106911D01*
X399723Y106143D01*
X399825Y105372D01*
X399908Y104599D01*
X399972Y103824D01*
X400017Y103048D01*
X400043Y102271D01*
X400050Y101493D01*
X400038Y100716D01*
X400007Y99939D01*
X399956Y99163D01*
X399887Y98388D01*
X399799Y97616D01*
X399692Y96846D01*
X399566Y96078D01*
X399422Y95314D01*
X399258Y94554D01*
X399076Y93798D01*
X398876Y93047D01*
X398658Y92300D01*
X398421Y91560D01*
X398166Y90825D01*
X397893Y90097D01*
X397602Y89376D01*
X397294Y88662D01*
X396969Y87956D01*
X396626Y87258D01*
X396266Y86568D01*
X395890Y85888D01*
X395497Y85217D01*
X395087Y84556D01*
X394662Y83905D01*
X394221Y83265D01*
X393764Y82636D01*
X393292Y82018D01*
X392805Y81412D01*
X392303Y80818D01*
X391787Y80236D01*
X391257Y79667D01*
X390713Y79112D01*
X390155Y78569D01*
X389585Y78041D01*
X389002Y77527D01*
X388406Y77027D01*
X387798Y76542D01*
X387179Y76072D01*
X386548Y75618D01*
X385906Y75179D01*
X385254Y74755D01*
X384591Y74348D01*
X383919Y73957D01*
X383237Y73583D01*
X382547Y73226D01*
X381848Y72886D01*
X381140Y72562D01*
X380426Y72257D01*
X379703Y71968D01*
X378974Y71698D01*
X378239Y71446D01*
X377497Y71211D01*
X376750Y70995D01*
X375998Y70797D01*
X375242Y70618D01*
X374481Y70457D01*
X373717Y70315D01*
X372949Y70192D01*
X372178Y70088D01*
X371405Y70002D01*
X370631Y69936D01*
X369855Y69888D01*
X369078Y69860D01*
X368300Y69850D01*
X367522Y69860D01*
X366745Y69888D01*
X365969Y69936D01*
X365195Y70002D01*
X364422Y70088D01*
X363651Y70192D01*
X362883Y70315D01*
X362119Y70457D01*
X361358Y70618D01*
X360602Y70797D01*
X359850Y70995D01*
X359103Y71211D01*
X358361Y71446D01*
X357626Y71698D01*
X356897Y71968D01*
X356174Y72257D01*
X355460Y72562D01*
X354752Y72886D01*
X354053Y73226D01*
X353363Y73583D01*
X352681Y73957D01*
X352009Y74348D01*
X351346Y74755D01*
X350694Y75179D01*
X350052Y75618D01*
X349421Y76072D01*
X348802Y76542D01*
X348194Y77027D01*
X347598Y77527D01*
X347015Y78041D01*
X346445Y78569D01*
X345887Y79112D01*
X345343Y79667D01*
X344813Y80236D01*
X344297Y80818D01*
X343795Y81412D01*
X343308Y82018D01*
X342836Y82636D01*
X342379Y83265D01*
X341938Y83905D01*
X341513Y84556D01*
X341103Y85217D01*
X340710Y85888D01*
X340334Y86568D01*
X339974Y87258D01*
X339631Y87956D01*
X339306Y88662D01*
X338998Y89376D01*
X338707Y90097D01*
X338434Y90825D01*
X338179Y91560D01*
X337942Y92300D01*
X337724Y93047D01*
X337524Y93798D01*
X337342Y94554D01*
X337178Y95314D01*
X337034Y96078D01*
X336908Y96846D01*
X336801Y97616D01*
X336713Y98388D01*
X336644Y99163D01*
X336593Y99939D01*
X336562Y100716D01*
X336550Y101493D01*
X336557Y102271D01*
X336583Y103048D01*
X336628Y103824D01*
X336692Y104599D01*
X336775Y105372D01*
X336877Y106143D01*
X336997Y106911D01*
X337137Y107676D01*
X337295Y108437D01*
X337472Y109195D01*
X337667Y109947D01*
X337881Y110695D01*
X338112Y111437D01*
X338362Y112174D01*
X338630Y112903D01*
X338916Y113627D01*
X339219Y114343D01*
X339540Y115051D01*
X339878Y115751D01*
X340233Y116443D01*
X340605Y117126D01*
X340994Y117799D01*
X341398Y118463D01*
X341819Y119117D01*
X342256Y119760D01*
X342709Y120393D01*
X343177Y121014D01*
X343660Y121623D01*
X344157Y122220D01*
X344670Y122805D01*
X345196Y123378D01*
X345736Y123937D01*
X346290Y124483D01*
X346857Y125015D01*
X347437Y125533D01*
X348029Y126037D01*
X348634Y126526D01*
X349250Y127000D01*
D10*
X342900Y101600D02*
X342908Y102223D01*
X342931Y102846D01*
X342969Y103469D01*
X343022Y104090D01*
X343091Y104709D01*
X343175Y105327D01*
X343274Y105942D01*
X343388Y106555D01*
X343517Y107165D01*
X343661Y107772D01*
X343820Y108375D01*
X343994Y108973D01*
X344182Y109568D01*
X344385Y110157D01*
X344602Y110741D01*
X344833Y111320D01*
X345079Y111893D01*
X345339Y112460D01*
X345612Y113020D01*
X345899Y113573D01*
X346200Y114120D01*
X346514Y114658D01*
X346841Y115189D01*
X347181Y115711D01*
X347533Y116226D01*
X347899Y116731D01*
X348276Y117227D01*
X348666Y117714D01*
X349067Y118191D01*
X349480Y118658D01*
X349904Y119114D01*
X350339Y119561D01*
X350786Y119996D01*
X351242Y120420D01*
X351709Y120833D01*
X352186Y121234D01*
X352673Y121624D01*
X353169Y122001D01*
X353674Y122367D01*
X354189Y122719D01*
X354711Y123059D01*
X355242Y123386D01*
X355780Y123700D01*
X356327Y124001D01*
X356880Y124288D01*
X357440Y124561D01*
X358007Y124821D01*
X358580Y125067D01*
X359159Y125298D01*
X359743Y125515D01*
X360332Y125718D01*
X360927Y125906D01*
X361525Y126080D01*
X362128Y126239D01*
X362735Y126383D01*
X363345Y126512D01*
X363958Y126626D01*
X364573Y126725D01*
X365191Y126809D01*
X365810Y126878D01*
X366431Y126931D01*
X367054Y126969D01*
X367677Y126992D01*
X368300Y127000D01*
X368923Y126992D01*
X369546Y126969D01*
X370169Y126931D01*
X370790Y126878D01*
X371409Y126809D01*
X372027Y126725D01*
X372642Y126626D01*
X373255Y126512D01*
X373865Y126383D01*
X374472Y126239D01*
X375075Y126080D01*
X375673Y125906D01*
X376268Y125718D01*
X376857Y125515D01*
X377441Y125298D01*
X378020Y125067D01*
X378593Y124821D01*
X379160Y124561D01*
X379720Y124288D01*
X380273Y124001D01*
X380820Y123700D01*
X381358Y123386D01*
X381889Y123059D01*
X382411Y122719D01*
X382926Y122367D01*
X383431Y122001D01*
X383927Y121624D01*
X384414Y121234D01*
X384891Y120833D01*
X385358Y120420D01*
X385814Y119996D01*
X386261Y119561D01*
X386696Y119114D01*
X387120Y118658D01*
X387533Y118191D01*
X387934Y117714D01*
X388324Y117227D01*
X388701Y116731D01*
X389067Y116226D01*
X389419Y115711D01*
X389759Y115189D01*
X390086Y114658D01*
X390400Y114120D01*
X390701Y113573D01*
X390988Y113020D01*
X391261Y112460D01*
X391521Y111893D01*
X391767Y111320D01*
X391998Y110741D01*
X392215Y110157D01*
X392418Y109568D01*
X392606Y108973D01*
X392780Y108375D01*
X392939Y107772D01*
X393083Y107165D01*
X393212Y106555D01*
X393326Y105942D01*
X393425Y105327D01*
X393509Y104709D01*
X393578Y104090D01*
X393631Y103469D01*
X393669Y102846D01*
X393692Y102223D01*
X393700Y101600D01*
X393692Y100977D01*
X393669Y100354D01*
X393631Y99731D01*
X393578Y99110D01*
X393509Y98491D01*
X393425Y97873D01*
X393326Y97258D01*
X393212Y96645D01*
X393083Y96035D01*
X392939Y95428D01*
X392780Y94825D01*
X392606Y94227D01*
X392418Y93632D01*
X392215Y93043D01*
X391998Y92459D01*
X391767Y91880D01*
X391521Y91307D01*
X391261Y90740D01*
X390988Y90180D01*
X390701Y89627D01*
X390400Y89080D01*
X390086Y88542D01*
X389759Y88011D01*
X389419Y87489D01*
X389067Y86974D01*
X388701Y86469D01*
X388324Y85973D01*
X387934Y85486D01*
X387533Y85009D01*
X387120Y84542D01*
X386696Y84086D01*
X386261Y83639D01*
X385814Y83204D01*
X385358Y82780D01*
X384891Y82367D01*
X384414Y81966D01*
X383927Y81576D01*
X383431Y81199D01*
X382926Y80833D01*
X382411Y80481D01*
X381889Y80141D01*
X381358Y79814D01*
X380820Y79500D01*
X380273Y79199D01*
X379720Y78912D01*
X379160Y78639D01*
X378593Y78379D01*
X378020Y78133D01*
X377441Y77902D01*
X376857Y77685D01*
X376268Y77482D01*
X375673Y77294D01*
X375075Y77120D01*
X374472Y76961D01*
X373865Y76817D01*
X373255Y76688D01*
X372642Y76574D01*
X372027Y76475D01*
X371409Y76391D01*
X370790Y76322D01*
X370169Y76269D01*
X369546Y76231D01*
X368923Y76208D01*
X368300Y76200D01*
X367677Y76208D01*
X367054Y76231D01*
X366431Y76269D01*
X365810Y76322D01*
X365191Y76391D01*
X364573Y76475D01*
X363958Y76574D01*
X363345Y76688D01*
X362735Y76817D01*
X362128Y76961D01*
X361525Y77120D01*
X360927Y77294D01*
X360332Y77482D01*
X359743Y77685D01*
X359159Y77902D01*
X358580Y78133D01*
X358007Y78379D01*
X357440Y78639D01*
X356880Y78912D01*
X356327Y79199D01*
X355780Y79500D01*
X355242Y79814D01*
X354711Y80141D01*
X354189Y80481D01*
X353674Y80833D01*
X353169Y81199D01*
X352673Y81576D01*
X352186Y81966D01*
X351709Y82367D01*
X351242Y82780D01*
X350786Y83204D01*
X350339Y83639D01*
X349904Y84086D01*
X349480Y84542D01*
X349067Y85009D01*
X348666Y85486D01*
X348276Y85973D01*
X347899Y86469D01*
X347533Y86974D01*
X347181Y87489D01*
X346841Y88011D01*
X346514Y88542D01*
X346200Y89080D01*
X345899Y89627D01*
X345612Y90180D01*
X345339Y90740D01*
X345079Y91307D01*
X344833Y91880D01*
X344602Y92459D01*
X344385Y93043D01*
X344182Y93632D01*
X343994Y94227D01*
X343820Y94825D01*
X343661Y95428D01*
X343517Y96035D01*
X343388Y96645D01*
X343274Y97258D01*
X343175Y97873D01*
X343091Y98491D01*
X343022Y99110D01*
X342969Y99731D01*
X342931Y100354D01*
X342908Y100977D01*
X342900Y101600D01*
D15*
X348767Y141351D02*
X348767Y152781D01*
X348767Y141351D02*
X353847Y141351D01*
X358673Y141351D02*
X363753Y141351D01*
X358673Y141351D02*
X358673Y152781D01*
X363753Y152781D01*
X362483Y147701D02*
X358673Y147701D01*
X368554Y152781D02*
X368554Y141351D01*
X368554Y152781D02*
X371729Y152781D01*
X371840Y152779D01*
X371950Y152773D01*
X372061Y152764D01*
X372171Y152750D01*
X372280Y152733D01*
X372389Y152712D01*
X372497Y152687D01*
X372604Y152658D01*
X372710Y152626D01*
X372815Y152590D01*
X372918Y152550D01*
X373020Y152507D01*
X373121Y152460D01*
X373220Y152409D01*
X373317Y152356D01*
X373411Y152299D01*
X373504Y152238D01*
X373595Y152175D01*
X373684Y152108D01*
X373770Y152038D01*
X373853Y151965D01*
X373935Y151890D01*
X374013Y151812D01*
X374088Y151730D01*
X374161Y151647D01*
X374231Y151561D01*
X374298Y151472D01*
X374361Y151381D01*
X374422Y151288D01*
X374479Y151194D01*
X374532Y151097D01*
X374583Y150998D01*
X374630Y150897D01*
X374673Y150795D01*
X374713Y150692D01*
X374749Y150587D01*
X374781Y150481D01*
X374810Y150374D01*
X374835Y150266D01*
X374856Y150157D01*
X374873Y150048D01*
X374887Y149938D01*
X374896Y149827D01*
X374902Y149717D01*
X374904Y149606D01*
X374904Y144526D01*
X374902Y144415D01*
X374896Y144305D01*
X374887Y144194D01*
X374873Y144084D01*
X374856Y143975D01*
X374835Y143866D01*
X374810Y143758D01*
X374781Y143651D01*
X374749Y143545D01*
X374713Y143440D01*
X374673Y143337D01*
X374630Y143235D01*
X374583Y143134D01*
X374532Y143035D01*
X374479Y142938D01*
X374422Y142844D01*
X374361Y142751D01*
X374298Y142660D01*
X374231Y142571D01*
X374161Y142485D01*
X374088Y142402D01*
X374013Y142320D01*
X373935Y142242D01*
X373853Y142167D01*
X373770Y142094D01*
X373684Y142024D01*
X373595Y141957D01*
X373504Y141894D01*
X373411Y141833D01*
X373317Y141776D01*
X373220Y141723D01*
X373121Y141672D01*
X373020Y141625D01*
X372918Y141582D01*
X372815Y141542D01*
X372710Y141506D01*
X372604Y141474D01*
X372497Y141445D01*
X372389Y141420D01*
X372280Y141399D01*
X372171Y141382D01*
X372061Y141368D01*
X371950Y141359D01*
X371840Y141353D01*
X371729Y141351D01*
X368554Y141351D01*
X380365Y150241D02*
X383540Y152781D01*
X383540Y141351D01*
X380365Y141351D02*
X386715Y141351D01*
D10*
X314960Y215900D02*
X314970Y216742D01*
X315001Y217583D01*
X315053Y218423D01*
X315125Y219261D01*
X315218Y220097D01*
X315331Y220931D01*
X315465Y221762D01*
X315619Y222590D01*
X315793Y223413D01*
X315988Y224232D01*
X316202Y225046D01*
X316437Y225854D01*
X316691Y226656D01*
X316964Y227452D01*
X317258Y228241D01*
X317570Y229022D01*
X317902Y229796D01*
X318252Y230561D01*
X318621Y231317D01*
X319009Y232064D01*
X319415Y232801D01*
X319838Y233529D01*
X320280Y234245D01*
X320739Y234951D01*
X321215Y235644D01*
X321708Y236327D01*
X322218Y236996D01*
X322743Y237653D01*
X323285Y238297D01*
X323843Y238928D01*
X324416Y239544D01*
X325003Y240147D01*
X325606Y240734D01*
X326222Y241307D01*
X326853Y241865D01*
X327497Y242407D01*
X328154Y242932D01*
X328823Y243442D01*
X329506Y243935D01*
X330199Y244411D01*
X330905Y244870D01*
X331621Y245312D01*
X332349Y245735D01*
X333086Y246141D01*
X333833Y246529D01*
X334589Y246898D01*
X335354Y247248D01*
X336128Y247580D01*
X336909Y247892D01*
X337698Y248186D01*
X338494Y248459D01*
X339296Y248713D01*
X340104Y248948D01*
X340918Y249162D01*
X341737Y249357D01*
X342560Y249531D01*
X343388Y249685D01*
X344219Y249819D01*
X345053Y249932D01*
X345889Y250025D01*
X346727Y250097D01*
X347567Y250149D01*
X348408Y250180D01*
X349250Y250190D01*
X350092Y250180D01*
X350933Y250149D01*
X351773Y250097D01*
X352611Y250025D01*
X353447Y249932D01*
X354281Y249819D01*
X355112Y249685D01*
X355940Y249531D01*
X356763Y249357D01*
X357582Y249162D01*
X358396Y248948D01*
X359204Y248713D01*
X360006Y248459D01*
X360802Y248186D01*
X361591Y247892D01*
X362372Y247580D01*
X363146Y247248D01*
X363911Y246898D01*
X364667Y246529D01*
X365414Y246141D01*
X366151Y245735D01*
X366879Y245312D01*
X367595Y244870D01*
X368301Y244411D01*
X368994Y243935D01*
X369677Y243442D01*
X370346Y242932D01*
X371003Y242407D01*
X371647Y241865D01*
X372278Y241307D01*
X372894Y240734D01*
X373497Y240147D01*
X374084Y239544D01*
X374657Y238928D01*
X375215Y238297D01*
X375757Y237653D01*
X376282Y236996D01*
X376792Y236327D01*
X377285Y235644D01*
X377761Y234951D01*
X378220Y234245D01*
X378662Y233529D01*
X379085Y232801D01*
X379491Y232064D01*
X379879Y231317D01*
X380248Y230561D01*
X380598Y229796D01*
X380930Y229022D01*
X381242Y228241D01*
X381536Y227452D01*
X381809Y226656D01*
X382063Y225854D01*
X382298Y225046D01*
X382512Y224232D01*
X382707Y223413D01*
X382881Y222590D01*
X383035Y221762D01*
X383169Y220931D01*
X383282Y220097D01*
X383375Y219261D01*
X383447Y218423D01*
X383499Y217583D01*
X383530Y216742D01*
X383540Y215900D01*
X383530Y215058D01*
X383499Y214217D01*
X383447Y213377D01*
X383375Y212539D01*
X383282Y211703D01*
X383169Y210869D01*
X383035Y210038D01*
X382881Y209210D01*
X382707Y208387D01*
X382512Y207568D01*
X382298Y206754D01*
X382063Y205946D01*
X381809Y205144D01*
X381536Y204348D01*
X381242Y203559D01*
X380930Y202778D01*
X380598Y202004D01*
X380248Y201239D01*
X379879Y200483D01*
X379491Y199736D01*
X379085Y198999D01*
X378662Y198271D01*
X378220Y197555D01*
X377761Y196849D01*
X377285Y196156D01*
X376792Y195473D01*
X376282Y194804D01*
X375757Y194147D01*
X375215Y193503D01*
X374657Y192872D01*
X374084Y192256D01*
X373497Y191653D01*
X372894Y191066D01*
X372278Y190493D01*
X371647Y189935D01*
X371003Y189393D01*
X370346Y188868D01*
X369677Y188358D01*
X368994Y187865D01*
X368301Y187389D01*
X367595Y186930D01*
X366879Y186488D01*
X366151Y186065D01*
X365414Y185659D01*
X364667Y185271D01*
X363911Y184902D01*
X363146Y184552D01*
X362372Y184220D01*
X361591Y183908D01*
X360802Y183614D01*
X360006Y183341D01*
X359204Y183087D01*
X358396Y182852D01*
X357582Y182638D01*
X356763Y182443D01*
X355940Y182269D01*
X355112Y182115D01*
X354281Y181981D01*
X353447Y181868D01*
X352611Y181775D01*
X351773Y181703D01*
X350933Y181651D01*
X350092Y181620D01*
X349250Y181610D01*
X348408Y181620D01*
X347567Y181651D01*
X346727Y181703D01*
X345889Y181775D01*
X345053Y181868D01*
X344219Y181981D01*
X343388Y182115D01*
X342560Y182269D01*
X341737Y182443D01*
X340918Y182638D01*
X340104Y182852D01*
X339296Y183087D01*
X338494Y183341D01*
X337698Y183614D01*
X336909Y183908D01*
X336128Y184220D01*
X335354Y184552D01*
X334589Y184902D01*
X333833Y185271D01*
X333086Y185659D01*
X332349Y186065D01*
X331621Y186488D01*
X330905Y186930D01*
X330199Y187389D01*
X329506Y187865D01*
X328823Y188358D01*
X328154Y188868D01*
X327497Y189393D01*
X326853Y189935D01*
X326222Y190493D01*
X325606Y191066D01*
X325003Y191653D01*
X324416Y192256D01*
X323843Y192872D01*
X323285Y193503D01*
X322743Y194147D01*
X322218Y194804D01*
X321708Y195473D01*
X321215Y196156D01*
X320739Y196849D01*
X320280Y197555D01*
X319838Y198271D01*
X319415Y198999D01*
X319009Y199736D01*
X318621Y200483D01*
X318252Y201239D01*
X317902Y202004D01*
X317570Y202778D01*
X317258Y203559D01*
X316964Y204348D01*
X316691Y205144D01*
X316437Y205946D01*
X316202Y206754D01*
X315988Y207568D01*
X315793Y208387D01*
X315619Y209210D01*
X315465Y210038D01*
X315331Y210869D01*
X315218Y211703D01*
X315125Y212539D01*
X315053Y213377D01*
X315001Y214217D01*
X314970Y215058D01*
X314960Y215900D01*
D16*
X332250Y215900D02*
X332255Y216317D01*
X332270Y216734D01*
X332296Y217151D01*
X332332Y217566D01*
X332378Y217981D01*
X332434Y218394D01*
X332500Y218806D01*
X332577Y219217D01*
X332663Y219625D01*
X332759Y220031D01*
X332866Y220434D01*
X332982Y220835D01*
X333108Y221233D01*
X333244Y221627D01*
X333389Y222018D01*
X333544Y222406D01*
X333708Y222789D01*
X333882Y223168D01*
X334065Y223543D01*
X334257Y223914D01*
X334459Y224279D01*
X334669Y224640D01*
X334887Y224995D01*
X335115Y225345D01*
X335351Y225689D01*
X335595Y226027D01*
X335848Y226359D01*
X336109Y226685D01*
X336377Y227004D01*
X336654Y227317D01*
X336938Y227622D01*
X337229Y227921D01*
X337528Y228212D01*
X337833Y228496D01*
X338146Y228773D01*
X338465Y229041D01*
X338791Y229302D01*
X339123Y229555D01*
X339461Y229799D01*
X339805Y230035D01*
X340155Y230263D01*
X340510Y230481D01*
X340871Y230691D01*
X341236Y230893D01*
X341607Y231085D01*
X341982Y231268D01*
X342361Y231442D01*
X342744Y231606D01*
X343132Y231761D01*
X343523Y231906D01*
X343917Y232042D01*
X344315Y232168D01*
X344716Y232284D01*
X345119Y232391D01*
X345525Y232487D01*
X345933Y232573D01*
X346344Y232650D01*
X346756Y232716D01*
X347169Y232772D01*
X347584Y232818D01*
X347999Y232854D01*
X348416Y232880D01*
X348833Y232895D01*
X349250Y232900D01*
X349667Y232895D01*
X350084Y232880D01*
X350501Y232854D01*
X350916Y232818D01*
X351331Y232772D01*
X351744Y232716D01*
X352156Y232650D01*
X352567Y232573D01*
X352975Y232487D01*
X353381Y232391D01*
X353784Y232284D01*
X354185Y232168D01*
X354583Y232042D01*
X354977Y231906D01*
X355368Y231761D01*
X355756Y231606D01*
X356139Y231442D01*
X356518Y231268D01*
X356893Y231085D01*
X357264Y230893D01*
X357629Y230691D01*
X357990Y230481D01*
X358345Y230263D01*
X358695Y230035D01*
X359039Y229799D01*
X359377Y229555D01*
X359709Y229302D01*
X360035Y229041D01*
X360354Y228773D01*
X360667Y228496D01*
X360972Y228212D01*
X361271Y227921D01*
X361562Y227622D01*
X361846Y227317D01*
X362123Y227004D01*
X362391Y226685D01*
X362652Y226359D01*
X362905Y226027D01*
X363149Y225689D01*
X363385Y225345D01*
X363613Y224995D01*
X363831Y224640D01*
X364041Y224279D01*
X364243Y223914D01*
X364435Y223543D01*
X364618Y223168D01*
X364792Y222789D01*
X364956Y222406D01*
X365111Y222018D01*
X365256Y221627D01*
X365392Y221233D01*
X365518Y220835D01*
X365634Y220434D01*
X365741Y220031D01*
X365837Y219625D01*
X365923Y219217D01*
X366000Y218806D01*
X366066Y218394D01*
X366122Y217981D01*
X366168Y217566D01*
X366204Y217151D01*
X366230Y216734D01*
X366245Y216317D01*
X366250Y215900D01*
X366245Y215483D01*
X366230Y215066D01*
X366204Y214649D01*
X366168Y214234D01*
X366122Y213819D01*
X366066Y213406D01*
X366000Y212994D01*
X365923Y212583D01*
X365837Y212175D01*
X365741Y211769D01*
X365634Y211366D01*
X365518Y210965D01*
X365392Y210567D01*
X365256Y210173D01*
X365111Y209782D01*
X364956Y209394D01*
X364792Y209011D01*
X364618Y208632D01*
X364435Y208257D01*
X364243Y207886D01*
X364041Y207521D01*
X363831Y207160D01*
X363613Y206805D01*
X363385Y206455D01*
X363149Y206111D01*
X362905Y205773D01*
X362652Y205441D01*
X362391Y205115D01*
X362123Y204796D01*
X361846Y204483D01*
X361562Y204178D01*
X361271Y203879D01*
X360972Y203588D01*
X360667Y203304D01*
X360354Y203027D01*
X360035Y202759D01*
X359709Y202498D01*
X359377Y202245D01*
X359039Y202001D01*
X358695Y201765D01*
X358345Y201537D01*
X357990Y201319D01*
X357629Y201109D01*
X357264Y200907D01*
X356893Y200715D01*
X356518Y200532D01*
X356139Y200358D01*
X355756Y200194D01*
X355368Y200039D01*
X354977Y199894D01*
X354583Y199758D01*
X354185Y199632D01*
X353784Y199516D01*
X353381Y199409D01*
X352975Y199313D01*
X352567Y199227D01*
X352156Y199150D01*
X351744Y199084D01*
X351331Y199028D01*
X350916Y198982D01*
X350501Y198946D01*
X350084Y198920D01*
X349667Y198905D01*
X349250Y198900D01*
X348833Y198905D01*
X348416Y198920D01*
X347999Y198946D01*
X347584Y198982D01*
X347169Y199028D01*
X346756Y199084D01*
X346344Y199150D01*
X345933Y199227D01*
X345525Y199313D01*
X345119Y199409D01*
X344716Y199516D01*
X344315Y199632D01*
X343917Y199758D01*
X343523Y199894D01*
X343132Y200039D01*
X342744Y200194D01*
X342361Y200358D01*
X341982Y200532D01*
X341607Y200715D01*
X341236Y200907D01*
X340871Y201109D01*
X340510Y201319D01*
X340155Y201537D01*
X339805Y201765D01*
X339461Y202001D01*
X339123Y202245D01*
X338791Y202498D01*
X338465Y202759D01*
X338146Y203027D01*
X337833Y203304D01*
X337528Y203588D01*
X337229Y203879D01*
X336938Y204178D01*
X336654Y204483D01*
X336377Y204796D01*
X336109Y205115D01*
X335848Y205441D01*
X335595Y205773D01*
X335351Y206111D01*
X335115Y206455D01*
X334887Y206805D01*
X334669Y207160D01*
X334459Y207521D01*
X334257Y207886D01*
X334065Y208257D01*
X333882Y208632D01*
X333708Y209011D01*
X333544Y209394D01*
X333389Y209782D01*
X333244Y210173D01*
X333108Y210567D01*
X332982Y210965D01*
X332866Y211366D01*
X332759Y211769D01*
X332663Y212175D01*
X332577Y212583D01*
X332500Y212994D01*
X332434Y213406D01*
X332378Y213819D01*
X332332Y214234D01*
X332296Y214649D01*
X332270Y215066D01*
X332255Y215483D01*
X332250Y215900D01*
M02*
