G04 EAGLE Gerber RS-274X export*
G75*
%MOMM*%
%FSLAX34Y34*%
%LPD*%
%INSoldermask Top*%
%IPPOS*%
%AMOC8*
5,1,8,0,0,1.08239X$1,22.5*%
G01*
%ADD10R,1.303200X1.203200*%
%ADD11R,1.203200X1.303200*%
%ADD12R,1.503200X1.703200*%
%ADD13R,2.006200X1.803200*%
%ADD14C,0.803200*%
%ADD15R,0.603200X0.503200*%
%ADD16R,1.473200X1.854200*%
%ADD17R,0.838200X0.685800*%
%ADD18R,0.838200X0.660400*%
%ADD19R,0.863600X0.685800*%
%ADD20R,0.838200X0.635000*%
%ADD21R,1.574800X2.387600*%
%ADD22R,0.803200X0.603200*%
%ADD23P,1.759533X8X292.500000*%
%ADD24P,1.759533X8X112.500000*%
%ADD25C,2.006600*%
%ADD26C,3.403200*%
%ADD27C,1.261200*%


D10*
X156600Y190500D03*
X173600Y190500D03*
D11*
X260350Y156600D03*
X260350Y173600D03*
D12*
X187300Y120650D03*
X168300Y120650D03*
D13*
X139700Y166620D03*
X139700Y138180D03*
D14*
X146050Y247650D03*
X215900Y247650D03*
X215900Y50800D03*
X146050Y50800D03*
D15*
X214600Y168750D03*
X214600Y158750D03*
X214600Y148750D03*
X242600Y148750D03*
X242600Y158750D03*
X242600Y168750D03*
D16*
X228600Y158750D03*
D17*
X214503Y168783D03*
D18*
X214503Y158750D03*
D19*
X214630Y148717D03*
D20*
X242697Y168783D03*
D18*
X242697Y158750D03*
D17*
X242697Y148717D03*
D21*
X228600Y158750D03*
D22*
X167300Y158750D03*
X188300Y158750D03*
X167300Y164750D03*
X167300Y170750D03*
X167300Y152750D03*
X167300Y146750D03*
X188300Y146750D03*
X188300Y152750D03*
X188300Y164750D03*
X188300Y170750D03*
X177800Y158750D03*
D23*
X298450Y152400D03*
X298450Y50800D03*
D24*
X368300Y88900D03*
X368300Y114300D03*
D25*
X72517Y69850D02*
X54483Y69850D01*
X54483Y120650D02*
X72517Y120650D01*
X72517Y177800D02*
X54483Y177800D01*
X54483Y228600D02*
X72517Y228600D01*
D26*
X349250Y215900D03*
D27*
X139700Y114300D03*
X273050Y152400D03*
X203202Y164939D03*
X203200Y177800D03*
M02*
