G04 EAGLE Gerber RS-274X export*
G75*
%MOMM*%
%FSLAX34Y34*%
%LPD*%
%INSolderpaste Top*%
%IPPOS*%
%AMOC8*
5,1,8,0,0,1.08239X$1,22.5*%
G01*
%ADD10R,1.100000X1.000000*%
%ADD11R,1.000000X1.100000*%
%ADD12R,1.300000X1.500000*%
%ADD13R,1.803000X1.600000*%
%ADD14R,0.400000X0.300000*%
%ADD15R,1.270000X1.651000*%
%ADD16R,0.600000X0.400000*%

G36*
X235224Y147324D02*
X235224Y147324D01*
X235243Y147322D01*
X235345Y147344D01*
X235447Y147361D01*
X235464Y147370D01*
X235484Y147374D01*
X235573Y147427D01*
X235664Y147476D01*
X235678Y147490D01*
X235695Y147500D01*
X235762Y147579D01*
X235834Y147654D01*
X235842Y147672D01*
X235855Y147687D01*
X235894Y147783D01*
X235937Y147877D01*
X235939Y147897D01*
X235947Y147915D01*
X235965Y148082D01*
X235965Y169418D01*
X235963Y169429D01*
X235964Y169436D01*
X235963Y169444D01*
X235964Y169457D01*
X235942Y169559D01*
X235926Y169661D01*
X235916Y169678D01*
X235912Y169698D01*
X235859Y169787D01*
X235810Y169878D01*
X235796Y169892D01*
X235786Y169909D01*
X235707Y169976D01*
X235632Y170048D01*
X235614Y170056D01*
X235599Y170069D01*
X235503Y170108D01*
X235409Y170151D01*
X235389Y170153D01*
X235371Y170161D01*
X235204Y170179D01*
X224028Y170179D01*
X223938Y170165D01*
X223847Y170157D01*
X223817Y170145D01*
X223785Y170140D01*
X223705Y170097D01*
X223621Y170061D01*
X223589Y170035D01*
X223568Y170024D01*
X223549Y170005D01*
X223547Y170003D01*
X223541Y169998D01*
X223490Y169956D01*
X221458Y167924D01*
X221405Y167850D01*
X221345Y167781D01*
X221333Y167751D01*
X221314Y167725D01*
X221287Y167638D01*
X221253Y167553D01*
X221249Y167512D01*
X221242Y167489D01*
X221243Y167457D01*
X221235Y167386D01*
X221235Y148082D01*
X221238Y148062D01*
X221236Y148043D01*
X221258Y147941D01*
X221275Y147839D01*
X221284Y147822D01*
X221288Y147802D01*
X221341Y147713D01*
X221390Y147622D01*
X221404Y147608D01*
X221414Y147591D01*
X221493Y147524D01*
X221568Y147453D01*
X221586Y147444D01*
X221601Y147431D01*
X221697Y147392D01*
X221791Y147349D01*
X221811Y147347D01*
X221829Y147339D01*
X221996Y147321D01*
X235204Y147321D01*
X235224Y147324D01*
G37*
G36*
X216752Y145812D02*
X216752Y145812D01*
X216843Y145819D01*
X216873Y145831D01*
X216905Y145837D01*
X216985Y145879D01*
X217069Y145915D01*
X217101Y145941D01*
X217122Y145952D01*
X217144Y145975D01*
X217200Y146020D01*
X218216Y147036D01*
X218269Y147110D01*
X218329Y147179D01*
X218341Y147209D01*
X218360Y147235D01*
X218387Y147322D01*
X218421Y147407D01*
X218425Y147448D01*
X218432Y147471D01*
X218431Y147503D01*
X218439Y147574D01*
X218439Y149860D01*
X218425Y149950D01*
X218417Y150041D01*
X218405Y150071D01*
X218400Y150103D01*
X218357Y150183D01*
X218321Y150267D01*
X218295Y150299D01*
X218284Y150320D01*
X218261Y150342D01*
X218216Y150398D01*
X217200Y151414D01*
X217126Y151467D01*
X217057Y151527D01*
X217027Y151539D01*
X217001Y151558D01*
X216914Y151585D01*
X216829Y151619D01*
X216788Y151623D01*
X216765Y151630D01*
X216733Y151629D01*
X216662Y151637D01*
X211582Y151637D01*
X211562Y151634D01*
X211543Y151636D01*
X211441Y151614D01*
X211339Y151598D01*
X211322Y151588D01*
X211302Y151584D01*
X211213Y151531D01*
X211122Y151482D01*
X211108Y151468D01*
X211091Y151458D01*
X211024Y151379D01*
X210953Y151304D01*
X210944Y151286D01*
X210931Y151271D01*
X210892Y151175D01*
X210849Y151081D01*
X210847Y151061D01*
X210839Y151043D01*
X210821Y150876D01*
X210821Y146558D01*
X210824Y146538D01*
X210822Y146519D01*
X210844Y146417D01*
X210861Y146315D01*
X210870Y146298D01*
X210874Y146278D01*
X210927Y146189D01*
X210976Y146098D01*
X210990Y146084D01*
X211000Y146067D01*
X211079Y146000D01*
X211154Y145929D01*
X211172Y145920D01*
X211187Y145907D01*
X211283Y145868D01*
X211377Y145825D01*
X211397Y145823D01*
X211415Y145815D01*
X211582Y145797D01*
X216662Y145797D01*
X216752Y145812D01*
G37*
G36*
X216498Y165878D02*
X216498Y165878D01*
X216589Y165885D01*
X216619Y165897D01*
X216651Y165903D01*
X216731Y165945D01*
X216815Y165981D01*
X216847Y166007D01*
X216868Y166018D01*
X216890Y166041D01*
X216946Y166086D01*
X217962Y167102D01*
X218015Y167176D01*
X218075Y167245D01*
X218087Y167275D01*
X218106Y167301D01*
X218133Y167388D01*
X218167Y167473D01*
X218171Y167514D01*
X218178Y167537D01*
X218177Y167569D01*
X218185Y167640D01*
X218185Y170180D01*
X218171Y170270D01*
X218163Y170361D01*
X218151Y170391D01*
X218146Y170423D01*
X218103Y170503D01*
X218067Y170587D01*
X218041Y170619D01*
X218030Y170640D01*
X218007Y170662D01*
X217962Y170718D01*
X217200Y171480D01*
X217126Y171533D01*
X217057Y171593D01*
X217027Y171605D01*
X217001Y171624D01*
X216914Y171651D01*
X216829Y171685D01*
X216788Y171689D01*
X216765Y171696D01*
X216733Y171695D01*
X216662Y171703D01*
X211582Y171703D01*
X211562Y171700D01*
X211543Y171702D01*
X211441Y171680D01*
X211339Y171664D01*
X211322Y171654D01*
X211302Y171650D01*
X211213Y171597D01*
X211122Y171548D01*
X211108Y171534D01*
X211091Y171524D01*
X211024Y171445D01*
X210953Y171370D01*
X210944Y171352D01*
X210931Y171337D01*
X210892Y171241D01*
X210849Y171147D01*
X210847Y171127D01*
X210839Y171109D01*
X210821Y170942D01*
X210821Y166624D01*
X210824Y166604D01*
X210822Y166585D01*
X210844Y166483D01*
X210861Y166381D01*
X210870Y166364D01*
X210874Y166344D01*
X210927Y166255D01*
X210976Y166164D01*
X210990Y166150D01*
X211000Y166133D01*
X211079Y166066D01*
X211154Y165995D01*
X211172Y165986D01*
X211187Y165973D01*
X211283Y165934D01*
X211377Y165891D01*
X211397Y165889D01*
X211415Y165881D01*
X211582Y165863D01*
X216408Y165863D01*
X216498Y165878D01*
G37*
G36*
X245638Y145800D02*
X245638Y145800D01*
X245657Y145798D01*
X245759Y145820D01*
X245861Y145837D01*
X245878Y145846D01*
X245898Y145850D01*
X245987Y145903D01*
X246078Y145952D01*
X246092Y145966D01*
X246109Y145976D01*
X246176Y146055D01*
X246248Y146130D01*
X246256Y146148D01*
X246269Y146163D01*
X246308Y146259D01*
X246351Y146353D01*
X246353Y146373D01*
X246361Y146391D01*
X246379Y146558D01*
X246379Y150876D01*
X246376Y150896D01*
X246378Y150915D01*
X246356Y151017D01*
X246340Y151119D01*
X246330Y151136D01*
X246326Y151156D01*
X246273Y151245D01*
X246224Y151336D01*
X246210Y151350D01*
X246200Y151367D01*
X246121Y151434D01*
X246046Y151506D01*
X246028Y151514D01*
X246013Y151527D01*
X245917Y151566D01*
X245823Y151609D01*
X245803Y151611D01*
X245785Y151619D01*
X245618Y151637D01*
X240792Y151637D01*
X240702Y151623D01*
X240611Y151615D01*
X240581Y151603D01*
X240549Y151598D01*
X240469Y151555D01*
X240385Y151519D01*
X240353Y151493D01*
X240332Y151482D01*
X240310Y151459D01*
X240254Y151414D01*
X239238Y150398D01*
X239185Y150324D01*
X239125Y150255D01*
X239113Y150225D01*
X239094Y150199D01*
X239067Y150112D01*
X239033Y150027D01*
X239029Y149986D01*
X239022Y149963D01*
X239023Y149931D01*
X239015Y149860D01*
X239015Y147574D01*
X239030Y147484D01*
X239037Y147393D01*
X239049Y147363D01*
X239055Y147331D01*
X239097Y147251D01*
X239133Y147167D01*
X239159Y147135D01*
X239170Y147114D01*
X239193Y147092D01*
X239238Y147036D01*
X240254Y146020D01*
X240328Y145967D01*
X240397Y145907D01*
X240427Y145895D01*
X240453Y145876D01*
X240540Y145849D01*
X240625Y145815D01*
X240666Y145811D01*
X240689Y145804D01*
X240721Y145805D01*
X240792Y145797D01*
X245618Y145797D01*
X245638Y145800D01*
G37*
G36*
X216752Y155972D02*
X216752Y155972D01*
X216843Y155979D01*
X216873Y155991D01*
X216905Y155997D01*
X216985Y156039D01*
X217069Y156075D01*
X217101Y156101D01*
X217122Y156112D01*
X217144Y156135D01*
X217200Y156180D01*
X217962Y156942D01*
X218004Y157000D01*
X218053Y157051D01*
X218061Y157069D01*
X218075Y157085D01*
X218087Y157115D01*
X218106Y157141D01*
X218128Y157212D01*
X218156Y157274D01*
X218158Y157292D01*
X218167Y157313D01*
X218171Y157354D01*
X218178Y157377D01*
X218177Y157409D01*
X218185Y157480D01*
X218185Y160020D01*
X218171Y160110D01*
X218163Y160201D01*
X218151Y160231D01*
X218146Y160263D01*
X218103Y160343D01*
X218067Y160427D01*
X218041Y160459D01*
X218030Y160480D01*
X218007Y160502D01*
X217962Y160558D01*
X217200Y161320D01*
X217126Y161373D01*
X217057Y161433D01*
X217027Y161445D01*
X217001Y161464D01*
X216914Y161491D01*
X216829Y161525D01*
X216788Y161529D01*
X216765Y161536D01*
X216733Y161535D01*
X216662Y161543D01*
X211582Y161543D01*
X211562Y161540D01*
X211543Y161542D01*
X211441Y161520D01*
X211339Y161504D01*
X211322Y161494D01*
X211302Y161490D01*
X211213Y161437D01*
X211122Y161388D01*
X211108Y161374D01*
X211091Y161364D01*
X211024Y161285D01*
X210953Y161210D01*
X210944Y161192D01*
X210931Y161177D01*
X210892Y161081D01*
X210849Y160987D01*
X210847Y160967D01*
X210839Y160949D01*
X210821Y160782D01*
X210821Y156718D01*
X210824Y156698D01*
X210822Y156679D01*
X210844Y156577D01*
X210861Y156475D01*
X210870Y156458D01*
X210874Y156438D01*
X210927Y156349D01*
X210976Y156258D01*
X210990Y156244D01*
X211000Y156227D01*
X211079Y156160D01*
X211154Y156089D01*
X211172Y156080D01*
X211187Y156067D01*
X211283Y156028D01*
X211377Y155985D01*
X211397Y155983D01*
X211415Y155975D01*
X211582Y155957D01*
X216662Y155957D01*
X216752Y155972D01*
G37*
G36*
X245638Y155960D02*
X245638Y155960D01*
X245657Y155958D01*
X245759Y155980D01*
X245861Y155997D01*
X245878Y156006D01*
X245898Y156010D01*
X245987Y156063D01*
X246078Y156112D01*
X246092Y156126D01*
X246109Y156136D01*
X246176Y156215D01*
X246248Y156290D01*
X246256Y156308D01*
X246269Y156323D01*
X246308Y156419D01*
X246351Y156513D01*
X246353Y156533D01*
X246361Y156551D01*
X246379Y156718D01*
X246379Y160782D01*
X246376Y160802D01*
X246378Y160821D01*
X246356Y160923D01*
X246340Y161025D01*
X246330Y161042D01*
X246326Y161062D01*
X246273Y161151D01*
X246224Y161242D01*
X246210Y161256D01*
X246200Y161273D01*
X246121Y161340D01*
X246046Y161412D01*
X246028Y161420D01*
X246013Y161433D01*
X245917Y161472D01*
X245823Y161515D01*
X245803Y161517D01*
X245785Y161525D01*
X245618Y161543D01*
X240792Y161543D01*
X240702Y161529D01*
X240611Y161521D01*
X240581Y161509D01*
X240549Y161504D01*
X240469Y161461D01*
X240385Y161425D01*
X240353Y161399D01*
X240332Y161388D01*
X240310Y161365D01*
X240254Y161320D01*
X239238Y160304D01*
X239187Y160234D01*
X239147Y160191D01*
X239141Y160180D01*
X239125Y160161D01*
X239113Y160131D01*
X239094Y160105D01*
X239070Y160027D01*
X239043Y159968D01*
X239041Y159952D01*
X239033Y159933D01*
X239029Y159892D01*
X239022Y159869D01*
X239023Y159837D01*
X239015Y159766D01*
X239015Y157734D01*
X239030Y157644D01*
X239037Y157553D01*
X239049Y157523D01*
X239055Y157491D01*
X239097Y157411D01*
X239133Y157327D01*
X239159Y157295D01*
X239170Y157274D01*
X239193Y157252D01*
X239238Y157196D01*
X240254Y156180D01*
X240328Y156127D01*
X240397Y156067D01*
X240427Y156055D01*
X240453Y156036D01*
X240540Y156009D01*
X240625Y155975D01*
X240666Y155971D01*
X240689Y155964D01*
X240721Y155965D01*
X240792Y155957D01*
X245618Y155957D01*
X245638Y155960D01*
G37*
G36*
X245638Y166120D02*
X245638Y166120D01*
X245657Y166118D01*
X245759Y166140D01*
X245861Y166157D01*
X245878Y166166D01*
X245898Y166170D01*
X245987Y166223D01*
X246078Y166272D01*
X246092Y166286D01*
X246109Y166296D01*
X246176Y166375D01*
X246248Y166450D01*
X246256Y166468D01*
X246269Y166483D01*
X246308Y166579D01*
X246351Y166673D01*
X246353Y166693D01*
X246361Y166711D01*
X246379Y166878D01*
X246379Y170688D01*
X246376Y170706D01*
X246378Y170724D01*
X246378Y170725D01*
X246378Y170727D01*
X246356Y170829D01*
X246340Y170931D01*
X246330Y170948D01*
X246326Y170968D01*
X246273Y171057D01*
X246224Y171148D01*
X246210Y171162D01*
X246200Y171179D01*
X246121Y171246D01*
X246046Y171318D01*
X246028Y171326D01*
X246013Y171339D01*
X245917Y171378D01*
X245823Y171421D01*
X245803Y171423D01*
X245785Y171431D01*
X245618Y171449D01*
X240792Y171449D01*
X240702Y171435D01*
X240611Y171427D01*
X240581Y171415D01*
X240549Y171410D01*
X240469Y171367D01*
X240385Y171331D01*
X240353Y171305D01*
X240332Y171294D01*
X240329Y171291D01*
X240328Y171291D01*
X240309Y171270D01*
X240254Y171226D01*
X239238Y170210D01*
X239185Y170136D01*
X239125Y170067D01*
X239113Y170037D01*
X239094Y170011D01*
X239067Y169924D01*
X239033Y169839D01*
X239029Y169798D01*
X239022Y169775D01*
X239023Y169743D01*
X239015Y169672D01*
X239015Y167640D01*
X239018Y167617D01*
X239017Y167600D01*
X239031Y167535D01*
X239037Y167459D01*
X239049Y167429D01*
X239055Y167397D01*
X239065Y167378D01*
X239069Y167359D01*
X239104Y167300D01*
X239133Y167233D01*
X239159Y167201D01*
X239170Y167180D01*
X239185Y167166D01*
X239195Y167148D01*
X239212Y167134D01*
X239238Y167102D01*
X240000Y166340D01*
X240074Y166287D01*
X240143Y166227D01*
X240173Y166215D01*
X240199Y166196D01*
X240286Y166169D01*
X240371Y166135D01*
X240412Y166131D01*
X240435Y166124D01*
X240467Y166125D01*
X240538Y166117D01*
X245618Y166117D01*
X245638Y166120D01*
G37*
D10*
X156600Y190500D03*
X173600Y190500D03*
D11*
X260350Y156600D03*
X260350Y173600D03*
D12*
X187300Y120650D03*
X168300Y120650D03*
D13*
X139700Y166620D03*
X139700Y138180D03*
D14*
X214600Y168750D03*
X214600Y158750D03*
X214600Y148750D03*
X242600Y148750D03*
X242600Y158750D03*
X242600Y168750D03*
D15*
X228600Y158750D03*
D16*
X167300Y158750D03*
X188300Y158750D03*
X167300Y164750D03*
X167300Y170750D03*
X167300Y152750D03*
X167300Y146750D03*
X188300Y146750D03*
X188300Y152750D03*
X188300Y164750D03*
X188300Y170750D03*
X177800Y158750D03*
M02*
